<?xml version="1.0" encoding="iso-8859-1"?>
<!-- Generator: Adobe Illustrator 19.0.0, SVG Export Plug-In . SVG Version: 6.00 Build 0)  -->
<svg version="1.1" id="Capa_1" xmlns="http://www.w3.org/2000/svg" xmlns:xlink="http://www.w3.org/1999/xlink" x="0px" y="0px"
	 viewBox="0 0 512 512" style="enable-background:new 0 0 512 512;" xml:space="preserve">
<polygon points="512,208.787 413.213,110 242.5,110 196,256 242.5,402 512,402 "/>
<polygon style="fill:#012231;" points="0,110 0,303.213 98.787,402 242.5,402 242.5,110 "/>
<polygon style="fill:#FFFFFF;" points="122.5,181 92.5,181 92.5,306 122.5,306 122.5,241 152.5,241 152.5,211 122.5,211 "/>
<g>
	<path style="fill:#EFF6F9;" d="M402.295,258.734l-47.26-5.282c-3.156-0.353-5.535-3.019-5.535-6.202c0-3.446,2.804-6.25,6.25-6.25
		h73.75v-30h-73.75c-19.988,0-36.25,16.262-36.25,36.25c0,18.484,13.847,33.968,32.205,36.017l47.261,5.282
		c3.155,0.353,5.534,3.018,5.534,6.201c0,3.446-2.804,6.25-6.25,6.25H319.5v30h78.75c19.988,0,36.25-16.262,36.25-36.25
		C434.5,276.265,420.653,260.781,402.295,258.734z"/>
	<path style="fill:#EFF6F9;" d="M242.5,211l-10,15l10,15c16.542,0,30,13.458,30,30s-13.458,30-30,30l-10,15l10,15
		c33.084,0,60-26.916,60-60S275.584,211,242.5,211z"/>
</g>
<path style="fill:#FFFFFF;" d="M212.5,271c0-16.542,13.458-30,30-30v-30c-10.925,0-21.167,2.949-30,8.072V181h-30v150h30v-8.072
	c8.833,5.123,19.075,8.072,30,8.072v-30C225.958,301,212.5,287.542,212.5,271z"/>
<g>
</g>
<g>
</g>
<g>
</g>
<g>
</g>
<g>
</g>
<g>
</g>
<g>
</g>
<g>
</g>
<g>
</g>
<g>
</g>
<g>
</g>
<g>
</g>
<g>
</g>
<g>
</g>
<g>
</g>
</svg>
