<?xml version="1.0" encoding="UTF-8"?>
<svg xmlns="http://www.w3.org/2000/svg" viewBox="0 0 512 512" width="512" height="512"><g id="Fill_out_line" data-name="Fill out line"><rect x="136" y="432" width="240" height="64" style="fill:#03999c"/><path d="M288,304c0-32,88-16,88-112V94.90723H289.09277Z" style="fill:#f57a08"/><path d="M384,488c-40.14,5.02-83.41992-15.14014-110.12-30.87012-7.36-4.33008-13.46008-8.33008-17.88-11.37011-3.82,2.63037-8.88,5.97021-14.93,9.62011C214.69,471.31006,169.65,493.21,128,488c-64-8-56-88,0-128.43018,5.65-4.07959,11.14-7.71,16.44-10.96,35.99-22.06982,63.34-26.58007,74.3-34.96972C222.17,311.02979,224,308.02979,224,304c0-32-56-32-56-88V128c3.85-42.37012,21.28-64,88-64,86.23,0,88,48,88,112l3.03-3.03a16.97,16.97,0,0,1,28.97,12v3.54a16.96876,16.96876,0,0,1-10.66992,15.76L344,212.80005V216c0,56-56,56-56,88,0,4.02979,1.83008,7.02979,5.26,9.64014,12.58008,9.62988,46.72,14.13965,90.74,45.92968,1.15.83008,2.29,1.68018,3.4,2.56006C440.30005,403.27,446.67993,480.16016,384,488Z" style="fill:#f5a971"/><path d="M384,488c-51.19995,6.3999-107.52-28.16016-128-42.24023C235.52,459.83984,179.2,494.3999,128,488c-64-8-56-88,0-128.43018,30.944-22.3469,57.00584-31.21345,74.1284-37.85422,7.23549-2.80619,12.87473-5.21493,16.61159-8.07546L256,336l37.26-22.35986c3.73836,2.86166,9.3806,5.27118,16.62022,8.0788,17.1227,6.64041,43.181,15.50773,74.11977,37.85088C440,400,448,480,384,488Z" style="fill:#03999c"/><path d="M256,416l-53.87-94.28027c7.24-2.80957,12.88-5.21973,16.61-8.07959L256,336l37.26-22.35986c3.74,2.85986,9.38,5.27,16.62,8.07959Z" style="fill:#f3b73f"/><path d="M310.4,331.2002,272,360l-16-16-16,16-38.4-28.7998.53-9.48047c7.24-2.80957,12.88-5.21973,16.61-8.07959L256,336l37.26-22.35986c3.74,2.85986,9.38,5.27,16.62,8.07959Z" style="fill:#f57a08"/><path d="M336,360H312l8,16-64,64-64-64,8-16H176l-6.25-25.00977c12.74-5.97021,23.71-9.91015,32.38-13.2705L256,416l53.88-94.28027c8.67005,3.36035,19.64,7.30029,32.37,13.2705Z" style="fill:#0c6c71"/><path d="M357.08008,413.43018,357.02,487.93994c-42.74-4.94971-84.1001-30.5498-101.02-42.18017l-64.03-52.58985c9.51-3.75976,19.21-6.98974,27.80005-9.6001C267.49,392.68018,331.74,407.5,357.08008,413.43018Z" style="fill:#03999c"/><path d="M264,440s-55.27,42.99023-112,48.25V416c24-24,96-40,96-40v32c0,8.60986,4.63,17.21973,8.90991,23.33008A71.109,71.109,0,0,0,264,440Z" style="fill:#03999c"/><path d="M304,120c16,8,16,40,16,56s24,16,24,0l8-56Z" style="fill:#f57a08"/><path d="M304,120h72c16,0,16-96-112-96-112,0-104,40-104,80l-.12451,13.5L256,104Z" style="fill:#03999c"/><path d="M219.77,383.57c-8.59009,2.61-18.29,5.84-27.8,9.6-.17993,3.84-1.28,16.14-7.97,22.83-8,8-8,16-16,16-3.33008,0-5.27-2.76-5.25-6.57-4.15991,1.47-7.05.59-8.39014-1.7A9.8812,9.8812,0,0,1,152,424a7.87526,7.87526,0,0,1-6.72-4.57c-2.72.44-6-.15-9.28-3.43-8-8,0-40,32-40C176.90991,376,196.3501,379.1,219.77,383.57Z" style="fill:#f5a971"/><path d="M336,408H312c-21.60986,0-49.71,19.46-55.09009,23.33C252.62988,425.22,248,416.61,248,408V376c12.72-6.36,35.54-12.72,48.37988-7.02a15.68641,15.68641,0,0,1,5.42017,3.81,10.96909,10.96909,0,0,1,10.04,9.29c5.3999,1.94,9.86987,6.11,9.76,11.9C332.10986,396.84,336,402.42,336,408Z" style="fill:#f5a971"/><path d="M304,140a11.96392,11.96392,0,0,1-8.48535-3.51465C275.0293,116,254.729,116,224,116c-28.55225,0-49.92188,6.89258-63.51465,20.48535a12.0001,12.0001,0,0,1-16.9707-16.9707C161.772,101.25684,188.85107,92,224,92c32.71582,0,60.9707,0,88.48535,27.51465A12,12,0,0,1,304,140Z" style="fill:#084c4f"/><path d="M272,468a12,12,0,1,0,12,12A12.01343,12.01343,0,0,0,272,468Zm0,16a4,4,0,1,1,4-4A4.00427,4.00427,0,0,1,272,484Z"/><path d="M240,220a4,4,0,0,0,0-8h-4a8,8,0,0,1,0-16h4a4,4,0,0,0,0-8h-4a16,16,0,0,0,0,32Z"/><circle cx="280" cy="184" r="8"/><circle cx="200" cy="184" r="8"/><path d="M215.03967,159.68018,196.668,153.563a7.99914,7.99914,0,0,0-8.18878,1.938l-5.66394,5.67285A4,4,0,0,0,185.64594,168h28.045a4.26924,4.26924,0,0,0,1.34875-8.31982Z"/><path d="M291.52075,155.501a7.999,7.999,0,0,0-8.18872-1.938l-18.3717,6.11719A4.26922,4.26922,0,0,0,266.30908,168H294.354a4.00005,4.00005,0,0,0,2.83081-6.82617Z"/><path d="M261.17139,239.17188c-6.40039,6.40039-19.94239,6.40039-26.34278,0a3.99991,3.99991,0,0,0-5.65722,5.65624c4.75146,4.751,11.79,7.127,18.82861,7.127s14.07715-2.376,18.82861-7.127a3.99991,3.99991,0,0,0-5.65722-5.65624Z"/><path d="M388.67993,353.08984c-28.91992-20.88964-53.22-30.15966-70.99-36.9497C302.61,310.3999,296,307.50977,296,304c0-6.24023,7.54-9.91016,22.01-16.39014C344.29,275.83984,384,258.06006,384,192V124.99023c4.62-3.95019,7.27-11.5,7.27-21.22021C391.27,73.41016,364.66992,16,264,16c-49.77,0-80.56,7.7002-96.9,24.24023-15.68,15.87989-15.4,37.37989-15.16,56.42969.02,1.8999.05,3.81006.06,5.71a88.13482,88.13482,0,0,0-14.14,11.48A19.99882,19.99882,0,0,0,160,146.33008V216c0,35.87988,21.37,52.02979,36.97,63.83008C208.77,288.74023,216,294.66992,216,304c0,3.50977-6.61,6.3999-21.72,12.16016-17.74,6.77-42.04,16.04-70.96,36.91992C87.89,378.66016,68.39,421.50977,76.95,454.98c5.91,23.12012,23.69,37.66992,50.06,40.9502,4.87.60986,8.65.85986,20.99.85986v-4.27c18.49-1.12012,43.15-6.62012,73.79-21.93994a310.66732,310.66732,0,0,0,34.22-19.98C276.24,464.23,319.89,489.96973,364,492.5498V496.79c12.34009,0,16.47-.29,20.99-.85986,26.37-3.28028,44.15-17.83008,50.06006-40.9502C443.61,421.50977,424.11,378.66016,388.67993,353.08984ZM337.57007,337.23,332.88,356H312a4.0069,4.0069,0,0,0-3.58008,5.79L315.13,375.21l-1.12,1.12012a14.62363,14.62363,0,0,0-6.1001-5.83985A15.939,15.939,0,0,0,303.73,369.0498c-3.2-2.98974-7.59-4.91992-13-5.77l20.91-36.58985C312.23,326.91016,328.55005,333.12988,337.57007,337.23ZM304,396c17.90991,0,24.42993,4.37012,26.76,8H312c-19.79,0-44.22,15.08008-54.01,21.71C254.81,420.54,252,414.21,252,408V378.52c11.11-5.1001,26.5-8.98,37.16992-7.43994-.96.3999-1.93994.83008-2.96,1.33984a4.00265,4.00265,0,0,0,3.58008,7.16016c5.03-2.52,9.46-3.39014,12.75-2.58008a15.678,15.678,0,0,0-9.37012,4.16992,4.00234,4.00234,0,0,0,5.66016,5.66016c2.34985-2.3501,7.83984-2.64014,12.51-.6499a13.30887,13.30887,0,0,1,3.8999,2.48A89.08536,89.08536,0,0,0,304,388a4,4,0,0,0,0,8Zm-57.35-23.79c-1.23.28027-4.71,1.08984-9.7,2.39014l-11.89-20.8003,12.54,9.4004a4.00455,4.00455,0,0,0,5.23-.37012L256,349.66016l13.16992,13.16992A3.97669,3.97669,0,0,0,271.75,363.98,101.761,101.761,0,0,0,246.65,372.21Zm26.93006-8.5498a4.18388,4.18388,0,0,0,.81994-.46l12.53992-9.4004-5.15991,9.02A67.786,67.786,0,0,0,273.58008,363.66016Zm38.24-86.43018C328.75,264.33008,348,250,348,215.50977c4.3-1.71973,18.82007-7.52979,18.82007-7.52979a21.27717,21.27717,0,0,0,4.53992-2.51025C366.67993,252.6499,337.75,265.58008,311.82007,277.23ZM372,168.52a20.92864,20.92864,0,0,0-27.8,1.62012l-3.03,3.02978A4.004,4.004,0,0,0,340,176c0,5.91016-4.31006,8-8,8s-8-2.08984-8-8c0-10.9502-.02-28.98-4.93994-42.66992A16.05142,16.05142,0,0,0,319.47,124H372ZM175.64,48.66992C189.38,34.75977,218.28,28,264,28c37.90991,0,67.6,8.41992,88.25,25.00977,20.92993,16.82031,25.57007,36.80029,26.6,44.60009C380.40991,109.52,377.21,115.66992,376,116H314.61C286.15,88.02,257.33008,88,224,88c-23.56,0-43.63,4.1001-60.03,12.18994-.01-1.25976-.02-2.50976-.03-3.75976C163.71,78.2002,163.49,60.96973,175.64,48.66992Zm-17.98,84.99024A8.00454,8.00454,0,1,1,146.34,122.33984C163.82,104.85986,189.95,96,224,96c31.83,0,59.31006,0,85.65991,26.33984a8.0045,8.0045,0,0,1-11.31982,11.32032C276.68994,112,254.59,112,224,112,194.35,112,172.03,119.29,157.66,133.66016ZM204.21,270.25C189.11,258.83984,172,245.8999,172,216V132.3501C184.66,124.16016,202.08,120,224,120c30.79,0,49.37,0,68.68994,19.31006a15.982,15.982,0,0,0,20.39014,1.85986C315.99,152.81982,316,166.96,316,176c0,10.5,8.05,16,16,16,7.5,0,15.09009-4.89014,15.91992-14.27L349.86,175.7998A12.96849,12.96849,0,0,1,372,184.96973v3.54a12.90923,12.90923,0,0,1-8.15,12.04l-21.34,8.54a4.01238,4.01238,0,0,0-2.51,3.71V216c0,29.8999-17.11,42.83984-32.21,54.25C295.55005,279.5,284,288.23,284,304a14.39175,14.39175,0,0,0,2.81006,8.8501L256,331.33008l-30.81-18.48A14.39209,14.39209,0,0,0,228,304C228,288.23,216.45,279.5,204.21,270.25Zm14.66,48.14014,35.07,21.04a4.00865,4.00865,0,0,0,4.12006,0l35.06994-21.04A73.83408,73.83408,0,0,0,304.12,323.73l-7.18006,12.56982L272.38,354.71973l-13.54992-13.54981a4.00792,4.00792,0,0,0-5.6601,0l-13.55,13.54981L215.06,336.2998,207.88,323.73A73.837,73.837,0,0,0,218.87,318.39014Zm-18.51,8.2998L228.96,376.75c-2.9.81006-6.05,1.71-9.38,2.71q-12.705-2.41479-22.5-4.04l-.21-.21L203.58,361.79A4.00684,4.00684,0,0,0,200,356H179.12l-4.69-18.77C183.45,333.12988,199.77,326.91016,200.36,326.68994Zm-20.78,79.52a4.0076,4.0076,0,0,0-5.37-1.79c-8.98,4.49024-13.84,11.43018-15.12,17.73-.59.01026-1.12006-.1001-1.32-.50976-1.1-2.21.91-10.62012,12.45-18.31006a4.00221,4.00221,0,1,0-4.43994-6.66016c-10.46,6.97022-15.51,15.3999-16.17,22.04a5.99515,5.99515,0,0,1-1.27-2.31006c-1.44-4.75,1.45-12.79,13.87994-21.06982a4.00221,4.00221,0,1,0-4.43994-6.66016C153.22,391.71,139.72,401.79,139.97,414.16016a11.21542,11.21542,0,0,1-1.13995-.99024c-2.07-2.06982-2.56-8.5.25-15.29C141.3,392.5,148.58,380,168,380c6.12,0,18.04,1.56006,35.52,4.64014-4.31,1.48974-8.69,3.10009-13.03,4.81006a4.0075,4.0075,0,0,0-2.52,3.54c-.31995,6.78956-2.27,15.64991-6.8,20.17969a48.888,48.888,0,0,0-7.13,9.4502C171.3,427.0498,170.48,428,168,428c-.33,0-.82,0-1.12-1.25977-.85-3.60009,1.97-10.69043,10.91-15.16015A4.00733,4.00733,0,0,0,179.58,406.21Zm-51.09,77.81983c-21.13-2.63965-35.31-14.02-39.92-32.02979-3.43-13.41992-1.38-29.60986,5.76-45.58984,7.51-16.77,20.3-32.25,36.01-43.6001A251.843,251.843,0,0,1,167.05,340.71l5.07,20.25977A3.99182,3.99182,0,0,0,176,364h17.53l-5.04,10.06982C179.18,372.68018,172.39,372,168,372c-16.82,0-30.4,8.52979-36.31,22.81982-3.95,9.53028-3.35,19.17041,1.48,24.01026a14.679,14.679,0,0,0,10.03,4.71A11.33066,11.33066,0,0,0,152,428c.25,0,.49-.03027.74-.04a9.3047,9.3047,0,0,0,6.25,2.2002c.19,0,.39-.02.59-.03028A8.78173,8.78173,0,0,0,168,436c7.17,0,10.06-4.66992,12.85-9.18018a40.49865,40.49865,0,0,1,5.98-7.98974c6.45-6.46,8.38-16.79,8.95-22.8501A426.993,426.993,0,0,1,244,381.06006V408c0,12.99023,9.11,25.54,14.07007,31.3999C243.08,450.16016,182.34,490.75977,128.49,484.02979ZM423.42993,452C418.82007,470.00977,404.64,481.39014,383.5,484.02979c-46.09009,5.76025-96.63-22.65967-120.43994-38.33985,2.03992-1.48,3.22-2.39014,3.3999-2.52978a4.01482,4.01482,0,0,0,.37012-5.99024,62.1775,62.1775,0,0,1-4.26-4.91992C290.52,413.02,308.56006,412,312,412h23.51l31.52,7.87988a3.99929,3.99929,0,1,0,1.93994-7.75976l-29.3-7.33008c-.92993-4.46-4.2-10.3999-14.35986-13.87988a15.56691,15.56691,0,0,0-5.6001-8.96l3.12012-3.12012a4.00131,4.00131,0,0,0,.75-4.62012L318.47,364H336a3.99182,3.99182,0,0,0,3.88-3.03027L344.95,340.71a251.83348,251.83348,0,0,1,36.71,22.1001c15.71009,11.3501,28.5,26.83008,36.01,43.6001C424.81006,422.39014,426.86,438.58008,423.42993,452Z"/></g></svg>
