<?xml version="1.0" encoding="iso-8859-1"?>
<!-- Generator: Adobe Illustrator 19.0.0, SVG Export Plug-In . SVG Version: 6.00 Build 0)  -->
<svg version="1.1" id="Capa_1" xmlns="http://www.w3.org/2000/svg" xmlns:xlink="http://www.w3.org/1999/xlink" x="0px" y="0px"
	 viewBox="0 0 512 512" style="enable-background:new 0 0 512 512;" xml:space="preserve">
<path d="M256.005,0C256,0,196,256,196,256l60,256c141.39,0,256-114.615,256-256S397.39,0,256.005,0z"/>
<path style="fill:#012231;" d="M0,256c0,141.383,114.618,255.997,256,256V0C114.618,0.003,0,114.617,0,256z"/>
<path style="fill:#EFF6F9;" d="M256.001,196.002c-0.001,0-20.001,15-20.001,15l20,15c16.543,0,30.001,13.458,30.001,30
	s-13.458,30-30,30C256,286.002,236,305.664,236,305.664l20,10.338c33.085,0,60.001-26.916,60.001-60
	S289.085,196.002,256.001,196.002z"/>
<g>
	<path style="fill:#FFFFFF;" d="M256,226.002v-30c-10.924,0-21.167,2.949-29.999,8.072v-48.072h-30v100
		c0,33.084,26.915,60,59.999,60v-30c-16.542,0-29.999-13.458-29.999-30S239.458,226.002,256,226.002z"/>
	<path style="fill:#FFFFFF;" d="M120.001,195.134c-33.084,0-60,26.916-60,60s26.916,60,60,60c10.925,0,21.167-2.949,30-8.072v8.072
		h30v-60C180.001,222.05,153.085,195.134,120.001,195.134z M120.001,285.134c-16.542,0-30-13.458-30-30s13.458-30,30-30
		s30,13.458,30,30S136.543,285.134,120.001,285.134z"/>
</g>
<path style="fill:#EFF6F9;" d="M392.001,316.002c-33.084,0-60-26.916-60-60s26.916-60,60-60c24.397,0,46.173,14.578,55.478,37.139
	l-27.734,11.438c-4.654-11.285-15.544-18.577-27.744-18.577c-16.542,0-30,13.458-30,30s13.458,30,30,30
	c12.2,0,23.09-7.292,27.744-18.577l27.734,11.438C438.174,301.424,416.398,316.002,392.001,316.002z"/>
<g>
</g>
<g>
</g>
<g>
</g>
<g>
</g>
<g>
</g>
<g>
</g>
<g>
</g>
<g>
</g>
<g>
</g>
<g>
</g>
<g>
</g>
<g>
</g>
<g>
</g>
<g>
</g>
<g>
</g>
</svg>
