<?xml version="1.0" encoding="UTF-8"?>
<svg xmlns="http://www.w3.org/2000/svg" viewBox="0 0 512 512" width="512" height="512"><g id="Fill_out_line" data-name="Fill out line"><path d="M288,304c0-40,96-32,96-112V139.66667H288Z" style="fill:#084c4f"/><path d="M440,496H72c0-155.82,119.14-161.14,146.46-182.52C222,310.71,224,307.67,224,304c0-32-56-32-56-88,0-80-16-152,96-152,75.61,0,89.24,36.46,90.11,70,.42,16.14-2.11,31.6-2.11,42l3.03-3.03a16.972,16.972,0,0,1,24,0,17.04673,17.04673,0,0,1,4.97,12v3.54a16.96846,16.96846,0,0,1-10.67,15.76l-26.55,10.62C331.51,265.23,288,271.02,288,304a14.13568,14.13568,0,0,0,4.33,10.2C317.12,339.74,440,330.56,440,496Z" style="fill:#f5a971"/><path d="M440,496H72c0-128.07,80.48-154.47,124.31-171.69,1.38-.54,2.71-1.07,4.01-1.59,7.68-3.1,13.98-5.98,18.14-9.24L256,336l36.33-21.8c4.48,4.62,12.18,8.11,21.78,11.69.81.31,1.64.61,2.48.92C360.62,342.86,440,363.03,440,496Z" style="fill:#e7f2da"/><path d="M218.46,313.48,256,336l-16,32-43.69-43.69c1.38-.54,2.71-1.07,4.01-1.59C208,319.62,214.3,316.74,218.46,313.48Z" style="fill:#b1cdb4"/><path d="M314.11,325.89,272,368l-16-32,36.33-21.8C296.81,318.82,304.51,322.31,314.11,325.89Z" style="fill:#b1cdb4"/><path d="M440,496H72c0-97.07,46.23-135.73,87.7-156.26,2.45-1.21,4.88-2.35,7.28-3.45,12.29-5.59,23.87-9.74,33.34-13.57L256,448l60.59-121.19c8.36,3.05,18.01,6.25,28.14,10.35,2.44.98,4.9,2.01,7.39,3.12C393.63,358.64,440,394.37,440,496Z" style="fill:#03999c"/><path d="M344,56s8-32-96-32S128,48,128,88s48,48,104,48,88-40,88-40-8,80,32,80h32V120C384,96,392,56,344,56Z" style="fill:#084c4f"/><path d="M381.43,176,367.5,186.5,352,176l3.03-3.03a16.972,16.972,0,0,1,24,0A16.754,16.754,0,0,1,381.43,176Z" style="fill:#f5a971"/><circle cx="280" cy="184" r="8"/><circle cx="200" cy="184" r="8"/><path d="M215.03967,159.68024l-18.3717-6.11737a8,8,0,0,0-8.18878,1.93792l-5.66394,5.673A4,4,0,0,0,185.64594,168h28.045a4.26921,4.26921,0,0,0,1.34875-8.31976Z"/><path d="M266.30908,168h28.045a4,4,0,0,0,2.83069-6.82617l-5.66394-5.673a8,8,0,0,0-8.18878-1.93792l-18.3717,6.11737A4.26921,4.26921,0,0,0,266.30908,168Z"/><path d="M236,220h4a4,4,0,0,0,0-8h-4a8,8,0,0,1,0-16h4a4,4,0,0,0,0-8h-4a16,16,0,0,0,0,32Z"/><path d="M220.0542,240.65771a3.997,3.997,0,0,0,4.60351,3.28809l33.48975-5.58154a8.46146,8.46146,0,1,1-1.28467,16.37353l-7.59765-2.53271a4.00025,4.00025,0,0,0-2.53028,7.58984l7.59815,2.53272a16.60822,16.60822,0,0,0,5.25781.8623,16.47039,16.47039,0,1,0-2.75879-32.71728l-33.48974,5.58154A4.001,4.001,0,0,0,220.0542,240.65771Z"/><path d="M272,92a4,4,0,0,0,0,8c8.39209,0,34.502-8.05957,43.57764-26.21094a4,4,0,0,0-7.15528-3.57812C301.3457,84.36475,279.40869,92,272,92Z"/><path d="M304,60c-16.19629,0-32.94434,0-49.78906,8.42236a4,4,0,1,0,3.57812,7.15528C272.94434,68,288.0293,68,304,68a4,4,0,0,0,0-8Z"/><path d="M240,60a3.98881,3.98881,0,0,0,2.82861-1.17139c16.73828-16.73877,41.8169-13.064,59.90625-7.03369a4.00025,4.00025,0,1,0,2.53028-7.58984c-29.0127-9.66944-52.55713-6.56934-68.09375,8.96631A4,4,0,0,0,240,60Z"/><path d="M340,120.00146a4.00061,4.00061,0,0,0,4,3.99756h.00146A3.999,3.999,0,0,0,348,120c0-2.626-.25732-25.91406-9.17139-34.82861a4.00026,4.00026,0,0,0-5.65722,5.65722C338.1333,95.79,339.99316,111.356,340,120.00146Z"/><path d="M356,120a4,4,0,0,0,8,0c0-24.49268,0-33.65674-9.17139-42.82861a4.00026,4.00026,0,0,0-5.65722,5.65722C355.74951,89.40625,356,95.45166,356,120Z"/><path d="M352,436H320a4,4,0,0,0,0,8h32a4,4,0,0,0,0-8Z"/><path d="M148,424a4,4,0,0,0-8,0v72h8Z"/><path d="M372,424a4,4,0,0,0-8,0v72h8Z"/><path d="M326.33643,323.92139C305.68457,316.61328,294,312.08447,294,304c0-12.375,13.07593-19.49542,32.47656-29.31055,13.86084-7.01269,29.5708-14.96045,41.90235-27.40185C382.92773,232.60986,390,214.5249,390,192V120c0-2.76025.11182-5.7832.23-8.9834.59229-16.04,1.32959-36.00293-11.1499-48.95215-6.75977-7.01367-16.65723-10.99853-29.47217-11.87793a22.52888,22.52888,0,0,0-4.2793-8.59863C333.10791,25.936,300.36182,18,248,18c-50.82666,0-83.32031,5.70752-102.25928,17.9624C124.82031,49.499,122,69.86426,122,88c0,21.07617,11.375,37.5,40.59869,46.52386-1.87011,16.77424-1.45288,35.27784-1.00543,54.7652C161.79346,197.98877,162,206.98486,162,216c0,34.87793,20.062,50.04346,36.18213,62.229C210.46924,287.51709,218,293.731,218,304c0,5.46-13.98975,10.89453-28.80078,16.64795-22.53076,8.75244-53.3877,20.73926-78.55567,46.51709C81.02,397.50586,66,440.85205,66,496H78c0-52.63623,13.48633-92.03613,41.22949-120.45166,13.04267-13.35846,27.98908-22.82318,42.39179-30.03424l10.5838,31.751A4.00013,4.00013,0,0,0,176,380h16.52588l-11.854,17.78125a3.99981,3.99981,0,0,0,.23242,4.75146l72,88a3.99931,3.99931,0,0,0,6.1914,0l72-88a3.99981,3.99981,0,0,0,.23242-4.75146L319.47412,380H336a4.00013,4.00013,0,0,0,3.79492-2.73486l10.42182-31.26551C390.41272,363.92316,434,398.34882,434,496h12C446,366.26855,371.09229,339.75977,326.33643,323.92139Zm-75.57081,13.603L238.9043,361.24756l-30.75086-30.75134-1.69787-3.82013a81.36148,81.36148,0,0,0,14.09143-7.28284Zm39.23078-17.2572c3.98743,3.33228,9.27991,6.07666,15.42944,8.64978L273.0957,361.24756l-11.86132-23.72315Zm-52.825,50.5614a4.00053,4.00053,0,0,0,6.40625-1.03955L256,344.94434l12.42236,24.84472a4.00039,4.00039,0,0,0,6.40625,1.03955l30.57025-30.57025-49.186,98.37152L217.205,350.86224Zm86.8009-108.32306c10.36493-10.33392,21.11523-23.43664,27.66492-43.09588,0,0,21.42528-8.50342,24.42663-9.80225C369.30255,238.42688,345.86975,251.38092,323.97229,262.50555ZM134,88c0-32.8623,8.39453-58,114-58,62.2334,0,81.44922,11.50146,87.36426,18.35742,2.78906,3.23242,2.8125,5.72461,2.772,6.31348a5.50621,5.50621,0,0,0,.88965,5.06445A5.91442,5.91442,0,0,0,344,62c12.34912,0,20.99756,2.74512,26.43945,8.39209,8.93994,9.27588,8.3335,25.69531,7.79834,40.18164C378.11572,113.8877,378,117.01807,378,120v44.79413a22.95669,22.95669,0,0,0-27.21338,3.9339l-1.14844,1.14843c-26.47151-1.87646-25.01172-59.73437-23.668-73.27929a6.00206,6.00206,0,0,0-10.64843-4.354C315.01709,92.62109,284.28564,130,232,130c-32.40723,0-54.94482-2.74219-70.92578-8.62988C142.603,114.56494,134,103.96143,134,88Zm71.41846,180.65625C189.97217,256.98,174,244.90625,174,216c0-9.15283-.2085-18.21924-.40967-26.98682-.42328-18.43072-.82556-35.96441.75611-51.553C189.4538,140.5354,208.26556,142,232,142c39.1377,0,66.9209-18.31885,81.3457-30.84814C313.16667,143.66667,321,182,352,182a6.00143,6.00143,0,0,0,4.24268-1.75732l3.02929-3.0293A10.97051,10.97051,0,0,1,378,184.9707v3.53955a10.91784,10.91784,0,0,1-6.897,10.186l-26.55323,10.624a5.99974,5.99974,0,0,0-3.51269,3.8291c-7.34082,24.19971-21.68408,37.4961-34.33887,49.22754C293.99707,274.15137,282,285.27246,282,304a19.5233,19.5233,0,0,0,2.66412,10.1366L256,331.33545l-29.29773-17.579A15.6293,15.6293,0,0,0,230,304C230,287.23828,217.50342,277.7915,205.41846,268.65625ZM333.11719,372H312a3.99988,3.99988,0,0,0-3.32812,6.21875l14.35888,21.53809L256,481.68311l-67.03076-81.92627,14.35888-21.53809A3.99988,3.99988,0,0,0,200,372H178.88281l-9.9898-29.97021c8.78186-4.03016,17.91223-7.56282,30.147-12.34107l53.30475,119.93579a4.0004,4.0004,0,0,0,3.56445,2.37451c.03027.00049.061.001.09131.001a4.00021,4.00021,0,0,0,3.57715-2.21094L317.6817,333.58142c12.9255,4.60818,18.02155,6.38666,25.14856,9.27808Z"/></g></svg>
