<?xml version="1.0" encoding="iso-8859-1"?>
<!-- Generator: Adobe Illustrator 19.0.0, SVG Export Plug-In . SVG Version: 6.00 Build 0)  -->
<svg version="1.1" id="Capa_1" xmlns="http://www.w3.org/2000/svg" xmlns:xlink="http://www.w3.org/1999/xlink" x="0px" y="0px"
	 viewBox="0 0 512 512" style="enable-background:new 0 0 512 512;" xml:space="preserve">
<polygon style="fill:#9DA8AD;" points="422,86 312,256 422,426 452,426 452,86 "/>
<polygon points="279.787,86 226,139.787 176,256 226,373.133 271,328.133 271,426 422,426 422,86 "/>
<polygon style="fill:#012231;" points="172.213,86 0,86 0,426 151,426 181,328.133 226,373.133 226,139.787 "/>
<polygon style="fill:#D1DEE4;" points="406.507,168.986 391.493,143.014 218.493,243.014 233.507,268.986 331,212.632 331,366 
	361,366 361,195.291 "/>
<polygon style="fill:#9DA8AD;" points="151,298.133 151,426 181,426 181,328.133 "/>
<polygon style="fill:#D1DEE4;" points="479.597,206.963 436.371,321.537 409.839,259.401 376.483,259.401 422,366 452,366 
	512,206.963 "/>
<g>
</g>
<g>
</g>
<g>
</g>
<g>
</g>
<g>
</g>
<g>
</g>
<g>
</g>
<g>
</g>
<g>
</g>
<g>
</g>
<g>
</g>
<g>
</g>
<g>
</g>
<g>
</g>
<g>
</g>
</svg>
