<?xml version="1.0" encoding="iso-8859-1"?>
<!-- Generator: Adobe Illustrator 19.0.0, SVG Export Plug-In . SVG Version: 6.00 Build 0)  -->
<svg version="1.1" id="Capa_1" xmlns="http://www.w3.org/2000/svg" xmlns:xlink="http://www.w3.org/1999/xlink" x="0px" y="0px"
	 viewBox="0 0 512 512" style="enable-background:new 0 0 512 512;" xml:space="preserve">
<polygon style="fill:#AAE8FD;" points="512,353.518 512,0 482,9.286 422,256 482,362.804 "/>
<polygon style="fill:#EFF6F9;" points="482,362.804 482,9.286 396.786,35.663 376.786,256 396.786,389.181 "/>
<polygon style="fill:#FFFFFF;" points="396.786,389.181 396.786,35.663 366.786,44.949 346.786,256 366.786,398.467 "/>
<polygon style="fill:#AAE8FD;" points="366.786,398.467 366.786,44.949 281.571,71.326 221.571,256 281.571,424.844 "/>
<polygon style="fill:#EFF6F9;" points="281.571,424.844 281.571,81.326 251.571,90.612 231.571,266 251.571,434.13 "/>
<polygon style="fill:#5CD4FF;" points="251.571,434.13 251.571,80.612 182.714,101.925 152.714,256 182.714,455.443 "/>
<polygon style="fill:#014059;" points="152.714,464.73 182.714,328.408 182.714,238.408 152.714,111.212 98.857,127.882 
	78.857,304.641 98.857,481.4 "/>
<rect x="152.71" y="268.41" style="fill:#FFFFFF;" width="30" height="30"/>
<polygon style="fill:#012231;" points="98.857,481.4 98.857,127.882 68.857,137.168 48.857,256 68.857,490.686 "/>
<g>
	<polygon style="fill:#EFF6F9;" points="182.714,455.443 182.714,328.408 152.714,328.408 152.714,464.73 	"/>
	<polygon style="fill:#EFF6F9;" points="152.714,111.212 152.714,238.408 182.714,238.408 182.714,101.925 	"/>
</g>
<polygon style="fill:#2B3758;" points="68.857,490.686 68.857,137.168 30,149.196 15,325.955 30,502.714 "/>
<polygon style="fill:#012231;" points="30,149.196 0,158.482 0,512 30,502.714 "/>
<g>
</g>
<g>
</g>
<g>
</g>
<g>
</g>
<g>
</g>
<g>
</g>
<g>
</g>
<g>
</g>
<g>
</g>
<g>
</g>
<g>
</g>
<g>
</g>
<g>
</g>
<g>
</g>
<g>
</g>
</svg>
