<?xml version="1.0" encoding="UTF-8"?>
<svg xmlns="http://www.w3.org/2000/svg" viewBox="0 0 512 512" width="512" height="512"><g id="Fill_out_line" data-name="Fill out line"><path d="M247.9744,109.79l99.91307,109.84743L232,272c-21.125-5.375-34.625-1.875-44.85061,1.11408-6.98272,1.53238-21.77439-2.98908-21.00265-18.10326,2.18659-24.59415-11.31341-15.84415-14.08536-33.29873C150.12276,207.42419,174.33333,176,167.9798,136V109.79Z" style="fill:#795033"/><path d="M464,496H176V448c-26.57007,0-48.76-12.39014-66.79-32.56006C146.16992,321.24,248,336.74,248,304c0-32-56-32-56-88V144c0-48,19.71-80,96-80,112,0,88,80,88,112l3.03027-3.03A16.96973,16.96973,0,0,1,408,184.97v3.54a16.9684,16.9684,0,0,1-10.66992,15.76l-26.54981,10.62012C355.50977,265.23,312,272,312,304,312,344,464,312,464,496Z" style="fill:#f5a971"/><path d="M464,496H176V448C88,448,48,312,48,208c0-8,8-24,24-24h48.12012c-.31006,5.47-.48,11.10986-.48,16.85986C119.62988,259.2,136.71,328,192,328q4.53,0,8.6499-.26h.01A111.53008,111.53008,0,0,0,214.24,326.07007a81.14745,81.14745,0,0,0,8.16992-1.94019,62.43426,62.43426,0,0,0,11.39014-4.48,55.98149,55.98149,0,0,0,91.76.91016,115.353,115.353,0,0,0,11.22021,4.81982c2.43946.94019,5.01953,1.87012,7.69971,2.82007,4.85986,1.73,10.08008,3.55,15.52979,5.57007C404.5498,350.33984,464,380.91992,464,496Z" style="fill:#03999c"/><path d="M344.25321,132.81581c1.33012,8.80919,7.87179,17.22586,7.91523,27.01575,0,14.33511-18.97763,21.91844-18.97763,36.56457,0,11.35387,15.968,23.60387,15.968,34.63391,0,10.76163-5.40879,11.97-9.44834,18.27917-2.71045,4.56579-4.47419,9.68649,2.59421,15.37152,20.19534,14.1526,34.05807-2.18085,44.71-2.18085,10.652.16679,26.69969,14.87269,37.00916,3.51974s-6.60207-24.94216-6.97963-37.81422,7.32814-19.53773,6.97529-34.7049A48.09468,48.09468,0,0,0,415.9798,168l2.01532-21.79687L350,113.81865Z" style="fill:#795033"/><path d="M120.12012,184c-.31006,5.47-.48,11.10986-.48,16.85986C103.18994,240,48,239.77,48,208c0-8,8-24,24-24Z" style="fill:#0c6c71"/><path d="M64.721,229.57387l.26416-2.57189c3.17271-27.45845-10.30255-54.443-9.41392-82.0698.12617-3.92243.58849-7.97837,2.59072-11.35364a11.4859,11.4859,0,0,1,4.67882-4.38778l.404-1.65306c1.13647-3.61986,2.339-7.35876,4.86552-10.18922a10.89454,10.89454,0,0,1,5.10642-3.21608l.1921-.28155a32.77439,32.77439,0,0,1,5.95838-6.77939A13.44407,13.44407,0,0,1,82.8796,105.067l.286-.34107c2.9805-3.32939,5.57187-7.12035,9.28361-9.60858s9.06433-3.30531,12.47533-.41856l.44836.46376C105.42465,85.36934,116.71225,84.71225,128,96c8,8,8,16,0,40-4.94177,14.82531-8.3571,38.80852-8.36056,64.87836C109.03317,226.08223,82.35777,234.94831,64.721,229.57387Z" style="fill:#f5a971"/><path d="M264,496H176V432c24,0,24-64,24-104l.6499-.26h.01A111.53008,111.53008,0,0,0,214.24,326.07007a81.14745,81.14745,0,0,0,8.16992-1.94019,62.43426,62.43426,0,0,0,11.39014-4.48A56.06139,56.06139,0,0,0,249.74,335.12012C264,376.32007,264,422.03,264,496Z" style="fill:#f3b73f"/><path d="M384,432v64H296c0-73.96,0-119.66992,14.25977-160.87012a56.296,56.296,0,0,0,15.30029-14.56982,115.353,115.353,0,0,0,11.22021,4.81982c2.43946.94019,5.01953,1.87012,7.69971,2.82007,4.85986,1.73,10.08008,3.55,15.52979,5.57007C360.0498,373.85986,361.12012,432,384,432Z" style="fill:#f3b73f"/><ellipse cx="276" cy="252" rx="12" ry="20" style="fill:#ea5003"/><path d="M399.91016,88.03C408,100.8501,408,112.83008,408,128L176,88c8-48,32-64,120-64S432,72,400,88Z" style="fill:#0c6c71"/><path d="M167.9798,136c48-16,136-40,248,32,16,8,24-33.26287,0-49.26287-64-40-168-62.73713-248-30.73713C151.9798,96,151.9798,144,167.9798,136Z" style="fill:#03999c"/><circle cx="304" cy="184" r="8"/><circle cx="224" cy="184" r="8"/><path d="M268,216a4.0002,4.0002,0,0,0-4-4h-4a8,8,0,0,1,0-16h4a4,4,0,0,0,0-8h-4a16,16,0,0,0,0,32h4A4.0002,4.0002,0,0,0,268,216Z"/><path d="M240,364a4,4,0,0,0,0-8H216a4,4,0,0,0,0,8Z"/><path d="M248,396H208a4,4,0,0,0,0,8h40a4,4,0,0,0,0-8Z"/><path d="M248,436H192a4,4,0,0,0,0,8h56a4,4,0,0,0,0-8Z"/><path d="M248,476H192a4,4,0,0,0,0,8h56a4,4,0,0,0,0-8Z"/><path d="M344,364a4,4,0,0,0,0-8H320a4,4,0,0,0,0,8Z"/><path d="M308,400a4.0002,4.0002,0,0,0,4,4h40a4,4,0,0,0,0-8H312A4.0002,4.0002,0,0,0,308,400Z"/><path d="M368,436H312a4,4,0,0,0,0,8h56a4,4,0,0,0,0-8Z"/><path d="M368,476H312a4,4,0,0,0,0,8h56a4,4,0,0,0,0-8Z"/><path d="M276,228c-5.37207,0-10.32422,3.87109-13.24707,10.35645a3.99976,3.99976,0,0,0,7.293,3.2871C271.61523,238.16211,273.89648,236,276,236c3.77637,0,8,6.84277,8,16s-4.22363,16-8,16c-2.10352,0-4.38477-2.16211-5.9541-5.64355a3.99976,3.99976,0,0,0-7.293,3.2871C265.67578,272.12891,270.62793,276,276,276c8.97168,0,16-10.542,16-24S284.97168,228,276,228Z"/><path d="M253.16992,84.85938h-.58984a236.844,236.844,0,0,0-49.05176,4.917,3.9999,3.9999,0,0,0-3.11426,3.25683l-2.67968,16.10059a3.99982,3.99982,0,0,0,3.94531,4.65625,4.04646,4.04646,0,0,0,.876-.09668,272.03334,272.03334,0,0,1,48.39649-6.52734,3.99926,3.99926,0,0,0,3.77344-3.33692l2.38964-14.31055a3.9997,3.9997,0,0,0-3.94531-4.65917ZM247.36621,99.332a277.90056,277.90056,0,0,0-40.77539,5.31348l1.26367-7.58985a228.159,228.159,0,0,1,40.58692-4.16308Z"/><path d="M368.79492,227.34009c-1.37207,4.97,6.34375,7.09082,7.71387,2.12671,1.65967-6.01319-.03223-11.86426-2.01514-17.56543-1.915-5.50537-4.03955-11.00074-1.15771-16.553,2.96826-5.719,6.01074-10.75318,5.59277-17.46753a24.47507,24.47507,0,0,0-7.45361-16.32031c-3.73389-3.54322-9.40088,2.10424-5.65674,5.65674a16.47706,16.47706,0,0,1,5.1167,13.144c-.37647,5.833-4.898,10.12964-6.44287,15.60791-1.54151,5.46728-.11719,11.07544,1.67138,16.28857C367.80127,217.031,370.20508,222.231,368.79492,227.34009Z"/><path d="M391.23682,175.83179c3.03857,1.989,2.94043,6.65551,2.53076,9.8352-.69776,5.41895-2.61621,10.56079-1.79785,16.10156.793,5.36524,4.34619,8.59864,7.01709,13.01783a14.7137,14.7137,0,0,1,.91943,13.34741c-.877,1.97241-.57324,4.29809,1.43506,5.47266,1.70459.99707,4.59033.54882,5.47265-1.43506a23.09237,23.09237,0,0,0,1.0044-17.27368,27.52238,27.52238,0,0,0-4.27344-7.4397c-1.77881-2.33032-3.53808-4.5896-3.792-7.61133-.48438-5.75977,2.22656-11.33789,2.18359-17.1123-.041-5.50586-1.92382-10.70923-6.66211-13.81055C390.9541,166.09619,386.94141,173.02026,391.23682,175.83179Z"/><path d="M428.75977,366.10986C404.16992,340.85986,374.71,330.42993,350.98,322.02,333.66992,315.8999,320,311.06006,320,304c0-12.05,8.28125-19.8125,20.31006-31.07007,16.27327,9.9034,30.09619,4.10132,38.96.22,7.25081-3.29573,8.14665-3.25407,17.08008.40015,8.61963,3.53979,23.04,9.48,33.58984-2.15015,10.09033-11.09985,3.7002-23.60986-.52978-31.90991-6.08315-10.24-5.03516-14.42749-1.5503-24.53,4.72347-11.91829,6.22347-25.16829.4502-40.41992a20.19914,20.19914,0,0,0,6.37012-6.91992C442.45833,154.5,442.5,123.25,415.28027,108.95a59.37712,59.37712,0,0,0-4.93017-18.3,21.40443,21.40443,0,0,0,6.9497-21.77C414.2002,55.74,400.2002,42.49,378.89014,32.54,362.73,25,335.23,16,296,16c-45.06006,0-72.31006,4.04-91.12988,13.51-18.78,9.45-29.74024,24.72-35.23,49.28C147.375,84.125,144.33008,121.60986,151.46,135.90991c1.91016,3.78,4.83171,7.04842,9.3999,8.46021,1.31006,20.28979-5.51977,38.53979-10.60986,52.15991-3.97,10.61011-7.1001,18.99-6.10986,26.30981,1.65153,10.61849,6.82983,14.90015,10.25,17.75,3.00976,2.51026,4.65153,3.86849,3.76977,14.01026C157.74,262.78,160.74,270.01,166.59009,274.96c4.76,4.03,13.90991,8.04,22.97,5.78,6.60986-1.92993,15.53-4.5,28.43994-3.16992,14.8125,10.99243,21.89014,17.01,22,26.24C239.21,306.68994,228.37012,320,192,320c-16.72,0-30.53-7.3999-41.04-21.99-13.1001-18.17017-21.24-47.72-22.90991-83.2-1.53-32.48,2.68994-61.71,7.54-76.28,6.99-20.96,10.62988-35.63013-1.93018-48.17993C122.58333,79.20833,108.375,75.6875,100.77,84.93994a20.231,20.231,0,0,0-10.02,1.98c-5.12988,2.41992-8.95833,6.91341-12.84009,11.66016-4.05,2.21-7.26,5.74-9.74,8.93994C60.6001,111.10986,57.62012,118.90991,56,123.95c-9.3999,7.2-8.66992,21.88013-8.3501,28.38989.52,10.59009,2.62012,20.92017,4.73,30.93018C44.24,190.15991,40,200.48,40,208c0,57.18994,11.8501,117.8501,31.68994,162.27,23.47,52.52,56.68018,81.90991,96.31006,85.38989V496h12V435.53247c23.35645-5.60181,23.98291-61.15308,23.99951-104.03393,16.55982-1.42676,28.10913-5.75513,35.71778-10.771C259.99805,365.73682,260,413.17993,260,496h8c0-58.25049-.002-99.24023-7.0127-134.41626a76.01025,76.01025,0,0,0,38.0254,0C292.002,396.75977,292,437.74951,292,496h8c0-82.11377.00391-129.45068,19.77-174.11963,6.99365,4.30078,16.56836,7.69336,27.26025,11.47949,2.90821,1.03028,5.91016,2.09424,8.979,3.21387.13916,45.92334,2.47851,93.77295,23.99072,98.95483V496h8V400a4,4,0,0,0-8,0v26.94067c-7.00391-3.87475-10.69678-17.73364-12.6084-29.65258-2.67627-16.69214-3.26562-37.35035-3.36914-57.69776,18.6333,7.26416,38.936,17.22656,56.1377,34.89966C446.96973,402.02,460,441.77,460,496h12C472,438.49,457.85986,396,428.75977,366.10986ZM308,304a17.74675,17.74675,0,0,0,5.27588,12.80078c-2.36426,5.19116-4.46436,10.40088-6.33252,15.67529a52.00509,52.00509,0,0,1-53.88672.00025c-2.02539-5.71875-4.32568-11.36109-6.93726-16.98657C249.96471,311.45882,251.90625,307.65625,252,304c0-15.7666-11.55469-24.501-23.78711-33.748C213.11328,258.83789,196,245.90137,196,216V144c0-4.35229.1792-8.4917.51514-12.37109a256.95845,256.95845,0,0,1,71.36865-8.62989,250.87221,250.87221,0,0,1,72.92139,12.93116c6.91009,20.074,12.94482,24.06982-1.08252,39.3706C323,193.16667,329.3125,203.9375,337.95508,216.21387c11.23242,15.25054,7.66992,20.16113,2.64551,25.67871-6.41309,6.73242-9.1045,13.43164-5.91358,19.85449C318.46875,276.5625,308,287,308,304ZM186.23193,65.86865a356.13177,356.13177,0,0,1,95.71338-4.21533c48.53565,4.52661,89.05713,19.02,120.51612,43.092.12939.59351.25048,1.18921.35888,1.78858-30.874-16.52979-67.23388-28.4983-104.24023-34.11988-42.1084-6.39892-82.05176-4.15307-116.61035,6.43384A83.345,83.345,0,0,1,186.23193,65.86865ZM344.56738,211.71c-8.65071-12.46-11.23405-17.71,1.22168-31.19336,10.29427-12.5166,15.04427-17.80827,4.48731-41.27124a328.40072,328.40072,0,0,1,62.86425,31.69116c4.276,7.23015,10.98438,21.626,3.40918,40.01075-6.96647,17.4694-2.2998,25.30273,2.17676,34.00293,4.24219,8.31835,6.625,13.65722,2.33594,18.38085-4.56641,5.02637-10.65625,3.02149-20.14746-.88085-13.37337-5.7002-16.165-4.66895-26.42285-.30372-8.72168,3.793-17.73926,7.7129-29.78223-.665-4.374-3.55665-5.21-6.41895,1.74609-14.13868C352.5,240.75,359.66667,231.91667,344.56738,211.71ZM166.71484,132.20508c-1.71734.6482-3.13672,1.29492-4.52539-1.68164-4.9414-9.88379-1.374-34.24219,7.44629-38.87793,36.50293-14.5586,80.665-18.47559,127.74317-11.32227,42.22754,6.415,83.57226,21.249,116.42968,41.77442,14.46485,9.68652,15.89649,30.17578,10.48731,39.49609-2.59863,4.48047-5.1211,3.51563-6.34082,2.9209-23.752-15.24951-51.58008-28.76465-72.9541-35.61182A259.32687,259.32687,0,0,0,268.0752,115.001C227.1748,114.043,193.877,123.15234,166.71484,132.20508ZM373.81006,43.41992c17.43017,8.14014,29.62012,18.9502,31.81006,28.21,1.06006,4.51953-.43164,8.14844-4.52246,11.05884-4.98828-6.89429-12.21973-14.031-22.69727-21.88892a4.00039,4.00039,0,0,0-4.80078,6.4004C385.396,76.04712,392.6333,83.668,397.06543,91.07764,366.04053,70.44458,327.65527,57.88208,282.6875,53.6875a368.42235,368.42235,0,0,0-91.62964,3.20264,46.58441,46.58441,0,0,1,8.186-9.34571,385.196,385.196,0,0,1,75.57153-2.51611c30.69629,2.0918,58.87793,7.958,83.76074,17.43555a4.00026,4.00026,0,0,0,2.84766-7.47657c-25.62305-9.75878-54.5791-15.79492-86.06348-17.9414a394.5078,394.5078,0,0,0-59.2876.604C232.98926,31.00146,258.10938,28,296,28,333.03027,28,358.75,36.37988,373.81006,43.41992ZM186.12012,269.25c-2.68262.625-8.33887-.46875-11.78-3.45-2.99-2.53-4.40015-6.06006-4.2-10.48,1.2998-14.86011-2.7002-19.47-8.08008-23.96021-2.83008-2.35986-5.07007-4.23-6.03-10.2-.56006-4.32983,2.23-11.78979,5.47-20.46,5.86475-15.68555,13.86426-37.09546,10.886-61.94214,5.09643-1.66723,10.4082-3.32275,15.94189-4.90088C188.11792,137.10474,188,140.48608,188,144v72c0,24.12891,9.95239,38.59277,21.37549,49.22729A84.15021,84.15021,0,0,0,186.12012,269.25ZM124.21,134.73c-5.26172,15.77759-8.35767,40.17358-8.47217,65.07129-9.252,21.36645-30.78076,29.72266-46.75634,26.70312,1.353-16.96337-2.321-33.28906-5.7461-49.89648-1.91162-9.26953-3.60693-18.62109-3.70166-28.1145-.04175-4.19727-.21-9.18506,2.082-12.896,1.915-3.10034,5.31739-4.40454,8.217-1.83813,2.86451,2.5354,6.19947,7.55737,6.08423,11.5105-.03808,1.31274-.49878,3.386-1.94238,3.86816-.65381.21851-1.71.02515-1.90723-.65356-1.43261-4.93433-9.155-2.83521-7.71411,2.127a9.51656,9.51656,0,0,0,11.69653,6.25244,10.81235,10.81235,0,0,0,7.011-6.917c3.43457-.82227,8.64754-2.40511,11.43872-4.92212a28.543,28.543,0,0,0,6.67237,9.80346,3.99957,3.99957,0,1,0,5.65624-5.65624c-5.78808-5.78907-7.10742-11.69825-4.15136-18.59668,2.69629-6.291,8.38672-11.98145,12.15136-15.74708a3.999,3.999,0,0,0,.5-5.04687c-6.791-10.18652-6.665-16.15918-4.99023-17.53223,1.90137-1.55761,8.1145-.13964,14.83276,6.57813l-.00073.00293C131.37012,105.02,132.1001,111.08008,124.21,134.73Zm-29.624-5.42993a76.95027,76.95027,0,0,0-7.252-11.2771c-1.853-2.53882-3.77954-5.27832-6.59643-6.82056,2.43921-2.36157,5.41431-3.96216,8.4563-1.87573,4.417,3.02979,5.69507,9.31738,8.38891,13.77051A35.178,35.178,0,0,0,94.58594,129.30005ZM83.44922,141.54443a29.76523,29.76523,0,0,0-6.665-12.09326,14.30206,14.30206,0,0,0-8.33154-4.92773c.9812-2.55249,2.35864-4.98169,4.79077-6.13867,3.991-1.8982,6.2727,2.34448,8.25537,5.17749,2.6145,3.73559,5.62988,7.904,7.0957,12.25976.25073.74512.83716,2.2356.542,3.03662C88.80588,139.74118,86.851,140.4902,83.44922,141.54443ZM95.87012,97.77a7.14638,7.14638,0,0,1,5.59985-.51c.01318.00561.02686.00928.04.01489.48218,4.13306,2.28394,8.94092,5.40894,14.17237-1.30176,1.33886-2.728,2.866-4.155,4.54687C99.84131,110.30835,97.53223,104.02,91.28516,101.416A15.75677,15.75677,0,0,1,95.87012,97.77ZM58.644,193.81689a123.15286,123.15286,0,0,1,2.52246,29.94C56.51953,221.19287,52,216.5127,52,208,52,204.561,54.13428,198.41943,58.644,193.81689ZM193.04,394.43457c-3.0708,21.49756-8.26025,29.82886-13.04,32.49219V400a4,4,0,0,0-8,0v43.88281c-36.33008-1.83545-67.19458-28.91577-89.3501-78.51269-16.97705-37.99781-27.89746-88.42359-30.19165-138.03955,3.855,3.41284,11.54175,7.7583,22.94312,7.7583a52.29289,52.29289,0,0,0,40.63891-20.17823C118,262.25,131,290.8501,141.22,305.03c12.90015,17.88989,30.9467,28.13664,54.77905,26.91748C195.98779,351.57568,195.81152,375.03442,193.04,394.43457ZM280,356a67.65011,67.65011,0,0,1-20.96875-3.32007q-1.155-4.78821-2.51367-9.46a60.06577,60.06577,0,0,0,46.96484-.00073q-1.36083,4.6765-2.51367,9.46045A67.66455,67.66455,0,0,1,280,356Z"/><path d="M209.646,168H237.691a4.26916,4.26916,0,0,0,1.34863-8.31976L220.668,153.56287a7.99991,7.99991,0,0,0-8.18872,1.93792l-5.66407,5.673A4,4,0,0,0,209.646,168Z"/><path d="M290.30912,168H318.354a3.99992,3.99992,0,0,0,2.83057-6.82617l-5.66358-5.673a8.00032,8.00032,0,0,0-8.189-1.93792l-18.37158,6.11737A4.26922,4.26922,0,0,0,290.30912,168Z"/></g></svg>
