<?xml version="1.0" encoding="UTF-8"?>
<svg xmlns="http://www.w3.org/2000/svg" viewBox="0 0 512 512" width="512" height="512"><g id="Fill_out_line" data-name="Fill out line"><path d="M384,112v80c0,80-96,72-96,112L172.8,112l-4.8-8c0-40,40-80,96-80C336,24,384,56,384,112Z" style="fill:#03999c"/><path d="M440,496H72c0-165.43994,122.88-156.26,147.67-181.8A14.13557,14.13557,0,0,0,224,304c0-32-56-32-56-88V120s28.76-56,96-56c61.61,0,82.06,24.2,88,51.31006l-12,23.35986L352,176l3.03-3.03a16.97,16.97,0,0,1,28.97,12v3.54a16.96872,16.96872,0,0,1-10.67,15.76l-26.55,10.62012C331.51,265.23,288,271.02,288,304a14.13557,14.13557,0,0,0,4.33,10.2C317.12,339.74,440,330.56006,440,496Z" style="fill:#f5a971"/><path d="M440,496H72c0-129.64014,75.45-152.06006,120.04-167.98,12.31-4.39014,22.27-8.29,27.63-13.82007L256,336l36.33-21.8c5.36,5.53,15.32,9.42993,27.63,13.83008C364.55,343.93994,440,366.35986,440,496Z" style="fill:#f57a08"/><path d="M384,112H168v-8c0-40,40-80,96-80a205.02,205.02,0,0,1,37.97,3.3501C352.38,36.90991,384,66.55005,384,112Z" style="fill:#03999c"/><path d="M319.96,328.03,272,360l-16-16-16,16-47.96-31.98c12.31-4.39014,22.27-8.29,27.63-13.82007L256,336l36.33-21.8C297.69,319.73,307.65,323.62988,319.96,328.03Z" style="fill:#084c4f"/><polygon points="344 400 312 400 312 432 328 440 344 432 344 400" style="fill:#ea5003"/><polygon points="200 400 168 400 168 432 184 440 200 432 200 400" style="fill:#ea5003"/><path d="M304,112c24,0,24,40,24,64,0,16,24,16,24,0V112Z" style="fill:#03999c"/><path d="M252,232c8,0,17.97044,2,22.46305,6,0,0-2.12407,13.33333-7.819,18-2.87221,2.35362-9.81019,3.64738-14.64406,3.68885-4.83388-.04147-11.77185-1.33523-14.64407-3.68885-5.69491-4.66667-7.819-18-7.819-18C234.02956,234,244,232,252,232Z" style="fill:#e37066"/><path d="M301.96,27.35986C288.46,50.91992,288,81.1001,288,104l-.11,8H168v-8c0-40,40-80,96-80,.79,0,1.58,0,2.36.01q5.985.06006,11.73.41992A189.92883,189.92883,0,0,1,301.63,27.29C301.74,27.31006,301.85,27.33008,301.96,27.35986Z" style="fill:#f3b73f"/><ellipse cx="216" cy="76" rx="24" ry="12" style="fill:#b1cdb4"/><rect x="104" y="104" width="200" height="16" rx="7.99999" ry="7.99999" style="fill:#084c4f"/><circle cx="280" cy="184" r="8"/><circle cx="200" cy="184" r="8"/><path d="M215.03967,159.68018,196.668,153.563a7.99956,7.99956,0,0,0-8.18878,1.93774l-5.66394,5.6731A4,4,0,0,0,185.64594,168h28.045a4.26924,4.26924,0,0,0,1.34875-8.31982Z"/><path d="M266.30908,168h28.045a4,4,0,0,0,2.83069-6.82617l-5.66394-5.6731A7.99956,7.99956,0,0,0,283.332,153.563l-18.3717,6.11719A4.26924,4.26924,0,0,0,266.30908,168Z"/><path d="M236,220h4a4,4,0,0,0,0-8h-4a8,8,0,0,1,0-16h4a4,4,0,0,0,0-8h-4a16,16,0,0,0,0,32Z"/><circle cx="256" cy="380" r="4"/><circle cx="256" cy="428" r="4"/><path d="M344,396H312a4.0002,4.0002,0,0,0-4,4v32a4.00138,4.00138,0,0,0,2.21094,3.57812l16,8a4.00436,4.00436,0,0,0,3.57812,0l16-8A4.00138,4.00138,0,0,0,348,432V400A4.0002,4.0002,0,0,0,344,396Zm-16,39.52832-12-6V404h24v8H328a4,4,0,0,0,0,8h12v9.52832Z"/><path d="M200,396H168a4.0002,4.0002,0,0,0-4,4v32a4.00138,4.00138,0,0,0,2.21094,3.57812l16,8a4.00436,4.00436,0,0,0,3.57812,0l16-8A4.00138,4.00138,0,0,0,204,432V400A4.0002,4.0002,0,0,0,200,396Zm-16,39.52832-12-6V404h24v8H184a4,4,0,0,0,0,8h12v9.52832Z"/><path d="M216,92c15.9624,0,28-6.87891,28-16s-12.0376-16-28-16-28,6.87891-28,16S200.0376,92,216,92Zm0-24c12.209,0,20,4.73828,20,8s-7.791,8-20,8-20-4.73828-20-8S203.791,68,216,68Z"/><path d="M225.58691,238.62891c.2417,1.51855,2.55616,14.99218,9.23389,20.46484,4.33936,3.55566,13.11231,4.56055,17.21338,4.59473,4.03271-.03418,12.80566-1.03907,17.14551-4.59473,6.67724-5.47266,8.9917-18.94629,9.2334-20.46484a3.999,3.999,0,0,0-1.29053-3.61621C271.68213,230.168,260.58447,228,252,228s-19.68213,2.168-25.12256,7.0127A3.999,3.999,0,0,0,225.58691,238.62891ZM252,236c6.894,0,14.09082,1.55469,18.04785,3.77246-1.0376,4.63867-3.166,10.86035-5.939,13.13379-1.76026,1.44238-7.43457,2.74219-12.07471,2.78223-4.7085-.04-10.38281-1.33985-12.14258-2.78223-2.76025-2.26172-4.89258-8.49121-5.93652-13.13574C237.9126,237.55371,245.10791,236,252,236Z"/><path d="M148,424a4,4,0,0,0-8,0v72h8Z"/><path d="M372,424a4,4,0,0,0-8,0v72h8Z"/><circle cx="256" cy="476" r="4"/><path d="M320.51331,332.46509c25.57,9.03491,53.016,18.77514,75.64733,42.02026C422.96826,402.02148,436,441.76953,436,496h12c0-57.51172-14.144-99.998-43.24121-129.88574C364.41667,323.16667,296,320,296,304c0-6.5.46484-11.89258,31.37842-27.52637C354.6499,262.67871,392,243.78418,392,192V112c0-29.21875-12.17871-53.64648-35.21924-70.64453C334.29541,24.76758,302.2124,16,264,16c-28.15137,0-54.46143,9.54395-74.083,26.874C173.29541,57.55469,162.78516,76.64258,160.48486,96H112a16,16,0,0,0,0,32h48v88c0,35.876,21.36865,52.03125,36.97314,63.82715C208.77,288.73828,216,294.67383,216,304c0,16.33333-66.33333,18-108.75928,62.11426C78.144,396.002,64,438.48828,64,496H76c0-54.23047,13.03174-93.97852,39.83887-121.51465,22.63183-23.24512,50.5778-33.152,75.648-42.02L236,362.14062V496h8V361.65674l12-11.99951,12,11.99951V496h8V362.14062Zm1.4486-66.69947c-3.21252,1.62476-6.39245,3.23487-9.46807,4.87549,12.92283-11.72444,29.24151-27.10693,37.534-52.74072l24.79-9.91894a21.192,21.192,0,0,0,4.05707-2.16285C373.139,239.84888,346.12793,253.5415,321.96191,265.76562ZM380,168.52441a20.91723,20.91723,0,0,0-27.79932,1.61817l-3.02929,3.0293A4,4,0,0,0,348,176c0,5.90527-4.30957,8-8,8s-8-2.09473-8-8c0-18.62817-.00159-46.44678-11.00409-60H380ZM297.65692,76.00024,308.00018,65.657,318.34326,76,308,86.34326ZM302.34326,92l-8,8h-2.33978c.01337-5.49414.0835-11.56055.42-17.91968Zm43.31348,0L356,81.65674,366.34326,92,356,102.34326Zm4.68652,16H329.65674L340,97.65674ZM340,86.34326,329.65674,76,340,65.65674,350.34326,76Zm-16-16L313.65686,60l10.3432-10.34326L334.34326,60ZM308,97.65674,318.34326,108H307.29993a12.033,12.033,0,0,0-4.08051-5.56274ZM313.65674,92,324,81.65674,334.34326,92,324,102.34326Zm66.24762,16H361.65674L372,97.65674l7.75067,7.75073Q379.84772,106.69543,379.90436,108ZM367.81451,69.84229a70.10283,70.10283,0,0,1,7.07343,13.613L372,86.34326,361.65674,76Zm-4.85986-6.45362L356,70.34326,345.65674,60l6.81109-6.811A76.69831,76.69831,0,0,1,362.95465,63.38867ZM332.61682,41.04a99.86648,99.86648,0,0,1,13.3114,7.375L340,54.34326,329.6568,44Zm-28.55774-9.16773c.90979.18946,1.83063.36744,2.72711.57056L318.34332,44l-10.3432,10.34326-9.39056-9.39038A85.23887,85.23887,0,0,1,304.05908,31.87231Zm-1.71564,28.12793-8.79333,8.79322a140.08943,140.08943,0,0,1,2.60376-14.98291Zm-104.4826-8.13208C215.28809,36.47656,238.77637,28,264,28a206.04331,206.04331,0,0,1,31.844,2.35645C285.58234,51.36011,284.13452,76.01807,284.01105,100H172.176C173.43115,82.69751,182.68768,65.26929,197.86084,51.86816ZM112,116a4,4,0,0,1,0-8H296a4,4,0,0,1,0,8Zm92.208,154.25391C189.11133,258.84082,172,245.90527,172,216V124H296a12.01009,12.01009,0,0,0,11.16748-7.63867C323.99084,120.17773,324,154.81689,324,176c0,10.50391,8.04883,16,16,16,7.50146,0,15.09033-4.89258,15.92432-14.26758l1.93359-1.93359A12.97064,12.97064,0,0,1,380,184.9707v3.54a12.90964,12.90964,0,0,1-8.15381,12.043l-26.55322,10.624a3.99978,3.99978,0,0,0-2.3418,2.55274c-7.498,24.7168-22.05224,38.209-34.89306,50.11328C295.14893,275.81055,284,286.14551,284,304a17.45373,17.45373,0,0,0,2.416,9.08594L256,331.335l-30.41559-18.249A17.45622,17.45622,0,0,0,228,304C228,288.22656,216.44238,279.49609,204.208,270.25391Zm68.30176,84.59863-13.68116-13.68066a3.9997,3.9997,0,0,0-5.65722,0l-13.68116,13.68066-38.68414-25.78906c7.82721-2.9917,14.53931-6.06153,19.33862-9.91211l33.79718,20.27832a3.99876,3.99876,0,0,0,4.11622,0l33.7984-20.27906c4.79724,3.84815,11.50732,6.91822,19.33838,9.91211Z"/></g></svg>
