<?xml version="1.0" encoding="iso-8859-1"?>
<!-- Generator: Adobe Illustrator 19.0.0, SVG Export Plug-In . SVG Version: 6.00 Build 0)  -->
<svg version="1.1" id="Capa_1" xmlns="http://www.w3.org/2000/svg" xmlns:xlink="http://www.w3.org/1999/xlink" x="0px" y="0px"
	 viewBox="0 0 512 512" style="enable-background:new 0 0 512 512;" xml:space="preserve">
<path style="fill:#2B3758;" d="M284.27,234.002L403.682,46.874C361.953,17.353,311.004,0,256,0c-10.811,0-21.463,0.678-31.921,1.979
	L284.27,234.002z"/>
<path d="M351.602,493.547l-0.003-0.011c-0.008,0.003-0.015,0.006-0.023,0.009L351.602,493.547z"/>
<path style="fill:#012231;" d="M512,256c0-32.396-6.033-63.379-17.011-91.908L307.75,324.51l43.849,169.026
	C445.626,455.657,512,363.586,512,256z"/>
<path style="fill:#2B3758;" d="M88.376,62.507C34.24,109.446,0,178.724,0,256c0,94.975,51.72,177.87,128.531,222.058
	l109.153-171.052L88.376,62.507z"/>
<path style="fill:#012231;" d="M351.602,493.547l-82.832-135.64l-140.239,120.15l0,0l0,0C166.066,499.65,209.59,512,256,512
	c33.79,0,66.043-6.561,95.576-18.455l0,0L351.602,493.547z"/>
<g>
</g>
<g>
</g>
<g>
</g>
<g>
</g>
<g>
</g>
<g>
</g>
<g>
</g>
<g>
</g>
<g>
</g>
<g>
</g>
<g>
</g>
<g>
</g>
<g>
</g>
<g>
</g>
<g>
</g>
</svg>
