<?xml version="1.0" encoding="UTF-8"?>
<svg xmlns="http://www.w3.org/2000/svg" viewBox="0 0 512 512" width="512" height="512"><g id="Fill_out_line" data-name="Fill out line"><path d="M312,48c32-24,64-24,88,0s24,80-24,80Z" style="fill:#f57a08"/><path d="M328,48c16-8,33.5-1.25,48,16s8,40,0,56Z" style="fill:#03999c"/><path d="M387.99,212.01C360,288,288,274.12012,288,304L184,248c-56-16-64-224,72-224,36.93994,0,59.14014,6.32007,73.08008,15.71,13.23,8.91992,19.02,20.6001,22.91992,32.29,8.5,2.12988,28.09009,22.62988,38.17993,53.92993C397.81006,149.55005,400.02,179.33008,387.99,212.01Z" style="fill:#f57a08"/><path d="M440,496H72c0-159.08008,113.62012-156.71,144.39014-179C221.21,313.50977,224,309.41992,224,304c0-32-56-32-56-88V144c3.02-46.59009,19.71-80,96-80,112,0,88,80,88,112l3.03-3.03a16.97,16.97,0,0,1,28.97,12v3.54a16.96876,16.96876,0,0,1-10.66992,15.76l-26.55,10.62012C331.51,265.23,288,271.02,288,304c0,5.41992,2.79,9.50977,7.60986,13C326.37988,339.29,440,336.91992,440,496Z" style="fill:#f5a971"/><path d="M440,496H72c0-109.50977,53.84009-142.50977,97.43994-159.72021,2.77-1.09961,5.51-2.12989,8.18994-3.10987C193.97,327.16016,208.1499,322.96973,216.39014,317h79.21972c8.24024,5.96973,22.42017,10.16016,38.76026,16.16992,2.67993.98,5.41992,2.01026,8.18994,3.10987C386.15991,353.49023,440,386.49023,440,496Z" style="fill:#03999c"/><path d="M168,152c8-48,96-32,152-56,8,16,8,64,8,80s24,16,24,0l11.88225-72L284,37.5,168,82.3278Z" style="fill:#f57a08"/><path d="M256,336c24,0,47.75,0,55.823-10.97317C316.33333,318.66667,312,312,304,312c-12,0-12-16,0-16s12-16,0-16H208c-12,0-12,16,0,16s12,16,0,16c-8,0-12.33333,6.66667-7.823,13.02683C208.25,336,232,336,256,336Z" style="fill:#03999c"/><path d="M261.19336,229.15039C260.90527,229.42969,253.96484,236,240,236a4,4,0,0,0,0,8c17.45605,0,26.4541-8.79688,26.82812-9.17188a3.99972,3.99972,0,0,0-5.63476-5.67773Z"/><path d="M280,68c14.82617,0,30.06152,7.50293,30.21094,7.57812a4.00046,4.00046,0,0,0,3.57812-7.15624C313.10059,68.07812,296.752,60,280,60a4,4,0,0,0,0,8Z"/><path d="M288,52c7.582,0,20.27051,0,32.69727,16.28223a3.99995,3.99995,0,1,0,6.35937-4.85352C312.22949,44,296.46777,44,288,44a4,4,0,0,0,0,8Z"/><path d="M354.084,110.90723A32.57656,32.57656,0,0,1,356,120a4,4,0,0,0,8,0c0-.7207-.19531-17.85156-17.17188-34.82812a3.99957,3.99957,0,0,0-5.65624,5.65624A52.9631,52.9631,0,0,1,354.084,110.90723Z"/><path d="M163.57812,466.21094C159.68066,458.417,156,451.05566,156,440c0-21.917,14.625-36.96582,14.833-37.17676a3.99957,3.99957,0,0,0-5.66113-5.65136C164.4707,397.87305,148,414.63477,148,440c0,12.94434,4.28125,21.50781,8.42188,29.78906C160.31934,477.583,164,484.94434,164,496h8C172,483.05566,167.71875,474.49219,163.57812,466.21094Z"/><path d="M355.57812,469.78906C359.71875,461.50781,364,452.94434,364,440c0-25.36523-16.4707-42.127-17.17188-42.82812a3.99957,3.99957,0,0,0-5.65624,5.65624C341.32031,402.97656,356,417.91211,356,440c0,11.05566-3.68066,18.417-7.57812,26.21094C344.28125,474.49219,340,483.05566,340,496h8C348,484.94434,351.68066,477.583,355.57812,469.78906Z"/><path d="M178.05762,363.42969a3.99957,3.99957,0,0,0-4.11524-6.85938,139.30324,139.30324,0,0,0-16.033,11.18262l-2.8313-2.83105a3.99957,3.99957,0,0,0-5.65624,5.65624l2.42138,2.42139a120.70673,120.70673,0,0,0-12.16479,12.96826l-8.85035-8.85058a3.99957,3.99957,0,1,0-5.65624,5.65625l9.64624,9.64648a124.47946,124.47946,0,0,0-9.855,16.69531l-11.9436-11.94335a3.99957,3.99957,0,0,0-5.65625,5.65624l14.07739,14.07715a150.03352,150.03352,0,0,0-5.39624,15.3667l-11.10009-11.10009a3.99957,3.99957,0,0,0-5.65625,5.65624l14.40332,14.40333q-1.62012,6.91187-2.78077,14.28955l-10.34912-10.34912a3.99957,3.99957,0,0,0-5.65625,5.65624l14.67505,14.6753q-.71375,6.48412-1.09521,13.32568l-9.657-9.65722a3.99957,3.99957,0,0,0-5.65624,5.65624L108.061,489.71729Q108.00025,492.82495,108,496h8C116,430.958,135.71973,388.833,178.05762,363.42969Z"/><path d="M403.939,489.71729l14.88916-14.88917a3.99957,3.99957,0,0,0-5.65624-5.65624l-9.657,9.65722q-.39-6.83423-1.09521-13.32568l14.67505-14.6753a3.99957,3.99957,0,0,0-5.65625-5.65624L401.08936,455.521q-1.15393-7.38722-2.78077-14.28955l14.40332-14.40333a3.99957,3.99957,0,0,0-5.65625-5.65624L395.95557,432.272a150.03352,150.03352,0,0,0-5.39624-15.3667l14.07739-14.07715a3.99957,3.99957,0,0,0-5.65625-5.65624l-11.9436,11.94335a124.47946,124.47946,0,0,0-9.855-16.69531l9.64624-9.64648a3.99957,3.99957,0,1,0-5.65624-5.65625l-8.85035,8.85058a120.70673,120.70673,0,0,0-12.16479-12.96826l2.42138-2.42139a3.99957,3.99957,0,0,0-5.65624-5.65624l-2.8313,2.83105a139.30324,139.30324,0,0,0-16.033-11.18262,3.99957,3.99957,0,1,0-4.11524,6.85938C376.28027,388.833,396,430.958,396,496h8Q404,492.82422,403.939,489.71729Z"/><path d="M200,356a4.0002,4.0002,0,0,0-4,4v6.34375l-9.17188-9.17187A3.99988,3.99988,0,0,0,180,360V496a4,4,0,0,0,8,0v-6.34375l9.16943,9.16943a4.0019,4.0019,0,0,0,.61231.501c.09888.06592.206.11133.30932.168a4.0207,4.0207,0,0,0,.37867.19922,3.90555,3.90555,0,0,0,.4082.127c.11328.0332.22168.07715.33862.1001a3.91941,3.91941,0,0,0,1.5669,0c.11718-.02344.22583-.0669.33911-.10059a2.33515,2.33515,0,0,0,.78735-.32617c.10279-.05615.20972-.10156.30835-.16748a4.0113,4.0113,0,0,0,1.10864-1.10889c.0647-.09668.10865-.20117.16382-.30175a2.34448,2.34448,0,0,0,.3291-.79151c.0337-.11426.07764-.22314.10108-.34131A4.00558,4.00558,0,0,0,204,496V360A4.0002,4.0002,0,0,0,200,356Zm-12,85.65625,8,8v12.6875l-8-8Zm0-11.3125v-12.6875l8,8v12.6875Zm0-24v-12.6875l8,8v12.6875Zm8-28.6875v12.6875l-8-8V369.65723Zm-8,88,8,8v12.6875l-8-8Z"/><path d="M329.53027,356.30469a3.995,3.995,0,0,0-4.35839.86719L316,366.34375V360a4,4,0,0,0-8,0V496a4.00558,4.00558,0,0,0,.0791.7832c.02319.11768.06714.22608.10059.33936a3.84853,3.84853,0,0,0,.12646.40723,3.94381,3.94381,0,0,0,.20215.38427c.05542.10108.09985.20655.1648.30371a4.0113,4.0113,0,0,0,1.10864,1.10889c.09888.06592.20605.11133.30932.168a4.0207,4.0207,0,0,0,.37867.19922,3.90555,3.90555,0,0,0,.4082.127c.11328.0332.22168.07715.33862.1001a3.91941,3.91941,0,0,0,1.5669,0c.11718-.02344.22583-.0669.33911-.10059a2.33515,2.33515,0,0,0,.78735-.32617c.10279-.05615.20972-.10156.30835-.16748a4.0019,4.0019,0,0,0,.61231-.501L324,489.65625V496a4,4,0,0,0,8,0V360A3.99919,3.99919,0,0,0,329.53027,356.30469ZM324,454.34375l-8,8v-12.6875l8-8Zm0-24-8,8v-12.6875l8-8Zm0-24-8,8v-12.6875l8-8Zm0-36.68652v12.68652l-8,8v-12.6875Zm-8,116.68652v-12.6875l8-8v12.6875Z"/><path d="M339.45093,339.36523c18.78808,7.28321,39.33032,17.27,56.7102,35.12012C422.96,402.0127,435.98828,441.76074,435.99023,496h12c-.002-57.52051-14.14257-100.00684-43.23144-129.88574-24.584-25.25-53.13379-35.48926-83.10254-45.97754a14.90536,14.90536,0,0,0-1.67578-7.21192C317.0918,307.33594,311.11816,304,304,304c11.042,0,17-8.24316,17-16q0-.583-.043-1.16406c24.59961-10.26465,57.18555-24.94532,74.53223-72.06055,10.16211-27.57129,11.66992-56.50488,4.43262-84.02051A41.488,41.488,0,0,0,419.794,109.10547c8.64257-20.873,2.43066-50.19727-14.14063-66.75684-21.73828-21.751-49.44434-26.29-78.30469-12.93652C310.544,20.3916,287.15234,16,256,16c-34.18262,0-62.10742,12.11914-82.999,36.02246-21.82129,24.98438-30.0625,56.38965-33.13282,78.335-3.30761,23.62305-2.38769,48.32227,2.58985,69.54883,4.873,20.78027,13.44043,37.43945,24.19726,47.11426,6.93164,14.34082,18.17481,23.55859,27.89942,30.97265A15.64461,15.64461,0,0,0,191,288c0,7.75684,5.958,16,17,16-7.11816,0-13.0918,3.33594-15.98438,8.93164a14.88056,14.88056,0,0,0-1.66992,7.20606c-30.179,10.6123-58.5205,20.72656-83.10449,45.97656C78.15234,395.99316,64.01172,438.47949,64.00977,496h12c.00195-54.23926,13.03027-93.9873,39.8291-121.51465,17.37622-17.84619,37.91357-27.83252,56.71045-35.12012C185.25244,351.15186,203.47217,357.33984,220,360.561V496h8v-6.34375L234.34375,496H244V363.59619c5.03662.32227,9.2002.40381,12,.40381s6.96338-.08154,12-.40381V496h9.65625L284,489.65625V496h8V360.561C308.52808,357.33984,326.7478,351.15186,339.45093,339.36523ZM397.169,50.834c13.16894,13.16016,18.34472,37.24122,11.53906,53.67676a29.37347,29.37347,0,0,1-16.02393,16.37354,135.29157,135.29157,0,0,0-6.63037-15.5354c4.939-17.40943,2.54956-32.57325-6.99219-43.9231-12.783-15.20947-27.54931-22.40527-41.802-20.45459q-1.06713-.93458-2.20825-1.83887C358.30176,29.35327,379.68433,33.34033,397.169,50.834ZM380.14062,94.87524c-8.74414-13.94116-18.335-23.05786-24.97851-25.98657a70.36018,70.36018,0,0,0-10.49927-20.05273c9.53589,1.02075,19.33374,7.10058,28.27564,17.73828C379.29492,74.1355,381.69458,83.62939,380.14062,94.87524ZM164.05469,151.34277A3.99649,3.99649,0,0,0,164,152v64a79.76829,79.76829,0,0,0,.48169,8.86646c-12.24341-21.77222-17.63013-57.84327-12.72876-92.84595,2.84473-20.33106,10.40723-49.34473,30.28418-72.10254C200.54785,38.73926,225.43262,28,256,28c71.1582,0,84.90527,23.36523,92.20508,45.26465a4.001,4.001,0,0,0,2.82519,2.61621c4.18653,1.0459,16.34375,11.20117,26.792,30.957,9.82812,18.582,23.72851,56.77539,6.41113,103.792-16.04,43.54981-47.23438,56.53321-70.01172,66.0127-1,.416-1.97876.82422-2.94434,1.229a13.14047,13.14047,0,0,0-4.66992-1.65625c2.17529-2.13525,4.499-4.28955,6.88965-6.50537,12.61328-11.69238,28.23926-26.18066,36.53223-51.81152l24.78613-9.915A20.87186,20.87186,0,0,0,388,188.50977v-3.54A20.96706,20.96706,0,0,0,367.03027,164a21.113,21.113,0,0,0-14.82812,6.1416l-3.03027,3.03028A4.00049,4.00049,0,0,0,348,176c0,5.90527-4.30957,8-8,8s-8-2.09473-8-8c0-27.87988-.873-66.69043-8.42188-81.78906a3.99957,3.99957,0,0,0-5.15332-1.8877c-20.33691,8.71582-45.07421,12.03614-68.99609,15.24707C208.35645,113.083,169.56348,118.291,164.05469,151.34277ZM280,176a7.99941,7.99941,0,0,0-7.59473,5.49658c-.56982-.17529-1.12793-.3623-1.65771-.57739a8.6497,8.6497,0,0,1-3.238-2.126A4.0052,4.0052,0,0,1,266.58325,176l.00025-.02222-.00025-.02221a2.57606,2.57606,0,0,0-3.6521-2.32569,19.8245,19.8245,0,1,1-1.48242,2.93506,8.83837,8.83837,0,0,0,.66235,2.80029,8.171,8.171,0,0,0,2.022,2.82178,11.82521,11.82521,0,0,0,5.39575,2.64868,19.49262,19.49262,0,0,0,2.58105.4314A7.99592,7.99592,0,1,0,280,176Zm14.39893-16.00342a3.99822,3.99822,0,0,0,2.78588-6.82275l-5.66406-5.6731A7.99946,7.99946,0,0,0,283.332,145.563l-18.37158,6.11719a4.26864,4.26864,0,0,0,.71777,8.272A28.1862,28.1862,0,0,0,254.707,172H225.293a28.1862,28.1862,0,0,0-10.97119-12.04785,4.26864,4.26864,0,0,0,.71777-8.272L196.668,145.563a7.99946,7.99946,0,0,0-8.18872,1.93774l-5.66406,5.6731a3.99822,3.99822,0,0,0,2.78588,6.82275A28.18786,28.18786,0,0,0,174.707,172H172V152.33984c4.751-26.9414,38.93555-31.53125,78.49316-36.84082,23.03809-3.09179,46.81446-6.2832,67.335-14.29,3.95093,11.51026,6.02,35.27076,6.16309,70.791H305.293A28.18786,28.18786,0,0,0,294.39893,159.99658ZM200,176a7.99941,7.99941,0,0,0-7.59473,5.49658c-.56982-.17529-1.12793-.3623-1.65771-.57739a8.6497,8.6497,0,0,1-3.238-2.126A4.0052,4.0052,0,0,1,186.58325,176l.00025-.02222-.00025-.02221a2.57606,2.57606,0,0,0-3.6521-2.32569,19.8245,19.8245,0,1,1-1.48242,2.93506,8.83837,8.83837,0,0,0,.66235,2.80029,8.171,8.171,0,0,0,2.022,2.82178,11.82521,11.82521,0,0,0,5.39575,2.64868,19.49262,19.49262,0,0,0,2.58105.4314A7.99592,7.99592,0,1,0,200,176Zm-28,40V184h0a27.98126,27.98126,0,0,0,48.023,19.54517c-.00415.15258-.023.30127-.023.45483a16.01833,16.01833,0,0,0,16,16h4a4,4,0,0,0,0-8h-4a8,8,0,0,1,0-16h4a4,4,0,0,0,0-8h-4a15.89893,15.89893,0,0,0-8.80566,2.655A27.8201,27.8201,0,0,0,227.70972,180h24.58056a28,28,0,1,0,55.41944,0h16.72851c1.76221,7.88916,8.69263,12,15.56177,12,7.502,0,15.09082-4.89258,15.9248-14.26758l1.9336-1.93457A13.06382,13.06382,0,0,1,367.03027,172,12.96834,12.96834,0,0,1,380,184.96973v3.54a12.91054,12.91054,0,0,1-8.15527,12.04589l-26.54981,10.62012a4.0012,4.0012,0,0,0-2.34277,2.55274c-7.49707,24.71777-22.05176,38.21-34.89356,50.11425-4.44531,4.1211-8.665,8.03955-12.3081,12.15723H211.62256c-2.356-1.91895-4.81787-3.78857-7.40967-5.748C189.11328,258.83789,172,245.90137,172,216Zm30.68457,102.43555C203.46094,316.93262,205.49707,316,208,316h64a4,4,0,0,0,0-8H220.30127a11.80062,11.80062,0,0,0,.00024-8H240a4,4,0,0,0,0-8H208c-3.68652,0-5-2.06641-5-4s1.31348-4,5-4h96c3.68652,0,5,2.06641,5,4s-1.31348,4-5,4H272a4,4,0,0,0,0,8h19.69775A11.90342,11.90342,0,0,0,291,304c0,5.96289,4.46582,12,13,12,2.50293,0,4.53906.93262,5.31543,2.43555.83594,1.61621-.11426,3.374-.71387,4.2207C301.72656,332,278.48047,332,256,332s-45.72656,0-52.56055-9.28711C202.79883,321.80957,201.84863,320.05176,202.68457,318.43555ZM236,486.34375l-8-8v-12.6875l8,8Zm0-24-8-8v-12.6875l8,8Zm0-24-8-8v-12.6875l8,8Zm0-24-8-8v-12.6875l8,8Zm0-24-8-8v-12.6875l8,8Zm0-24-3.85645-3.85645c1.31739.16358,2.59717.30518,3.85645.436Zm48,112-8,8v-12.6875l8-8Zm0-24-8,8v-12.6875l8-8Zm0-24-8,8v-12.6875l8-8Zm0-24-8,8v-12.6875l8-8Zm0-24-8,8v-12.6875l8-8Zm-8-16v-3.42041c1.25928-.13086,2.53906-.27246,3.85645-.436ZM256,356c-31.66943,0-58.999-7.3291-74.8916-19.83545,2.68774-.97412,14.77783-5.25146,17.905-6.41162C209.46777,339.99609,232.113,340,256,340c23.85571,0,46.47217-.00488,56.97778-10.25391,3.28809,1.22022,15.23511,5.44776,17.91382,6.41846C314.999,348.6709,287.66943,356,256,356Z"/></g></svg>
