<?xml version="1.0" encoding="UTF-8"?>
<svg xmlns="http://www.w3.org/2000/svg" viewBox="0 0 512 512" width="512" height="512"><g id="Fill_out_line" data-name="Fill out line"><path d="M440,472v24H72V472c0-126.64014,72-150.96,116.8999-166.8501,9.17017-3.25976,17.21-6.1499,23.27-9.5C219.55005,291.58008,224,286.83984,224,280c0-32-56-32-56-88V112c0-48,40-88,104-88,50.46,0,104,24,104,88v40c0,104-88,96-88,128,0,6.83984,4.45,11.58008,11.83008,15.6499,6.06006,3.3501,14.09985,6.24024,23.27,9.5C368,321.04,440,345.35986,440,472Z" style="fill:#f5a971"/><path d="M440,472v24H72V472c0-126.64014,72-150.96,116.8999-166.8501,9.17017-3.25976,17.21-6.1499,23.27-9.5L256,376l43.83008-80.3501c6.06006,3.3501,14.09985,6.24024,23.27,9.5C368,321.04,440,345.35986,440,472Z" style="fill:#b1cdb4"/><path d="M440,472v24H296V472c0-5.47.1499-11.06006.42993-16.72C299.22,398.71,314.95,334.99,323.1001,305.1499c10.72,3.8,22.99,8.07007,35.45,14.1001C398.28,338.49,440,375.6001,440,472Z" style="fill:#03999c"/><path d="M216,472v24H72V472c0-96.3999,41.72-133.51,81.45-152.75,12.46-6.03,24.73-10.3,35.45-14.1001C197.05005,334.99,212.78,398.71,215.57007,455.28,215.8501,460.93994,216,466.53,216,472Z" style="fill:#03999c"/><path d="M188.8999,305.1499C197.05005,334.99,212.78,398.71,215.57007,455.28L168,376l16-24H160l-6.55-32.75C165.90991,313.22,178.17993,308.95,188.8999,305.1499Z" style="fill:#0c6c71"/><path d="M352,352H328l16,24-47.57007,79.28C299.22,398.71,314.95,334.99,323.1001,305.1499c10.72,3.8,22.99,8.07007,35.45,14.1001Z" style="fill:#0c6c71"/><path d="M224.97,319.10986C216.18994,304.01,183.8501,304.30005,176,320c0-32,16-48,40-48h6.7a24.39643,24.39643,0,0,1,1.3,8c0,6.83984-4.45,11.58008-11.83008,15.6499Z" style="fill:#e7f2da"/><path d="M336,320c-7.8501-15.69995-40.18994-15.99-48.97-.89014l12.79-23.46C292.45,291.58008,288,286.83984,288,280a15.71305,15.71305,0,0,1,2.14014-8H296C320,272,336,288,336,320Z" style="fill:#e7f2da"/><path d="M336,208c-10.41239,20.81745-30.97838,24.7087-44.08029,18.27559a15.21139,15.21139,0,0,1-8.07682-15.68293A21.0918,21.0918,0,0,0,284,208c0-14.43994-14.09009-22-28-22s-28,7.56006-28,22q0,.56813.02881,1.12218a15.43751,15.43751,0,0,1-10.18555,15.58568c-12.83294,4.43422-31.5145,2.686-43.45312-3.98789C182.52,236.58984,196.83008,245.31006,208,254.21c28.33008,21.46,65.58008,19.37012,104,.82007,12.73-7.2,28.30005-15.65991,40.89014-30.38989C352.89014,224.64014,344,216,336,208Zm-80,14c-9.62988,0-20-4.37988-20-14s10.37012-14,20-14,20,4.37988,20,14S265.62988,222,256,222Z" style="fill:#f57a08"/><circle cx="280" cy="144" r="8"/><circle cx="200" cy="144" r="8"/><path d="M236,180h4a4,4,0,0,0,0-8h-4a8,8,0,0,1,0-16h4a4,4,0,0,0,0-8h-4a16,16,0,0,0,0,32Z"/><circle cx="268" cy="388" r="4"/><circle cx="268" cy="460" r="4"/><path d="M267.56543,206.18652a4.00145,4.00145,0,0,0-5.37891-1.75195c-4.27539,2.17188-8.39746,2.19434-12.251.06445a4.0004,4.0004,0,0,0-3.8711,7.002,20.01142,20.01142,0,0,0,9.76563,2.59961,21.952,21.952,0,0,0,9.9834-2.53516A4.00062,4.00062,0,0,0,267.56543,206.18652Z"/><path d="M156,376a4,4,0,0,0-8,0V496h8Z"/><path d="M364,376a4,4,0,0,0-8,0V496h8Z"/><path d="M404.75879,342.11426c-19.48438-20.01074-42.14649-30.74219-62.21191-38.41895-1.9336-10.04-5.80469-18.42578-11.53028-24.96582a42.05785,42.05785,0,0,0-21.42969-13.0664c2.459-1.47168,5.14551-2.98829,7.96192-4.57813,13.32617-7.52148,29.91015-16.88086,43.2334-33.4209C376.40527,208.26465,384,183.51465,384,152V112c0-31.80664-12.60254-57.5752-36.44238-74.51855C328.08594,23.62891,301.252,16,272,16c-32.56445,0-60.68262,9.6875-81.31641,28.01562A89.918,89.918,0,0,0,160,112v80c0,35.87695,21.36914,52.03125,36.97949,63.832,4.03418,3.04688,7.7793,5.87695,10.85742,8.74121-10.88281,1.57813-20.0625,6.39258-26.85058,14.1543-5.72852,6.541-9.59961,14.92773-11.53321,24.96777-20.06542,7.67676-42.72753,18.40821-62.21191,38.41895C78.14453,372.002,64,414.48828,64,472v26H76V472c0-54.23047,13.03125-93.97852,39.83887-121.51465a134.19253,134.19253,0,0,1,34.71582-25.31958l5.52343,27.61841A3.999,3.999,0,0,0,160,356h16.52637l-11.85449,17.78125a3.99811,3.99811,0,0,0-.10157,4.27637l47.05152,78.41894c.2434,5.249.37817,10.436.37817,15.52344v24h8V472c0-55.60913-15.186-122.28174-24.99561-159.54248A35.769,35.769,0,0,1,200.72656,312c9.82788,0,18.09326,3.80811,21.102,9.70605L252,377.01978V496h8V377.01978l30.17139-55.31373C293.18018,315.80811,301.44556,312,311.27344,312a35.769,35.769,0,0,1,5.72217.45752C307.186,349.71826,292,416.39087,292,472v24h8V472c0-5.0874.13477-10.27441.37817-15.52344L322.26416,420H344a4,4,0,0,0,0-8H327.06421l20.36548-33.94238a3.99811,3.99811,0,0,0-.10157-4.27637L335.47363,356H352a3.999,3.999,0,0,0,3.92188-3.21582l5.52343-27.61841a134.19253,134.19253,0,0,1,34.71582,25.31958C422.96875,378.02148,436,417.76953,436,472v26h12V472C448,414.48828,433.85547,372.002,404.75879,342.11426ZM256,367.64648l-38.48047-70.54736C222.70874,293.66211,228,288.40967,228,280a28.06845,28.06845,0,0,0-2.39209-11.54932c24.97542,8.88265,47.30967,4.46507,61.78516.38184A19.67731,19.67731,0,0,0,284,280c0,8.40967,5.29126,13.66211,10.48047,17.09912ZM232.00732,219.90625C237.177,226.56372,246.624,230,256,230c9.10254,0,18.2771-3.23535,23.53467-9.51587,3.53369,5.676,9.53271,9.91235,17.19678,11.72192,12.90527,3.04786,29.70214-1.43652,40.15429-17.67968,4.03614,4.00415,7.936,7.82715,10.44116,10.2749-9.91023,11.03206-27.24357,22.1154-37.18237,26.68506-50.05176,24.125-81.8584,13.07031-99.65137-.4043-2.02441-1.61328-4.09179-3.17578-6.28125-4.83008-6.81054-5.14941-13.78222-10.41992-19.50586-17.24023,14.042,3.63574,30.44825,2.624,40.52637-3.28906A23.5081,23.5081,0,0,0,232.00732,219.90625ZM236,208c0-9.61914,10.36719-14,20-14s20,4.38086,20,14-10.36719,14-20,14S236,217.61914,236,208Zm-64-96a78.06656,78.06656,0,0,1,26.6543-59.01367C217.05664,36.63965,242.419,28,272,28c26.78027,0,51.14355,6.83984,68.60449,19.26074C361.14355,61.8584,372,84.24512,372,112v24.52441a20.91658,20.91658,0,0,0-27.79883,1.61817l-3.02929,3.0293a3.99957,3.99957,0,0,0,5.65624,5.65624l3.0293-3.02929a12.96648,12.96648,0,0,1,22.1355,9.03271q-.01281,2.71436-.104,5.3274a12.89388,12.89388,0,0,1-8.04322,10.39477l-26.55371,10.624a4.00025,4.00025,0,1,0,2.97266,7.42774l26.55371-10.624a21.22286,21.22286,0,0,0,3.64746-1.90137c-2.87305,19.41846-9.54248,33.6748-17.95093,44.60522-3.30468-3.2312-8.69018-8.51733-13.68677-13.51342a4.00021,4.00021,0,0,0-6.40624,1.03906c-8.09376,16.18945-22.83887,20.80859-33.85157,18.209C291.52637,222.75684,284,217.57031,284,208c0-14.44336-14.08594-22-28-22s-28,7.55664-28,22c0,4.59082-2.22949,8.13086-6.81641,10.82227-10.59961,6.21826-30.66894,5.69287-43.70239-.98633C174.10474,210.86133,172,202.47461,172,192Zm38.42969,326.94189L172.73242,376.1123l14.5957-21.89355A4.00005,4.00005,0,0,0,184,348H163.2793l-5.29785-26.488c4.78979-2.22314,9.52587-4.18481,14.13745-5.978C172.04785,316.99683,172,318.47925,172,320a4.00042,4.00042,0,0,0,7.57812,1.78906,16.13605,16.13605,0,0,1,7.7627-7.012C195.14844,344.46631,206.34253,392.77026,210.42969,438.94189ZM200.72656,304c-7.76367,0-14.74218,1.91992-20.04687,5.31445,2.92285-21.58691,15.237-34.39778,38.9375-33.31445A21.01337,21.01337,0,0,1,220,280c0,3.85474-1.93066,6.97778-6.33081,10.04053l-2.15747-3.95557a3.99994,3.99994,0,1,0-7.02344,3.83008l8.69019,15.93213A41.53148,41.53148,0,0,0,200.72656,304Zm98.095,1.84717,8.69019-15.93213a3.99994,3.99994,0,0,0-7.02344-3.83008l-2.15747,3.95557C293.93066,286.97778,292,283.85474,292,280a11.83869,11.83869,0,0,1,.69873-4c23.3846-1.08333,35.69873,11.72754,38.62158,33.31445C326.01562,305.91992,319.03711,304,311.27344,304A41.53148,41.53148,0,0,0,298.82153,305.84717ZM348.7207,348H328a4.00005,4.00005,0,0,0-3.32812,6.21875l14.5957,21.89355-37.69727,62.82959c4.08716-46.17163,15.28125-94.47558,23.08887-124.16479a16.13605,16.13605,0,0,1,7.7627,7.012A4.00042,4.00042,0,0,0,340,320c0-1.52075-.04785-3.00317-.1189-4.46606,4.61158,1.79321,9.34766,3.75488,14.13745,5.978Z"/><path d="M215.03955,119.68018,196.668,113.563a7.99946,7.99946,0,0,0-8.18872,1.93774l-5.66406,5.6731A4,4,0,0,0,185.646,128h28.04492a4.26919,4.26919,0,0,0,1.34863-8.31982Z"/><path d="M266.30908,128H294.354a4,4,0,0,0,2.83081-6.82617l-5.66406-5.6731A7.99946,7.99946,0,0,0,283.332,113.563l-18.37158,6.11719A4.26919,4.26919,0,0,0,266.30908,128Z"/></g></svg>
