<?xml version="1.0" encoding="UTF-8"?>
<svg xmlns="http://www.w3.org/2000/svg" viewBox="0 0 512 512" width="512" height="512"><g id="Fill_out_line" data-name="Fill out line"><path d="M221.821,293.83367C136,293.83367,136,205.85518,136,184.97055,136,161.94109,136,80,168,80c0-24,8-56,88-56s88,32,88,56c32,0,32,81.94109,32,104.97055,0,20.88463,0,108.86312-85.821,108.86312Z" style="fill:#084c4f"/><path d="M440,496H72c0-176,152-160,152-192s-56-32-56-88v-3.2l-21.33008-8.53A16.96849,16.96849,0,0,1,136,188.51v-3.54a16.97056,16.97056,0,0,1,28.97-12L168,176V144c2.47-46.59,17.15991-80,88-80,74.66992,0,86.71,37.12,88,87.66V176l3.03-3.03a16.97,16.97,0,0,1,28.97,12v3.54a16.96849,16.96849,0,0,1-10.66992,15.76L344,212.8V216c0,56-56,56-56,88S440,320,440,496Z" style="fill:#f5a971"/><path d="M440,496H72c0-133.8501,87.90991-156.65,130.02-173.98,13.26-5.45,21.98-10.36011,21.98-18.02l32,32,32-32c0,7.65991,8.72,12.57007,21.98,18.02C352.09009,339.35,440,362.1499,440,496Z" style="fill:#f3b73f"/><path d="M309.98,322.02,272,360l-16-16-16,16-37.98-37.98c13.26-5.45,21.98-10.36011,21.98-18.02l32,32,32-32C288,311.65991,296.72,316.57007,309.98,322.02Z" style="fill:#f57a08"/><path d="M364.2,96.47,352,104c-24,16-64,32-96,32s-72-16-96-32l-12.2-7.53C152.46,86.55,158.95,80,168,80c0-24,8-56,88-56s88,32,88,56C353.05005,80,359.54,86.55,364.2,96.47Z" style="fill:#084c4f"/><circle cx="304" cy="184" r="8"/><circle cx="208" cy="184" r="8"/><path d="M156,432v64h-8V432a4,4,0,0,1,8,0Z"/><path d="M364,432v64h-8V432a4,4,0,0,1,8,0Z"/><path d="M221.071,159.68024l-18.37182-6.11737a7.99991,7.99991,0,0,0-8.18872,1.93792l-5.66394,5.673A4,4,0,0,0,191.67725,168h28.04492a4.26922,4.26922,0,0,0,1.34887-8.31976Z"/><path d="M292.27783,168h28.04492a4,4,0,0,0,2.83069-6.82617l-5.66394-5.673a7.99991,7.99991,0,0,0-8.18872-1.93792L290.929,159.68024A4.26922,4.26922,0,0,0,292.27783,168Z"/><path d="M344,420H304a4,4,0,0,0,0,8h40a4,4,0,0,0,0-8Z"/><path d="M184,100a4.0002,4.0002,0,0,0,4-4c0-15.80225,0-22.34326,6.82861-29.17236a3.99992,3.99992,0,1,0-5.65722-5.65625C180,70.34326,180,79.45654,180,96A4.0002,4.0002,0,0,0,184,100Z"/><path d="M200,108a4.0002,4.0002,0,0,0,4-4c0-15.80225,0-22.34326,6.82861-29.17236a3.99992,3.99992,0,1,0-5.65722-5.65625C196,78.34326,196,87.45654,196,104A4.0002,4.0002,0,0,0,200,108Z"/><path d="M324,96a4,4,0,0,0,8,0c0-16.54346,0-25.65674-9.17139-34.82861a3.99992,3.99992,0,1,0-5.65722,5.65625C324,73.65674,324,80.19775,324,96Z"/><path d="M308,104a4,4,0,0,0,8,0c0-16.54346,0-25.65674-9.17139-34.82861a3.99992,3.99992,0,1,0-5.65722,5.65625C308,81.65674,308,88.19775,308,104Z"/><path d="M283.57764,225.78906a4,4,0,1,0-7.15528-3.57812C269.52783,236,255.18506,236,240,236a4,4,0,0,0,0,8C256.1582,244,274.47217,244,283.57764,225.78906Z"/><path d="M403.30005,366.21c-25.51-26.35-56.88013-38.53-79.78-47.41992C311.26,314.02,296,308.1,296,304a17.46915,17.46915,0,0,1,.15-2.31006C332.79,300.03,358.5,282.80005,372.61,250.43,384,224.3,384,195.73,384,184.97c0-11.5,0-38.44-4.12-62.47-4.85-28.37-14.29992-44.92-28.12-49.31-1.15-15.24-6.53-27.08-16.3501-36.08C319.91992,22.9,293.93994,16,256,16s-63.91992,6.9-79.4,21.1c-6.39,5.85-14.77991,15.83-16.34,36.08-13.83008,4.38-23.29,20.93-28.14,49.32C128,146.53,128,173.47,128,184.97c0,10.76,0,39.33,11.39,65.46,14.11,32.37006,39.82,49.6,76.46,51.25995A17.46915,17.46915,0,0,1,216,304c0,4.1-15.26,10.02-27.52,14.79-22.8999,8.88989-54.27,21.07-79.78,47.41992C79.05005,396.84,64.01,440.5,64,496H76c-.01-52.99,13.52-92.72,41.32007-121.43994C141,350.1,170.95,338.47,192.82007,329.97q4.31982-1.665,8.25-3.24l36.09985,36.1a4.00771,4.00771,0,0,0,5.66016,0L256,349.65991,269.16992,362.83a4.0077,4.0077,0,0,0,5.66016,0l36.09985-36.1c2.62012,1.06006,5.37012,2.13,8.25,3.24,21.87012,8.5,51.82007,20.13,75.5,44.59009C422.48,403.28,436.01,443.01,436,496h12C447.99,440.5,432.95,396.84,403.30005,366.21ZM361.61,245.63c-11.85,27.18006-33.35,41.94007-63.97,43.96,3.74-4.45,9.0199-8.46,14.97-12.96C328.38,264.72,348,249.88,348,216v-.49l18.82007-7.53a21.06292,21.06292,0,0,0,4.35986-2.37C370.08008,217.47,367.54,232.03,361.61,245.63Zm-217.67-121.11C146.98,106.77,153.37,85.35,166.6,84.07a6.00324,6.00324,0,0,0,5.42-5.84c.40991-18.9,7.42993-27.47,12.68994-32.28C197.88,33.87,221.2,28,256,28s58.12,5.87,71.30005,17.95c11.03,10.11,12.52,23.25,12.67993,32.25995A6.00622,6.00622,0,0,0,345.4,84.07c13.23,1.29,19.62,22.71,22.66,40.45,2.54993,14.94,3.45,31.21,3.77,43.86a20.80511,20.80511,0,0,0-12.8-4.38A21.17458,21.17458,0,0,0,348,167.14V151.56c-.39-15.49-1.79-27.6-4.38-37.76,3.74-2.11,7.29992-4.27,10.6-6.47a4.00214,4.00214,0,1,0-4.43994-6.66c-3.9,2.6-8.18994,5.17-12.74,7.65C315.99,119.77,283.65,132,256,132c-27.75,0-60.15-12.29-81.23-23.78-4.5-2.46-8.73-5-12.55-7.55a4.00214,4.00214,0,1,0-4.43994,6.66c3.22,2.15,6.71,4.28,10.3999,6.37005A153.33266,153.33266,0,0,0,164.01,143.79a1.47569,1.47569,0,0,0-.01.21v23.14A21.17458,21.17458,0,0,0,152.97,164a20.80511,20.80511,0,0,0-12.8,4.38C140.49,155.73,141.39,139.46,143.93994,124.52ZM150.39,245.63c-5.93-13.6-8.47009-28.16-9.56994-40.02a21.06292,21.06292,0,0,0,4.35986,2.37L164,215.51V216c0,33.88,19.62,48.72,35.39,60.63,5.95008,4.5,11.23,8.51,14.97,12.96C183.74,287.57007,162.24,272.81006,150.39,245.63Zm53.82,24.62C189.11,258.84,172,245.9,172,216v-3.2a3.99162,3.99162,0,0,0-2.51-3.71l-21.33008-8.53a12.916,12.916,0,0,1-8.1499-11.65c-.01-1.5-.01-2.83-.01-3.94A12.97408,12.97408,0,0,1,152.97,172a13.03389,13.03389,0,0,1,9.17,3.8l3.02991,3.03A3.99942,3.99942,0,0,0,172,176V144.11a150.52832,150.52832,0,0,1,3.46-26.48C197.35,128.85,228.68994,140,256,140c27.21,0,58.48-11.1,80.34009-22.28C338.47,126.89,339.65,137.84,340,151.71V176a3.99942,3.99942,0,0,0,6.83008,2.83L349.86,175.8a13.03389,13.03389,0,0,1,9.17-3.8A12.97408,12.97408,0,0,1,372,184.97c0,1.11,0,2.44-.01,3.94a12.916,12.916,0,0,1-8.1499,11.65L342.51,209.09A3.99162,3.99162,0,0,0,340,212.8V216c0,29.9-17.11,42.84-32.21,54.25-11.79,8.90991-22.93,17.34-23.74,32.04L256,330.34,227.95,302.29C227.14,287.59,216,279.15991,204.21,270.25ZM272,354.34l-13.16992-13.17005a4.008,4.008,0,0,0-5.66016,0L240,354.34l-30.97-30.97c7.85-3.55994,13.79-7.20008,16.78-11.9l27.35986,27.36a4.0077,4.0077,0,0,0,5.66016,0l27.35986-27.36c2.99,4.7,8.93006,8.34009,16.78,11.9Z"/><path d="M252,212h4a4,4,0,0,0,0-8h-4a8,8,0,0,1,0-16h4a4,4,0,0,0,0-8h-4a16,16,0,0,0,0,32Z"/></g></svg>
