<?xml version="1.0" encoding="iso-8859-1"?>
<!-- Generator: Adobe Illustrator 19.0.0, SVG Export Plug-In . SVG Version: 6.00 Build 0)  -->
<svg version="1.1" id="Capa_1" xmlns="http://www.w3.org/2000/svg" xmlns:xlink="http://www.w3.org/1999/xlink" x="0px" y="0px"
	 viewBox="0 0 512 512" style="enable-background:new 0 0 512 512;" xml:space="preserve">
<path style="fill:#697176;" d="M242.886,239.904l79.764-79.764h-42.426l-58.538,58.538l-28.505-28.538h-42.398l49.688,49.753
	l-19.499,19.499l-69.253-69.252L0,301.86h42.426l25.972-25.973h86.642l4.718,4.718L88.504,351.86h42.426l90.739-90.739
	l19.486,19.512l32.916-9.52L242.886,239.904z M98.398,245.887l13.321-13.321l13.321,13.321H98.398z"/>
<polygon style="fill:#4F565B;" points="469.574,190.14 400.611,259.103 331.648,190.14 241.156,280.633 262.354,301.86 
	331.648,232.566 400.611,301.529 512,190.14 "/>
<polygon style="fill:#D5011D;" points="331.551,259.993 322.78,280.926 343.419,301.86 373.419,301.86 "/>
<polygon style="fill:#FF0021;" points="289.684,301.86 343.419,301.86 331.551,259.993 "/>
<g>
</g>
<g>
</g>
<g>
</g>
<g>
</g>
<g>
</g>
<g>
</g>
<g>
</g>
<g>
</g>
<g>
</g>
<g>
</g>
<g>
</g>
<g>
</g>
<g>
</g>
<g>
</g>
<g>
</g>
</svg>
