<?xml version="1.0" encoding="UTF-8"?>
<svg xmlns="http://www.w3.org/2000/svg" viewBox="0 0 512 512" width="512" height="512"><g id="Fill_out_line" data-name="Fill out line"><path d="M304.00008,303.59292C344,303.59292,470.53076,302.82305,429.52919,196S376,24,280,24,171.47238,89.177,130.47081,196,216,303.59292,255.99992,303.59292Z" style="fill:#f57a08"/><path d="M440,496H112l-10.12012-54.81c7.58008-31.99,21.78-54.65,38.4502-71.23v-.01C167.71,342.71,201.77,331.81,224.1499,322.79c2.54-1.03,4.94019-2.03,7.15015-3.03.21-.09.41992-.18.61987-.28A66.463,66.463,0,0,0,240,315.21c.31006-.2.6001-.38995.89014-.59A1.02442,1.02442,0,0,1,241,314.55c.28-.2.55-.39.82007-.59.60986-.44,1.16992-.9,1.68994-1.36.24-.21.48-.43.7-.64a16.57316,16.57316,0,0,0,1.22-1.32,3.96928,3.96928,0,0,0,.27-.34s.02-.01.02-.02c.13989-.18.27-.36.40015-.54.1499-.21.27978-.42.40991-.64a1.92159,1.92159,0,0,0,.17993-.31,6.44838,6.44838,0,0,0,.31006-.58A9.33873,9.33873,0,0,0,248,304c0-32-56-32-56-88,0-80-16-152,88-152s88,72,88,152c0,56-56,56-56,88a9.46828,9.46828,0,0,0,.98,4.21,11.78038,11.78038,0,0,0,1.62988,2.48c3.76026,4.5,11.37012,8.12,21.24024,12.1,27.7998,11.21,73.60986,25.3,102.27,70.02l-10.48,4.49C447.1499,428.33,440,465.74,440,496Z" style="fill:#f5a971"/><path d="M368,176l3.02944-3.02944a16.97054,16.97054,0,0,1,12-4.97056h0A16.97054,16.97054,0,0,1,400,184.97055v3.53983a16.97055,16.97055,0,0,1-10.66784,15.75676l-26.55346,10.624Z" style="fill:#f5a971"/><path d="M192,176l-3.02944-3.02944a16.97054,16.97054,0,0,0-12-4.97056h0A16.97054,16.97054,0,0,0,160,184.97055v3.53983a16.97055,16.97055,0,0,0,10.66784,15.75676l26.55346,10.624Z" style="fill:#f5a971"/><path d="M152,440l-40,56S90.23,377.44,88,368c-4.74-20.05-21.25-53.12-21.25-64,0-15.82,7.82007-31.64,23.47-31.99a20.98136,20.98136,0,0,1,9.96-7.01c-3.71-21.1-8.36987-57,2.92993-57C116.2,208,118.58008,256.15,119.01,273.7a20.35509,20.35509,0,0,1,.58008,2.36.12684.12684,0,0,1-.01.06.031.031,0,0,1,.02-.01c0-.02-.01-.03-.01-.05,1.95-15.05,9.78979-68.06,23.51977-68.06,13.7002,0-1.26977,64.5-5.85986,83.06C143.09009,308.57,136,344,136,344Z" style="fill:#f5a971"/><path d="M192,152c40,0,88-32,88-72,0,40,48,72,88,72h13.38935L368,72,280,49,192,72.5,178.61065,152Z" style="fill:#f57a08"/><path d="M280,251.75244a43.7948,43.7948,0,0,1-19.57764-4.59717,7.99984,7.99984,0,1,1,7.15528-14.31054,27.91375,27.91375,0,0,0,24.84472,0,7.99984,7.99984,0,0,1,7.15528,14.31054A43.7948,43.7948,0,0,1,280,251.75244Z" style="fill:#e37066"/><path d="M427.64014,397.3l-41.5,17.78A57.54675,57.54675,0,0,1,392,440c0,24-16,32-16,56H184c0-24-16-32-16-56a57.54675,57.54675,0,0,1,5.85986-24.92l-28.00976-12-5.52-33.12v-.01C167.71,342.71,201.77,331.81,224.1499,322.79,235.78,318.1,244.26,313.92,247.02,308.21L280,328l34.60986-17.31c3.76026,4.5,11.37012,8.12,21.24024,12.1,27.7998,11.21,73.60986,25.3,102.27,70.02Z" style="fill:#b1cdb4"/><path d="M335.8501,322.79c-2.35987,22.42-32.79,36.58-55.8501,21.21-23.06006,15.37-53.49,1.21-55.8501-21.21,2.54-1.03,4.94019-2.03,7.15015-3.03.21-.09.41992-.19.61987-.28A66.463,66.463,0,0,0,240,315.21c.31006-.2.6001-.38995.89014-.59A1.02442,1.02442,0,0,1,241,314.55c.28-.2.55-.39.82007-.59.60986-.44,1.16992-.9,1.68994-1.36.24-.21.48-.42.7-.64a16.57316,16.57316,0,0,0,1.22-1.32,2.85243,2.85243,0,0,0,.27-.34s.02-.01.02-.02c.13989-.18.28-.36.40015-.54a6.32328,6.32328,0,0,0,.40991-.64,2.47191,2.47191,0,0,0,.17993-.31,6.44838,6.44838,0,0,0,.31006-.58L280,328l32.98-19.79a11.78038,11.78038,0,0,0,1.62988,2.48C318.37012,315.19,325.98,318.81,335.8501,322.79Z" style="fill:#03999c"/><circle cx="296" cy="392" r="8" style="fill:#e37066"/><circle cx="296" cy="368" r="8" style="fill:#e37066"/><path d="M276,212h4a4,4,0,0,0,0-8h-4a8,8,0,0,1,0-16h4a4,4,0,0,0,0-8h-4a16,16,0,0,0,0,32Z"/><path d="M306.7334,234.63428a11.9981,11.9981,0,0,0-16.09961-5.36719,23.89373,23.89373,0,0,1-21.2666,0,11.99987,11.99987,0,1,0-10.7334,21.46582,47.98573,47.98573,0,0,0,42.73242.00049,11.99885,11.99885,0,0,0,5.36719-16.09912Zm-6.93848,6.63086a3.97375,3.97375,0,0,1-2.00586,2.3125,39.9854,39.9854,0,0,1-35.57812-.00049,3.99981,3.99981,0,0,1,3.57812-7.15479,31.93063,31.93063,0,0,0,28.42285,0,3.99995,3.99995,0,0,1,5.583,4.84278Z"/><circle cx="296" cy="368" r="8"/><circle cx="296" cy="392" r="8"/><path d="M245.071,159.68024l-18.37182-6.11737a7.99991,7.99991,0,0,0-8.18872,1.93792l-5.66382,5.673A4,4,0,0,0,215.67725,168h28.04492a4.26922,4.26922,0,0,0,1.34887-8.31976Z"/><path d="M316.27783,168h28.04492a3.99991,3.99991,0,0,0,2.83057-6.82617l-5.66406-5.673a7.9995,7.9995,0,0,0-8.18848-1.93792l-18.37158,6.11737A4.2691,4.2691,0,0,0,316.27783,168Z"/><path d="M232,176a7.99933,7.99933,0,0,0-7.59473,5.49658c-.56982-.17541-1.12793-.36255-1.65771-.57751a8.64733,8.64733,0,0,1-3.238-2.1258A4.00516,4.00516,0,0,1,218.58325,176l.00025-.02234-.00025-.022a2.58335,2.58335,0,1,0-5.1665.04437,8.88888,8.88888,0,0,0,.69433,3.3653,8.17238,8.17238,0,0,0,2.022,2.82183,11.82526,11.82526,0,0,0,5.39575,2.64844,19.44337,19.44337,0,0,0,2.58105.43134A7.9959,7.9959,0,1,0,232,176Z"/><path d="M312.13281,182.18713a11.82725,11.82725,0,0,0,5.396,2.64844,19.44988,19.44988,0,0,0,2.58105.43134,7.988,7.988,0,1,0,.29541-3.77033c-.56982-.17541-1.12793-.36255-1.65771-.57751a8.64213,8.64213,0,0,1-3.23779-2.1258A4.0028,4.0028,0,0,1,314.5835,176v-.02234l-.00049-.022A2.58335,2.58335,0,1,0,309.4165,176a8.88943,8.88943,0,0,0,.69483,3.3653A8.16789,8.16789,0,0,0,312.13281,182.18713Z"/><path d="M146.57129,164.48145C165.5,114.66667,175.49219,86.45117,194.668,63.11426,214.62207,38.82959,240.93945,28,280,28s65.37793,10.82959,85.332,35.11426c19.17578,23.33691,31.90137,57.66943,48.01172,101.13672,0,0,8.04395,21.70166,12.45117,33.18213,10.64649,27.73779,10.35742,50.07714-.86035,66.39843-15.58057,22.66956-52.06982,34.66077-108.44531,35.67029,2.01269-9.16351,10.15478-15.3335,20.12207-22.86853C352.37793,264.71533,372,249.88232,372,216v-.48828l18.81543-7.52783A20.873,20.873,0,0,0,404,188.50977v-3.54A20.9679,20.9679,0,0,0,383.03027,164a21.0912,21.0912,0,0,0-10.165,2.63916c.03418-3.90173.02881-7.38318-.01416-10.63916H376a4,4,0,0,0,0-8h-8c-46.53027,0-84-37.2002-84-68a4,4,0,0,0-8,0c0,37.66748-45.95312,68-84,68h-8a4,4,0,0,0,0,8h3.14941c-.04248,3.25421-.04785,6.7356-.01367,10.63965A21.09274,21.09274,0,0,0,176.96973,164,20.96706,20.96706,0,0,0,156,184.96973v3.54a20.873,20.873,0,0,0,13.18457,19.47412L188,215.51172V216c0,33.88232,19.62207,48.71533,35.38867,60.6333,9.96826,7.53583,18.11133,13.70612,20.1228,22.87128-45.89233-.82257-78.13647-8.62958-98.36914-24.7099,1.75757-8.04309,3.616-17.30518,5.06079-26.37476,4.77442-29.96728,1.81739-37.915-.82128-41.28613A7.85324,7.85324,0,0,0,143.11133,204c-6.01758,0-11.06983,5.46765-15.53736,16.9823a122.16853,122.16853,0,0,1,6.63111-23.54871C138.6123,185.95264,142.23341,175.81,146.57129,164.48145ZM280,323.33545l-28.23291-16.93994C253.625,289.25,240.44531,279.499,228.21289,270.252,213.11328,258.83789,196,245.90137,196,216c0-1.082,0-2.16455-.00977-3.23682a3.99925,3.99925,0,0,0-2.51464-3.67724l-21.32032-8.52979A12.91267,12.91267,0,0,1,164,188.50977v-3.54A12.96751,12.96751,0,0,1,176.96973,172a13.06011,13.06011,0,0,1,9.17187,3.79834l2.29,2.29a3.99989,3.99989,0,0,0,6.82715-2.90479c-.14649-7.6961-.18237-13.81414-.1084-19.26056,19.76318-.77807,41.31519-8.77331,58.2793-21.74578C266.1582,124.44385,275.19434,112.97363,280,100.7207c4.80566,12.25293,13.8418,23.72315,26.57031,33.45655,16.96387,12.97216,38.51514,20.96728,58.27783,21.74572.07471,5.45362.04053,11.56348-.10693,19.26014a3.99967,3.99967,0,0,0,6.82715,2.90527l2.29-2.29A13.06011,13.06011,0,0,1,383.03027,172,12.96834,12.96834,0,0,1,396,184.96973v3.54a12.91267,12.91267,0,0,1-8.15527,12.04638l-21.32032,8.52979a3.99925,3.99925,0,0,0-2.51464,3.67724C364,213.83545,364,214.918,364,216c0,29.90137-17.11328,42.83789-32.21289,54.252-12.23242,9.24707-25.45378,19.33138-23.55371,36.14325ZM102.40918,212.436c.34961-.436.53711-.436.70215-.436.06445,0,6.46094.37109,10.02441,32.44287.47559,4.28027.87891,8.9707,1.19727,13.94141l.0022.01349q.11243,1.75919.20336,3.43524c-2.28-1.1911-5.60107-2.27051-11.16113-1.61432C98.395,230.34991,99.70142,215.81073,102.40918,212.436Zm4.89722,82.83032a29.27619,29.27619,0,0,0-1.1941-16.78247,16.74074,16.74074,0,0,0-7.37792-8.5177A16.626,16.626,0,0,1,106.74512,268c4.48144,0,6.81543,2.64069,8.02295,5.64508C110.47412,276.1402,108,281.26105,108,288a23.62975,23.62975,0,0,0,1.04248,7.12207A3.38184,3.38184,0,0,1,107.3064,295.26636Zm16.82983-22.93085a335.60542,335.60542,0,0,1,6.6626-34.91315c6.15429-23.78027,11.47558-25.31933,12.24121-25.41552.56543.58935,3.85156,5.35546-.47754,33.49365-1.87915,12.21338-4.59375,24.995-6.83179,34.70025C132.36206,276.02228,128.28931,273.2583,124.13623,272.33551Zm88.33838,46.44818c-18.9209,7.3501-44.06152,17.11572-66.66211,35.43506L144.126,344.09766c1.46093-7.84082,6.0459-35.61426,1.417-53.1836q.11718-.47314.23242-.94775c19.51953,12.37451,47.57422,19.33935,85.14941,21.14111C225.6709,313.65771,218.85547,316.30518,212.47461,318.78369ZM242.71,342.39746c-7.39477-3.9577-12.3894-10.13641-14.07446-17.12463,8.74927-3.65485,15.5647-7.1919,19.53052-11.70856L276,330.26477V341.7785A34.20507,34.20507,0,0,1,242.71,342.39746Zm74.58008,0a34.20917,34.20917,0,0,1-33.29-.6189V330.26477l27.8335-16.70019c3.96582,4.51654,10.78125,8.05334,19.53076,11.70831C329.6792,332.26105,324.68457,338.43976,317.29,342.39746ZM436.18994,400.16l6.21-2.66a6.00668,6.00668,0,0,0,2.7002-8.74c-27.14014-42.62-69.53028-59.08-97.56983-69.98-6.14013-2.38-13.04-5.06-18.41015-7.67,18.06982-.86,33.6997-2.9,47.46-6.18,27.52-6.57,47.12012-18.11,58.23974-34.3,13.59034-19.78,14.33008-45.85,2.18018-77.5-4.37988-11.41-12.3999-33.05-12.3999-33.05-16.51026-44.52-29.54-79.68995-50-104.58C352.16016,28.18,322.98,16,280,16s-72.15991,12.18-94.6001,39.5c-20.46,24.89-32.7124,58.125-50.07983,104.81-4.54376,12.23088-7.94019,21.41-12.32007,32.82a145.22006,145.22006,0,0,0-5.55,17.56c-3.25-6.44-7.80981-10.69-14.34009-10.69a12.715,12.715,0,0,0-10.05981,4.93c-2.26,2.81-8.99,11.2-1.8,55.5a28.77518,28.77518,0,0,0-4.81006,3.86c-8.31006,1.16-15.31006,5.71-20.34985,13.27C61.3501,284.67,58.75,294.05,58.75,304c0,7.37,4.64014,19.28,10.53,34.37,4.36987,11.2,8.87988,22.78,10.92993,31.47,1.66992,7.07,15.53,81.95,23.66016,126.16H116.01a5.436,5.436,0,0,0-.09009-.8c-2.23-12.16-21.87988-119.05-24.02978-128.12C89.6499,357.58,84.98,345.6,80.45,334c-4.77-12.23-9.7-24.88-9.7-30,0-13.49,6.25-28,20-28,3.82007,0,6.42993,1.81,7.97,5.55,2.78,6.69.77,16.05-2.8,19.62-1.90991,1.9-3.66992,2.54-5.23,1.89C88.48,302.15,86.75,299.04,86.75,296a4,4,0,0,0-8,0c0,6.34,3.6499,12.29,8.87012,14.45,6.00488,2.39374,11-.67,13.95-3.62a18.45817,18.45817,0,0,0,3-4.04,11.2573,11.2573,0,0,0,8.25-.61c1.46228,1.93766,4.34464,4.47883,5.33984,5.81a6.13478,6.13478,0,0,1-.99,1.18c-14.88989,14.89-6.51,31.15,0,37.66a4.00234,4.00234,0,0,0,5.67017-5.65c-1.34009-1.36-12.71021-13.65-.01-26.35,1.07983-1.08,4.34985-4.36,3.1499-8.76-.6499-2.4-2.3501-4.1-4.1499-5.9a21.65774,21.65774,0,0,1-4.34009-5.42c-.01-.02-.01-.04-.02-.05A14.4827,14.4827,0,0,1,116,288c0-4.42,1.42993-7.29,3.91992-7.88,3.40015-.8,8.8,2.26,12.5,9.67,6.05,12.1,1.81006,42.67-.33984,53.43a3.868,3.868,0,0,0-.03,1.44l16,96A4.017,4.017,0,0,0,152,444a5.01659,5.01659,0,0,0,.65991-.05,4.01281,4.01281,0,0,0,3.29-4.61l-5.34985-32.05,18.73,8.03A61.005,61.005,0,0,0,164,440c0,12.94,4.28,21.51,8.41992,29.79C176.32007,477.58,180,484.94,180,496h8c0-12.94-4.28-21.51-8.41992-29.79C175.67993,458.42,172,451.06,172,440c0-21.92,14.62012-36.97,14.83008-37.18a3.99876,3.99876,0,1,0-5.66016-5.65A59.2156,59.2156,0,0,0,172.99,408.18L149.04,397.92l-4.48-26.89C168.5,348.875,195.25,338.125,221.1499,328.28c2.4502,8.72,8.71,16.31,17.79,21.17A42.01636,42.01636,0,0,0,276,350.74V408a4,4,0,0,0,8,0V350.74a41.92962,41.92962,0,0,0,37.06006-1.29c9.08008-4.86,15.33984-12.45,17.79-21.17C369.5,339.83333,406,354.38,431.00977,389.33l-44,18.85a59.18365,59.18365,0,0,0-8.17969-11.01,4.00227,4.00227,0,0,0-5.66016,5.66C373.31982,402.98,388,417.91,388,440c0,11.06-3.68018,18.42-7.58008,26.21C376.28027,474.49,372,483.06,372,496h8c0-11.06,3.68018-18.42,7.58008-26.21C391.71973,461.51,396,452.94,396,440a61.005,61.005,0,0,0-5.33008-24.68l32.4502-13.91c13.8999,22.86,12.67968,49.29,11.5,74.87C434.2998,483.15,434,489.64,434,496h12c0-6.08.29-12.44.60986-19.16C447.74023,452.38,449.00977,424.9,436.18994,400.16Z"/></g></svg>
