<?xml version="1.0" encoding="UTF-8"?>
<svg xmlns="http://www.w3.org/2000/svg" viewBox="0 0 512 512" width="512" height="512"><title>time-management_avatar-people-user-profile-woman-suit-woker-scarf</title><g id="Fill_out_line" data-name="Fill out line"><path d="M168,168c-40-24-32-144,64-144,11,0,22.01826.01107,30.41865,5.21029C275.11271,23.98893,289.56549,24,304,24c24,0,80,8,80,80v88c0,60.28794-50.481,75.70383-48.11789,112.00012v38.66655H244.97336V168Z" style="fill:#f57a08"/><path d="M335.83984,299.96973a85.28062,85.28062,0,0,1-11.48974.78027,80.75842,80.75842,0,0,1-34.56983-7.62012,65.817,65.817,0,0,1-18.2705-12.63965l16.98046-16.98046c14.96973,14.98046,39.37989,15.80029,58.65967,8.93017C357.37988,269.25,363.25,296.62012,335.83984,299.96973Z" style="fill:#f3b73f"/><path d="M416,496H96c0-175.33008,106.74-163.87012,125.27-184.93018A10.27052,10.27052,0,0,0,224,304c0-32-56-32-56-88V136c0-32,19.71-72,96-72,112,0,88,80,88,112l3.03027-3.03A16.97039,16.97039,0,0,1,384,184.97v3.54a16.9684,16.9684,0,0,1-10.66992,15.76l-26.54981,10.62012C331.50977,265.23,288,271.02,288,304a10.43626,10.43626,0,0,0,3.12012,7.5C310.71,331.98,416,321.85986,416,496Z" style="fill:#f5a971"/><path d="M416,496H96c0-175.33008,106.74-163.87012,125.27-184.93018A10.27052,10.27052,0,0,0,224,304l32,22.9502L288,304a10.43626,10.43626,0,0,0,3.12012,7.5C310.71,331.98,416,321.85986,416,496Z" style="fill:#f3b73f"/><path d="M168,136s40-8,64-40c16,48,96,0,96,80,0,16,24,16,24,0l24-77L336,53.65685,176,59.31371l-16,41.01962Z" style="fill:#f57a08"/><path d="M240,496H96c0-120.52,50.42993-152.78027,87.99-168.00977,17.07007-6.93017,31.48-10.34033,37.28-16.92041L224,312C224,336,240,496,240,496Z" style="fill:#03999c"/><path d="M224,312c0,24,16,184,16,184H224L184,392l16-24-24-8,8-32-.01-.00977c17.07007-6.93017,31.48-10.34033,37.28-16.92041Z" style="fill:#0c6c71"/><path d="M416,496H272s16-160,16-184l3.12012-.5c6.02978,6.2998,20.18994,9.71,36.88965,16.48C365.5498,343.21,416,375.46,416,496Z" style="fill:#03999c"/><path d="M312,368l16,24L288,496H272s16-160,16-184l3.12012-.5c6.02978,6.2998,20.18994,9.71,36.88965,16.48L328,328l8,32Z" style="fill:#0c6c71"/><path d="M293.1001,313.25977C287.68994,314.93018,281.1499,318.8501,272,328a25.60237,25.60237,0,0,0-5.58984,8L248,320c14.46-14.46,28.12012-24.29,43.14014-30.22021A32.69484,32.69484,0,0,0,288,304a10.43626,10.43626,0,0,0,3.12012,7.5A17.91525,17.91525,0,0,0,293.1001,313.25977Z" style="fill:#6eb4a4"/><path d="M216,288c16.97056,5.65685,32,16,48,32s24,24,24,40,0,24,8,32c-8,0-40,0-48-16s8-32-8-48-24-16-32-16C189.75,312.25,192,280,216,288Z" style="fill:#b1cdb4"/><path d="M258.61184,309.61456l-20.25,26.5A8.00065,8.00065,0,0,1,224.002,331.2547h-.01a7.99814,7.99814,0,0,1-6.6499-12.43994l18.16992-27.25a7.99994,7.99994,0,0,1,14.59008,5.48,8.0041,8.0041,0,0,1,8.50977,12.56982Z" style="fill:#6eb4a4"/><path d="M288,304a32.722,32.722,0,0,1,1.78027-10.87012A80.75842,80.75842,0,0,0,324.3501,300.75a85.28062,85.28062,0,0,0,11.48974-.78027,36.38868,36.38868,0,0,0,.04,4.03027c.46,7.0498,2.91016,14.89014,8.12012,24a60.9443,60.9443,0,0,1,4.62012,9.96C365.3999,385.56006,288,394.02979,288,304Z" style="fill:#f57a08"/><path d="M240,220a4,4,0,0,0,0-8h-4a8,8,0,0,1,0-16h4a4,4,0,0,0,0-8h-4a16,16,0,0,0,0,32Z"/><path d="M215.03955,159.68018,196.668,153.563a7.99946,7.99946,0,0,0-8.18872,1.93774l-5.66406,5.6731A4,4,0,0,0,185.646,168h28.04492a4.26919,4.26919,0,0,0,1.34863-8.31982Z"/><path d="M266.30908,168H294.354a3.99991,3.99991,0,0,0,2.83057-6.82617l-5.66357-5.6731a7.99989,7.99989,0,0,0-8.189-1.93774l-18.37158,6.11719A4.26926,4.26926,0,0,0,266.30908,168Z"/><path d="M274.82812,242.82812a3.99957,3.99957,0,0,0-5.65624-5.65624c-6.41993,6.418-27.92383,6.418-34.34376,0a3.99957,3.99957,0,0,0-5.65624,5.65624c4.7998,4.80079,13.81445,7.20118,22.82812,7.20118S270.02832,247.62891,274.82812,242.82812Z"/><path d="M257.78906,75.57812c14.70606-7.35644,36.75684.625,43.38282,7.25a3.99957,3.99957,0,1,0,5.65624-5.65624c-9.30371-9.30469-35.0332-17.541-52.61718-8.75a4.00046,4.00046,0,0,0,3.57812,7.15624Z"/><path d="M256.00293,63.31445a3.98353,3.98353,0,0,0,1.78613-.42285c15.69239-7.84863,30.5166-15.25976,52.94629-7.7832a4.0001,4.0001,0,0,0,2.5293-7.58985c-25.57031-8.52539-42.59375-.01269-59.05371,8.2168a4.00082,4.00082,0,0,0,1.792,7.5791Z"/><path d="M194.82812,58.82812c6.40235-6.40039,19.94141-6.40039,26.34376,0a3.99957,3.99957,0,1,0,5.65624-5.65624c-9.502-9.502-28.15429-9.502-37.65624,0a3.99957,3.99957,0,0,0,5.65624,5.65624Z"/><path d="M227.57812,73.78906a4.00153,4.00153,0,0,0-1.78906-5.36718c-12.22656-6.11231-23.97168-3.70313-30.31445.21777C190.72461,71.5752,188,75.71582,188,80a4,4,0,0,0,8,0c0-1.38574,1.44531-3.17383,3.68066-4.55566,4.59278-2.83887,13.249-4.50782,22.53028.13378A4.00069,4.00069,0,0,0,227.57812,73.78906Z"/><path d="M160,404a4.0002,4.0002,0,0,0-4,4v56a4,4,0,0,0,8,0V408A4.0002,4.0002,0,0,0,160,404Z"/><path d="M160,356a4.0002,4.0002,0,0,0-4,4v16a4,4,0,0,0,8,0V360A4.0002,4.0002,0,0,0,160,356Z"/><path d="M140,400V384a4,4,0,0,0-8,0v16a4,4,0,0,0,8,0Z"/><path d="M356,464V408a4,4,0,0,0-8,0v56a4,4,0,0,0,8,0Z"/><path d="M376,380a4.0002,4.0002,0,0,0-4,4v16a4,4,0,0,0,8,0V384A4.0002,4.0002,0,0,0,376,380Z"/><path d="M152.31348,469.876C145.98145,462.56445,140,455.65723,140,440c0-22.06641,9.37793-31.55762,22.35645-44.69336l.48925-.49609a3.99965,3.99965,0,0,0-5.6914-5.6211l-.48828.49414C143.43066,403.0791,132,414.64746,132,440c0,18.63965,7.5791,27.3916,14.2666,35.11328C151.70508,481.39258,156,486.35254,156,496h8C164,483.37012,158.05957,476.51074,152.31348,469.876Z"/><path d="M365.7334,475.11328C372.4209,467.3916,380,458.63965,380,440c0-25.35254-11.43066-36.9209-24.666-50.31641l-.48828-.49414a3.99965,3.99965,0,1,0-5.6914,5.6211l.48925.49609C362.62207,408.44238,372,417.93359,372,440c0,15.65723-5.98145,22.56445-12.31348,29.876C353.94043,476.51074,348,483.37012,348,496h8C356,486.35254,360.29492,481.39258,365.7334,475.11328Z"/><path d="M124,424a4,4,0,0,0-8,0v72h8Z"/><path d="M180,408a4,4,0,0,0-8,0v88h8Z"/><path d="M204,464a4,4,0,0,0-8,0v32h8Z"/><path d="M140,480a4,4,0,0,0-8,0v16h8Z"/><path d="M396,424a4,4,0,0,0-8,0v72h8Z"/><path d="M340,408a4,4,0,0,0-8,0v88h8Z"/><path d="M380,480a4,4,0,0,0-8,0v16h8Z"/><path d="M135.999,365.89648c13.06739-15.43261,28.17578-24.65478,42.16358-31.04l-6.04346,24.17382a4,4,0,0,0,2.61621,4.76465l19.03125,6.34375-13.09472,19.64258a3.99861,3.99861,0,0,0-.40528,3.6543L219.71436,496h8.27587a3.97347,3.97347,0,0,0-.25683-1.43555L188.47656,392.49609l14.85156-22.27734a4.00057,4.00057,0,0,0-2.06347-6.01367L180.7793,357.377l6.60815-26.43359c4.19019-1.66016,8.20191-3.11719,11.93091-4.46973,4.77051-1.72314,9.06787-3.28076,12.81714-4.90674a11.97362,11.97362,0,0,0,8.37622,13.17237,11.83487,11.83487,0,0,0,.87646,2.11377c3.73194,50.02588,13.92871,152.49853,14.592,159.147h8.03467l-.03442-.39844c-.104-1.03369-9.89868-99.125-14.09326-152.542a11.9888,11.9888,0,0,0,12.146-5.16064c2.18262,5.354,1.41309,10.83545.53809,16.96435-1.001,7.00781-2.13574,14.95117,1.85059,22.92578,4.59643,9.19287,15.74658,14.93408,33.22363,17.15723-4.41065,48.459-9.57276,100.127-9.63086,100.709L267.98486,496H276.02c.48926-4.91162,5.38086-54.063,9.59033-100.30957Q290.53443,395.99805,296,396a3.99988,3.99988,0,0,0,2.82812-6.82812C292,382.34277,292,375.80273,292,360a39.12635,39.12635,0,0,0-2.15088-13.291q.14209-1.77246.27393-3.46289c4.80371,12.97705,11.65918,20.89551,17.67383,25.66016l5.19531,7.79346,10.53125,15.79638L284.2666,494.56445A3.97883,3.97883,0,0,0,284.00977,496h8.27587L308,455.14258V496h8V434.34229l15.7334-40.90674a3.99829,3.99829,0,0,0-.40528-3.6543l-9.07177-13.6084a30.99189,30.99189,0,0,0,7.13232.85254,25.27426,25.27426,0,0,0,19.60645-8.69727c5.59814-6.63183,6.68213-14.42333,5.78613-21.67968,15.37451,10.71679,27.33789,24.57031,36.38281,42.13476C404.99023,415.62988,412,451.70312,412,496h11.99609c-.0039-61.90332-12.708-106.99707-38.83593-137.85547a121.968,121.968,0,0,0-30.04395-25.624,72.19421,72.19421,0,0,0-4.168-8.48926c-3.67578-6.42773-5.90136-12.248-6.73828-17.65332,11.89844-3.63672,16.42188-11.50586,18.10059-16.23926,2.60058-7.27929,1.43261-15.40234-2.86426-20.67187C375,249.875,392,228.13574,392,192V104c0-34.03613-11.6582-58.83887-34.65137-73.71777C338.13477,17.85547,315.67676,16,304,16c-13.69043,0-27.81934,0-40.97363,4.46484C253.47559,16,242.57227,16,232,16c-24.2334,0-44.80371,7.02637-61.14355,20.88672-13.92286,11.82422-24.11036,28.28125-29.459,47.59082C131.669,119.57715,139.68164,156.42969,160,172.18945V216c0,35.87695,21.375,52.25,38.68945,65.124a20.04171,20.04171,0,0,0-5.40527,4.21778,21.81428,21.81428,0,0,0-3.458,23.31738,19.33129,19.33129,0,0,0,4.96192,6.69238c-19.45215,7.05469-45.92383,16.78028-67.94727,42.791C100.71191,389.00293,88.00781,434.09668,88.00391,496h12C100.00781,437.05566,111.78223,394.499,135.999,365.89648ZM208.10742,308c-.10547,0-.21387.001-.31933.001a7.14262,7.14262,0,0,1-7.02832-4.29786,9.90862,9.90862,0,0,1,1.43554-10.32519c2.57422-2.8584,7.02539-3.41992,12.54-1.583a90.93521,90.93521,0,0,1,12.37134,5.16455l-.95288,1.4292a33.06443,33.06443,0,0,0-15.72022-3.13769,4,4,0,1,0,.4668,7.98632,25.30423,25.30423,0,0,1,10.77149,1.873l-2.68335,4.02442A39.84538,39.84538,0,0,0,208.10742,308Zm27.08106,25.68066a4,4,0,0,1-3.19629,1.57422,3.94421,3.94421,0,0,1-3.81348-2.88037l15.001-19.66162a3.99995,3.99995,0,0,0-6.35938-4.85351l-14.51245,19.02148a4.017,4.017,0,0,1-1.63794-5.84766l18.1709-27.252a4.00086,4.00086,0,0,1,7.29688,2.73633,3.9999,3.9999,0,0,0,5.03613,4.38086,4.00375,4.00375,0,0,1,4.25879,6.28808Zm16.38964,40.53028c-2.87011-5.73926-2.0039-11.79981-1.08789-18.2168,1.10523-7.73291,2.32081-16.40527-3.09619-25.11084l3.04883-3.98975c8.35889,7.438,7.82373,14.36182,7.30029,21.07911-.40527,5.21191-.82519,10.60254,3.42872,14.85546a3.99957,3.99957,0,0,0,5.65624-5.65624c-1.57128-1.57227-1.45312-4.15235-1.10839-8.57813.56054-7.208,1.376-17.81738-10.41431-28.06348l1.49048-1.95068q2.17017,2.04784,4.376,4.24853C276.8457,338.50293,284,345.65723,284,360c0,12.37793,0,20.59473,3.84082,27.79C274.00488,387.06055,256.52637,384.10938,251.57812,374.21094Zm32.67676-61.30127a71.31135,71.31135,0,0,0-12.2207,9.49658c-1.64551-1.6709-7.20085-7.32292-10.0415-9.91992a117.87231,117.87231,0,0,1,22.60888-15.3711C283.625,301.6875,284.09033,310.06592,284.25488,312.90967Zm-.71582,10.15478q-.29,4.812-.76025,11.23682c-1.55664-2-3.28174-4.019-5.21192-6.11816Q280.70386,325.24244,283.53906,323.06445ZM342.88281,363.168c-4.81347,5.69922-15.50781,9.2487-28.30517.94922C298.08057,353.02539,292,326.71729,292,304a29.99468,29.99468,0,0,1,.47314-5.3335,85.856,85.856,0,0,0,31.87842,6.08155c2.51172,0,5.04346-.12012,7.55908-.333.5503,8.00244,3.38477,16.41406,8.6167,25.56934C348.20312,343.417,349.083,355.82227,342.88281,363.168Zm8.12793-77.05371c-1.91211,5.377-7.47265,8.88965-15.708,9.89648l-.05371.00635c-.02392.00342-.04785.00439-.07177.0083a79.29025,79.29025,0,0,1-40.17481-4.97705c2.29444-4.69873,5.7627-8.92236,9.96387-13.19385,13.11426,4.147,28.78076,3.58887,43.44482-1.61133.30957-.09179.80078-.18066,1.51367.56153C351.48047,278.4209,352.38965,282.2334,351.01074,286.11426Zm-6.333-17.06006a63.98379,63.98379,0,0,1-32.95361,2.30225c14.02588-12.77312,30.01123-27.82227,38.30322-53.45606l24.791-9.91894a21.20612,21.20612,0,0,0,4.20215-2.2566C374.91667,233.58333,358.3125,251,344.67773,269.0542ZM164,136v23.67725c-13.69312-14.22876-18.71924-44.26661-11.03809-71.99854C157.93164,69.73535,175.583,28,232,28c7.66553,0,14.82178.00513,20.95142,1.56641a54.26259,54.26259,0,0,0-16.27954,16.21484,3.9999,3.9999,0,0,0,6.65624,4.4375C258.14062,28,280.416,28,304,28c10.35547,0,30.209,1.60547,46.82715,12.3584C370.18457,52.88379,380,74.2959,380,104v64.52441a20.91658,20.91658,0,0,0-27.79883,1.61817l-3.02929,3.0293A4.00049,4.00049,0,0,0,348,176c0,5.90527-4.30957,8-8,8s-8-2.09473-8-8c0-49.0293-29.05859-53.5166-54.69727-57.47461-18.99511-2.93262-35.39941-5.46582-41.50781-23.79a4.00057,4.00057,0,0,0-6.99512-1.13574c-22.75683,30.34277-61.20214,38.40137-61.584,38.47851A3.999,3.999,0,0,0,164,136Zm8,80V139.16309c9.57129-2.48536,38.16016-11.56934,58.92871-35.47657,9.08887,17.17481,27.39356,20.00293,45.15332,22.74512C301.794,130.40137,324,133.83008,324,176c0,10.50391,8.04883,16,16,16,7.502,0,15.09082-4.89258,15.9248-14.26758l1.93262-1.93359A12.971,12.971,0,0,1,380,184.9707v3.54a12.90866,12.90866,0,0,1-8.1543,12.043l-26.55371,10.624a4.00222,4.00222,0,0,0-2.34179,2.55274c-7.49708,24.7168-22.05176,38.209-34.89258,50.1123-8.09131,7.50147-15.49024,14.36182-19.88623,22.834a112.04677,112.04677,0,0,0-24.54834,14.26269,12.00353,12.00353,0,0,0-9.86328-8.10351,11.95406,11.95406,0,0,0-4.93067-6.82129,12.10656,12.10656,0,0,0-17.25732,4.24853,99.56056,99.56056,0,0,0-10.07447-4.53759c-4.46142-5.75489-10.68774-10.48682-17.2854-15.47364C189.11328,258.83789,172,245.90137,172,216Z"/><path d="M200,176a7.99941,7.99941,0,0,0-7.59473,5.49658c-.56982-.17529-1.12793-.3623-1.65771-.57739a8.6497,8.6497,0,0,1-3.238-2.126A4.0052,4.0052,0,0,1,186.58325,176l.00025-.02222-.00025-.02221a2.58335,2.58335,0,1,0-5.1665.04443,8.8878,8.8878,0,0,0,.69433,3.36523,8.171,8.171,0,0,0,2.022,2.82178,11.82521,11.82521,0,0,0,5.39575,2.64868,19.49262,19.49262,0,0,0,2.58105.4314A7.99592,7.99592,0,1,0,200,176Z"/><path d="M288,184a7.998,7.998,0,0,0-15.59473-2.50342c-.56982-.17529-1.12793-.3623-1.65771-.57739a8.6497,8.6497,0,0,1-3.238-2.126A4.0052,4.0052,0,0,1,266.58325,176l.00025-.02222-.00025-.02221a2.58335,2.58335,0,1,0-5.1665.04443,8.8878,8.8878,0,0,0,.69433,3.36523,8.171,8.171,0,0,0,2.022,2.82178,11.82521,11.82521,0,0,0,5.39575,2.64868,19.49262,19.49262,0,0,0,2.58105.4314A7.99521,7.99521,0,0,0,288,184Z"/></g></svg>
