<?xml version="1.0" encoding="UTF-8"?>
<svg xmlns="http://www.w3.org/2000/svg" viewBox="0 0 512 512" width="512" height="512"><g id="Fill_out_line" data-name="Fill out line"><path d="M456,88v24c0,16,0,40-16,40v88c0,24,0,64-24,64-21.49,0-23.74-32.06006-23.97-56H392c-16,0-16-24-16-48l-47.16667-1.19336V39.99712L344,40s24-16,48-16S456,40,456,88Z" style="fill:#03999c"/><path d="M360,56l16-8c24,16,24,48,24,48l-16,8Z" style="fill:#ea5003"/><path d="M200,136c0,104-16,112-40,120s-32-16-16-24,24-8,24-48V136Z" style="fill:#03999c"/><path d="M288,304c0-17.73985,96-24,96-112V112c0-80-72-88-128-88V304Z" style="fill:#03999c"/><path d="M416,496H96c0-103.91016,37.49-142.21,71.89-160.56006a.25147.25147,0,0,0,.07-.04C197.1,319.89014,224,318.66992,224,304c0-32-56-32-56-88V136c0-32,19.71-72,96-72,112,0,88,80,88,112l3.03-3.03a16.97056,16.97056,0,0,1,28.97,12v3.54a16.96876,16.96876,0,0,1-10.66992,15.76l-26.55,10.62012C331.51,265.23,288,271.02,288,304c0,14.68994,26.96,15.89014,56.14,31.46.01,0,.01.01.0199.01C378.54,353.82007,416,392.14014,416,496Z" style="fill:#f5a971"/><path d="M244.39258,256.7334a35.57875,35.57875,0,0,1-18.236-4.98391,7.96345,7.96345,0,0,1-1.44193-12.46406h0a8.08113,8.08113,0,0,1,9.7722-1.20519,20.22753,20.22753,0,0,0,13.4907,2.35776,24.07292,24.07292,0,0,0,13.51208-7.23412,8.01916,8.01916,0,0,1,9.4534-1.73236h0a7.98264,7.98264,0,0,1,2.37267,12.514,39.99821,39.99821,0,0,1-22.77566,12.246A38.39944,38.39944,0,0,1,244.39258,256.7334Z" style="fill:#e37066"/><path d="M380,112v24H169.83A24.04086,24.04086,0,0,1,146.16,107.96C156.96,42.77,206.48,24,256,24c29.21,0,62.78,2.17993,88.21,15.62012a.555.555,0,0,0-.05.07983,4.00325,4.00325,0,0,0,1.53,5.32007C368.77,58.6001,380,80.55005,380,112Z" style="fill:#03999c"/><path d="M320,136c0,104,16,112,40,120s32-16,16-24-24-8-24-48v-8l8.9511-40Z" style="fill:#03999c"/><path d="M376,440c0,32-24,32-24,56H160c0-24-24-24-24-56,0-24,10.5-34.33008,24-48s24-32,8-56l-.04-.6001C197.1,319.89014,224,318.66992,224,304h64c0,14.68994,26.96,15.89014,56.14,31.46L344,336c-16,24-5.5,42.33008,8,56S376,416,376,440Z" style="fill:#f57a08"/><path d="M135.999,365.89648a112.11553,112.11553,0,0,1,30.34656-25.00878c9.98285,16.80932,7.08655,31.82177-9.19128,48.30175l-.48877.49414C143.43018,403.0791,132,414.64746,132,440c0,18.63965,7.5791,27.3916,14.2666,35.11328C151.70459,481.39258,156,486.35254,156,496h8c0-12.62988-5.94092-19.48926-11.686-26.124C145.98145,462.56445,140,455.65723,140,440c0-22.06641,9.37744-31.55762,22.35645-44.69336l.48925-.49609c18.70636-18.9375,22.17585-37.84424,10.56464-57.6875a240.24148,240.24148,0,0,1,25.91241-10.65137c14.11982-5.11206,25.61939-9.28,28.15223-18.47168h57.04968c2.46,9.16406,13.48352,13.16162,28.18432,18.4834a239.84222,239.84222,0,0,1,25.88111,10.63916c-11.61182,19.84326-8.14234,38.75024,10.56421,57.688l.48925.49609C362.62256,408.44238,372,417.93359,372,440c0,15.65723-5.98145,22.56445-12.314,29.876C353.94092,476.51074,348,483.37012,348,496h8c0-9.64746,4.29541-14.60742,9.7334-20.88672C372.4209,467.3916,380,458.63965,380,440c0-25.35254-11.43018-36.9209-24.66553-50.31641l-.48877-.49414c-16.27807-16.48022-19.17431-31.49267-9.19091-48.30249A112.12674,112.12674,0,0,1,376,365.89551C400.22461,394.5166,412,437.07422,412,496h12c0-61.88379-12.70459-106.97754-38.84082-137.85742-22.1792-26.19336-48.87012-35.87305-68.397-42.9541-9.8003-3.54786-19.09815-6.91309-20.55909-10.24707l.13917-.36426c2.74755-2.50293,10.61962-6.25293,17.03906-9.31153,13.88672-6.61914,32.64111-15.55859,48.36523-30.49414a34.04112,34.04112,0,0,0,7.32373.82813,24.67217,24.67217,0,0,0,15.28321-4.96C385.38135,280.8916,390.19189,312,416,312c17.94971,0,25.4502-15.40723,28.58154-28.332C448,269.55664,448,252.47363,448,240V158.56445c15.99854-6.24316,16-31.1289,16-46.56445V88c0-29.96777-14.20654-47.17773-26.12012-56.335A77.77648,77.77648,0,0,0,392,16c-19.9707,0-39.35059,9.6582-47.93555,14.58691C330.06885,23.92871,305.749,16,256,16c-29.58887,0-54.40869,6.32715-73.772,18.80762a94.43366,94.43366,0,0,0-9.90723,7.34765l-27.69824-2.127a7.9979,7.9979,0,0,0-5.269,14.48438l13.94189,9.95312c-7.32812,11.99512-12.37451,26.15527-15.0249,42.18457A32.06147,32.06147,0,0,0,160,142.45215V184c0,31.46484-3.8916,33.32227-15.47559,38.84961-16.85772,6.56689-19.00879,20.42578-15.28418,29.41406,3.42139,8.22656,11.73243,13.33594,21.69,13.33594a36.79229,36.79229,0,0,0,11.59716-2.00684,93.26611,93.26611,0,0,0,11.65821-4.57715c6.93017,8.81934,15.272,15.12793,22.78759,20.81153C208.77,288.73828,216,294.67383,216,304c0,3.67188-10.085,7.32324-20.80029,11.20215-19.48877,7.06738-46.17969,16.74707-68.35987,42.9414C100.70459,389.02246,88,434.11621,88,496h12C100,437.07422,111.77539,394.5166,135.999,365.89648Zm172.22022-81.46386c-5.34253,2.54541-9.72437,4.6665-13.24,6.66235,3.7135-7.63476,10.55029-13.99927,18.51733-21.385,7.04053-6.52685,14.89527-13.8125,21.90235-23.29346,4.78466,5.30445,10.3684,8.45508,16.65039,10.96485C337.947,270.24438,320.92871,278.37451,308.21924,284.43262ZM392,28a65.373,65.373,0,0,1,38.56348,13.17676C440.34277,48.69336,452,62.918,452,88v24c0,18.21582-.92676,36-12,36s-12-17.78418-12-36a4,4,0,0,0-8,0c0,15.27368.01147,40.0813,16,43.572V240c0,29.0293-1.54541,60-20,60-12.89648,0-19.2373-15.42212-19.91614-48.46655,6.91944-1.60889,11.566-7.51929,13.82093-17.66529C412,224.43945,412,212.01465,412,200a4,4,0,0,0-8,0c0,25.76367-.86084,44-12,44a8.405,8.405,0,0,1-3.7395-.8042,17.33516,17.33516,0,0,0-7.3468-12.86572A100.87956,100.87956,0,0,0,388,192V112c0-1.85156-.04871-3.66821-.12463-5.46509l13.91369-6.95679A4.00138,4.00138,0,0,0,404,96c0-1.39355-.293-34.33594-25.78125-51.32812a3.99932,3.99932,0,0,0-4.00781-.25l-9.70532,4.85253A77.87151,77.87151,0,0,0,352.311,39.7207C360.72705,35.135,376.33887,28,392,28ZM370.15674,55.3938l5.4917-2.74634c16.58154,12.40625,19.65625,33.79,20.22363,40.94434l-8.67139,4.33545Q384.22743,72.55286,370.15674,55.3938ZM256,28c25.57129,0,58.145,1.54688,83.269,13.60645,1.93018.92651,3.78272,1.90747,5.57349,2.93212L248,51.98828l-62.61786-4.81689C203.11475,34.44775,226.80859,28,256,28Zm81.99316,25.08887L295.92188,83.14062l-36.06153-24.041ZM236.13965,59.09961l-36.06153,24.041L158.00684,53.08887Zm-81.53076,65.85351a20.12882,20.12882,0,0,1-4.5-16.33886c2.60394-15.72241,7.68774-29.334,15.11285-40.54L197.6748,91.25488a4,4,0,0,0,4.54395.07324L248,60.80737l45.78125,30.52075a4,4,0,0,0,4.54395-.07324l56-40c.06835-.04883.125-.10815.18957-.16064a66.1088,66.1088,0,0,1,6.14661,5.57788,3.96193,3.96193,0,0,0,.39856.41528C373.765,70.44189,380,88.60376,380,112v56.51123a20.93909,20.93909,0,0,0-27.79932,1.63135l-3.02929,3.0293A4,4,0,0,0,348,176v8c0,12.66211.82959,21.62012,2.51172,28.21094,3.14453,12.88281,10.14258,16.86621,19.76562,21.458,1.24292.59375,2.54566,1.21557,3.90625,1.89575.0083.0039.01465.00952.023.01342l.011.00367c5.9519,2.97925,7.00159,8.34839,5.45679,12.07641-1.793,4.33106-7.69287,8.12012-18.40918,4.54688-9.71485-3.23828-17.03223-6.26636-22.73487-14.68237l-.02014-.02906a44.30206,44.30206,0,0,1-3.84558-7.09717C327.59412,214.23633,324.19531,185.44946,324.009,140H352a4,4,0,0,0,0-8H214.0791C212.00659,124.27832,212,113.99121,212,104a4,4,0,0,0-8,0c0,9.6875.00189,19.64209,1.84241,28H190.07922C188.00653,124.27881,188,113.99121,188,104a4,4,0,0,0-8,0c0,9.68726.00195,19.64258,1.84253,28H169.82568A19.9168,19.9168,0,0,1,154.60889,124.95312Zm217.2373,75.60059-14.50488,5.80274C356.42969,200.959,356,193.78613,356,184v-6.34277l1.85791-1.8584A12.97064,12.97064,0,0,1,380,184.9707v3.54A12.90964,12.90964,0,0,1,371.84619,200.55371Zm7.28577,5.0874a87.23325,87.23325,0,0,1-5.29883,20.86109l-.11047-.053c-6.82715-3.25781-11.47461-5.47461-14.29151-12.3125l15.38672-6.15527A21.18008,21.18008,0,0,0,379.132,205.64111Zm-220.399,46.5669a24.86221,24.86221,0,0,1-7.80273,1.3916c-5.09571,0-9.062-2.22168-10.60694-5.93652-1.5459-3.73047-.49365-9.1045,5.47071-12.08692.98291-.49121,1.94043-.95215,2.86523-1.39746l1.06494-.51367c6.39282-3.05078,11.17011-5.81958,14.63092-10.14258a62.337,62.337,0,0,0,6.76257,23.55176A68.25183,68.25183,0,0,1,158.73291,252.208ZM204.2124,270.252C189.11328,258.83789,172,245.90137,172,216V140H316.00977c.23181,56.16089,5.37719,84.24316,14.43432,99.606-6.92029,9.89819-15.1073,17.4895-22.38647,24.23779-11.9126,11.043-22.31812,20.70117-23.855,36.15625h-56.4682C225.95709,286.69556,215.3692,278.68555,204.2124,270.252Z"/><path d="M236,220h4a4,4,0,0,0,0-8h-4a8,8,0,0,1,0-16h4a4,4,0,0,0,0-8h-4a16,16,0,0,0,0,32Z"/><path d="M272.73145,227.89355a11.94786,11.94786,0,0,0-14.166,2.58106,20.05931,20.05931,0,0,1-11.22852,6.01465,16.09309,16.09309,0,0,1-10.85986-1.87891,12.12941,12.12941,0,0,0-14.59033,1.8457,12.00235,12.00235,0,0,0-3.43994,10.06446,11.69842,11.69842,0,0,0,5.67578,8.67285,39.34763,39.34763,0,0,0,20.27,5.54,42.6461,42.6461,0,0,0,6.78808-.55371,43.84784,43.84784,0,0,0,25.07422-13.48047,11.77027,11.77027,0,0,0,2.94043-10.18945A11.955,11.955,0,0,0,272.73145,227.89355Zm-2.354,13.37793a35.81215,35.81215,0,0,1-20.47656,11.01172,31.93082,31.93082,0,0,1-21.71094-3.97851,3.72394,3.72394,0,0,1-1.80664-2.78907,4.05548,4.05548,0,0,1,1.15967-3.40136,3.92512,3.92512,0,0,1,2.7959-1.15235,4.33675,4.33675,0,0,1,2.15722.58789,24.22161,24.22161,0,0,0,16.12207,2.83594,28.20568,28.20568,0,0,0,15.79639-8.45312,4.01491,4.01491,0,0,1,6.91113,2.01562A3.83584,3.83584,0,0,1,270.37744,241.27148Z"/><path d="M215.03967,159.68018,196.668,153.563a7.99956,7.99956,0,0,0-8.18878,1.93774l-5.66394,5.6731A4,4,0,0,0,185.64594,168h28.045a4.26924,4.26924,0,0,0,1.34875-8.31982Z"/><path d="M291.52075,155.50073A7.99946,7.99946,0,0,0,283.332,153.563l-18.3717,6.11719A4.26922,4.26922,0,0,0,266.30908,168H294.354a4,4,0,0,0,2.83081-6.82617Z"/><path d="M200,176a7.993,7.993,0,0,0-7.20679,4.54443,18.12544,18.12544,0,0,1-1.70709-.71362,6.88079,6.88079,0,0,1-2.64117-1.97754A2.81484,2.81484,0,0,1,188,176l-.00031-.05811-.00012-.01245A3.99994,3.99994,0,0,0,180,176a10.11613,10.11613,0,0,0,.8288,3.876,9.33874,9.33874,0,0,0,2.36883,3.25122,12.62225,12.62225,0,0,0,5.99268,2.79663,20.11144,20.11144,0,0,0,3.145.36059A7.999,7.999,0,1,0,200,176Z"/><path d="M280,176a7.993,7.993,0,0,0-7.20679,4.54443,18.11087,18.11087,0,0,1-1.707-.71362,6.88011,6.88011,0,0,1-2.64123-1.97754A2.81519,2.81519,0,0,1,268,176l-.00037-.05811v-.01245A4,4,0,0,0,260,176a10.11289,10.11289,0,0,0,.82886,3.876,9.338,9.338,0,0,0,2.36877,3.25122,12.62225,12.62225,0,0,0,5.99268,2.79663,20.11225,20.11225,0,0,0,3.145.36059A7.999,7.999,0,1,0,280,176Z"/><path d="M437.88,31.66992A77.75612,77.75612,0,0,0,392,16c-19.97,0-39.35,9.65991-47.93994,14.58984C330.07007,23.92993,305.75,16,256,16c-29.59,0-54.41,6.33008-73.77,18.81006a93.74334,93.74334,0,0,0-9.91,7.34985L144.62,40.03a7.99565,7.99565,0,0,0-5.27,14.48l13.95,9.96c-7.33,11.99-12.38,26.15015-15.03,42.17993A32.04762,32.04762,0,0,0,160,142.45V184c0,31.46-3.89,33.32007-15.48,38.8501-16.85,6.56982-19,20.42993-15.28,29.40991,3.42,8.23,11.73,13.34009,21.69,13.34009a36.88291,36.88291,0,0,0,11.6-2.01026A92.88263,92.88263,0,0,0,174.19,259.02c6.93,8.81006,15.27,15.12012,22.78,20.81006C208.77,288.74,216,294.66992,216,304c0,3.66992-10.08,7.32007-20.8,11.2-19.49,7.07007-46.18,16.75-68.36,42.94019C100.7,389.02,88,434.12012,88,496h12c0-58.92993,11.78-101.48,36-130.1001a112.03757,112.03757,0,0,1,30.35-25.00976c9.98,16.80981,7.08,31.81982-9.2,48.2998l-.48.49C143.43,403.08008,132,414.6499,132,440c0,18.64014,7.58,27.39014,14.27,35.10986C151.7,481.39014,156,486.3501,156,496h8c0-12.62988-5.94-19.49-11.69-26.12012C145.98,462.56006,140,455.65991,140,440c0-22.07007,9.38-31.56006,22.36-44.68994l.49-.5c18.7-18.93994,22.17-37.84009,10.56-57.68994A240.09827,240.09827,0,0,1,199.32,326.47c14.12-5.11011,25.62-9.28,28.15-18.47H284.52c2.46,9.15991,13.49,13.15991,28.18994,18.48a241.26621,241.26621,0,0,1,25.88013,10.64014C326.98,356.97,330.45,375.87012,349.15,394.81006l.49.5C362.62,408.43994,372,417.92993,372,440c0,15.65991-5.98,22.56006-12.31006,29.87988C353.93994,476.51,348,483.37012,348,496h8c0-9.6499,4.3-14.60986,9.73-20.89014C372.41992,467.39014,380,458.64014,380,440c0-25.3501-11.42993-36.91992-24.66992-50.32007l-.4801-.49c-16.27991-16.48-19.18006-31.49-9.2-48.2998A112.03577,112.03577,0,0,1,376,365.8999C400.22,394.52,412,437.07007,412,496h12c0-61.87988-12.7-106.98-38.84009-137.85986C362.98,331.95,336.29,322.27,316.76,315.18994c-9.8-3.5498-19.1001-6.90991-20.56006-10.25l.14014-.35986c2.75-2.51,10.61987-6.26,17.03991-9.31006,13.89-6.62012,32.64-15.56006,48.37-30.5a34.02738,34.02738,0,0,0,7.32007.83008,24.67173,24.67173,0,0,0,15.27991-4.96C385.38,280.89014,390.18994,312,416,312c17.95,0,25.45-15.41016,28.58008-28.33008C448,269.56006,448,252.47,448,240V158.56006c16-6.24,16-31.12012,16-46.56006V88C464,58.03,449.79,40.82007,437.88,31.66992ZM256,28c25.57007,0,58.15,1.55,83.27,13.60986,1.92993.92017,3.78,1.90015,5.57007,2.93018L248,51.99l-62.62-4.82007C203.11,34.45,226.81,28,256,28Zm81.99,25.08984-42.07007,30.0503L259.86,59.1001ZM236.14,59.1001l-36.06,24.04-42.07-30.0503ZM158.73,252.21a24.93532,24.93532,0,0,1-7.8,1.39014c-5.1,0-9.06-2.22022-10.61-5.94019-1.54-3.73-.49-9.09985,5.47-12.07983,4.04689-2.23633,13.87669-5.70508,18.57-12.06006a62.07316,62.07316,0,0,0,6.76,23.55005A68.23217,68.23217,0,0,1,158.73,252.21ZM284.2,300H227.73c-1.77-13.3-12.36-21.31006-23.52-29.75C189.11,258.83984,172,245.8999,172,216V140H316.01c.23,56.15991,5.38,84.24,14.42993,99.60986-6.91992,9.89014-15.09985,17.49024-22.37988,24.23C296.15,274.89014,285.74,284.54,284.2,300Zm24.02-15.57007c-5.34,2.55-9.73,4.67017-13.24,6.65991,3.71-7.62988,10.55-13.98974,18.52-21.37988,7.04-6.53,14.89-13.81006,21.9-23.29,4.77991,5.3,10.37,8.4502,16.65,10.96C337.95,270.24,320.92993,278.37012,308.22,284.42993Zm71.45-36.77C377.88,251.99,371.98,255.78,361.27,252.21c-9.72-3.24-17.04-6.27-22.74-14.68994-.01-.01-.01-.02-.02-.03a44.42993,44.42993,0,0,1-3.8501-7.09009C327.59009,214.24,324.2,185.45,324.01,140H352a4,4,0,0,0,0-8H214.08c-2.07-7.72-2.08-18.01-2.08-28a4,4,0,0,0-8,0c0,9.68994,0,19.64014,1.84,28H190.08c-2.07-7.72-2.08-18.01-2.08-28a4,4,0,0,0-8,0c0,9.68994,0,19.64014,1.84,28H169.83a19.91344,19.91344,0,0,1-15.22-7.05,20.13806,20.13806,0,0,1-4.5-16.34009c2.6-15.71972,7.69-29.32983,15.11-40.53979L197.67,91.25a4.00347,4.00347,0,0,0,4.55.08008l45.78-30.52,45.78,30.52a4.00356,4.00356,0,0,0,4.55-.08008l56.2-40.14014C373.91667,66.83333,380,88.6001,380,112v56.51a20.94527,20.94527,0,0,0-27.8,1.63013l-3.03,3.02978A4.004,4.004,0,0,0,348,176v8c0,12.65991.83008,21.62012,2.51,28.21,3.1499,12.87988,10.14,16.87012,19.77,21.46,1.24.59009,2.54,1.21,3.8999,1.89014.01.01.02.01.03.02h.01C380.16992,238.56006,381.22,243.92993,379.66992,247.65991Zm-9.51-192.26977L375.65,52.6499c16.58,12.40015,19.65,33.79,20.22,40.93994L387.2,97.92993Q384.23,72.55005,370.15991,55.39014ZM371.85,200.55005l-14.50989,5.80981C356.42993,200.96,356,193.79,356,184v-6.34009l1.86-1.85986A12.96831,12.96831,0,0,1,380,184.97v3.54A12.90949,12.90949,0,0,1,371.85,200.55005Zm7.28,5.09009A86.72445,86.72445,0,0,1,373.83008,226.5a1.17428,1.17428,0,0,0-.11011-.05c-6.82-3.26-11.47-5.48-14.29-12.30981L374.82007,207.98A21.05623,21.05623,0,0,0,379.13,205.64014ZM452,112c0,18.22-.92993,36-12,36s-12-17.78-12-36a4,4,0,0,0-8,0c0,15.27.01,40.08008,16,43.57007V240c0,29.03-1.55,60-20,60-12.9,0-19.24-15.41992-19.91992-48.47C403,249.91992,407.65,244.01,409.9,233.87012,412,224.43994,412,212.01,412,200a4,4,0,0,0-8,0c0,25.76-.86,44-12,44a8.47409,8.47409,0,0,1-3.74-.8,17.33952,17.33952,0,0,0-7.3501-12.86987A100.85141,100.85141,0,0,0,388,192V112c0-1.8501-.05-3.66992-.12-5.47l13.91-6.95A4.02059,4.02059,0,0,0,404,96c0-1.39014-.29-34.34009-25.78-51.33008a4.02272,4.02272,0,0,0-4.01-.25l-9.7,4.8501a78.36937,78.36937,0,0,0-12.2-9.55C360.73,35.14014,376.34009,28,392,28a65.30835,65.30835,0,0,1,38.56006,13.17993C440.34009,48.68994,452,62.91992,452,88Z"/></g></svg>
