<?xml version="1.0" encoding="iso-8859-1"?>
<!-- Generator: Adobe Illustrator 19.0.0, SVG Export Plug-In . SVG Version: 6.00 Build 0)  -->
<svg version="1.1" id="Capa_1" xmlns="http://www.w3.org/2000/svg" xmlns:xlink="http://www.w3.org/1999/xlink" x="0px" y="0px"
	 viewBox="0 0 512 512" style="enable-background:new 0 0 512 512;" xml:space="preserve">
<path style="fill:#00B8FA;" d="M238.057,0l-20,30.5l20,30.5c107.696,0,195,87.304,195,195s-87.304,195-195,195l-20,30.5l20,30.5
	c141.385,0,256-114.615,256-256S379.442,0,238.057,0z"/>
<g>
	<path style="fill:#5CD4FF;" d="M68.559,352.467l-50.616,34.289C62.587,461.747,144.447,512,238.057,512v-61
		C165.455,451,102.127,411.32,68.559,352.467z"/>
	<path style="fill:#5CD4FF;" d="M17.943,125.244l50.616,34.289C102.127,100.68,165.455,61,238.057,61V0
		C144.447,0,62.587,50.253,17.943,125.244z"/>
</g>
<g>
	<path style="fill:#00B8FA;" d="M287.786,222.432l49.675-33.652c-21.575-31.846-58.04-52.78-99.404-52.78l-30,30l30,30
		C257.984,196,276.574,205.881,287.786,222.432z"/>
	<path style="fill:#00B8FA;" d="M337.46,323.22l-49.675-33.652C276.574,306.119,257.984,316,238.057,316l-30,30l30,30
		C279.421,376,315.886,355.066,337.46,323.22z"/>
</g>
<path style="fill:#5CD4FF;" d="M178.057,256c0-33.084,26.916-60,60-60v-60c-66.274,0-120,53.726-120,120s53.726,120,120,120v-60
	C204.973,316,178.057,289.084,178.057,256z"/>
<g>
</g>
<g>
</g>
<g>
</g>
<g>
</g>
<g>
</g>
<g>
</g>
<g>
</g>
<g>
</g>
<g>
</g>
<g>
</g>
<g>
</g>
<g>
</g>
<g>
</g>
<g>
</g>
<g>
</g>
</svg>
