<?xml version="1.0" encoding="iso-8859-1"?>
<!-- Generator: Adobe Illustrator 19.0.0, SVG Export Plug-In . SVG Version: 6.00 Build 0)  -->
<svg version="1.1" id="Capa_1" xmlns="http://www.w3.org/2000/svg" xmlns:xlink="http://www.w3.org/1999/xlink" x="0px" y="0px"
	 viewBox="0 0 512 512" style="enable-background:new 0 0 512 512;" xml:space="preserve">
<path style="fill:#00B8FA;" d="M91.002,165l-18.079,91l18.079,91C141.26,347,182,306.258,182,256S141.26,165,91.002,165z"/>
<path style="fill:#5CD4FF;" d="M0,256c0,50.258,40.744,91,91.002,91V165C40.744,165,0,205.742,0,256z"/>
<path d="M259.802,218.911c0,16.649-11.07,27.179-28.709,27.179c-17.729,0-29.069-10.53-29.069-27.179v-36.539h16.02v36.539
	c0,8.55,5.49,13.77,13.14,13.77c7.56,0,12.689-5.22,12.689-13.77v-36.539h15.93v36.539H259.802z"/>
<path d="M319.871,188.672l-6.029,12.51c-6.66-3.87-15.029-6.57-20.159-6.57c-4.14,0-6.93,1.53-6.93,4.59
	c0,10.889,33.299,4.68,33.299,27.449c0,12.6-11.16,19.259-25.199,19.259c-10.529,0-21.329-3.96-28.799-10.08l6.21-12.33
	c6.479,5.67,16.199,9.45,22.769,9.45c5.04,0,8.189-1.89,8.189-5.49c0-11.16-33.298-4.5-33.298-26.819
	c0-11.61,9.989-18.989,25.108-18.989C304.122,181.652,313.392,184.442,319.871,188.672z"/>
<path d="M342.324,233.76l-4.59,11.609h-16.47l27.179-62.998h16.47l26.549,62.998h-17.1l-4.5-11.609H342.324z M356.184,198.302
	l-9.18,23.309h18.179L356.184,198.302z"/>
<path d="M236.853,279.5l-1,50.128h-16.02l1-50.128h-18.81v-12.96h53.818v12.96H236.853z"/>
<path d="M322.931,298.039c0,18.359-15.58,32.309-35.108,32.309c-19.439,0-33.02-13.86-33.02-32.309
	c0-18.359,14.58-31.949,34.02-31.949C308.351,266.09,322.931,279.77,322.931,298.039z M271.183,298.129
	c0,10.619,8.189,18.809,17.819,18.809c9.72,0,17.459-8.19,17.459-18.809c0-10.62-7.739-18.629-17.459-18.629
	S271.183,287.509,271.183,298.129z"/>
<path d="M357.981,266.63c19.799,0,33.479,12.78,33.479,31.499c0,18.629-14.859,31.499-35.108,31.499h-26.459l1-62.998H357.981z
	 M346.911,316.848h11.43c9.81,0,16.83-7.56,16.83-18.629c0-11.16-7.38-18.809-17.55-18.809h-10.71V316.848z"/>
<path d="M412.022,318.018l-4.59,11.609h-16.47l27.179-62.998h16.47l26.549,62.998h-17.1l-4.5-11.609H412.022z M425.882,282.56
	l-9.18,23.309h18.179L425.882,282.56z"/>
<path d="M489.142,329.627h-15.93v-19.889l-23.31-43.108h16.02l15.21,27.449l14.849-27.449H512l-22.858,42.658V329.627z"/>
<g>
</g>
<g>
</g>
<g>
</g>
<g>
</g>
<g>
</g>
<g>
</g>
<g>
</g>
<g>
</g>
<g>
</g>
<g>
</g>
<g>
</g>
<g>
</g>
<g>
</g>
<g>
</g>
<g>
</g>
</svg>
