<?xml version="1.0" encoding="UTF-8"?>
<svg xmlns="http://www.w3.org/2000/svg" viewBox="0 0 512 512" width="512" height="512"><g id="Fill_out_line" data-name="Fill out line"><path d="M336,336c24,8,48-24,40-40,0,0,16,8,32-8s8-40-8-56-24-24-24-96S344,24,304,24s-48,16-48,16-8-16-48-16-72,40-72,112-8,80-24,96-24,40-8,56,32,8,32,8c-8,16,16,48,40,40Z" style="fill:#f57a08"/><path d="M344,176l3.02944-3.02944a16.97054,16.97054,0,0,1,12-4.97056h0A16.97054,16.97054,0,0,1,376,184.97055v3.53983a16.97055,16.97055,0,0,1-10.66784,15.75676l-26.55346,10.624Z" style="fill:#f5a971"/><path d="M168,176l-3.02944-3.02944a16.97054,16.97054,0,0,0-12-4.97056h0A16.97054,16.97054,0,0,0,136,184.97055v3.53983a16.97055,16.97055,0,0,0,10.66784,15.75676l26.55346,10.624Z" style="fill:#f5a971"/><polygon points="424 440 416 496 96 496 88 440 424 440" style="fill:#f5a971"/><path d="M408.00026,384.04561C363.41152,325.26512,288,326.53964,288,304c0-32,56-32,56-88,0-80,16-152-88-152s-88,72-88,152c0,56,56,56,56,88,0,23.51257-82.06234,21.11072-125.59348,87.99987Z" style="fill:#f5a971"/><path d="M256,251.75244a43.7948,43.7948,0,0,1-19.57764-4.59717,7.99984,7.99984,0,1,1,7.15528-14.31054,27.91375,27.91375,0,0,0,24.84472,0,7.99984,7.99984,0,0,1,7.15528,14.31054A43.7948,43.7948,0,0,1,256,251.75244Z" style="fill:#e37066"/><path d="M440,392c0,24-8,40-16,48l-69.65991,23.22C349.74,472.99,344,481.63,344,496H168c0-14.37-5.74-23.01-10.34-32.78L88,440c-8-8-16-24-16-48,0-48,56-64,80-48s48,32,104,32,80-16,104-32S440,344,440,392Z" style="fill:#b1cdb4"/><path d="M160,136c48,0,96-16,96-56,0,40,48,56,96,56l-4-76.16207H172Z" style="fill:#f57a08"/><path d="M252,212h4a4,4,0,0,0,0-8h-4a8,8,0,0,1,0-16h4a4,4,0,0,0,0-8h-4a16,16,0,0,0,0,32Z"/><path d="M282.7334,234.63428a11.99847,11.99847,0,0,0-16.09961-5.36719,23.89477,23.89477,0,0,1-21.26709,0,11.99987,11.99987,0,1,0-10.7334,21.46582,47.98678,47.98678,0,0,0,42.73291.00049,11.9996,11.9996,0,0,0,5.36719-16.09912Zm-6.93848,6.63086a3.97455,3.97455,0,0,1-2.00635,2.3125,39.98435,39.98435,0,0,1-35.57763-.00049,3.99981,3.99981,0,1,1,3.57812-7.15479,31.92961,31.92961,0,0,0,28.42237,0,4.00025,4.00025,0,0,1,5.58349,4.84278Z"/><path d="M256,388a4.0002,4.0002,0,0,0-4,4v16a4,4,0,0,0,8,0V392A4.0002,4.0002,0,0,0,256,388Z"/><path d="M307.89062,385.46289a4.00011,4.00011,0,1,0-7.78417,1.84668l3.69238,15.56787a4.00012,4.00012,0,1,0,7.78418-1.84668Z"/><path d="M353.01807,385.93945a3.99982,3.99982,0,1,0,7.14746-3.59277L352.98,368.05078a3.99982,3.99982,0,0,0-7.14746,3.59277Z"/><path d="M208.92285,382.49365a3.99939,3.99939,0,0,0-4.81494,2.96924l-3.69238,15.56836a4,4,0,1,0,7.78418,1.8457l3.69238-15.56836A3.99976,3.99976,0,0,0,208.92285,382.49365Z"/><path d="M164.3877,366.27246a3.99723,3.99723,0,0,0-5.37012,1.77734L151.832,382.3457a3.99982,3.99982,0,1,0,7.14746,3.59278l7.18555-14.2959A3.99974,3.99974,0,0,0,164.3877,366.27246Z"/><path d="M134.21094,372.42236c-10.27051,5.13526-16.47217,15.31641-19.86621,22.95313A73.30775,73.30775,0,0,0,108,424a4,4,0,0,0,8,0c0-16.12451,8.33057-37.69287,21.78906-44.42236a4,4,0,0,0-3.57812-7.15528Z"/><path d="M121.78906,363.57764a4,4,0,0,0-3.57812-7.15528c-33.30908,16.65479-35.16162,42.62012-25.78858,61.3667a4,4,0,0,0,7.15528-3.57812c-2.396-4.792-5.939-14.41992-2.7461-25.06153C99.89746,378.92822,108.29443,370.32471,121.78906,363.57764Z"/><path d="M374.21094,379.57764C387.66943,386.30713,396,407.87549,396,424a4,4,0,0,0,8,0,73.30811,73.30811,0,0,0-6.34473-28.62451c-3.394-7.63672-9.5957-17.81787-19.86621-22.95313a4,4,0,1,0-3.57812,7.15528Z"/><path d="M390.21094,363.57764c13.49463,6.74707,21.8916,15.35058,24.95752,25.57177,3.19287,10.64161-.3501,20.26954-2.7461,25.06153a4,4,0,1,0,7.15528,3.57812c9.373-18.74658,7.5205-44.71191-25.78858-61.3667a4,4,0,1,0-3.57812,7.15528Z"/><path d="M233.78906,68.42236c-7.98633-3.99267-16.894-3.40429-25.084,1.65625C201.34326,74.62842,196,82.16553,196,88a4,4,0,0,0,8,0c0-2.29248,3.17334-7.57031,8.91113-11.11621,3.3252-2.05567,9.9961-4.959,17.29981-1.30615a4,4,0,1,0,3.57812-7.15528Z"/><path d="M174.73486,75.79492a3.9975,3.9975,0,0,0,5.06006-2.52978c3.21826-9.65479,12.88819-17.248,25.86768-20.3125,12.59619-2.97266,24.96582-.66748,31.50879,5.876a4.00026,4.00026,0,0,0,5.65722-5.65722c-8.59033-8.58985-23.53662-11.65772-39.0039-8.0044-15.69776,3.70557-27.51807,13.26367-31.61963,25.56787A4.00066,4.00066,0,0,0,174.73486,75.79492Z"/><path d="M303.29492,70.07861c-8.189-5.061-17.09619-5.65039-25.084-1.65625a4,4,0,0,0,3.57812,7.15528c7.30225-3.65088,13.97461-.75,17.29981,1.30615C304.82666,80.42969,308,85.70752,308,88a4,4,0,0,0,8,0C316,82.16553,310.65674,74.62842,303.29492,70.07861Z"/><path d="M274.82861,58.82861c6.543-6.54394,18.91162-8.84814,31.50879-5.876,12.97949,3.06445,22.64942,10.65771,25.86768,20.3125a4.00025,4.00025,0,1,0,7.58984-2.53028c-4.10156-12.3042-15.92187-21.8623-31.61963-25.56787-15.46826-3.65381-30.41455-.58447-39.0039,8.0044a4.00026,4.00026,0,0,0,5.65722,5.65722Z"/><path d="M288.13293,182.18713a11.82549,11.82549,0,0,0,5.396,2.64844,19.44166,19.44166,0,0,0,2.58093.43134,7.988,7.988,0,1,0,.29541-3.77033c-.56982-.17541-1.128-.36249-1.65771-.57751a8.64581,8.64581,0,0,1-3.23792-2.1258A4.00341,4.00341,0,0,1,290.58337,176v-.02234l-.00012-.022A2.58341,2.58341,0,0,0,285.41663,176a8.88887,8.88887,0,0,0,.69458,3.3653A8.17174,8.17174,0,0,0,288.13293,182.18713Z"/><path d="M221.071,159.68024l-18.3717-6.11737a8,8,0,0,0-8.18878,1.93792l-5.66394,5.673A4,4,0,0,0,191.67725,168h28.045a4.26921,4.26921,0,0,0,1.34875-8.31976Z"/><path d="M292.27783,168h28.04492a4,4,0,0,0,2.83069-6.82617l-5.66394-5.673a7.99991,7.99991,0,0,0-8.18872-1.93792L290.929,159.68024A4.26922,4.26922,0,0,0,292.27783,168Z"/><path d="M208,176a7.99929,7.99929,0,0,0-7.59479,5.49658c-.56982-.17541-1.128-.36249-1.65771-.57751a8.646,8.646,0,0,1-3.23786-2.1258A4.00374,4.00374,0,0,1,194.58331,176l.00013-.02234-.00019-.022A2.58338,2.58338,0,1,0,189.41669,176a8.889,8.889,0,0,0,.69452,3.3653,8.17178,8.17178,0,0,0,2.02179,2.82183,11.82531,11.82531,0,0,0,5.39587,2.64844,19.44491,19.44491,0,0,0,2.58093.43134A7.99593,7.99593,0,1,0,208,176Z"/><path d="M414.61,340.05c-15.29993-8.19-33.2699-10.23-47.36-6a48.31741,48.31741,0,0,0,11.6-14.09,35.92436,35.92436,0,0,0,4.71008-16.04c7.51.58,18.16992-1.16,28.67993-11.68,8.78-8.77,12.2-20.64,9.64-33.42-2.16-10.82-8.43-21.85-17.64-31.06C388.97,212.49,382,205.51,382,136c0-35.43-7.62-65.31-22.05-86.39C346,29.23,326.13,18,304,18c-27.56006,0-41.4,7.3-48,12.96C249.4,25.3,235.56,18,208,18c-22.13,0-42,11.23-55.95,31.61C137.62,70.69,130,100.57,130,136c0,69.51-6.97,76.49-22.24,91.76-9.21,9.21-15.48,20.24-17.64,31.06-2.56,12.78.86,24.65,9.64,33.42,10.51,10.52,21.17,12.26,28.68,11.68a35.92346,35.92346,0,0,0,4.71,16.04,48.31741,48.31741,0,0,0,11.6,14.09c-14.09-4.23-32.06-2.19-47.36,6C77.44,350.72,66,369.66,66,392c0,28.6,10.49,44.24,16.33,50.74L89.94,496h12.12l-7.7-53.88L152.5,461.5c1.22,2.89,2.58,5.6,3.92,8.29,3.9,7.79,7.58,15.15,7.58,26.21h8c0-12.94-4.28-21.51-8.42-29.79-3.9-7.79-7.58-15.15-7.58-26.21,0-21.92,14.62-36.97,14.83-37.18a3.99872,3.99872,0,0,0-5.66-5.65c-.7.7-17.17,17.46-17.17,42.83a52.30021,52.30021,0,0,0,1.36,12.02L88.93,431.88C82.03,422.51,78,408.06,78,392c0-24.28,15.63-36.31,24.99-41.34,15.26-8.16,34.88-8.9,45.66-1.71C172.99,365.17,198.18,382,256,382s83.01-16.83,107.35-33.05c10.95007-7.3,30.15-6.58,45.66,1.71C418.37,355.69,434,367.72,434,392c0,16.06-4.03,30.51-10.92993,39.88L362.64,452.02A52.30021,52.30021,0,0,0,364,440c0-25.37-16.47-42.13-17.16992-42.83a4.00227,4.00227,0,0,0-5.66016,5.66C341.32007,402.98,356,417.91,356,440c0,11.06-3.67993,18.42-7.58008,26.21C344.28,474.49,340,483.06,340,496h8c0-11.06,3.67993-18.42,7.58008-26.21,1.33984-2.69,2.7-5.4,3.91992-8.29l58.14-19.38L409.93994,496h12.12012l7.60986-53.26C435.51,436.25,446,420.6,446,392,446,369.66,434.56006,350.72,414.61,340.05ZM142,136c0-33.01,6.9-60.54,19.95-79.61C173.76,39.12,189.69,30,208,30c33.47,0,41.98,11.73,42.67,12.77a5.77009,5.77009,0,0,0,10.6601,0C262.02,41.73,270.53,30,304,30c18.31006,0,34.24,9.12,46.05005,26.39C363.1,75.46,370,102.99,370,136c0,13.35.26,24.57.8,34.1a18.83945,18.83945,0,0,0-11.77-4.1,19.15995,19.15995,0,0,0-12.21,4.45c.1499-10.09.10986-20.53-.59009-30.53,1.91.05,3.83008.08,5.77.08a4,4,0,0,0,0-8c-2.1,0-4.18994-.03-6.25-.1-22.67993-.68-43.09009-5.05-57.96-12.48C269.35,110.2,260,96.94,260,80a4,4,0,0,0-8,0c0,16.94-9.35,30.2-27.79,39.42C207.99,127.53,185.19,132,160,132a4,4,0,0,0,0,8c1.94,0,3.86-.03,5.78-.08-.71,10.01-.75,20.44-.6,30.53A19.16011,19.16011,0,0,0,152.97,166a18.839,18.839,0,0,0-11.77,4.1C141.74,160.57,142,149.35,142,136Zm1.68,178.22c-3.24-5.95-4.13-11.9-2.32-15.53a6.00522,6.00522,0,0,0-7.93-8.11c-1.28.61-12.84,5.52-25.19-6.82-13.57-13.58-5.37-34.15,8-47.52,10.48-10.48,17.4-18.34,21.4-36.54a18.90523,18.90523,0,0,0,8.29,6.43L166,214.16V216c0,32.89,19.18,47.39,34.59,59.04C212.08,283.72,222,291.22,222,304c0,8.22-13.88,13.64-31.46,20.5-6.5,2.54-13.49,5.27-20.75,8.46a5.97224,5.97224,0,0,0-3.66-1.82C156.41,330.06,147.85,321.86,143.68,314.22ZM256,374c-50.29,0-74.83-13.27-96.4-27.36a352.82352,352.82352,0,0,1,33.86-14.7C213.88,323.98,230,317.69,230,304c0-16.76-12.5-26.21-24.58-35.34C189.97,256.98,174,244.91,174,216c0-1.09,0-2.18-.01-3.25a5.974,5.974,0,0,0-3.77-5.52L148.9,198.7a10.93237,10.93237,0,0,1-6.9-10.19v-3.54A10.95961,10.95961,0,0,1,152.97,174a11.05116,11.05116,0,0,1,7.76,3.21l2.29,2.29a5.99834,5.99834,0,0,0,10.24-4.36c-.23-11.68-.29-24.01.58-35.59,20.91-1.38,39.72-5.86,53.95-12.97,13.73-6.87,23.25-16.11,28.21-27.22,4.96,11.11,14.48,20.35,28.21,27.22,14.23,7.11,33.04,11.59,53.96,12.97.86011,11.58.8,23.9.57007,35.59a5.99834,5.99834,0,0,0,10.24,4.36l2.29-2.29a11.05127,11.05127,0,0,1,7.76-3.21A10.95951,10.95951,0,0,1,370,184.97v3.54a10.93228,10.93228,0,0,1-6.9,10.19l-21.32,8.53a5.974,5.974,0,0,0-3.77,5.52c-.01,1.08-.01,2.16-.01,3.25,0,28.91-15.97,40.98-31.41992,52.66C294.5,277.79,282,287.24,282,304c0,13.69,16.12,19.98,36.55005,27.95a351.072,351.072,0,0,1,33.85,14.69C330.83008,360.73,306.30005,374,256,374Zm89.87-42.86a5.97224,5.97224,0,0,0-3.66,1.82c-7.27-3.19-14.26-5.93-20.76-8.47C303.88,317.64,290,312.22,290,304c0-12.78,9.91992-20.28,21.40991-28.96C326.82007,263.39,346,248.89,346,216v-1.84l20.07007-8.03A18.90506,18.90506,0,0,0,374.36,199.7c4,18.2,10.92,26.06,21.4,36.54,13.37,13.37,21.57007,33.94,8,47.52-12.3501,12.35-23.91,7.43-25.19995,6.82a6.00207,6.00207,0,0,0-7.92005,8.11c1.80994,3.63.92005,9.58-2.31994,15.53C364.15,321.86,355.59009,330.06,345.87,331.14Z"/></g></svg>
