<?xml version="1.0" encoding="iso-8859-1"?>
<!-- Generator: Adobe Illustrator 19.0.0, SVG Export Plug-In . SVG Version: 6.00 Build 0)  -->
<svg version="1.1" id="Capa_1" xmlns="http://www.w3.org/2000/svg" xmlns:xlink="http://www.w3.org/1999/xlink" x="0px" y="0px"
	 viewBox="0 0 512 512" style="enable-background:new 0 0 512 512;" xml:space="preserve">
<path style="fill:#009AD2;" d="M256.005,0C256.003,0,246,15,246,15l10,15c73.759,0,139.256,35.338,180.505,90H301.01l-30,30v212
	l30,30h135.495c-41.249,54.662-106.744,90-180.5,90c-0.002,0-10.004,15-10.004,15L256,512c141.39,0,256-114.615,256-256
	S397.39,0,256.005,0z M391.01,302v30h-45V180h45v30h60l7.99-53.418c14.722,30.004,23,63.742,23,99.418
	c0,41.692-11.302,80.739-30.99,114.267V302H391.01z"/>
<path style="fill:#00B8FA;" d="M256,30V0C114.618,0.003,0,114.617,0,256s114.618,255.997,256,256v-30
	c-73.754-0.002-139.251-35.339-180.501-90H211l30-30V150l-30-30H75.499C116.749,65.339,182.246,30.002,256,30z M136,165h45v182h-45
	V165z M75,196v195.35C46.74,353.621,30,306.766,30,256c0-31.006,6.25-60.55,17.549-87.451L75,196z"/>
<g>
</g>
<g>
</g>
<g>
</g>
<g>
</g>
<g>
</g>
<g>
</g>
<g>
</g>
<g>
</g>
<g>
</g>
<g>
</g>
<g>
</g>
<g>
</g>
<g>
</g>
<g>
</g>
<g>
</g>
</svg>
