<?xml version="1.0" encoding="UTF-8"?>
<svg xmlns="http://www.w3.org/2000/svg" viewBox="0 0 512 512" width="512" height="512"><g id="Fill_out_line" data-name="Fill out line"><path d="M288,304c0-32,96-16,96-112,0-104-16-120-40-128H288Z" style="fill:#f57a08"/><path d="M413.43994,432.8999C416,454.17993,416,478.63,416,496H96c0-17.37,0-41.82007,2.56006-63.1001l-16-10.17993c21.65991-64.31006,72.01-81.41992,106.3999-93.6,10.03-3.54993,18.7-6.69007,24.91016-10.45008h.00976C220.23,314.82007,224,310.30005,224,304c0-32-56-32-56-88V144c0-48,19.71-80,96-80,112,0,88,80,88,112l3.03-3.03a16.97,16.97,0,0,1,28.97,12v3.54a16.96849,16.96849,0,0,1-10.66992,15.76l-26.55,10.62C331.51,265.23,288,272,288,304c0,6.3,3.77,10.82007,10.12012,14.66992h.00976c6.21021,3.76,14.88013,6.90015,24.91016,10.45008,34.38989,12.18,84.74,29.28991,106.3999,93.6Z" style="fill:#f5a971"/><path d="M429.43994,422.72l-16,10.17993L360,466.90991V496H152V466.90991l-53.43994-34.01-16-10.17993c27.98-83.07007,103.81006-87.38,131.31006-104.05C235.77,346.33,256,403.28,256,440c0-36.72,20.23-93.67,42.12988-121.33008C325.62988,335.34,401.46,339.6499,429.43994,422.72Z" style="fill:#03999c"/><path d="M304,360l8,24c-24,0-56,56-56,80,0-24-32-80-56-80l8-24-32,8,12.96-38.88c10.03-3.54993,18.7-6.69007,24.91016-10.45008h.00976C235.77,346.33,256,403.28,256,440c0-36.72,20.23-93.67,42.12012-121.33008h.00976c6.21021,3.76,14.88013,6.90015,24.91016,10.45008L336,368Z" style="fill:#0c6c71"/><path d="M252,232c8,0,17.97044,2,22.46305,6,0,0-2.12407,13.33333-7.819,18-2.87221,2.35362-9.81019,3.64738-14.64406,3.68885-4.83388-.04147-11.77185-1.33523-14.64407-3.68885-5.69491-4.66667-7.819-18-7.819-18C234.02956,234,244,232,252,232Z" style="fill:#e37066"/><path d="M352,67.23,371.5,140,352,176c0,16-24,16-24,0,0-56-24-72-24-72H232c-56,0-72-16-72-40s16-40,72-40,96,8,112,40A61.88252,61.88252,0,0,1,352,67.23Z" style="fill:#f57a08"/><path d="M184,64c-24,0-34.88657,3.18229-41.20909,16.58365S141.38016,113.04036,145.5,125.25c8,19,6.5,32.48386-7.75,32.48386C126,157.98386,120,144,120,144s0,40,32,40c48,0,8-56,32-88Z" style="fill:#f57a08"/><polygon points="328 464 308 480 288 464 288 432 328 432 328 464" style="fill:#0c6c71"/><path d="M436.23,417.62c-7.10986-20.03-17.69995-37.36-31.47-51.5-24.6001-25.27-54.07007-35.70008-77.76-44.08-17.32007-6.13013-31-10.98-31-18.04,0-5.47,7.14014-9.28,24.21-16.29C348.80005,275.97,392,258.22,392,192c0-49.95-3.66992-82.65-11.54-102.9-7.8-20.04-19.31006-27.3-30.85986-31.61C340.77,41.81,326.29,30.96,305.40991,24.37,287.32007,18.66,264,16,232,16c-33.40991,0-77.52,4.71-79.8999,44.56-7.48,3.31-12.8,8.67-16.54,16.61-5.7002,12.07-4.90015,29.11,2.35986,50.65.06006.18.13013.35.21.53,5.17017,12.29,4.58008,18.52,3.42017,20.27-.64014.97-2.67993,1.11-3.84009,1.11a.65853.65853,0,0,0-.13989.01H137.45c-5.93994,0-10.09009-8.87-10.09985-8.89A7.997,7.997,0,0,0,112,144a69.738,69.738,0,0,0,4.8501,23.44C123.46,183.51,135.60986,192,152,192a56.82321,56.82321,0,0,0,8-.53V216c0,35.87,21.37012,52.03,36.98,63.83,11.79,8.91,19.02,14.85,19.02,24.17,0,7.06006-13.67993,11.90991-31.01,18.04-23.67993,8.37988-53.1499,18.80994-77.75,44.08-13.77,14.14-24.36011,31.47-31.46,51.5A5.99078,5.99078,0,0,0,78.21,424.68994L90.54,432.54C88,453.97,88,478.11,88,496h12c0-17.21.01-40.3,2.3-60.72L148,464.36V496h8V400a4,4,0,0,0-8,0v54.88L88.75,417.17993v-.01A124.82115,124.82115,0,0,1,115.84009,374.49c20.53-21.09009,45.48-31.21,66.73-38.85L172.21,366.73a3.9987,3.9987,0,0,0,4.76,5.15l24.92993-6.2301L196.21,382.73A3.99,3.99,0,0,0,200,388c9.10986,0,22,11.17993,33.64014,29.16992C244.45,433.88,252,453.13,252,464v32h8V464c0-10.87,7.55-30.12,18.35986-46.83008C290,399.17993,302.89014,388,312,388a3.99,3.99,0,0,0,3.79-5.27L310.1001,365.6499,335.03,371.88a3.9987,3.9987,0,0,0,4.76-5.15l-10.36011-31.09c21.25,7.64,46.2,17.75,66.73,38.85A124.82115,124.82115,0,0,1,423.25,417.16992L364,454.88V400a4,4,0,0,0-8,0v96h8V464.36l45.7-29.08C411.99,455.7,412,478.79,412,496h12c0-17.89,0-42.03-2.54-63.46l12.33008-7.8501A6.00817,6.00817,0,0,0,436.23,417.62ZM315.6499,276.61c-5.48,2.25-10.72,4.4-15.30981,6.77A150.06565,150.06565,0,0,1,313.26,270.31006C325.96,258.41992,341.68994,243.7,350.03,217.9l24.79-9.92a21.22852,21.22852,0,0,0,4.47-2.45C374.15991,252.57,341.95,265.80005,315.6499,276.61Zm-138.5-238.24C188.12012,31.39,206.06006,28,232,28c63.59009,0,95,10.95,108.41992,37.79a3.98732,3.98732,0,0,0,2.32007,2c19.36987,6.46,34.57007,18.47,36.93994,100.46a20.96678,20.96678,0,0,0-27.48,1.89l-3.03,3.03A4.004,4.004,0,0,0,348,176c0,5.9-4.31006,8-8,8s-8-2.1-8-8a175.97,175.97,0,0,0-.90991-18.23,40.20621,40.20621,0,0,0,6.2.49c16.96,0,25.51-11.31,25.92993-11.89a3.99814,3.99814,0,1,0-6.43994-4.74c-.09009.13-8.84009,11.66-26.79,7.8q-.62988-3.915-1.42993-7.46a46.12892,46.12892,0,0,0,4.88989.28,43.928,43.928,0,0,0,29.38013-11.42,4.00227,4.00227,0,1,0-5.66016-5.66,36.135,36.135,0,0,1-30.83984,8.37c-.8-2.64-1.67017-5.09-2.57007-7.36.84009.04,1.66992.07,2.49.07,19.33008,0,35.2-10.41,35.97-10.92a4.00214,4.00214,0,1,0-4.43994-6.66c-.18994.13-18.31006,12.02-37.88013,9.11C313.46,105.68,306.76,101.03,306.22,100.67A3.99242,3.99242,0,0,0,304,100H232c-1.24,0-2.45-.01-3.65991-.03-7.76-15.57-6.81006-38.1-.76-50.18a4.00264,4.00264,0,0,0-7.16016-3.58C214,59.06,212.30005,81.87,219.46,99.7q-8.71509-.43506-15.97-1.52c-7.03-15.82-5.53-37.16.09009-48.39a4.00264,4.00264,0,0,0-7.16016-3.58c-5.99,11.98-7.96,32.83-2.17993,50.19a56.45824,56.45824,0,0,1-17.09009-6.77C168.17993,83.92,164,75.77,164,64S168.17993,44.08,177.1499,38.37ZM294.53,158.52l-3.01-3.02a8.02744,8.02744,0,0,0-8.18994-1.94l-14.14014,4.71C244.02,159.63,244,165.81,244,168c0,1.07,0,2.43.07007,4h-8.14014C236,170.43,236,169.07,236,168a5.961,5.961,0,0,0-2.32007-4.62C230.24,160.51,221.22,158.95,211,158.34l-14.33008-4.78A8.02744,8.02744,0,0,0,188.48,155.5l-3.10986,3.11c-1.46021.13-2.87012.26-4.19019.42.05-4.93-.34985-10.18-.77-15.54-1.12988-14.56-2.28979-29.56,4.45-41.51C196.62012,106.01,212.17993,108,232,108h70.60986C306.58008,111.43,323,128.24,323.95,172h-8.02C316,170.43,316,169.07,316,168,316,165.92,315.99,160.26,294.53,158.52Zm13.46,10.65C307.79,181.91,304.08008,196,280,196s-27.79-14.09-27.99-26.83c1.58008-.79,5.47-1.71,11.34009-2.35a4.16787,4.16787,0,0,0,2.96,1.18h28.04a3.88274,3.88274,0,0,0,2.79-1.13C302.74,167.51,306.46,168.4,307.99,169.17Zm-80-.03C227.80005,181.89,224.09009,196,200,196c-14.15991,0-22.76-4.84-26.22-14.76.32007-.3.63989-.62.93994-.95,3.3-3.57,5.02-8.06,5.84009-13.14.74-.1,1.5-.2,2.28-.29A3.93692,3.93692,0,0,0,185.6499,168h28.04a4.18245,4.18245,0,0,0,3-1.23C222.03,167.33,226.17993,168.15,227.99,169.14ZM152,180c-16.09009,0-22.92993-11.93-25.84009-22.07a19.01957,19.01957,0,0,0,11.29,3.81l.26-.01c7.88013,0,11.87012-3.52,13.84009-6.47,4.41992-6.66,3.63989-17.24-2.31006-31.43-6.11011-18.16-7.09009-32.52-2.83008-41.54,2.42017-5.13,5.55-8.43,10.16016-10.58,1.67993,10.68005,7.05,18.79,16.28,24.66a49.75827,49.75827,0,0,0,4.56982,2.56c-7.40991,13.88-6.12988,30.4-4.99,45.18,1.04,13.31,1.92993,24.79-3.57983,30.75C165.6499,178.32,160.14014,180,152,180Zm88.35986,232.83c-14.84985-22.95-27.46-30.03992-35.05981-32.08l6.49-19.48a3.9987,3.9987,0,0,0-4.76-5.15l-24.92993,6.23,10.04-30.11c7.77978-2.77,14.85986-5.39,20.63989-8.41,19.71,26.63,37.09985,75.72009,39.03,110.06005A156.9478,156.9478,0,0,0,240.35986,412.83ZM256,406.83C249.3501,375.77,235.2,341,219.59009,319.58,224.85986,315.53,228,310.63,228,304c0-15.77-11.55-24.5-23.79-33.75C189.10986,258.84,172,245.9,172,216V193.79c5.24,5.8,13.87012,10.21,28,10.21,8.26,0,15.15991-1.51,20.6499-4.48A15.97043,15.97043,0,0,0,236,220h4a4,4,0,0,0,0-8h-4a8,8,0,0,1,0-16h4a4,4,0,0,0,0-8h-4a15.89258,15.89258,0,0,0-4.33008.61,32.99943,32.99943,0,0,0,3.22022-8.61h10.21972a32.17756,32.17756,0,0,0,3.42017,8.98C254.22,198.95,264.81006,204,280,204s25.78-5.05,31.47-15.02a32.17756,32.17756,0,0,0,3.42017-8.98h9.53979a14.91578,14.91578,0,0,0,4.66016,7.99A16.34085,16.34085,0,0,0,340,192c7.5,0,15.09009-4.89,15.91992-14.27l1.93994-1.93A12.97086,12.97086,0,0,1,379.97,184.04c.01,1.59.02,3.19.03,4.83a12.90888,12.90888,0,0,1-8.1499,11.68L345.29,211.18a4.00864,4.00864,0,0,0-2.34009,2.55c-7.55,24.89-22.22,38.62-35.15991,50.74C295.03,276.41992,284,286.74,284,304c0,6.63,3.14014,11.53,8.40991,15.58C276.79,341.01,262.64014,375.77,256,406.83Zm73.8999-44.48L304.97,356.12a3.9987,3.9987,0,0,0-4.76,5.15l6.49,19.48c-7.59985,2.04-20.21,9.13-35.05981,32.08a156.9478,156.9478,0,0,0-11.4502,21.06c1.93018-34.38,19.30005-83.42,39.03-110.06,5.78,3.02,12.86011,5.64,20.63989,8.41Z"/><circle cx="268" cy="468" r="4"/><circle cx="280" cy="184" r="8"/><circle cx="200" cy="184" r="8"/><path d="M234.82031,259.09424c4.33985,3.55517,13.11328,4.56006,17.21387,4.59472,4.03223-.03466,12.80566-1.03955,17.14551-4.59521,6.67773-5.47168,8.99121-18.94629,9.2334-20.46436a3.99877,3.99877,0,0,0-1.29-3.61669C271.68262,230.16846,260.585,228,252,228s-19.68262,2.16846-25.12305,7.0127a3.99877,3.99877,0,0,0-1.29,3.61669C225.8291,240.14746,228.14258,253.62207,234.82031,259.09424ZM252,236c6.89258,0,14.08789,1.5542,18.04492,3.77051-1.04492,4.64648-3.17676,10.874-5.93554,13.13525-1.76075,1.44238-7.43555,2.74268-12.0752,2.7832-4.708-.04052-10.38281-1.34082-12.14356-2.78271-2.75976-2.26172-4.8916-8.49121-5.93554-13.13574C237.91211,237.5542,245.10742,236,252,236Z"/><path d="M328,428H288a4.0002,4.0002,0,0,0-4,4v32a4.00178,4.00178,0,0,0,1.501,3.12354l20,16a4.00091,4.00091,0,0,0,4.998,0l20-16A4.00178,4.00178,0,0,0,332,464V432A4.0002,4.0002,0,0,0,328,428Zm-4,34.07764-16,12.7998-16-12.7998V436h32Z"/></g></svg>
