<?xml version="1.0" encoding="iso-8859-1"?>
<!-- Generator: Adobe Illustrator 19.0.0, SVG Export Plug-In . SVG Version: 6.00 Build 0)  -->
<svg version="1.1" id="Capa_1" xmlns="http://www.w3.org/2000/svg" xmlns:xlink="http://www.w3.org/1999/xlink" x="0px" y="0px"
	 viewBox="0 0 512 512" style="enable-background:new 0 0 512 512;" xml:space="preserve">
<polygon style="fill:#EFF6F9;" points="256,128 226,256 256,384 512,384 512,128 "/>
<rect y="128" style="fill:#012231;" width="256" height="256"/>
<path style="fill:#FFFFFF;" d="M128,331.5c-41.631,0-75.5-33.869-75.5-75.5s33.869-75.5,75.5-75.5
	c31.021,0,58.53,18.612,70.082,47.417l-27.845,11.166C163.274,221.72,146.695,210.5,128,210.5c-25.089,0-45.5,20.411-45.5,45.5
	s20.411,45.5,45.5,45.5c18.695,0,35.274-11.22,42.237-28.583l27.845,11.166C186.53,312.888,159.021,331.5,128,331.5z"/>
<polygon points="459.5,331.5 429.656,331.5 338.5,226.453 338.5,331.5 308.5,331.5 308.5,180.5 338.344,180.5 429.5,285.547 
	429.5,180.5 459.5,180.5 "/>
<g>
</g>
<g>
</g>
<g>
</g>
<g>
</g>
<g>
</g>
<g>
</g>
<g>
</g>
<g>
</g>
<g>
</g>
<g>
</g>
<g>
</g>
<g>
</g>
<g>
</g>
<g>
</g>
<g>
</g>
</svg>
