<?xml version="1.0" encoding="iso-8859-1"?>
<!-- Generator: Adobe Illustrator 19.0.0, SVG Export Plug-In . SVG Version: 6.00 Build 0)  -->
<svg version="1.1" id="Capa_1" xmlns="http://www.w3.org/2000/svg" xmlns:xlink="http://www.w3.org/1999/xlink" x="0px" y="0px"
	 viewBox="0 0 512 512" style="enable-background:new 0 0 512 512;" xml:space="preserve">
<path style="fill:#015E82;" d="M128.416,293.141v158.397c70.923,0,128.416-57.494,128.416-128.416L128.416,293.141z"/>
<path style="fill:#00B8FA;" d="M128.416,293.141L0,323.122c0,70.923,57.494,128.416,128.416,128.416V293.141z"/>
<path style="fill:#009AD2;" d="M128.416,194.705v128.416h128.416C256.833,252.2,199.339,194.705,128.416,194.705z"/>
<path style="fill:#5CD4FF;" d="M0,323.122h128.416V194.705C57.494,194.705,0,252.2,0,323.122z"/>
<path style="fill:#009AD2;" d="M171.222,323.122l-42.805-29.98l-42.805,29.98c0,70.809,19.203,128.416,42.805,128.416
	S171.222,393.931,171.222,323.122z"/>
<path style="fill:#00B8FA;" d="M85.611,323.122h85.611c0-70.808-19.203-128.416-42.805-128.416
	C104.814,194.705,85.611,252.314,85.611,323.122z"/>
<path style="fill:#4F565B;" d="M316.127,60.127l-29.98,44.971l29.98,44.971c58.411,0,105.931,47.521,105.931,105.931
	s-47.52,105.931-105.931,105.931l-19.987,44.971l19.987,44.971C424.132,451.872,512,364.004,512,255.999
	S424.132,60.127,316.127,60.127z"/>
<g>
	<path style="fill:#697176;" d="M282.381,361.931l-3.38,10.328c-6.616,20.219-17.095,38.649-31.146,54.776l-21.64,24.838h89.912
		v-89.941h-33.746V361.931z"/>
	<path style="fill:#697176;" d="M143.407,60.127V164.93l12.405,2.173c19.434,3.402,37.854,10.346,54.747,20.637l22.789,13.883
		v-51.553h82.779V60.127L143.407,60.127L143.407,60.127z"/>
</g>
<g>
</g>
<g>
</g>
<g>
</g>
<g>
</g>
<g>
</g>
<g>
</g>
<g>
</g>
<g>
</g>
<g>
</g>
<g>
</g>
<g>
</g>
<g>
</g>
<g>
</g>
<g>
</g>
<g>
</g>
</svg>
