<?xml version="1.0" encoding="UTF-8"?>
<svg xmlns="http://www.w3.org/2000/svg" viewBox="0 0 512 512" width="512" height="512"><g id="Fill_out_line" data-name="Fill out line"><rect x="136" y="432" width="240" height="64" style="fill:#03999c"/><path d="M384,488c-51.19995,6.4-107.52-28.16-128-42.24C235.52,459.84,179.2,494.4,128,488c-64-8-56-88,0-128.43,44.02-31.79,78.15991-36.3,90.74-45.93,3.42993-2.61,5.26-5.61,5.26-9.64,0-8.34-3.81006-14.51-9.43994-20.07-6.53-6.44-15.52-12.06-23.86011-19.29C178.66992,254.22,168,240.45,168,216c0-80-16-152,88-152s88,72,88,152c0,24.48-10.7,38.26-22.75,48.68-8.32007,7.21-17.29,12.82-23.81006,19.25C291.81006,289.49,288,295.66,288,304c0,4.03,1.83008,7.03,5.26,9.64,12.58008,9.63,46.72,14.14,90.74,45.93C440,400,448,480,384,488Z" style="fill:#f5a971"/><path d="M384,488c-51.19995,6.4-107.52-28.16-128-42.24C235.52,459.84,179.2,494.4,128,488c-64-8-56-88,0-128.43,27.48-19.85,51.10986-29.06,68.05005-35.52,10.18994-3.89,17.96-6.79,22.68994-10.41L256,336l37.26-22.36c4.73,3.62,12.5,6.52,22.68994,10.41C332.89014,330.51,356.52,339.72,384,359.57,440,400,448,480,384,488Z" style="fill:#03999c"/><path d="M371.92993,488.78c-47.71.34-97.05-30.04-115.92993-43.02l-64.03-52.59c9.51-3.76,19.21-6.99,27.80005-9.6C280.5,395.17,368,416,368,416Z" style="fill:#03999c"/><path d="M264,440s-63.33008,49.26-124,48.78L152,416c24-24,96-40,96-40v32c0,8.61,4.62988,17.22,8.90991,23.33A71.09257,71.09257,0,0,0,264,440Z" style="fill:#03999c"/><path d="M168,192V152a40,40,0,0,1,40-40h96a40,40,0,0,1,40,40v32l24,.97055S384,128,384,88s-24-64-24-64-20.777,16-48,16c-42.42583,0-84.50754-16-104-16-32,0-48,24-48,40-24,0-32,24-32,48s16,56,16,56l2.16667,4.66667Z" style="fill:#795033"/><path d="M322.038,264a8.974,8.974,0,0,0-3.58724.72385A28.83535,28.83535,0,0,1,306.93994,267.22a25.11661,25.11661,0,0,1-2.74263-.14874A13.817,13.817,0,0,1,291.987,252.795q.0082-.25116.01121-.50351C292.15867,238.83577,280.912,228,267.45533,228H244.61659c-13.51692,0-24.84241,10.90245-24.613,24.41742q.00267.15737.00735.31422A13.786,13.786,0,0,1,208.24735,267.018a27.86706,27.86706,0,0,1-14.67528-2.28277A9.04214,9.04214,0,0,0,189.96,264h0c2.64014,2.33,5.36011,4.49,8.05,6.56a121.95945,121.95945,0,0,0,38.30005,19.43c4.84985,1.51,10.51,4.83,19.68994,14.01,9.17993-9.18,14.84009-12.5,19.68994-14.01A121.95945,121.95945,0,0,0,313.99,270.56c2.68994-2.07,5.40991-4.23,8.05-6.56ZM268,268H244a16,16,0,0,1,0-32h24a16,16,0,0,1,0,32Z" style="fill:#795033"/><path d="M219.77,383.57c-8.59009,2.61-18.29,5.84-27.8,9.6-.17993,3.84-1.28,16.14-7.97,22.83-8,8-8,16-16,16-3.33008,0-5.27-2.76-5.25-6.57-4.15991,1.47-7.05.59-8.39014-1.7A9.8812,9.8812,0,0,1,152,424a7.87526,7.87526,0,0,1-6.72-4.57c-2.72.44-6-.15-9.28-3.43-8-8,0-40,32-40C176.90991,376,196.3501,379.1,219.77,383.57Z" style="fill:#f5a971"/><path d="M336,408H312c-21.60986,0-49.71,19.46-55.09009,23.33C252.62988,425.22,248,416.61,248,408V376c12.72-6.36,35.54-12.72,48.37988-7.02a15.68641,15.68641,0,0,1,5.42017,3.81,10.96909,10.96909,0,0,1,10.04,9.29c5.3999,1.94,9.86987,6.11,9.76,11.9C332.10986,396.84,336,402.42,336,408Z" style="fill:#f5a971"/><path d="M315.95,324.05,280,360l-24-16-24,16-35.94995-35.95c10.18994-3.89,17.96-6.79,22.68994-10.41L256,336l37.26-22.36C297.99,317.26,305.76,320.16,315.95,324.05Z" style="fill:#084c4f"/><path d="M344,176l3.02944-3.02944a16.97054,16.97054,0,0,1,12-4.97056h0A16.97054,16.97054,0,0,1,376,184.97055v3.53983a16.97055,16.97055,0,0,1-10.66784,15.75676l-26.55346,10.624Z" style="fill:#f5a971"/><path d="M173.2213,214.89113l-26.55346-10.624A16.97055,16.97055,0,0,1,136,188.51038v-3.53983A16.97054,16.97054,0,0,1,152.97055,168h0a16.97054,16.97054,0,0,1,12,4.97056L168,176Z" style="fill:#f5a971"/><path d="M252,212h4a4,4,0,0,0,0-8h-4a8,8,0,0,1,0-16h4a4,4,0,0,0,0-8h-4a16,16,0,0,0,0,32Z"/><path d="M256,255.314a15.21046,15.21046,0,0,0,10.82812-4.48584,3.99957,3.99957,0,1,0-5.65624-5.65624,7.31458,7.31458,0,0,1-10.34376,0,3.99957,3.99957,0,1,0-5.65624,5.65624A15.21046,15.21046,0,0,0,256,255.314Z"/><path d="M240,468a4.0002,4.0002,0,0,0-4,4v16a4,4,0,0,0,8,0V472A4.0002,4.0002,0,0,0,240,468Z"/><circle cx="272" cy="480" r="8"/><path d="M176,84a4.0002,4.0002,0,0,0,4-4c0-20.667,28.01172-28,52-28a4,4,0,0,0,0-8c-19.38281,0-34.59668,3.59033-45.21875,10.67188C177.249,61.02637,172,70.02148,172,80A4.0002,4.0002,0,0,0,176,84Z"/><path d="M233.78906,73.207c-11.75586-5.87744-24.89551-6.84961-35.15136-2.60205-8.69922,3.60352-15.07227,10.83545-18.43262,20.91455a4.00025,4.00025,0,1,0,7.58984,2.53027c2.6416-7.9248,7.31934-13.32617,13.9043-16.05371,9.58789-3.97168,21.01562-1.38232,28.51172,2.36621a4,4,0,1,0,3.57812-7.15527Z"/><path d="M160,92a4,4,0,0,0,0-8c-15.82031,0-20,13.08252-20,20a3.99041,3.99041,0,0,0,3.97754,3.98828H144a4.01052,4.01052,0,0,0,4-3.96631,16.05587,16.05587,0,0,1,1.68164-6.436C151.64648,93.82715,155.02148,92,160,92Z"/><path d="M154.39453,103.24854c-3.03613,7.32861-1.97168,14.831,2.77735,19.58007a3.99991,3.99991,0,0,0,5.65624-5.65722c-2.88867-2.88916-2.43261-7.50489-1.043-10.86133C163.42188,102.36035,166.22949,100,168,100a4,4,0,0,0,0-8C162.56543,92,157.22461,96.41553,154.39453,103.24854Z"/><path d="M219.72217,168a4.26922,4.26922,0,0,0,1.34887-8.31976l-18.37182-6.11737a7.99991,7.99991,0,0,0-8.18872,1.93792l-5.66382,5.673A4,4,0,0,0,191.67725,168Z"/><path d="M292.27783,168h28.04492a4,4,0,0,0,2.83057-6.82617l-5.66382-5.673a7.99991,7.99991,0,0,0-8.18872-1.93792L290.929,159.68024A4.26922,4.26922,0,0,0,292.27783,168Z"/><circle cx="208" cy="184" r="8"/><circle cx="304" cy="184" r="8"/><path d="M387.5127,354.70557c-28.7295-20.74707-52.89551-29.96143-70.54-36.69C301.458,312.09961,294,309.03271,294,304c0-10.269,7.53027-16.48291,19.81738-25.771,15.98633-12.08447,35.84961-27.09668,36.17871-61.36181l17.5625-7.02637A22.86461,22.86461,0,0,0,382,188.50977v-3.54a22.81409,22.81409,0,0,0-4.35156-13.46094C382.5752,151.1084,390,115.751,390,88c0-42.00244-24.70605-67.19092-25.75781-68.24268a6.00035,6.00035,0,0,0-7.90332-.51123C356.14746,19.39355,336.89258,34,312,34c-24.61719,0-49.48145-5.61621-69.46094-10.12842C228.01562,20.59082,216.544,18,208,18c-31.916,0-50.31934,21.919-53.50195,40.38086C134.03125,61.30225,122,80.88037,122,112c0,21.333,11.5,47.7627,15.38867,56.08887A22.93134,22.93134,0,0,0,130,184.96973v3.54a22.86461,22.86461,0,0,0,14.44141,21.33105l17.5625,7.02637c.3291,34.26513,20.19238,49.27734,36.17871,61.36181C210.46973,287.51709,218,293.731,218,304c0,5.03271-7.458,8.09961-22.97266,14.01562-17.64453,6.72852-41.81054,15.94288-70.53906,36.68946-34.79,25.11719-53.96973,67.07861-45.60449,99.7749,5.69726,22.26807,22.876,36.28662,48.37207,39.47363a109.6093,109.6093,0,0,0,13.625.82813c46.2168-.00293,93.12891-27.10791,115.11914-41.77637,21.99121,14.66943,68.89844,41.77734,115.11914,41.77637a109.7869,109.7869,0,0,0,13.625-.82813c25.49609-3.187,42.67481-17.20556,48.37207-39.47363C441.48145,421.78369,422.30176,379.82227,387.5127,354.70557ZM223.199,263.94794A24.00926,24.00926,0,0,0,244,276h24a24.00991,24.00991,0,0,0,20.82642-12.09619,24.45793,24.45793,0,0,0,17.4187,7.30762,120.899,120.899,0,0,1-31.74707,14.95849c-5.70117,1.773-11.3584,5.49707-18.498,12.24756-7.13965-6.75049-12.79688-10.47461-18.49805-12.24756a120.8805,120.8805,0,0,1-31.77343-14.97607,25.92357,25.92357,0,0,0,13.13476-3.70264A20.96559,20.96559,0,0,0,223.199,263.94794ZM228,252a16.00662,16.00662,0,0,1,16-16h24.56641c8.61547,0,15.38818,7.03864,15.43213,16.02887A16.01753,16.01753,0,0,1,268,268H244A16.01833,16.01833,0,0,1,228,252Zm-.8728,39.03186c2.61645.98682,5.27026,1.92914,7.99975,2.77771,3.39551,1.05566,8.51563,3.48926,18.04493,13.019a3.9997,3.9997,0,0,0,5.65624,0c9.5293-9.52978,14.64942-11.96338,18.04493-13.019,2.72851-.84833,5.38183-1.79034,7.99731-2.77679A29.83468,29.83468,0,0,0,282,304a16.22682,16.22682,0,0,0,3.08887,9.88171L256,331.33545l-29.08887-17.45374A16.22682,16.22682,0,0,0,230,304,29.82789,29.82789,0,0,0,227.1272,291.03186ZM134,112c0-37.90723,18.18262-42,26-42a6.00029,6.00029,0,0,0,6-6c0-11.856,12.31934-34,42-34,7.20508,0,18.64746,2.58447,31.89551,5.57666C260.45605,40.2207,286.04492,46,312,46c21.39551,0,38.89844-9.04639,46.93555-14.04395A91.79661,91.79661,0,0,1,378,88c0,25.98846-6.92773,59.43219-11.71753,79.44763a18.7707,18.7707,0,0,0-17.97192,1.86487L348,152a44.04978,44.04978,0,0,0-44-44H208a44.03314,44.03314,0,0,0-43.999,43.92822l-.31153,17.38379a18.61963,18.61963,0,0,0-13.84155-3.03235C148.58333,163.33333,134,134.3252,134,112Zm40,104c0-1.08838,0-2.17725-.00977-3.25537a6.00095,6.00095,0,0,0-3.77026-5.51508l-.00049-.00238-21.323-8.53088A10.91812,10.91812,0,0,1,142,188.51025V184.9707a10.97051,10.97051,0,0,1,18.72656-7.75879l3.97168,3.97559a3.99983,3.99983,0,0,0,6.8291-2.75537L172,152a36.04061,36.04061,0,0,1,36-36h96a36.0574,36.0574,0,0,1,36.001,36.07178l.47168,26.36035a3.99983,3.99983,0,0,0,6.8291,2.75537l3.96972-3.97412A10.97086,10.97086,0,0,1,370,184.9707v3.53955a10.91756,10.91756,0,0,1-6.89746,10.186l-21.322,8.53082.00073.00189a6.00108,6.00108,0,0,0-3.77148,5.51563C338,213.82275,338,214.91162,338,216c0,23.15466-10.25,35.50629-22.26758,45.5072a24.6645,24.6645,0,0,1-8.793,1.71253c-8.35644,0-14.91894-4.91455-14.93945-11.188l-.00049-.01538L292,252l-.00122-.01166C291.93286,238.53357,281.648,228,268.56641,228H244a24.00535,24.00535,0,0,0-24,24c0,3.47168-1.89746,6.55615-5.34277,8.68555-3.97315,2.45648-10.72315,3.787-18.39063.82068C184.24927,251.50549,174,239.15387,174,216Zm76,161.25165a91.44153,91.44153,0,0,1,29.18262-8.26,39.22884,39.22884,0,0,1,13.56567.82367,39.5271,39.5271,0,0,0-6.53735,2.607,4,4,0,1,0,3.57812,7.15528c5.03711-2.51807,9.4668-3.38983,12.74976-2.58124a15.68131,15.68131,0,0,0-9.36694,4.175,3.99991,3.99991,0,0,0,5.65624,5.65722c2.19874-2.19787,7.15918-2.58825,11.61622-1.0011l.02856.01026q.438.15692.8689.339a13.42972,13.42972,0,0,1,3.90136,2.48767A88.27865,88.27865,0,0,0,304,388a4,4,0,0,0,0,8,65.39852,65.39852,0,0,1,16.07983,1.66528,3.9706,3.9706,0,0,0,.908.24561c5.63037,1.606,8.41651,3.971,9.771,6.08911H312c-21.12378,0-47.198,16.92157-55.65527,22.82776C253.04565,421.44983,250,414.68518,250,408ZM324.39673,388a17.92574,17.92574,0,0,0-9.17114-8.83875A14.67191,14.67191,0,0,0,308,370.53583V364h24v24Zm97.0935,63.50537c-4.4541,17.41016-17.67578,27.97119-38.23437,30.541-15.93945,1.99157-59.14868,2.07232-120.23364-38.7782l.22387-.15735a3.99975,3.99975,0,0,0,.82227-5.77295l-2.66211-3.32422c-.15454-.193-.32031-.407-.48193-.61328,6.34277-4.40753,23.65039-15.70471,39.93237-19.84705A3.96222,3.96222,0,0,0,300,416v4h-4a4,4,0,0,0,0,8h4v20a4,4,0,0,0,8,0V428h24v24H312a4,4,0,0,0,0,8h20v4a4,4,0,0,0,8,0v-4h24v12a4,4,0,0,0,8,0V460h24v4a4,4,0,0,0,8,0v-4h4a4,4,0,0,0,0-8h-4V428h4a4,4,0,0,0,0-8h-4V408a4,4,0,0,0-8,0v12H384a4,4,0,0,0,0,8h12v24H372V432a4,4,0,0,0-8,0v20H340V428h12a4,4,0,0,0,0-8H308v-4a3.98266,3.98266,0,0,0-2.08252-3.48993A39.58167,39.58167,0,0,1,312,412h23.50879l31.52148,7.88037a3.99971,3.99971,0,1,0,1.93946-7.76074L340,404.8772V396h24v4a4,4,0,0,0,8,0v-4h20a4,4,0,0,0,0-8H372V368a4,4,0,0,0-8,0v20H340V364h12a4,4,0,0,0,0-8H340v-4a4,4,0,0,0-8,0v4H308v-4a4,4,0,0,0-8,0v12.02069c-3.72168-1.88678-8.63574-3.15771-15.10962-3.25427l13.93774-13.93781a3.99991,3.99991,0,0,0-5.65624-5.65722L279.49023,354.853l-21.27148-14.18115a4.00066,4.00066,0,0,0-4.4375,0L232.50977,354.853l-13.68165-13.68164a3.99991,3.99991,0,1,0-5.65624,5.65722l16,16a3.99915,3.99915,0,0,0,5.04687.49951L256,348.80762l18.94678,12.63092a102.10127,102.10127,0,0,0-29.30323,9.03265c-12.74671,3.04351-22.10131,5.2262-31.29711,8.00836q-1.18836-.22091-2.34644-.43383V364h4a4,4,0,0,0,0-8h-4v-4a4,4,0,0,0-8,0v4H180v-4a4,4,0,0,0-8,0v4H160a4,4,0,0,0,0,8h12v8.14874c-1.49438-.09533-2.84082-.14874-4-.14874a42.21192,42.21192,0,0,0-20,4.75647V368a4,4,0,0,0-8,0v14.57916A35.335,35.335,0,0,0,135.40259,388H112a4,4,0,0,0,0,8h19.23218c-3.42359,9.13391-2.69556,18.19366,1.9397,22.82861.42675.42664.85449.81354,1.282,1.17139H116V408a4,4,0,0,0-8,0v12h-4a4,4,0,0,0,0,8h4v24h-4a4,4,0,0,0,0,8h4v4a4,4,0,0,0,8,0v-4h24v12a4,4,0,0,0,8,0V460h24v4a4,4,0,0,0,8,0v-4h20a4,4,0,0,0,0-8H180V428.17786q.0564-.08891.11255-.17786H204v20a4,4,0,0,0,8,0V428h20a4,4,0,0,0,0-8H212V408a4,4,0,0,0-8,0v12H185.72363c.35108-.39117.71509-.782,1.10449-1.17139,7.56348-7.56347,8.89063-20.67334,9.123-25.2334,16.501-7.09082,34.08008-11.28271,46.04883-14.00927V408c0,12.6875,8.24609,24.87744,13.16211,31.01465q-1.17518.826-2.57275,1.78454a299.60347,299.60347,0,0,1-45.55909,25.64612c-24.21093,10.84131-46.46,16.33838-66.1289,16.33838a98.48494,98.48494,0,0,1-12.15723-.7373c-20.55859-2.56983-33.78027-13.13086-38.23437-30.541-3.32227-12.98291-1.31446-28.70654,5.65136-44.27539,7.36231-16.4541,19.917-31.65234,35.35157-42.7959,27.45214-19.82422,50.7666-28.71484,67.79-35.20605,8.6045-3.281,16.04981-6.1247,21.45606-9.70819l33.18359,19.91034a3.99994,3.99994,0,0,0,4.11524,0l33.18359-19.91034c5.40625,3.58349,12.85156,6.42718,21.45606,9.70819,17.02343,6.49121,40.33789,15.38183,67.791,35.20654,15.4336,11.14307,27.98828,26.34131,35.35059,42.79541C422.80469,422.79883,424.8125,438.52246,421.49023,451.50537ZM148,428h4.79688a9.31459,9.31459,0,0,0,6.18945,2.1582c.19092,0,.39331-.01843.59033-.02783A8.791,8.791,0,0,0,168,436a13.12788,13.12788,0,0,0,4-.5882V452H148Zm-8,24H116V428h24Zm34.04-29.38135C171.30176,427.04932,170.48047,428,168,428c-.32812,0-.82324,0-1.12012-1.25781-.85058-3.60645,1.97071-10.69531,10.90918-15.16455a4,4,0,1,0-3.57812-7.15528c-8.97754,4.48877-13.84595,11.43079-15.11768,17.72535-.59277.016-1.1206-.102-1.32471-.511-1.10156-2.21094.916-10.61914,12.4502-18.3086a3.9999,3.9999,0,0,0-4.4375-6.65624c-10.45947,6.9729-15.50732,15.39477-16.17578,22.043a6.10447,6.10447,0,0,1-1.2666-2.31445c-1.43946-4.75439,1.45117-12.78662,13.87988-21.07227a3.9999,3.9999,0,0,0-4.4375-6.65624c-4.56323,3.042-18.05884,13.12042-17.814,25.48577a10.74413,10.74413,0,0,1-1.13917-.98626c-2.06933-2.06934-2.5625-8.50342.248-15.28955A29.00515,29.00515,0,0,1,146.71,387.25775c.04395-.04089.09326-.07562.1355-.11847C151.37354,383.24542,158.10913,380,168,380c5.54053,0,15.86768,1.2854,30.75879,3.82031-2.79443,1.0824-5.60254,2.23767-8.39746,3.49317A3.99918,3.99918,0,0,0,188,390.9624v1.03223c0,.144-.11621,14.46484-6.82812,21.17676A48.45875,48.45875,0,0,0,174.04,422.61865Zm5.96-49.7044V364h24v12.607C194.26514,374.89886,186.282,373.6687,180,372.91425Z"/></g></svg>
