<?xml version="1.0" encoding="iso-8859-1"?>
<!-- Generator: Adobe Illustrator 19.0.0, SVG Export Plug-In . SVG Version: 6.00 Build 0)  -->
<svg version="1.1" id="Capa_1" xmlns="http://www.w3.org/2000/svg" xmlns:xlink="http://www.w3.org/1999/xlink" x="0px" y="0px"
	 viewBox="0 0 512 512" style="enable-background:new 0 0 512 512;" xml:space="preserve">
<polygon style="fill:#296721;" points="293.753,266 277,266 267,307.846 277,349.692 282.791,385.999 312.791,385.999 "/>
<path style="fill:#4FA811;" d="M71.941,126H38.059L0,386h30l10.978-75h28.043L80,386h30L71.941,126z M45.423,281L55,216.354
	L64.577,281H45.423z"/>
<polygon style="fill:#3C8819;" points="428.058,126 394.361,126 375.419,251 405.419,251 411.209,212.913 417,251 447,251 "/>
<rect x="178.67" y="126" style="fill:#4FA811;" width="30" height="125"/>
<polygon style="fill:#88D652;" points="270.936,188.5 277,186.443 297,156 277,126 213.667,126 213.667,156 273.355,156 
	213.667,176.249 213.667,200.751 273.355,221 213.667,221 213.667,251 277,251 297,221 277,190.557 "/>
<polygon style="fill:#6BBF32;" points="370.419,222.249 277,190.557 277,251 370.419,251 "/>
<polygon style="fill:#4FA811;" points="125.508,207.076 141.896,251 173.667,251 173.667,126 143.667,126 143.667,169.924 
	127.279,126 95.508,126 95.508,251 125.508,251 "/>
<polygon style="fill:#296721;" points="358.949,293.878 350.139,266 317.791,266 317.791,385.999 347.791,385.999 347.791,358.121 
	356.601,385.999 388.949,385.999 388.949,266 358.949,266 "/>
<polygon style="fill:#3C8819;" points="482,221 482,126 452,126 452,251 512,251 512,221 "/>
<polygon style="fill:#296721;" points="452,296 467,296 467,386 497,386 497,296 512,296 512,266 452,266 "/>
<g>
	<polygon style="fill:#3C8819;" points="260.247,266 241.209,386 271.209,386 277,349.692 277,266 	"/>
	<polygon style="fill:#3C8819;" points="221,266 191,266 191,386 236.209,386 236.209,356 221,356 	"/>
</g>
<polygon style="fill:#296721;" points="393.949,385.999 447,385.999 447,355.999 423.949,355.999 423.949,341 447,341 447,311 
	423.949,311 423.949,296 447,296 447,266 393.949,266 "/>
<path style="fill:#3C8819;" d="M141,266h-25v120h30v-30.276c22.468-2.495,40-21.601,40-44.724C186,286.187,165.813,266,141,266z
	 M146,325.144v-28.287c5.82,2.063,10,7.625,10,14.144S151.82,323.08,146,325.144z"/>
<polygon style="fill:#6BBF32;" points="370.419,154.751 370.419,126 277,126 277,186.443 "/>
<g>
</g>
<g>
</g>
<g>
</g>
<g>
</g>
<g>
</g>
<g>
</g>
<g>
</g>
<g>
</g>
<g>
</g>
<g>
</g>
<g>
</g>
<g>
</g>
<g>
</g>
<g>
</g>
<g>
</g>
</svg>
