<?xml version="1.0" encoding="UTF-8"?>
<svg xmlns="http://www.w3.org/2000/svg" viewBox="0 0 512 512" width="512" height="512"><g id="Fill_out_line" data-name="Fill out line"><path d="M376,328c24,0,48-24,40-96S384,48,328,56c-16-24-32-32-72-32S136,72,136,136c0,40,8,40,8,88,0,24-8,32-16,48s-16,56,48,56Z" style="fill:#084c4f"/><path d="M416,496H96c0-192,128-160,128-192s-56-32-56-88V136c0-32,19.71-72,96-72,112,0,88,80,88,112l3.03-3.03a16.97056,16.97056,0,0,1,28.97,12v3.54a16.96872,16.96872,0,0,1-10.67,15.76l-26.55,10.62012C331.51,265.23,288,271.02,288,304,288,336,416,304,416,496Z" style="fill:#f5a971"/><path d="M416,496H96c0-192,128-160,128-192h64C288,336,416,304,416,496Z" style="fill:#f3b73f"/><path d="M333.06,335.18018c-4.33,1.43994-8.44,2.6499-12.42,3.65966C336.21,408.21,343.89,416.10986,336,424c-8,8-24,0-32,16s-32,8-40-8,8-88,8-88l.01-.0498C267.04,344,261.75,344,256,344c-32.62,0-50.6,0-77.06-8.81982a16.00494,16.00494,0,0,1-8.11-24.27c.24-.34034.49-.68018.75-1,.27-.32032.54-.64014.82995-.94043A15.88138,15.88138,0,0,1,177.4,305.43018c.37-.17041.75-.32032,1.13-.46045a15.82852,15.82852,0,0,1,7.15-.87989c.19.02.38.04.57.07032a15.99031,15.99031,0,0,1,18.81-23.34034C226.6,288,240.88,288,256,288s29.4,0,50.94-7.18018a15.99031,15.99031,0,0,1,18.81,23.34034c.19-.03028.38-.0503.57-.07032a15.82852,15.82852,0,0,1,7.15.87989c.38.14013.76.29,1.13.46045a15.88138,15.88138,0,0,1,4.99,3.53955c.29.30029.56.62011.82995.94043.26.31982.51.65966.75,1a16.00494,16.00494,0,0,1-8.11,24.27Z" style="fill:#03999c"/><path d="M328,56c56-8,80,104,88,176s-16,96-40,96-88,8-88-24c0-40,43.50808-38.7681,58.7787-89.10887C358.66667,174.66667,328,120,296,88c-48,24-88,48-136,48l3.99994-43.99994,78.72953-49.66673Z" style="fill:#084c4f"/><path d="M361.17,336.4502c.78-.03028,11.205-.48145,14.83-.4502,12.21952.10534,23.13-4.96,31.53-14.33984,10.75-12.01026,22.32-37.46,16.42-90.54-2.5-22.56006-7.38-56.33008-16.42-89.15015-11.45-41.59009-26.43-69.79-44.52-83.8-9.57-7.40991-20-10.93994-31.08-10.5498C314.72,23.77,295.68,16,256,16c-22.61,0-54.76,13.56006-80,33.75C158.07,64.08984,128,94.37012,128,136a196.196,196.196,0,0,0,3.84,40.85986l.03.14014c2.03,11.1499,4.13,22.67993,4.13,47,0,16.91992-4.21,24.46-10.05,34.8999-1.47,2.64014-3.3,5.91992-5.11,9.53028-6.24,12.48-9.69,31.02978-.66,45.63964,6.41,10.38038,17.83,17.12012,34.03,20.13038a122.33,122.33,0,0,0-27.37,23.93994C100.7,389.02,88,434.12012,88,496h12c0-58.93018,11.78-101.48,36-130.1001a114.29388,114.29388,0,0,1,37.14-28.65967c.13263-.0664.25684-.14453.38331-.21972a20.143,20.143,0,0,0,4.152,1.95312c27.0791,9.02637,43.44971,9.01123,89.37409,9.01123-3.66779,17.44483-14.043,70.97217-6.627,85.8042,5.48487,10.96973,17.76172,18.93262,29.19043,18.93262,8.06006,0,14.43994-3.88281,17.96485-10.93262,3.813-7.626,9.62744-8.41113,16.35937-9.32031,5.2583-.71,10.69531-1.44434,14.8916-5.64063,6.71094-6.71093,4.91895-13.37207-1.019-35.44433-3.11359-11.57471-7.2818-27.08008-12.42255-49.66943,2.88886-.80713,5.85358-1.7129,8.93769-2.74073a20.14472,20.14472,0,0,0,4.1629-1.94726A115.9384,115.9384,0,0,1,376,365.8999C400.22,394.52,412,437.06982,412,496h12c0-61.87988-12.7-106.98-38.84-137.85986A121.845,121.845,0,0,0,361.17,336.4502Zm-76.88952-28.79346C276.291,307.999,267.11511,308,256,308c-30.729,0-44.75439,0-65.67529-6.97363-.45209-.15088-.90967-.26514-1.3667-.38282a11.98643,11.98643,0,0,1,14.8374-16.02832C225.95117,292,240.54688,292,256,292c9.66705,0,18.89508-.00635,29.89429-1.793A48.151,48.151,0,0,0,284,304,25.80767,25.80767,0,0,0,284.28046,307.65674ZM171.5,139.55664c37.888-2.89331,70.80676-19.70361,108.38379-38.89844,4.98389-2.5459,10.11279-5.166,15.30713-7.77734a201.26424,201.26424,0,0,1,13.65991,15.72143,18.07064,18.07064,0,0,0-2.24048,3.219c-2.07275,3.873-3.39795,10.209,2.06153,18.39746,3.32519,4.9873,7.96142,7.66992,13.40869,7.75781q.13623.00294.27392.00293a20.51381,20.51381,0,0,0,5.45362-.79834c15.84375,28.88623,21.22045,55.98316,15.14306,76.54932-7.16015,23.60351-20.99609,35.4834-33.20361,45.96484-7.73187,6.63916-15.20868,13.06739-20.09583,21.68311C276.97455,283.99219,266.77112,284,256,284c-12.60468,0-24.62885-.01611-40.86108-4.33691-3.392-3.08838-7.21241-5.97657-11.22779-9.01172C188.71924,259.167,171.5,246.15039,171.5,216Zm150.86279-9.57715c-.05127,0-.10254-.001-.15332-.00195-2.81592-.04492-5.00293-1.37891-6.88135-4.19629-3.94677-5.91992-2.229-9.12988-1.66455-10.18555,4.52295-8.45019,25.90625-14.07715,46.01954-15.33008-2.74073,3.40821-6.41211,7.751-10.55323,12.06543C338.19629,123.7207,328.70117,129.97949,322.36279,129.97949ZM314.959,265.76465c13.03614-11.19238,27.811-23.87891,35.65577-49.73926,6.64148-22.47436,1.16363-51.45923-15.4068-81.97485q8.92172-4.97132,19.69342-16.17945A196.2843,196.2843,0,0,0,371.25488,98.3252,4.00021,4.00021,0,0,0,368,92a150.531,150.531,0,0,0-34.18311,4.09473q-11.76572,2.91723-18.81378,7.35693a206.87665,206.87665,0,0,0-16.1745-18.27978,3.99956,3.99956,0,0,0-4.61767-.75c-6.11182,3.05664-12.13867,6.13476-17.96631,9.1123C235.8374,114.17383,200.94092,132,160,132a4,4,0,0,0,0,8c1.50958,0,3.00812-.02832,4.50049-.07275L164.5,216c0,33.43408,19.27924,48.20654,34.90887,60.02246A19.97186,19.97186,0,0,0,180.47546,300.312a20.07288,20.07288,0,0,0-5.41882,1.79932,20.01088,20.01088,0,0,0-10.75671,21.35937c-17.30927-1.62158-28.80207-7.02343-34.1637-16.11914-1.38574-2.35156-7.83008-15.01953,1.44141-33.5625,1.6289-3.25781,3.26709-6.19238,4.85156-9.03027C142.6377,253.63672,148,244.03223,148,224c0-25.45508-2.20557-37.53516-4.33838-49.2168A185.58941,185.58941,0,0,1,140,136c0-61.30957,77.311-108,116-108,37.6416,0,53.04443,6.77832,68.67188,30.21875a4.00342,4.00342,0,0,0,3.894,1.74121c9.75-1.39648,18.6123,1.12207,27.08887,7.68848,14.96191,11.59179,27.83593,35.252,38.26464,70.32519,10.04053,33.76758,15.3877,70.01075,18.105,94.46778,5.4087,48.67675-4.32031,71.03222-13.43457,81.21484A29.69308,29.69308,0,0,1,376,324c-3.59229,0-7.92676.16992-12.94531.36719-21.69678.84961-54.48438,2.13672-66.57227-9.48633A14.33154,14.33154,0,0,1,292,304C292,285.47852,302.13184,276.7793,314.959,265.76465Zm-134.7539,65.61914a11.99967,11.99967,0,0,1,7.58984-22.76758C209.94775,316,224.37939,316,256,316c12.2843,0,22.22656-.00146,30.94037-.46191a22.72931,22.72931,0,0,0,3.99712,5.10937c8.08277,7.77246,22.433,10.79981,37.54432,11.80322C304.38733,339.99414,286.81036,340,256,340,223.79346,340,206.05225,340,180.20508,331.38379Zm149.87939,62.07812c5.708,21.21973,6.31543,24.48145,3.08692,27.71-2.28614,2.28613-6.002,2.78808-10.30469,3.36914a40.71208,40.71208,0,0,0-11.51288,2.76611c1.173-14.083-3.30188-27.79981-3.5589-28.57178a4.00009,4.00009,0,1,0-7.58984,2.5293c.07471.22461,7.39306,22.59473.21728,36.94629-2.16015,4.32031-5.79687,6.51074-10.80957,6.51074-8.42578,0-17.89892-6.23828-22.03515-14.51074-5.16925-10.33838,1.72625-54.65821,7.663-82.29785,15.85175-.23145,28.5221-1.084,42.39063-4.229C322.81427,366.42432,327.13727,382.50684,330.08447,393.46191Z"/><path d="M236,220h4a4,4,0,0,0,0-8h-4a8,8,0,0,1,0-16h4a4,4,0,0,0,0-8h-4a16,16,0,0,0,0,32Z"/><path d="M185.64594,168h28.045a4.26924,4.26924,0,0,0,1.34875-8.31982L196.668,153.563a7.99956,7.99956,0,0,0-8.18878,1.93774l-5.66394,5.6731A4,4,0,0,0,185.64594,168Z"/><path d="M266.30908,168h28.045a4,4,0,0,0,2.83069-6.82617l-5.66394-5.6731A7.99956,7.99956,0,0,0,283.332,153.563l-18.3717,6.11719A4.26924,4.26924,0,0,0,266.30908,168Z"/><path d="M192.10986,185.26709a7.9879,7.9879,0,1,0,.29535-3.77051c-.56976-.17529-1.128-.3623-1.65771-.57739a8.6484,8.6484,0,0,1-3.23786-2.126A4.00378,4.00378,0,0,1,186.58331,176l.00013-.02222-.00019-.02221A2.58338,2.58338,0,0,0,181.41669,176a8.88789,8.88789,0,0,0,.69452,3.36523A8.17036,8.17036,0,0,0,184.133,182.187a11.82517,11.82517,0,0,0,5.39593,2.64868A19.49417,19.49417,0,0,0,192.10986,185.26709Z"/><path d="M264.133,182.187a11.82517,11.82517,0,0,0,5.39593,2.64868,19.49417,19.49417,0,0,0,2.58093.4314,7.9879,7.9879,0,1,0,.29535-3.77051c-.56976-.17529-1.128-.3623-1.65771-.57739a8.6484,8.6484,0,0,1-3.23786-2.126A4.00378,4.00378,0,0,1,266.58337,176l.00007-.02222-.00019-.02221A2.58338,2.58338,0,0,0,261.41669,176a8.88789,8.88789,0,0,0,.69452,3.36523A8.17036,8.17036,0,0,0,264.133,182.187Z"/><path d="M229.17139,237.17188a3.99942,3.99942,0,0,0,0,5.65624c4.80078,4.80079,13.81445,7.20118,22.82861,7.20118s18.02783-2.40039,22.82861-7.20118a3.99991,3.99991,0,0,0-5.65722-5.65624c-6.41895,6.418-27.92383,6.418-34.34278,0A3.99971,3.99971,0,0,0,229.17139,237.17188Z"/><path d="M262.18115,73.7666q-2.63306,1.34474-5.23584,2.668a4.00033,4.00033,0,1,0,3.624,7.13281q2.60961-1.32714,5.24951-2.67578a4,4,0,1,0-3.6377-7.125Z"/><path d="M240.98,84.40332c-20.3418,9.89258-42.35693,19.47168-65.50781,22.55371a3.99993,3.99993,0,0,0,.52295,7.96485,3.94127,3.94127,0,0,0,.53271-.03516c24.27686-3.23145,47.00537-13.10254,67.95117-23.29a3.99961,3.99961,0,1,0-3.499-7.19336Z"/><path d="M272,60a4,4,0,0,0,0,8c15.80225,0,22.34326,0,29.17139,6.82812a3.99991,3.99991,0,0,0,5.65722-5.65624C297.65674,60,288.544,60,272,60Z"/><path d="M264,44a4,4,0,0,0,0,8c14.91748,0,30.34326,0,37.17139,6.82812a3.99991,3.99991,0,0,0,5.65722-5.65624C297.65674,44,280.54688,44,264,44Z"/><path d="M162.8457,394.81055a3.99965,3.99965,0,1,0-5.6914-5.6211l-.48877.49414C143.43018,403.0791,132,414.64746,132,440c0,18.63965,7.5791,27.3916,14.2666,35.11328C151.70459,481.39258,156,486.35254,156,496h8c0-12.62988-5.94092-19.48926-11.686-26.124C145.98145,462.56445,140,455.65723,140,440c0-22.06641,9.37744-31.55762,22.35645-44.69336Z"/><path d="M354.8457,389.18945a3.99965,3.99965,0,1,0-5.6914,5.6211l.48925.49609C362.62256,408.44238,372,417.93359,372,440c0,15.65723-5.98145,22.56445-12.314,29.876C353.94092,476.51074,348,483.37012,348,496h8c0-9.64746,4.29541-14.60742,9.7334-20.88672C372.4209,467.3916,380,458.63965,380,440c0-25.35254-11.43018-36.9209-24.66553-50.31641Z"/></g></svg>
