<?xml version="1.0" encoding="UTF-8"?>
<svg xmlns="http://www.w3.org/2000/svg" viewBox="0 0 512 512" width="512" height="512"><g id="Fill_out_line" data-name="Fill out line"><path d="M288,304c0-40,96-32,96-112V120c0-24,0-56-32-56H262.0313V304Z" style="fill:#795033"/><path d="M440,496H72c0-110.5,54.81006-143.1001,98.61-160.16992,9.31994-3.64014,18.13-6.57007,25.80993-9.40015h.01c4.09009-1.51,7.8501-2.98,11.21008-4.51C217.68994,317.31006,224,312.1499,224,304c0-32-56-32-56-88,0-80-16-152,96-152s88,80,88,112l3.03-3.03a16.97,16.97,0,0,1,28.97,12v3.54a16.96876,16.96876,0,0,1-10.66992,15.76l-26.55,10.62012C331.51,265.23,288,271.02,288,304c0,8.1499,6.31006,13.31006,16.36,17.91992,3.36,1.53,7.12,3,11.21008,4.51h.01c7.67993,2.83008,16.49,5.76,25.80993,9.40015C385.18994,352.8999,440,385.5,440,496Z" style="fill:#f5a971"/><path d="M440,496H72c0-110.5,54.81006-143.1001,98.61-160.16992,6.11-2.39014,11.99-4.47022,17.49-6.41016,2.7301-.97,5.37-1.90991,7.88-2.83008.15-.0498.29-.10986.43994-.15991h.01c4.09009-1.51,7.8501-2.98,11.21008-4.51a63.99928,63.99928,0,0,0,96.72,0c3.36,1.53,7.12,3,11.21008,4.51h.01c.1499.05.28992.11011.43994.15991,2.51.92017,5.1499,1.86011,7.88,2.83008,5.5,1.93994,11.38,4.02,17.49,6.41016C385.18994,352.8999,440,385.5,440,496Z" style="fill:#f3b73f"/><path d="M216,496H72c0-110.5,54.81006-143.1001,98.61-160.16992,9.31994-3.64014,18.13-6.57007,25.80993-9.40015C216,357.53,216,398.83008,216,496Z" style="fill:#084c4f"/><path d="M440,496H296c0-97.16992,0-138.47,19.58008-169.57007,7.67993,2.83008,16.49,5.76,25.80993,9.40015C385.18994,352.8999,440,385.5,440,496Z" style="fill:#084c4f"/><path d="M336,232c0,64-24,80-80,80-96,0-88-48-88-72l28.66667-1L220,217.33333h48.33333l30.02876,25.85228Z" style="fill:#795033"/><path d="M240,208s-2.16667-8-16-8c-24,0-24,32-48,32-32,0-32-24-32-24s-8,48,32,48,24-32,64-32,24,32,64,32,40-48,40-48-8,24-40,24c-24,0-24-32-48-32C242.16667,200,240,208,240,208Z" style="fill:#795033"/><path d="M223.953,241.41736c-2.078,4.95764-3.328,7.83264,15.912,9.364,14.51.53112,20.34615-2.72577,14.24057-12.04524-2.52225-3.90281-3.43663-3.4594-12.68319-2.6692C228.96928,237.13117,226.0625,236.75,223.953,241.41736Z" style="fill:#e37066"/><path d="M211.41992,369.3501C202.9,360.43994,190.66992,362.65991,184,376l-13.39-40.16992c9.31994-3.64014,18.14-6.57007,25.81994-9.40015C203.93994,338.37012,208.57007,351.81006,211.41992,369.3501Z" style="fill:#082f40"/><path d="M341.39,335.83008,328,376c-6.66992-13.34009-18.9-15.56006-27.41992-6.6499,2.84985-17.54,7.48-30.98,14.99-42.92017C323.25,329.26,332.07007,332.18994,341.39,335.83008Z" style="fill:#082f40"/><path d="M352,64s0-40-104-40c-80,0-104,16-104,48s24,48,104,48c56,0,88-32,88-32s-16,88,16,88l16.75-63.25L352,64Z" style="fill:#795033"/><path d="M240,208h-4a12,12,0,0,1-12-12v0a12,12,0,0,1,12-12h4Z" style="fill:#f5a971"/><circle cx="280" cy="184" r="8"/><circle cx="200" cy="184" r="8"/><path d="M185.646,168h28.04492a4.26922,4.26922,0,0,0,1.34875-8.31982L196.668,153.563a7.99946,7.99946,0,0,0-8.18872,1.93774l-5.66406,5.6731A4,4,0,0,0,185.646,168Z"/><path d="M266.30908,168H294.354a4,4,0,0,0,2.83081-6.82617l-5.66406-5.6731A7.99946,7.99946,0,0,0,283.332,153.563l-18.3717,6.11719A4.26922,4.26922,0,0,0,266.30908,168Z"/><circle cx="308" cy="420" r="4"/><circle cx="308" cy="476" r="4"/><path d="M344,428H312a4,4,0,0,0,0,8h32a4,4,0,0,0,0-8Z"/><path d="M200,428H168a4,4,0,0,0,0,8h32a4,4,0,0,0,0-8Z"/><path d="M156,400a4,4,0,0,0-8,0v96h8Z"/><path d="M364,400a4,4,0,0,0-8,0v96h8Z"/><path d="M313.42773,368.10742c4.292.64746,8.19678,4.08594,10.99463,9.68164A4.00028,4.00028,0,0,0,327.999,380c.09424,0,.18946-.00293.28467-.00977a4.00108,4.00108,0,0,0,3.51123-2.72558l12.05176-36.15527c17.55615,7.13452,36.28137,16.90869,52.314,33.376C422.96826,402.02148,436,441.76953,436,496h12c0-57.51172-14.144-99.998-43.24121-129.88574-24.58447-25.251-54.04736-35.68457-77.772-44.08594-8.82618-3.12305-16.90332-5.98144-22.604-8.99219a57.38461,57.38461,0,0,0,18.04444-11.15527c8.396-7.74219,14.18164-18.22754,17.63916-31.99121,11.5498-6.26856,24.31347-14.30762,34.29345-26.208C386.23,229.52832,392,212.62305,392,192V120c0-12.84668,0-27.40625-4.481-39.72949-5.01367-13.792-14.99072-21.96778-29.00244-23.85254-2.18213-6.24121-7.47168-14.90039-20.1875-22.66895C319.05225,21.97168,288.66113,16,248,16c-39.94824,0-66.69189,3.83887-84.165,12.08105C145.105,36.916,136,51.28223,136,72c0,20.64258,9.10693,35.04883,27.80127,43.89355-5.4126,21.24512-4.82715,46.65918-4.21,73.44434l.0083.35254C159.79639,198.26465,160,207.13086,160,216q0,2.31006.12012,4.56836A15.28792,15.28792,0,0,1,152,208a8.01851,8.01851,0,0,0-7.31836-7.96875,7.931,7.931,0,0,0-8.56934,6.64941,74.80754,74.80754,0,0,0-.60253,16.208c.82275,11.79785,4.2749,21.36621,10.26318,28.44043a34.0634,34.0634,0,0,0,14.43652,10.05469c.87647,10.40625,3.87451,23.93262,15.0835,35.375,7.541,7.70117,17.57519,13.38379,30.46094,17.2168-5.51563,2.66406-12.79248,5.23925-20.6792,8.03027l-.11231.04c-23.67383,8.38379-53.13672,18.81738-77.72168,44.06836C78.144,396.002,64,438.48828,64,496H76c0-54.23047,13.03174-93.97852,39.83887-121.51465,16.03247-16.467,34.75805-26.24292,52.314-33.37744l12.05225,36.15674a4.00108,4.00108,0,0,0,3.51123,2.72558c.0957.00684.19043.00977.28467.00977a4.00028,4.00028,0,0,0,3.57666-2.21094c2.79785-5.5957,6.70166-9.0332,10.99365-9.68164,3.14221-.46924,6.35107.67945,9.14184,3.22705C211.999,398.86816,212,436.92236,212,496h8c0-73.574-.00269-115.0835-8.387-144.74219a83.684,83.684,0,0,0,88.78174-.0039C292.00269,380.95508,292,422.53589,292,496h8c0-59.0144.00171-97.10254,4.29712-124.67578C307.08447,368.7832,310.286,367.63721,313.42773,368.10742Zm22.9585-29.91528-9.62109,28.86352a20.526,20.526,0,0,0-12.145-6.85839,17.59024,17.59024,0,0,0-8.39575.76757A101.3248,101.3248,0,0,1,317.297,331.31689C319.158,331.98584,331.78589,336.4585,336.38623,338.19214Zm2.05322-81.12036a164.06308,164.06308,0,0,0,1.42847-17.24024,97.73628,97.73628,0,0,0,10.1604-21.93213l24.78955-9.918a21.20307,21.20307,0,0,0,4.073-2.1731C374.37939,232.52539,356.74829,246.6355,338.43945,257.07178ZM380,188.51074a12.90964,12.90964,0,0,1-8.15381,12.043L347.92651,210.124c.06934-1.24316.07349-2.00341.07349-2.124a4.00008,4.00008,0,0,0-7.79492-1.26465C340.13428,206.94727,332.78418,228,304,228c-10,0-15.00488-6.67285-20.7998-14.40039C277.0127,205.35059,270,196,256,196c-11.23193,0-16.28418,4.751-18.42578,8H236a8,8,0,0,1,0-16h4a4,4,0,0,0,0-8h-4a16.01833,16.01833,0,0,0-16,16c0,.09082.001.17969.00244.27051-11.397,1.58887-17.63428,9.90527-23.20264,17.3291C191.00488,221.32715,186,228,176,228c-1.02368,0-2.01111-.03516-2.98169-.08643A67.47512,67.47512,0,0,1,172,216c0-9.00684-.20508-17.94336-.40381-26.585l-.00781-.35352c-.62427-27.083-1.19507-52.69629,4.55725-72.76172C192.88745,121.5271,216.18848,124,248,124c40.97656,0,69.27783-16.44238,82.45459-26.19043-2.56787,19.32031-6.03125,59.67676,6.99951,75.29A18.22491,18.22491,0,0,0,352,180a4.00163,4.00163,0,0,0,2.82861-1.17188l3.0293-3.02929A12.97064,12.97064,0,0,1,380,184.9707ZM148,72c0-26.41016,17.00586-44,100-44,28.501,0,66.85205,3.21484,87.70605,18.52734C347.59521,55.25879,347.98975,63.7041,348,64a4.0002,4.0002,0,0,0,4,4c25.93848,0,28,22.53711,28,52v48.50293a20.95289,20.95289,0,0,0-27.79932,1.63965l-1.76269,1.76269a10.27873,10.27873,0,0,1-6.84082-3.93066c-12.16406-14.57129-6.76758-62.1543-3.66162-79.25977A4.00014,4.00014,0,0,0,337.856,84.457a4.04627,4.04627,0,0,0-4.68457.71485C332.86328,85.47949,301.72168,116,248,116,165.00586,116,148,98.41016,148,72Zm6.94922,171.58984c-4.16846-4.90918-6.14258-11.35644-7.00293-17.373C153.14941,231.56055,161.75732,236,176,236c14,0,21.0127-9.35059,27.2002-17.59961,5.43505-7.24707,10.17382-13.56738,18.99121-14.32422A16.01109,16.01109,0,0,0,236,212h4a3.72864,3.72864,0,0,0,3.84863-2.89648C244.08691,208.501,246.19824,204,256,204c10,0,15.00488,6.67285,20.7998,14.40039C282.9873,226.64941,290,236,304,236c16.22656,0,26.79834-5.67676,33.48242-11.80273a56.64214,56.64214,0,0,1-2.1748,6.26464C329.35254,244.75391,318.81934,252,304,252c-18,0-23.00488-6.67285-28.7998-14.40039C269.0127,229.35059,262,220,240,220s-29.0127,9.35059-35.2002,17.59961C199.00488,245.32715,194,252,176,252,166.77051,252,159.688,249.16992,154.94922,243.58984ZM185.521,289.96289c-9.88184-9.02026-12.62378-20.3291-13.39234-30.11523C173.38757,259.94458,174.67505,260,176,260c22,0,29.0127-9.35059,35.2002-17.59961C216.99512,234.67285,222,228,240,228s23.00488,6.67285,28.7998,14.40039C274.9873,250.64941,282,260,304,260c10.89563,0,20.06567-3.33936,27.22485-9.75537C327.28174,293.62988,307.522,308,256,308,222.34375,308,198.63135,301.93164,185.521,289.96289Zm112.25317,33.09863a59.95816,59.95816,0,0,1-83.52759.00171c4.66065-2.59155,8.31714-5.49975,10.70532-9.0625A218.17837,218.17837,0,0,0,256,316a179.06907,179.06907,0,0,0,30.89478-2.24463c.0371.0603.06689.12378.1062.18311C289.39209,317.54053,293.08691,320.4541,297.77417,323.06152ZM197.37744,360.19727a20.52157,20.52157,0,0,0-12.14258,6.85839L175.61646,338.2c4.58251-1.728,17.23364-6.21533,19.08911-6.88232A101.25973,101.25973,0,0,1,205.787,360.9729,17.65356,17.65356,0,0,0,197.37744,360.19727ZM256,356a75.89724,75.89724,0,0,1-49.01733-17.98779,96.89273,96.89273,0,0,0-4.67823-9.52637c1.48658-.58032,2.93067-1.16333,4.31714-1.75439a67.96883,67.96883,0,0,0,98.76612.00341c1.38317.58936,2.82617,1.17139,4.31115,1.75049a96.76875,96.76875,0,0,0-4.67553,9.52173A75.89022,75.89022,0,0,1,256,356Z"/><path d="M259.45508,249.01367c1.89306-3.35449,1.21924-7.5498-1.98975-12.44824-4.382-6.71126-7.96533-5.12793-20.42187-4.15527-9.54688.752-14.02263,1.13151-16.79346,7.49414-1.05225,2.50976-2.36133,5.63379-.45215,8.76758,2.16651,3.55566,7.187,5.51562,22.896,6.16406C251.98438,254.83594,257.20508,253.002,259.45508,249.01367Zm-6.9668-3.93164c-.01074.02149-1.40234,2.09082-12.3916,1.70508-8.83594-.708-11.99512-1.6416-13.11182-2.169.1626-.47363.42383-1.09765.63623-1.60449.76319-1.68652.95069-1.91211,10.0503-2.6289,6.62549-.44727,11.00049-1.15039,12.09033-.78125a5.826,5.826,0,0,1,.99805,1.32519C252.50439,243.5918,252.56641,244.88281,252.48828,245.082Z"/></g></svg>
