<?xml version="1.0" encoding="UTF-8"?>
<svg xmlns="http://www.w3.org/2000/svg" viewBox="0 0 512 512" width="512" height="512"><g id="Fill_out_line" data-name="Fill out line"><path d="M384,136v56c0,72-96,92.84-96,112L175.08008,183.55005a69.27324,69.27324,0,0,1-3.13013,14.2,28.37893,28.37893,0,0,1-6.12988,10.40991A17.57855,17.57855,0,0,1,153.42993,213.58c-2.07007.03-8.41992.04-12.77-5.62a12.681,12.681,0,0,1-.5-14.19995,12.04409,12.04409,0,0,1,5.48023-4.64A14.58743,14.58743,0,0,1,152,188.03a3.97218,3.97218,0,0,1,.10986,7.92993c-.95.04-3.5.45-4.16992,2.3501a3.08156,3.08156,0,0,0,.68994,3.37988c1.14014.97,3.01026.81006,4.02.65a5.68851,5.68851,0,0,0,3.96-2.5,16.5864,16.5864,0,0,0,2.37012-6.01,71.20647,71.20647,0,0,0,1-16.73h.01c0-.15-.01-.30994-.01-.48a42.13817,42.13817,0,0,0-6.26-21.73C144.79,140.45,135.12988,120.92993,136,104c0-40,16-80,104-80,40,0,64,8,80,24C360,48,384,80,384,136Z" style="fill:#084c4f"/><path d="M96,496c0-28.55,0-76.18994,11.35986-97.5L97.03,391.92993C140.17993,323.7,224,333.7,224,304c0-32-56-32-56-88V144c3.02-46.59009,19.71-80,96-80,96,0,88,80,88,112l3.03027-3.03A16.96973,16.96973,0,0,1,384,184.97v3.54a16.9684,16.9684,0,0,1-10.66992,15.76l-26.54981,10.62C331.50977,265.23,288,271.02,288,304c0,29.7,83.81982,19.7,126.96973,87.92993L404.64014,398.5C416,419.81006,416,467.45,416,496Z" style="fill:#f4b09e"/><path d="M404.64014,398.5l-46.03028,29.29A54.84357,54.84357,0,0,1,360,440c0,24-16,32-16,56H168c0-24-16-32-16-56a54.82945,54.82945,0,0,1,1.39014-12.21L107.35986,398.5,97.03,391.92993c15.1499-23.93994,35.30005-38.25,55.07983-48.02,4.23023,2.9801,8.53028,5.8501,12.93018,8.57007C185.59009,365.2,210,376,256,376s70.41016-10.8,90.96-23.52c4.3999-2.72,8.7002-5.59,12.93018-8.57007,19.77978,9.77,39.92968,24.08008,55.07959,48.02Z" style="fill:#f57a08"/><circle cx="308" cy="316" r="12" style="fill:#b1cdb4"/><circle cx="292" cy="324" r="12" style="fill:#e7f2da"/><circle cx="204" cy="316" r="12" style="fill:#b1cdb4"/><circle cx="220" cy="324" r="12" style="fill:#e7f2da"/><circle cx="276" cy="332" r="12" style="fill:#b1cdb4"/><circle cx="236" cy="332" r="12" style="fill:#b1cdb4"/><circle cx="256" cy="336" r="12" style="fill:#e7f2da"/><path d="M168,176c0-56,32-96,104-96,24,0,72,56,72,96h8l17.66667-62.33333-44.33334-55H160Z" style="fill:#084c4f"/><path d="M236,220h4a4,4,0,0,0,0-8h-4a8,8,0,0,1,0-16h4a4,4,0,0,0,0-8h-4a16,16,0,0,0,0,32Z"/><path d="M200,176a7.99941,7.99941,0,0,0-7.59473,5.49658c-.56982-.17541-1.12793-.36255-1.65771-.57751a8.64668,8.64668,0,0,1-3.238-2.12586A4.00482,4.00482,0,0,1,186.58325,176l.00025-.02234-.00025-.022a2.58335,2.58335,0,1,0-5.1665.04431,8.88941,8.88941,0,0,0,.69433,3.36536,8.17214,8.17214,0,0,0,2.022,2.82177,11.82466,11.82466,0,0,0,5.39575,2.64844,19.43333,19.43333,0,0,0,2.58105.43128A7.9959,7.9959,0,1,0,200,176Z"/><path d="M280,176a7.99917,7.99917,0,0,0-7.59473,5.49658c-.56982-.17541-1.12793-.36255-1.65771-.57751a8.64149,8.64149,0,0,1-3.23779-2.12586A4.00246,4.00246,0,0,1,266.5835,176v-.02234l-.00049-.022A2.58335,2.58335,0,1,0,261.4165,176a8.89,8.89,0,0,0,.69483,3.36536,8.16766,8.16766,0,0,0,2.02148,2.82177,11.82665,11.82665,0,0,0,5.396,2.64844,19.43983,19.43983,0,0,0,2.58105.43128A7.9959,7.9959,0,1,0,280,176Z"/><path d="M237.17188,237.17139a3.99971,3.99971,0,0,0,0,5.65722c4.07617,4.07618,11.18457,6.42334,18.76757,6.42334a36.76546,36.76546,0,0,0,5.87793-.47265c9.86621-1.60108,17.79785-7.06494,21.76074-14.99024a4.00046,4.00046,0,0,0-7.15624-3.57812c-3.832,7.66406-11.59766,9.97607-15.88575,10.67187-6.97851,1.12989-14.42578-.42871-17.708-3.71142A4.00029,4.00029,0,0,0,237.17188,237.17139Z"/><path d="M413.18018,397.81006l5.63964-3.59009a5.99952,5.99952,0,0,0,1.79-8.35,133.25494,133.25494,0,0,0-15.85009-19.76c-24.55957-25.22-53.98975-35.66-77.69971-44.04993A20.00511,20.00511,0,0,0,306.21,296.08c-.04,0-.06982.01-.10986.01,3.8999-2.54993,8.25-5.18006,11.81982-7.33C347.41992,270.93994,392,244.02,392,192V136c0-29.08008-6.41992-53.18994-18.5498-69.73-11.97022-16.33008-29.28028-25.36011-50.16993-26.21C305.14014,23.43994,279.31006,16,240,16c-37.87012,0-65.27,6.96-83.78,21.26C137.27,51.90991,128.04,73.67993,128,103.80005c-1.32007,28.27,21.99,60.63989,30.81006,72.87988,0,.01.01.01.01.02A6.1209,6.1209,0,0,1,160,180.32007,63.556,63.556,0,0,1,158.98,193.83a16.92787,16.92787,0,0,1-2.33984,6.01,5.68955,5.68955,0,0,1-3.96021,2.5c-1.01.16-2.87988.31994-4.02-.65a3.08156,3.08156,0,0,1-.68994-3.37988c.67017-1.90015,3.22-2.31006,4.17017-2.3501A3.97219,3.97219,0,0,0,152.03,188.03a14.5891,14.5891,0,0,0-6.36011,1.09,12.04475,12.04475,0,0,0-5.48,4.64,12.681,12.681,0,0,0,.5,14.2c4.3501,5.66,10.7002,5.65,12.77,5.62a17.7805,17.7805,0,0,0,6.54-1.39C158.56006,251.25,181.37012,268.03,196.97,279.83c9.83008,7.42,16.49,12.78,18.43994,19.75a19.99465,19.99465,0,0,0-30.47,22.4801C161.27,330.43994,131.82007,340.87,107.24,366.11a133.26883,133.26883,0,0,0-15.84985,19.76,5.99073,5.99073,0,0,0,1.7998,8.35l5.64014,3.59009C88,421.85,88,466.03,88,496h12c0-28.19995,0-74.81006,10.76-95.33008L149.82007,425.52A58.84055,58.84055,0,0,0,148,440c0,12.93994,4.28,21.51,8.41992,29.79C160.32007,477.58,164,484.93994,164,496a4,4,0,0,0,8,0c0-12.93994-4.28-21.51-8.41992-29.79C159.67993,458.41992,156,451.06006,156,440c0-21.92,14.62012-36.97,14.83008-37.17993a3.9988,3.9988,0,0,0-5.66016-5.65015,64.98335,64.98335,0,0,0-12.81982,20.48l-47.46-30.19995a120.3622,120.3622,0,0,1,10.95-12.96A129.85319,129.85319,0,0,1,144.51,352.48a.16134.16134,0,0,0,.07007-.04q3.59985-2.0548,7.18994-3.87988c3.79,2.61987,7.47,5.02991,11.15991,7.31994C183.16992,368.40991,208.45,380,256,380c47.5498,0,72.83008-11.59009,93.06982-24.12,3.64014-2.25,7.38038-4.71008,11.17041-7.32995A134.67284,134.67284,0,0,1,396.16016,374.49a119.27619,119.27619,0,0,1,10.9497,12.96l-47.46,30.2a64.98817,64.98817,0,0,0-12.81982-20.48,4.0023,4.0023,0,0,0-5.66016,5.66C341.31982,402.98,356,417.90991,356,440c0,11.06006-3.68018,18.41992-7.58008,26.21C344.28027,474.49,340,483.06006,340,496a4,4,0,0,0,8,0c0-11.06006,3.68018-18.42,7.58008-26.21C359.71973,461.51,364,452.93994,364,440a58.86476,58.86476,0,0,0-1.81982-14.48l39.06-24.86011C412,421.18994,412,467.80005,412,496h12C424,466.03,424,421.85,413.18018,397.81006ZM308,308a8,8,0,0,1,0,16,15.90332,15.90332,0,0,0-6.3999-12.8A8.0367,8.0367,0,0,1,308,308Zm3.71973-29.52c-7.29981,4.41-12.58985,8.09009-16.21973,11.58008,3.81006-7.18006,10.39014-13.3,18-20.3501C326.10986,258.02,341.74023,243.53,350.03027,217.8999L374.81982,207.98a21.56412,21.56412,0,0,0,3.81006-2C371.27,242.52,335.96973,263.84,311.71973,278.48ZM300,324a7.99162,7.99162,0,0,1-8,8,15.90332,15.90332,0,0,0-6.3999-12.8A7.99833,7.99833,0,0,1,300,324ZM139.99,104.25c.01-.1001.01-.2.01-.3C140.02,51.41992,170.85986,28,240,28c37.2002,0,60.83984,6.88,76.64014,22.29A5.9939,5.9939,0,0,0,320.75977,52c18.03027.2,32.91015,7.59,43.01025,21.37C374.39014,87.84,380,109.5,380,136v32.52a20.92848,20.92848,0,0,0-27.7998,1.62L350.33984,172H347.8501C344.87988,131.1,297.99023,76,272,76c-64.17993,0-102.77,31.88-107.5,87.98C154.89014,150.22,138.95,125.05005,139.99,104.25Zm64.22,166C189.10986,258.84,172,245.8999,172,216V176c0-27.69995,8.24-50.58008,23.83008-66.17C212.97,92.68994,238.59009,84,272,84c10.31006,0,30,14.58,46.33984,37.59,11.93018,16.6,21.79,36.93,21.79,55.51a71.1797,71.1797,0,0,1-1,16.73,16.58211,16.58211,0,0,1-2.37011,6.01,5.68855,5.68855,0,0,1-3.96,2.5c-1.00976.16-2.87988.31994-4.01953-.65a3.08082,3.08082,0,0,1-.69043-3.37988c.66993-1.90015,3.22022-2.31006,4.16993-2.3501a3.97218,3.97218,0,0,0-.10987-7.92993,14.588,14.588,0,0,0-6.35986,1.09,12.04349,12.04349,0,0,0-5.48,4.64,12.68054,12.68054,0,0,0,.5,14.2c4.3501,5.66,10.69971,5.65,12.77,5.62a17.57709,17.57709,0,0,0,12.38965-5.42005A28.37719,28.37719,0,0,0,352.1001,197.75c1.46-4.13,2.98-10.5,3.71972-19.92l.12012-.12,1.91992-1.90991A12.9684,12.9684,0,0,1,380,184.97v3.54a12.90979,12.90979,0,0,1-8.1499,12.04L345.29,211.17993a4.00738,4.00738,0,0,0-2.33984,2.55c-7.5,24.72-22.0503,38.21-34.89014,50.11C295.1499,275.81006,284,286.1499,284,304a17.92077,17.92077,0,0,0,.91016,5.67993,16.012,16.012,0,0,0-6.8501,6.47A15.7636,15.7636,0,0,0,276,316a16.07867,16.07867,0,0,0-12.41016,5.91992,15.96256,15.96256,0,0,0-15.17993,0A16.07778,16.07778,0,0,0,236,316a15.7636,15.7636,0,0,0-2.06006.1499,16.06127,16.06127,0,0,0-6.85986-6.48A17.59539,17.59539,0,0,0,228,304C228,288.23,216.43994,279.5,204.21,270.25Zm65.25977,57.15991a7.98813,7.98813,0,1,1,2.2705,11.36011A15.74843,15.74843,0,0,0,269.46973,327.40991ZM264,336a8,8,0,1,1-8-8A8.01058,8.01058,0,0,1,264,336Zm-23.74,2.77a8.00681,8.00681,0,1,1,2.27-11.36011A15.82237,15.82237,0,0,0,240.26,338.77Zm-23.21-22.21A8.0134,8.0134,0,0,1,226.3999,319.2,15.90332,15.90332,0,0,0,220,332a8.0022,8.0022,0,0,1-2.95-15.43994ZM204,308a8.03633,8.03633,0,0,1,6.3999,3.2A15.90332,15.90332,0,0,0,204,324a8,8,0,0,1,0-16Zm140.85986,41.08C322.62988,362.84,299.02,372,256,372s-66.62988-9.16-88.85986-22.92c-2.33008-1.45-4.67017-2.95-7.03028-4.52991C170.1499,340.02,179.98,336.54,189,333.35c2.84009-1.01,5.54-1.96,8.14014-2.92005a15.89574,15.89574,0,0,0,8.91992,1.42005,16.00231,16.00231,0,0,0,16,8,15.9524,15.9524,0,0,0,21.52,6.22009,15.97139,15.97139,0,0,0,24.83984,0,15.9524,15.9524,0,0,0,21.52-6.22009,16.009,16.009,0,0,0,16-8,15.6156,15.6156,0,0,0,8.91992-1.42005c2.6001.96008,5.3003,1.91,8.14014,2.92005,8.8999,3.15,18.78027,6.66,28.87988,11.21008C349.52,346.13,347.18994,347.64,344.85986,349.08Z"/><path d="M185.646,168h28.04492a4.26916,4.26916,0,0,0,1.34863-8.31976L196.668,153.56287a7.99991,7.99991,0,0,0-8.18872,1.93792l-5.66406,5.673A4,4,0,0,0,185.646,168Z"/><path d="M266.30908,168H294.354a3.99991,3.99991,0,0,0,2.83057-6.82617l-5.66357-5.673a8.00033,8.00033,0,0,0-8.189-1.93792l-18.37158,6.11737A4.26922,4.26922,0,0,0,266.30908,168Z"/></g></svg>
