<?xml version="1.0" encoding="iso-8859-1"?>
<!-- Generator: Adobe Illustrator 19.0.0, SVG Export Plug-In . SVG Version: 6.00 Build 0)  -->
<svg version="1.1" id="Capa_1" xmlns="http://www.w3.org/2000/svg" xmlns:xlink="http://www.w3.org/1999/xlink" x="0px" y="0px"
	 viewBox="0 0 512 512" style="enable-background:new 0 0 512 512;" xml:space="preserve">
<rect x="361.33" y="180.667" width="150.67" height="150.67"/>
<rect y="180.667" style="fill:#012231;" width="150.67" height="150.67"/>
<polygon points="256,331.329 331.333,331.329 331.333,180.664 256,180.664 226,255.996 "/>
<rect x="180.67" y="180.667" style="fill:#012231;" width="75.33" height="150.67"/>
<g>
	<path style="fill:#FFFFFF;" d="M258.25,224.497c14.129,0,23.129,6.12,23.129,15.75c0,6.66-4.14,11.969-10.8,13.859
		c7.92,1.53,12.959,7.74,12.959,15.929c0,10.71-9.359,17.459-24.209,17.459H228.46v-62.998h29.79V224.497z M244.39,249.697h12.959
		c4.68,0,7.65-2.52,7.65-6.57c0-4.05-2.97-6.39-7.65-6.39H244.39V249.697z M244.39,275.165h12.959c5.94,0,9.63-2.61,9.63-7.109
		c0-4.23-3.69-6.84-9.63-6.84H244.39V275.165z"/>
	<path style="fill:#FFFFFF;" d="M466.14,234.487l-9.27,10.979c-4.14-5.04-10.259-8.189-15.839-8.189
		c-9.989,0-17.549,7.919-17.549,18.269c0,10.53,7.56,18.54,17.549,18.54c5.31,0,11.43-2.88,15.839-7.38l9.36,9.9
		c-6.75,6.93-16.739,11.52-26.009,11.52c-18.989,0-33.118-13.95-33.118-32.399c0-18.179,14.489-31.859,33.658-31.859
		C450.121,223.867,459.841,228.008,466.14,234.487z"/>
	<path style="fill:#FFFFFF;" d="M77.583,224.497c14.129,0,23.129,6.12,23.129,15.75c0,6.66-4.14,11.969-10.8,13.859
		c7.92,1.53,12.959,7.74,12.959,15.929c0,10.71-9.359,17.459-24.209,17.459H47.794v-62.998h29.789V224.497z M63.724,249.697h12.959
		c4.68,0,7.65-2.52,7.65-6.57c0-4.05-2.97-6.39-7.65-6.39H63.724V249.697z M63.724,275.165h12.959c5.94,0,9.63-2.61,9.63-7.109
		c0-4.23-3.69-6.84-9.63-6.84H63.724V275.165z"/>
</g>
<g>
</g>
<g>
</g>
<g>
</g>
<g>
</g>
<g>
</g>
<g>
</g>
<g>
</g>
<g>
</g>
<g>
</g>
<g>
</g>
<g>
</g>
<g>
</g>
<g>
</g>
<g>
</g>
<g>
</g>
</svg>
