<?xml version="1.0" encoding="UTF-8"?>
<svg xmlns="http://www.w3.org/2000/svg" viewBox="0 0 512 512" width="512" height="512"><g id="Fill_out_line" data-name="Fill out line"><path d="M368,240c0,16,24,24,16,48s-32,16-40,8c8,16-16,48-40,32H216c-16,8-33.51,0-32-16-16,8-29.47,1-33.64014-9.67C146.18994,291.66992,152,280,160,272s16-8,16-40l-5.96-29.79a24.67475,24.67475,0,0,1-4.21,5.95,18.13488,18.13488,0,0,1-5.74,3.99,17.8556,17.8556,0,0,1-6.66016,1.43006,17.40113,17.40113,0,0,1-6.73-1.07,13.36484,13.36484,0,0,1-6.04-4.55,12.69914,12.69914,0,0,1-.5-14.19995,12.04409,12.04409,0,0,1,5.48023-4.64A14.58743,14.58743,0,0,1,152,188.03a3.97218,3.97218,0,0,1,.10986,7.92993L152,195.97a6.15555,6.15555,0,0,0-2.71.79,3.13084,3.13084,0,0,0-.66016,4.92993,3.0068,3.0068,0,0,0,1.53.68006,7.207,7.207,0,0,0,2.49-.03,5.6675,5.6675,0,0,0,3.96-2.5,16.5864,16.5864,0,0,0,2.37012-6.01,47.404,47.404,0,0,0,.98-8.0199c.14014-2.82007.12012-5.74.03-8.71008l-.00121-.04681a12.805,12.805,0,0,0-3.49074-8.47189C147.32319,158.89194,136,150.27677,136,136c0-24,24-32,24-32,0-24,24-80,96-80s80,40,80,40c16,0,48,24,48,56,24,8,24,40,24,40C408,200,368,192,368,240Z" style="fill:#f57a08"/><path d="M440,496H72c0-112.92993,57.26-144.5,101.49-161.28C201.33008,324.15991,224,319.45,224,304c0-32-56-32-56-88V144c3.02-46.59009,19.71-80,96-80,112,0,88,80,88,112l3.03-3.03a16.97,16.97,0,0,1,28.97,12v3.54a16.96876,16.96876,0,0,1-10.66992,15.76l-26.55,10.62C331.51,265.23,288,271.02,288,304c0,15.45,22.66992,20.15991,50.51,30.72C382.74,351.5,440,383.07007,440,496Z" style="fill:#f5a971"/><path d="M440,496H72c0-112.92993,57.26-144.5,101.49-161.28C191.90991,353.52,227.2,360,256,360s64.09009-6.48,82.51-25.28C382.74,351.5,440,383.07007,440,496Z" style="fill:#b1cdb4"/><path d="M368,123.66992,352,176l-.00231.01206q-.2907,1.5212-.44919,3.06324c-.2211,2.13673-.64945,6.04969-1.0485,8.39467a59.80434,59.80434,0,0,1-2.55,10.28,28.20828,28.20828,0,0,1-6.11987,10.40991,18.13488,18.13488,0,0,1-5.74,3.99,17.8556,17.8556,0,0,1-6.66016,1.43006,17.40113,17.40113,0,0,1-6.73-1.07,13.36484,13.36484,0,0,1-6.04-4.55,12.69914,12.69914,0,0,1-.5-14.19995,12.04409,12.04409,0,0,1,5.48023-4.64A14.58743,14.58743,0,0,1,328,188.03a3.97218,3.97218,0,0,1,.10986,7.92993L328,195.97a6.15555,6.15555,0,0,0-2.71.79,3.13084,3.13084,0,0,0-.66016,4.92993,3.0068,3.0068,0,0,0,1.53.68006,7.207,7.207,0,0,0,2.49-.03,5.6675,5.6675,0,0,0,3.96-2.5,16.5864,16.5864,0,0,0,2.37012-6.01,47.404,47.404,0,0,0,.98-8.0199c.14014-2.82007.12012-5.74.03-8.71008-.08008-2.97-.21-5.99.01-9.1l.02-.29c.01-.1499.03-.3.05-.43994C330.87988,161.15991,324.29,152.58,320,144c-16,8-40-8-40-24-32,16-72-8-72-24,0,16-16,32-40,48V96l72-55.67,112.03,42Z" style="fill:#f57a08"/><path d="M404.76,366.12c-19.22-19.75-41.25-30.37-61.5-38.16a41.00178,41.00178,0,0,0,9.45-17.81006A33.97164,33.97164,0,0,0,370.82007,311.23c9.71-2.3,17.08984-9.65,20.77-20.69995,6.09985-18.29-2.71021-29.84009-9.13013-38.28-3.47-4.54-6.46-8.47-6.46-12.25,0-21.52,8.66992-29.28,18.7-38.26C404.67993,192.80005,416,182.65991,416,160a67.12616,67.12616,0,0,0-3.40991-19.53c-4.04-12.12-11.21021-20.99-20.8501-25.89C389.89014,95.29,378.54,81.23,371.65991,74.34c-9.1499-9.14-20.17993-15.65-29.71-17.67a53.49042,53.49042,0,0,0-13.57007-18.59C308.31006,19.83,277.93994,16,256,16c-42.35986,0-67.42993,18.33-81,33.71-14.76,16.73-21.3,35.99-22.69995,48.98-8.5,4.38013-24.3,15.48-24.3,37.31006,0,15.31006,9.75,25.06006,18.34009,33.65991,4.2727,4.273,8.20434,8.2002,10.73852,12.453a16.09336,16.09336,0,0,1,1.91162,11.671l-.01025.046a16.5864,16.5864,0,0,1-2.37012,6.01,5.6675,5.6675,0,0,1-3.96,2.5,7.207,7.207,0,0,1-2.49.03,3.0068,3.0068,0,0,1-1.53-.68006A3.13084,3.13084,0,0,1,149.29,196.76a6.15555,6.15555,0,0,1,2.71-.79l.10986-.01A3.97218,3.97218,0,0,0,152,188.03a14.58743,14.58743,0,0,0-6.35986,1.09,12.04409,12.04409,0,0,0-5.48023,4.64,12.69914,12.69914,0,0,0,.5,14.2,13.36484,13.36484,0,0,0,6.04,4.55,17.40113,17.40113,0,0,0,6.73,1.07A17.87284,17.87284,0,0,0,160,212.18335V216c0,11.93018,2.2998,22.34961,7.02344,31.77734-1.39356,8.93457-3.96,11.061-8.05371,14.45215-1.40137,1.16162-2.99121,2.478-4.626,4.11377-11.99219,11.99072-16.26758,26.5332-11.43652,38.90088a28.61106,28.61106,0,0,0,16.40429,16.18311,32.39979,32.39979,0,0,0,18.16211,1.26806q.334.89357.73438,1.75684c-22.36621,8.04639-48.67188,18.75976-70.96875,41.665C78.14355,396.00439,64,438.48926,64,496H76c0-97.70386,43.14453-132.854,83.44312-151.15869A76.73873,76.73873,0,0,1,164,368a4,4,0,0,0,8,0,83.07558,83.07558,0,0,0-5.19824-26.3407q2.8938-1.194,5.741-2.29236C197.14258,362.17822,242.42188,364,256,364s58.85718-1.82178,83.45728-24.63306q2.84581,1.10285,5.741,2.29236A83.07558,83.07558,0,0,0,340,368a4,4,0,0,0,8,0,75.93353,75.93353,0,0,1,4.55322-23.16016C392.853,363.144,436,398.29333,436,496h12C448,438.49,433.85986,396,404.76,366.12Zm-24.55-79.39c-2.38989,7.16992-6.48,11.48-12.1499,12.82007-6.25,1.47-13.13013-.84009-17.48-3.5A5.99949,5.99949,0,0,0,341.48,301.72c.61011,6.75-3.26,15.07007-9.63989,20.7a27.24453,27.24453,0,0,1-3.272,2.491,6.75583,6.75583,0,0,0-1.54419,1.37842c-.45215-.16-.906-.3208-1.354-.47925C304.16992,318.2,292,313.42993,292,304c0-14.36,9.49-23.16,21.5-34.29C326.10986,258.02,341.74,243.53,350.03,217.8999l21.76514-8.70947C367.21948,216.5332,364,226.11963,364,240c0,7.83,4.53,13.78,8.90991,19.53C379.02,267.54,384.30005,274.46,380.21,286.73ZM154.83008,161.16992C147.2,153.55005,140,146.34,140,136c0-17.89,15.58008-25.83008,20.3501-27.84009A6.00365,6.00365,0,0,0,164.02,102.83c.3999-11.67005,6.74-30.18006,19.98-45.18006C195.92993,44.12,218.10986,28,256,28c19.82007,0,47.07007,3.29,64.31006,18.96C328.2,54.13,330.99,61.1499,331.82007,63.84a5.9777,5.9777,0,0,0,5.25,4.20007c7.35986.6,17.84985,6.53992,26.09985,14.78992C369.25,88.8999,379.5,101.64,379.98,118.75a6.0105,6.0105,0,0,0,3.8501,5.43994c8.01,3.07007,14.02,10.01,17.37988,20.08008A56.21263,56.21263,0,0,1,404,160c0,16.65771-7.43628,23.93323-16.27271,31.87781A21.30267,21.30267,0,0,0,388,188.51v-3.54a20.9956,20.9956,0,0,0-22.34741-20.92554,21.65486,21.65486,0,0,0-13.81421,6.45728L350.34009,172h-4.65015c-3.72-3.91-15.71-16.98-22.10986-29.79a4.00157,4.00157,0,0,0-5.37012-1.79c-5.98,2.99-14.38989,1.95008-21.94995-2.72C288.81006,133.09,284,126.1499,284,120a4.01763,4.01763,0,0,0-3.09546-3.90063,4.12389,4.12389,0,0,0-2.80542.37573c-18.6333,9.25219-39.834,3.52954-52.33911-4.19507C216.25,106.3999,212,99.87,212,96a4.00039,4.00039,0,0,0-4.45117-3.97534,4.14261,4.14261,0,0,0-3.54981,4.17285c-.12671,12.85791-12.623,27.41174-38.19751,44.458A4.02759,4.02759,0,0,0,164,144v27.06934A117.63784,117.63784,0,0,0,154.83008,161.16992Zm106.61865,15.39514a8.845,8.845,0,0,0,.66235,2.8003,8.17214,8.17214,0,0,0,2.022,2.82177,11.82466,11.82466,0,0,0,5.39575,2.64844,19.43333,19.43333,0,0,0,2.58105.43128,7.98795,7.98795,0,1,0,.29541-3.77027c-.56982-.17541-1.12793-.36255-1.65771-.57751a8.64668,8.64668,0,0,1-3.238-2.12586A4.00482,4.00482,0,0,1,266.58325,176l.00025-.02234-.00025-.022a2.57628,2.57628,0,0,0-3.6521-2.32593,19.82724,19.82724,0,1,1-1.48242,2.9353Zm32.9502-16.56848a3.99822,3.99822,0,0,0,2.78588-6.82275l-5.66406-5.6731a8,8,0,0,0-8.18872-1.93786l-18.37158,6.11731a4.26864,4.26864,0,0,0,.71777,8.272A28.18688,28.18688,0,0,0,254.707,172H225.293a28.18688,28.18688,0,0,0-10.97119-12.04785,4.26864,4.26864,0,0,0,.71777-8.272L196.668,145.56287a8,8,0,0,0-8.18872,1.93786l-5.66406,5.6731a3.99822,3.99822,0,0,0,2.78588,6.82275A28.18718,28.18718,0,0,0,174.707,172H172V146.13c20.01-13.56994,32.18994-25.77,37.26-37.5a48.1643,48.1643,0,0,0,12.3,10.45c13.18994,8.16,34.97,14.3,55.25,6.67,1.97,7.09,7.45,13.92993,15.24,18.75,8.67993,5.36,18.1499,6.95,26.09009,4.53a138.72511,138.72511,0,0,0,15.22534,21.25879A10.98768,10.98768,0,0,1,334.55835,172H305.293A28.18718,28.18718,0,0,0,294.39893,159.99658Zm-112.9502,16.56848a8.845,8.845,0,0,0,.66235,2.8003,8.17214,8.17214,0,0,0,2.022,2.82177,11.82466,11.82466,0,0,0,5.39575,2.64844,19.43333,19.43333,0,0,0,2.58105.43128,7.98795,7.98795,0,1,0,.29541-3.77027c-.56982-.17541-1.12793-.36255-1.65771-.57751a8.64668,8.64668,0,0,1-3.238-2.12586A4.00482,4.00482,0,0,1,186.58325,176l.00025-.02234-.00025-.022a2.57628,2.57628,0,0,0-3.6521-2.32593,19.82724,19.82724,0,1,1-1.48242,2.9353ZM163.62207,310.228a16.58373,16.58373,0,0,1-9.53711-9.3501c-3.04394-7.793.22461-17.53076,8.74414-26.05029,1.23828-1.23828,2.48047-2.26709,3.80078-3.36084,3.99854-3.3125,8.09888-6.71729,10.666-14.92481,6.63086,8.39917,14.77588,14.561,22.09424,20.088C210.8999,285.34,220,292.21,220,304c0,8.517-9.92993,13.23315-27.69263,19.67322a6.01141,6.01141,0,0,0-.55444-.59705,12.14554,12.14554,0,0,1-3.81641-8.32422,5.99959,5.99959,0,0,0-8.209-5.21533C173.97168,311.82861,168.40039,312.06885,163.62207,310.228ZM256,356c-31.66431,0-58.99561-7.32812-74.897-19.83228,2.69482-.97607,5.33471-1.91125,7.897-2.81774,21.79-7.71,39-13.79993,39-29.35,0-15.77-11.55-24.5-23.79-33.75C189.10986,258.84,172,245.8999,172,216V184h0a27.98126,27.98126,0,0,0,48.023,19.54517c-.00415.15258-.023.30127-.023.45483a16.01833,16.01833,0,0,0,16,16h4a4,4,0,0,0,0-8h-4a8,8,0,0,1,0-16h4a4,4,0,0,0,0-8h-4a15.89893,15.89893,0,0,0-8.80566,2.655A27.8201,27.8201,0,0,0,227.70972,180h24.58056a28,28,0,1,0,55.41944,0h28.33911c.02295,1.97083.00537,3.91431-.08887,5.81006a47.404,47.404,0,0,1-.98,8.0199,16.5864,16.5864,0,0,1-2.37012,6.01,5.6675,5.6675,0,0,1-3.96,2.5,7.207,7.207,0,0,1-2.49.03,3.0068,3.0068,0,0,1-1.53-.68006A3.13084,3.13084,0,0,1,325.29,196.76a6.15555,6.15555,0,0,1,2.71-.79l.10986-.01A3.97218,3.97218,0,0,0,328,188.03a14.58743,14.58743,0,0,0-6.35986,1.09,12.04409,12.04409,0,0,0-5.48023,4.64,12.69914,12.69914,0,0,0,.5,14.2,13.36484,13.36484,0,0,0,6.04,4.55,17.40113,17.40113,0,0,0,6.73,1.07,17.8556,17.8556,0,0,0,6.66016-1.43006,18.13488,18.13488,0,0,0,5.74-3.99A28.20828,28.20828,0,0,0,347.95,197.75a59.80434,59.80434,0,0,0,2.55-10.28c.42993-2.52.74-5.01.98-7.47H352a4.00851,4.00851,0,0,0,2.834-1.17383l3.02588-3.02612a12.88426,12.88426,0,0,1,9.64966-3.79151A13.1959,13.1959,0,0,1,380,185.31543V188.51a12.90943,12.90943,0,0,1-8.1499,12.04L345.29,211.17993a4.009,4.009,0,0,0-2.34009,2.55c-7.5,24.72-22.05,38.21-34.88989,50.11C295.1499,275.81006,284,286.1499,284,304c0,15.55005,17.21,21.64,39,29.35,2.56226.90649,5.20215,1.84167,7.89673,2.81762C314.99512,348.67175,287.66357,356,256,356Z"/><path d="M261.19336,229.1499C260.90527,229.42969,253.96484,236,240,236a4,4,0,0,0,0,8c17.45605,0,26.4541-8.79688,26.82812-9.17139a4.00007,4.00007,0,0,0-5.63476-5.67871Z"/><path d="M336,420H288a4,4,0,0,0,0,8h48a4,4,0,0,0,0-8Z"/><path d="M163.57812,466.21094C159.68066,458.41748,156,451.05566,156,440c0-21.9165,14.625-36.96533,14.833-37.17627a3.99992,3.99992,0,0,0-5.66113-5.65234C164.4707,397.87256,148,414.63477,148,440c0,12.94434,4.28125,21.50732,8.42188,29.78906C160.31934,477.58252,164,484.94434,164,496h8C172,483.05566,167.71875,474.49268,163.57812,466.21094Z"/><path d="M355.57812,469.78906C359.71875,461.50732,364,452.94434,364,440c0-25.36523-16.4707-42.12744-17.17188-42.82861a3.99991,3.99991,0,1,0-5.65624,5.65722C341.32031,402.97656,356,417.91211,356,440c0,11.05566-3.68066,18.41748-7.57812,26.21094C344.28125,474.49268,340,483.05566,340,496h8C348,484.94434,351.68066,477.58252,355.57812,469.78906Z"/><path d="M404.76,366.12c-19.22-19.75-41.25-30.37-61.5-38.16a41.00178,41.00178,0,0,0,9.45-17.81006A33.97164,33.97164,0,0,0,370.82007,311.23c9.71-2.3,17.08984-9.65,20.77-20.69995,6.09985-18.29-2.71021-29.84009-9.13013-38.28-3.47-4.54-6.46-8.47-6.46-12.25,0-21.52,8.66992-29.28,18.7-38.26C404.67993,192.80005,416,182.65991,416,160a67.12616,67.12616,0,0,0-3.40991-19.53c-4.04-12.12-11.21021-20.99-20.8501-25.89C389.89014,95.29,378.54,81.23,371.65991,74.34c-9.1499-9.14-20.17993-15.65-29.71-17.67a53.49042,53.49042,0,0,0-13.57007-18.59C308.31006,19.83,277.93994,16,256,16c-42.35986,0-67.42993,18.33-81,33.71-14.76,16.73-21.3,35.99-22.69995,48.98-8.5,4.38013-24.3,15.48-24.3,37.31006,0,15.31006,9.75,25.06006,18.34009,33.65991,4.26977,4.27,8.2,8.20008,10.74,12.45008A16.115,16.115,0,0,1,158.99,193.78V193.84l-.01-.01a16.5864,16.5864,0,0,1-2.37012,6.01,5.68851,5.68851,0,0,1-3.96,2.5c-1.00976.16-2.87988.31994-4.02-.65a3.08156,3.08156,0,0,1-.68994-3.37988c.66992-1.90015,3.22-2.31006,4.16992-2.3501A3.97218,3.97218,0,0,0,152,188.03a14.58743,14.58743,0,0,0-6.35986,1.09,12.04409,12.04409,0,0,0-5.48023,4.64,12.681,12.681,0,0,0,.5,14.2c4.3501,5.66,10.7,5.65,12.77,5.62a17.89427,17.89427,0,0,0,6.57007-1.4V216c0,11.92993,2.3,22.35,7.02,31.78-1.39014,8.92993-3.96,11.05994-8.05,14.45-1.3999,1.16-2.99,2.48-4.62988,4.11-11.99,11.99-16.26,26.54-11.43018,38.9a28.60581,28.60581,0,0,0,16.40015,16.18994A32.44093,32.44093,0,0,0,177.47,322.7c.23.59009.47,1.18.74,1.75C155.84009,332.5,129.54,343.21,107.24,366.12,78.14014,396,64,438.49,64,496H76c0-97.69995,43.14014-132.8501,83.43994-151.16A76.65446,76.65446,0,0,1,164,368a4,4,0,0,0,8,0,82.94284,82.94284,0,0,0-5.2-26.34009C168.73,340.86,170.6499,340.1,172.54,339.37,197.14014,362.17993,242.41992,364,256,364s58.85986-1.82007,83.46-24.63c1.89014.73,3.81006,1.49,5.74,2.28991A82.94284,82.94284,0,0,0,340,368a4,4,0,0,0,8,0,75.859,75.859,0,0,1,4.55-23.16C392.8501,363.14,436,398.29,436,496h12C448,438.49,433.85986,396,404.76,366.12Zm-238.96-225.46009A4.01464,4.01464,0,0,0,164,144v27.07007a117.3698,117.3698,0,0,0-9.16992-9.90015C147.2,153.55005,140,146.34,140,136c0-17.89,15.58008-25.83008,20.3501-27.84009A6.00365,6.00365,0,0,0,164.02,102.83c.3999-11.67005,6.74-30.18006,19.98-45.18006C195.92993,44.12,218.10986,28,256,28c19.82007,0,47.07007,3.29,64.31006,18.96C328.2,54.13,330.99,61.1499,331.82007,63.84a5.9777,5.9777,0,0,0,5.25,4.20007c7.35986.6,17.84985,6.53992,26.09985,14.78992C369.25,88.8999,379.5,101.64,379.98,118.75a6.0105,6.0105,0,0,0,3.8501,5.43994c8.01,3.07007,14.02,10.01,17.37988,20.08008A56.21263,56.21263,0,0,1,404,160c0,16.65991-7.43994,23.92993-16.27,31.88a22.10968,22.10968,0,0,0,.27-3.37v-3.54A21.00117,21.00117,0,0,0,365.6499,164.04a21.67959,21.67959,0,0,0-13.80981,6.46l-1.5,1.5h-4.65015c-3.72-3.91-15.71-16.98-22.10986-29.79a4.00157,4.00157,0,0,0-5.37012-1.79c-5.98,2.99-14.38989,1.95008-21.94995-2.72C288.81006,133.09,284,126.1499,284,120a4.01147,4.01147,0,0,0-3.1001-3.9,4.07869,4.07869,0,0,0-2.7998.38C259.47,125.73,238.27,120,225.76,112.28,216.25,106.3999,212,99.87,212,96a4.00513,4.00513,0,0,0-4.45-3.98A4.14923,4.14923,0,0,0,204,96.2C203.87012,109.06006,191.37988,123.61,165.80005,140.65991ZM280,176a7.99924,7.99924,0,0,0-7.59009,5.5c-.56982-.17993-1.12988-.37-1.65991-.58008a8.66141,8.66141,0,0,1-3.24-2.12988,4.0188,4.0188,0,0,1-.92993-2.79v-.04a2.56612,2.56612,0,0,0-3.65015-2.33A19.9596,19.9596,0,1,1,260,184a19.75211,19.75211,0,0,1,1.45-7.42993,9.06678,9.06678,0,0,0,.65991,2.79993,8.36809,8.36809,0,0,0,2.02,2.81994,11.916,11.916,0,0,0,5.40015,2.65,21.69347,21.69347,0,0,0,2.57983.43A7.99613,7.99613,0,1,0,280,176Zm14.3999-16a4.00127,4.00127,0,0,0,2.78-6.83008L291.52,147.5a8.02729,8.02729,0,0,0-8.18994-1.93994L264.96,151.67993a4.27081,4.27081,0,0,0,.72,8.27A28.2173,28.2173,0,0,0,254.71,172H225.29a28.2173,28.2173,0,0,0-10.97-12.05,4.27081,4.27081,0,0,0,.72-8.27l-18.37012-6.11987A8.02729,8.02729,0,0,0,188.48,147.5l-5.65991,5.66992A4.00127,4.00127,0,0,0,185.6001,160,28.08544,28.08544,0,0,0,174.71,172H172V146.13c20.01-13.56994,32.18994-25.77,37.26-37.5a48.1643,48.1643,0,0,0,12.3,10.45c13.18994,8.16,34.97,14.3,55.25,6.67,1.97,7.09,7.45,13.92993,15.24,18.75,8.67993,5.36,18.1499,6.95,26.09009,4.53C325.43994,161.66992,332.29,168.58,334.56006,172H305.29A28.08544,28.08544,0,0,0,294.3999,160ZM200,176a7.99924,7.99924,0,0,0-7.59009,5.5c-.56982-.17993-1.12988-.37-1.65991-.58008a8.66141,8.66141,0,0,1-3.24-2.12988,4.0188,4.0188,0,0,1-.92993-2.79v-.04a2.56612,2.56612,0,0,0-3.65015-2.33A19.9596,19.9596,0,1,1,180,184a19.75211,19.75211,0,0,1,1.45-7.42993,9.06678,9.06678,0,0,0,.65991,2.79993,8.36809,8.36809,0,0,0,2.02,2.81994,11.916,11.916,0,0,0,5.40015,2.65,21.69347,21.69347,0,0,0,2.57983.43A7.99613,7.99613,0,1,0,200,176ZM163.62012,310.23a16.60616,16.60616,0,0,1-9.54-9.35c-3.04-7.8.23-17.53,8.75-26.05,1.24-1.24,2.48-2.2699,3.7998-3.36,4-3.32007,8.1001-6.72,10.67017-14.92993,6.62988,8.3999,14.77,14.55994,22.09009,20.09C210.8999,285.34,220,292.21,220,304c0,8.52-9.92993,13.23-27.68994,19.66992a5.2136,5.2136,0,0,0-.56006-.59,12.11421,12.11421,0,0,1-3.81006-8.33,5.99959,5.99959,0,0,0-8.21-5.21C173.97,311.83,168.3999,312.07007,163.62012,310.23ZM256,356c-31.65991,0-59-7.33008-74.8999-19.83008,2.7-.98,5.33984-1.90991,7.8999-2.81994,21.79-7.71,39-13.79993,39-29.35,0-15.77-11.55-24.5-23.79-33.75C189.10986,258.84,172,245.8999,172,216V184a27.98254,27.98254,0,0,0,48.02,19.55005c0,.1499-.02.29993-.02.45a16.02116,16.02116,0,0,0,16,16h4a4,4,0,0,0,0-8h-4a8,8,0,0,1,0-16h4a4,4,0,0,0,0-8h-4a15.87926,15.87926,0,0,0-8.81006,2.65991A27.76178,27.76178,0,0,0,227.71,180H252.29A28,28,0,1,0,307.71,180h28.34009A64.532,64.532,0,0,1,334.98,193.83a16.5864,16.5864,0,0,1-2.37012,6.01,5.68851,5.68851,0,0,1-3.96,2.5c-1.00976.16-2.87988.31994-4.02-.65a3.08156,3.08156,0,0,1-.68994-3.37988c.66992-1.90015,3.22-2.31006,4.16992-2.3501A3.97218,3.97218,0,0,0,328,188.03a14.58743,14.58743,0,0,0-6.35986,1.09,12.04409,12.04409,0,0,0-5.48023,4.64,12.681,12.681,0,0,0,.5,14.2c4.3501,5.66,10.7,5.65,12.77,5.62a17.57855,17.57855,0,0,0,12.39014-5.42005A28.37893,28.37893,0,0,0,347.95,197.75,75.54942,75.54942,0,0,0,351.48,180H352a4.00413,4.00413,0,0,0,2.83008-1.17l3.02978-3.02991a12.88917,12.88917,0,0,1,9.65015-3.79A13.19563,13.19563,0,0,1,380,185.32007V188.51a12.90943,12.90943,0,0,1-8.1499,12.04L345.29,211.17993a4.009,4.009,0,0,0-2.34009,2.55c-7.5,24.72-22.05,38.21-34.88989,50.11C295.1499,275.81006,284,286.1499,284,304c0,17.66992,22.60986,23.24,46.8999,32.16992C315,348.66992,287.65991,356,256,356Zm85.48-54.28c.61011,6.75-3.26,15.07007-9.63989,20.7a27.98176,27.98176,0,0,1-3.27,2.49,6.81859,6.81859,0,0,0-1.55,1.38013C306.90991,319.06006,292,314.12,292,304c0-14.36,9.49-23.16,21.5-34.29C326.10986,258.02,341.74,243.53,350.03,217.8999l21.77-8.71C367.22,216.53,364,226.12,364,240c0,7.83,4.53,13.78,8.90991,19.53,6.11011,8.01,11.39014,14.92993,7.3,27.2-2.38989,7.16992-6.48,11.48-12.1499,12.82007-6.25,1.47-13.13013-.84009-17.48-3.5A5.99949,5.99949,0,0,0,341.48,301.72Z"/></g></svg>
