<?xml version="1.0" encoding="UTF-8"?>
<svg xmlns="http://www.w3.org/2000/svg" viewBox="0 0 512 512" width="512" height="512"><g id="Fill_out_line" data-name="Fill out line"><path d="M456,496H88c0-133.28,87.16992-156.46,129.48-173.76h.01C231.05005,316.7,240,311.77,240,304c0-32-56-32-56-88,0-80-16-152,88-152s88,72,88,152c0,56-56,56-56,88,0,7.77,8.95,12.7,22.51,18.24C368.82007,339.54,456,362.71,456,496Z" style="fill:#f5a971"/><path d="M221.45524,312.00017a87.8415,87.8415,0,0,0,98.545,1.72622h18.82792V496H204V312Z" style="fill:#b1cdb4"/><path d="M456,496H296c0-56,0-96,8-128,5.47-21.89,14.68994-36.29,22.51-45.76C368.82007,339.54,456,362.71,456,496Z" style="fill:#f57a08"/><path d="M248,496H88c0-133.28,87.16992-156.46,129.48-173.76h.01c7.82007,9.47,17.04,23.87,22.51,45.76C248,400,248,440,248,496Z" style="fill:#f57a08"/><path d="M217.49,322.24c7.82007,9.47,17.04,23.87,22.51,45.76,0,0-8-16-24-16s-24,16-24,16V336c0-40,8-40,24-40h22.7a24.39727,24.39727,0,0,1,1.3,8C240,311.77,231.05005,316.7,217.49,322.24Z" style="fill:#f3b73f"/><path d="M303.81065,304c0-24,88-40,88-88C391.81065,128,400,24,312,24c-23.81065,0-40.18935,8-40.18935,8H272s-16-8-40-8c-88,0-80,104-80,192,0,48,88,64,88,88Z" style="fill:#084c4f"/><path d="M360,216c0,56-56,56-56,88l-30.33333,12.00007L240,304c0-32-56-32-56-88,0-80-16-152,88-152S360,136,360,216Z" style="fill:#f5a971"/><path d="M326.51,322.24c-7.82007,9.47-17.04,23.87-22.51,45.76,0,0,8-16,24-16s24,16,24,16V336c0-40-8-40-24-40H305.30005a24.39727,24.39727,0,0,0-1.3,8C304,311.77,312.95,316.7,326.51,322.24Z" style="fill:#f3b73f"/><path d="M136.1107,360q-.108,3.82855-.1107,8V496H72L54.75552,372.558Z" style="fill:#f57a08"/><path d="M144,312s-6.92993,13.85-7.89014,48A28.66718,28.66718,0,0,1,120,384c-10.02,5.01-29.43994,6.88-44.53,3.65L74.75,384s-4.23-16.94-8.34009-35.56C62.52,330.86,58.75,311.77,58.75,304c0-15.82,7.82007-31.64,23.47-31.99A20.5885,20.5885,0,0,1,98.75,264a12.11049,12.11049,0,0,1,6.95,1.99,19.72439,19.72439,0,0,1,5.5-1.71c-1.54-17.02-3.73-56.28,8.8-56.28,11.40991,0,14.67993,40.67,15.62012,64.01.12988-.01.25-.01.37988-.01C152,272,144,312,144,312Z" style="fill:#f5a971"/><path d="M75.47,387.65C66.46,385.73,58.99,381.98,56,376c-5.42993-10.85,3.87012-21.7,10.40991-27.56C70.52,367.06,74.75,384,74.75,384Z" style="fill:#ea5003"/><path d="M176,136c40,0,32-40,64-40s32,16,32,16,0-16,32-16,24,40,64,40V58.33333H176Z" style="fill:#084c4f"/><path d="M360,176l3.02944-3.02944a16.97054,16.97054,0,0,1,12-4.97056h0A16.97054,16.97054,0,0,1,392,184.97055v3.53983a16.97055,16.97055,0,0,1-10.66784,15.75676l-26.55346,10.624Z" style="fill:#f5a971"/><path d="M184,176l-3.02944-3.02944a16.97054,16.97054,0,0,0-12-4.97056h0A16.97054,16.97054,0,0,0,152,184.97055v3.53983a16.97055,16.97055,0,0,0,10.66784,15.75676l26.55346,10.624Z" style="fill:#f5a971"/><ellipse cx="268" cy="240" rx="12" ry="16" style="fill:#e37066"/><path d="M268,212h4a4,4,0,0,0,0-8h-4a8,8,0,0,1,0-16h4a4,4,0,0,0,0-8h-4a16,16,0,0,0,0,32Z"/><path d="M268,260a4,4,0,0,0,0-8c-4.33691,0-8-5.49512-8-12s3.66309-12,8-12,8,5.49512,8,12a4,4,0,0,0,8,0c0-11.02783-7.17773-20-16-20s-16,8.97217-16,20S259.17773,260,268,260Z"/><path d="M172,432v64h-8V432a4,4,0,0,1,8,0Z"/><path d="M380,432v64h-8V432a4,4,0,0,1,8,0Z"/><path d="M222.73535,60.20508a4,4,0,0,0,2.52149,7.59228c.21777-.07129,21.90332-6.98,35.915,7.03125a3.99991,3.99991,0,0,0,5.65624-5.65722C249.28223,51.625,223.81055,59.84668,222.73535,60.20508Z"/><path d="M224,44c15.84473,0,29.52832,0,36.42188,13.78906a4.00046,4.00046,0,0,0,7.15624-3.57812C258.47168,36,240.1582,36,224,36a4,4,0,0,0,0,8Z"/><path d="M280,76a3.98686,3.98686,0,0,0,2.82812-1.17139c13.97364-13.97558,35.58594-7.13818,35.91309-7.03173a4.0001,4.0001,0,0,0,2.52344-7.5918c-1.0752-.35791-26.5459-8.58106-44.09277,8.96631A4,4,0,0,0,280,76Z"/><path d="M278.21094,59.57764a3.99781,3.99781,0,0,0,5.36718-1.78858C290.47168,44,304.15527,44,320,44a4,4,0,0,0,0-8c-16.1582,0-34.47168,0-43.57812,18.21094A4.001,4.001,0,0,0,278.21094,59.57764Z"/><path d="M237.071,159.68024l-18.37182-6.11737a7.99991,7.99991,0,0,0-8.18872,1.93792l-5.66382,5.673A4,4,0,0,0,207.67725,168h28.04492a4.26922,4.26922,0,0,0,1.34887-8.31976Z"/><path d="M308.27783,168h28.04492a4,4,0,0,0,2.83057-6.82617l-5.66382-5.673a7.99991,7.99991,0,0,0-8.18872-1.93792L306.929,159.68024A4.26922,4.26922,0,0,0,308.27783,168Z"/><circle cx="224" cy="184" r="8"/><circle cx="320" cy="184" r="8"/><path d="M98.1123,278.48389a16.74108,16.74108,0,0,0-7.37792-8.51764A16.62618,16.62618,0,0,1,98.74512,268c1.59741,0,5.75488.1875,7.97558,5.54541,2.77539,6.69873.77149,16.05078-2.80371,19.626-1.95654,1.95813-3.491,2.29168-4.60864,2.08459A29.27185,29.27185,0,0,0,98.1123,278.48389Zm16-8a19.76059,19.76059,0,0,0-1.18164-2.38965c7.09017-.90674,9.55372,3.81915,10.48316,7.57214-1.88843,4.01953-2.4419,8.96607-2.90894,13.172-.15918,1.43048-.321,2.873-.52148,4.25769-1.26575,1.2804-4.1084,3.81018-6.95288.78686C116.428,287.09906,117.06763,277.619,114.1123,270.48389Zm4.42481-57.67237C119.25391,212,119.70312,212,120,212c.06348,0,6.4209.416,10.01953,36.398.6145,6.14087,1.0979,12.92438,1.44238,20.176a12.7427,12.7427,0,0,0-1.89453.68811,15.80056,15.80056,0,0,0-14.70556-9.2572c-.40674-5.18646-.67969-10.174-.79541-14.8291C113.4707,221.21094,116.99414,214.56006,118.53711,212.81152Zm-58.959,161.39942c-3.0708-6.14044.35694-12.68933,4.52833-17.68665,2.52392,11.121,4.87377,20.803,6.02954,25.50336C65.14551,380.22858,61.29932,377.65411,59.57812,374.21094Zm58.63282,6.21142c-8.9939,4.49665-25.82447,6.069-39.31787,3.822,0,0-16.14795-64.91424-16.14795-80.24432,0-13.48584,6.25879-28,20-28,3.82129,0,6.43066,1.814,7.97558,5.54541,2.77539,6.69873.77149,16.05078-2.80371,19.626-1.90429,1.90283-3.668,2.53808-5.23144,1.88916-2.16635-.897-3.87194-3.895-3.93841-6.88029a4.15825,4.15825,0,0,0-3.471-4.146A4.00171,4.00171,0,0,0,70.74512,296c0,6.34375,3.65136,12.28662,8.8789,14.45166,4.64063,1.92236,9.72559.60107,13.94922-3.623a18.31619,18.31619,0,0,0,2.99854-4.04956c4.70947,1.471,8.73095-.36279,11.49121-2.60138a12.093,12.093,0,0,0,7.34668,3.1175c-7.00171,10.15643.65893,25.78656,1.01221,26.49389a4.00036,4.00036,0,0,0,7.15917-3.57177c-.06738-.13477-6.51367-13.62793-.75293-19.38868,4.19239-4.19238,4.92188-10.75781,5.627-17.10693,1.30623-11.7551,2.9336-13.69761,7.45913-13.72147a3.91748,3.91748,0,0,1,3.01792,1.34867c4.03836,4.79936,3.4511,19.14886,1.90451,29.48191a35.20426,35.20426,0,0,1-1.64764,6.47729,114.25985,114.25985,0,0,0-5.20047,22.75082A211.2722,211.2722,0,0,0,132,360,24.39806,24.39806,0,0,1,118.21094,380.42236ZM244,304c0-15.7666-11.55469-24.501-23.78711-33.74854C205.11328,258.83789,188,245.90137,188,216q0-1.61207-.00781-3.21973a4.00111,4.00111,0,0,0-2.51367-3.69531l-21.3252-8.53174A12.90823,12.90823,0,0,1,156,188.51025V184.9707a12.97064,12.97064,0,0,1,22.14258-9.17138l2.292,2.2915a3.99968,3.99968,0,0,0,6.82715-2.90576c-.23071-12.00708-.29273-24.65973.63452-36.47687,14.59717-3.45227,21.40747-13.249,27.552-22.09686C221.89355,107.33057,226.9834,100,240,100c14.60938,0,21.498,3.47168,24.70508,6.38428C267.82129,109.21436,267.99609,111.978,268,112a4,4,0,0,0,8,0c0-.12012.76172-12,28-12,13.0166,0,18.10645,7.33057,24.55176,16.61133,6.14453,8.8479,12.95483,18.64459,27.552,22.09686.92725,11.81714.86523,24.46979.63452,36.47687a3.99968,3.99968,0,0,0,6.82715,2.90576l2.292-2.2915a12.96029,12.96029,0,0,1,22.12183,8.76336q-.01356,2.5329-.03052,5.06513a12.89752,12.89752,0,0,1-8.103,10.92541L358.52148,209.085a4.00111,4.00111,0,0,0-2.51367,3.69531Q356.00049,214.38794,356,216c0,29.90137-17.11328,42.83789-32.21289,54.25146C311.55469,279.499,300,288.2334,300,304c0,5.11426,2.63672,9.09058,6.80469,12.43091a83.80277,83.80277,0,0,1-69.60889-.00025C241.36328,313.09039,244,309.11414,244,304Zm90.84619-32.15344C349.10767,260.57629,364,245.51782,364,216v-.49023l18.81738-7.52881a21.12776,21.12776,0,0,0,5.02783-2.87372c-.0205,3.64941-.03466,7.30194-.03466,10.89276C387.81055,241.70905,358.50342,258.4201,334.84619,271.84656ZM184.09961,45.53662C195.65723,33.90039,211.77246,28,232,28c19.835,0,33.68359,5.52979,37.45605,7.2251a6.00315,6.00315,0,0,0,4.87891.01709C278.18945,33.54346,292.29785,28,312,28c20.21,0,36.30566,5.89062,47.83984,17.50781C384.44238,70.28638,387.80518,118.287,388.001,168.52515a20.93718,20.93718,0,0,0-23.13672-1.908c.07983-8.9093-.03321-17.994-.64429-26.73847,1.21753.07642,2.47241.12128,3.78.12128a4,4,0,0,0,0-8c-19.02246,0-25.752-9.69141-32.877-19.95166C328.59668,102.65088,321.2002,92,304,92c-18.69043,0-27.67871,5.29053-32,10.43311C267.67871,97.29053,258.69043,92,240,92c-17.2002,0-24.59668,10.65088-31.12305,20.04834C201.752,122.30859,195.02246,132,176,132a4,4,0,0,0,0,8c1.30762,0,2.5625-.04486,3.78-.12128-.61108,8.74445-.72412,17.82917-.64429,26.73847a20.95585,20.95585,0,0,0-23.312,2.03912C156.0437,118.37177,159.45605,70.34985,184.09961,45.53662ZM156,216c0-3.63727-.0144-7.33844-.03442-11.03406a21.12138,21.12138,0,0,0,5.21606,3.015L180,215.50977V216c0,29.85675,15.23584,44.91962,29.64453,56.23267-.15307-.0868-.30469-.173-.458-.26C185.49121,258.5249,156,241.78906,156,216Zm40,140.34961V336c0-17.8042,1.62793-28.13184,5.12305-32.501C203.79785,300.15576,208.06348,300,216,300h19.61719A21.01432,21.01432,0,0,1,236,304c0,4.876-6.842,8.964-17.36133,13.43268-2.99365-3.44019-5.70215-6.153-7.81055-8.26129a3.99991,3.99991,0,1,0-5.65624,5.65722c6.49169,6.49219,17.45532,17.46875,25.54,37.43537A27.49039,27.49039,0,0,0,216,348,28.87557,28.87557,0,0,0,196,356.34961ZM272,344a103.00845,103.00845,0,0,1-40.35669-8.15839,110.53314,110.53314,0,0,0-7.77661-11.9403c1.84131-.80591,3.624-1.63288,5.3208-2.49317a91.82161,91.82161,0,0,0,85.62524.00019c1.69678.86029,3.47925,1.68707,5.32056,2.493a110.52837,110.52837,0,0,0-7.77661,11.94036A103.011,103.011,0,0,1,272,344Zm76,11.92969A27.45346,27.45346,0,0,0,328.78613,348a28.65233,28.65233,0,0,0-15.7041,4.76923c8.10352-20.28968,19.19922-31.39344,25.74609-37.94062a3.99991,3.99991,0,0,0-5.65624-5.65722c-2.1084,2.10827-4.8169,4.8211-7.81055,8.26129C314.842,312.964,308,308.876,308,304a21.01432,21.01432,0,0,1,.38281-4H328c7.93652,0,12.20215.15576,14.877,3.499C346.37207,307.86816,348,318.1958,348,336ZM427.46,375.4c-20.67993-25.43-46.55-39.26-67.60986-48.38995-.6001-16.62-3.03-25.96-8.15015-31.77-5.62988-6.39-13.77-7.14-20.8999-7.23,3.09985-1.83,6.38989-3.7,9.75-5.6,26.3999-14.99,59.26-33.63,59.26-66.41,0-6.79.0498-13.84.09985-20.65v-.13c.44019-61.69.90015-125.48-31.55-158.17C354.49,23.08,335.52,16,312,16a111.97849,111.97849,0,0,0-40.07007,7.25A110.076,110.076,0,0,0,232,16c-23.54,0-42.52,7.09-56.40991,21.08C143.04,69.85,143.48,133.8,143.90991,195.64v.17C143.95,202.47,144,209.35,144,216c0,32.78,32.85986,51.42,59.26,66.41,3.36011,1.9,6.65991,3.78,9.76,5.6-7.09009.1-15.14014.9-20.72,7.23-5.12012,5.81-7.55,15.15-8.15015,31.77A209.82434,209.82434,0,0,0,144.7,348.95c1.34009-16.82,3.79-24.95,4.89014-28.99a92.54421,92.54421,0,0,0,4.25-22.63995c.74-13.04-1.09009-22.04-5.58008-27.52a15.809,15.809,0,0,0-4.91992-4.05c-.3501-6.62-.81006-12.84-1.38013-18.55-2.33008-23.34-6.77-47.2-21.96-47.2a13.69455,13.69455,0,0,0-10.46,4.87c-5.63013,6.37-8,19.28-7.47,40.6.08984,3.47.25,7.1.49,10.85A22.59879,22.59879,0,0,0,98.75,256a28.28627,28.28627,0,0,0-20.3501,8.3c-8.2998,1.17-15.27978,5.72-20.30981,13.26C53.3501,284.67,50.75,294.05,50.75,304c0,6.63,2.31006,20.69,6.87012,41.8-.98,1.01-1.91016,2.05-2.77,3.08-8.69019,10.44-9.17017,19.31-7.99024,25L63.91992,496H76.04L60.72,386.38a45.2891,45.2891,0,0,0,14.11011,5.22.08941.08941,0,0,0,.0498.01C109.625,397.66667,126.79167,386.125,132,379.83V440a4,4,0,0,0,8,0V367.49a5.86894,5.86894,0,0,0,1.99-1.12c15.51-13.42,32.29-21.95,46.01-27.95V368a3.98894,3.98894,0,0,0,3.07007,3.88,3.69426,3.69426,0,0,0,.92993.11,3.99518,3.99518,0,0,0,3.57007-2.19C195.64014,369.66,202.73,356,216,356c12.07007,0,19.03,11.31,20.23,13.44C244,400.89,244,440.83,244,496h8c0-56.02,0-96.49-8.12012-128.97a130.27317,130.27317,0,0,0-7-20.67,112.16581,112.16581,0,0,0,70.24024,0,130.27317,130.27317,0,0,0-7,20.67C292,399.51,292,439.98,292,496h8c0-55.13,0-95.05,7.75-126.49,1.40991-2.3,8.87988-13.51,21.04-13.51,13.1499,0,19.31006,13.1,19.56006,13.64A4.00111,4.00111,0,0,0,356,368V338.42c19.60986,8.59,43.37988,21.47,62.1499,44.55C440.60986,410.58,452,448.61,452,496h12C464,445.78,451.71,405.21,427.46,375.4Z"/></g></svg>
