<?xml version="1.0" encoding="UTF-8"?>
<svg xmlns="http://www.w3.org/2000/svg" viewBox="0 0 512 512" width="512" height="512"><g id="Fill_out_line" data-name="Fill out line"><path d="M448,88c0,32,0,64-16,64v88c0,24,0,64-24,64-21.49,0-23.74-32.06006-23.97-56H384c-16,0-16-24-16-48L336,40s24-16,48-16S448,40,448,88Z" style="fill:#084c4f"/><path d="M347.9,62.05,376,48c24,16,24,48,24,48l-22.5,11.25Z" style="fill:#f57a08"/><path d="M168,184s-32-32-32-72,40-88,72-88,40,16,40,16c8-16,32-16,56-16,48,0,80,64,80,104v64c0,64-96,80-96,112Z" style="fill:#084c4f"/><path d="M430.04,424.49C396.22,320.24,288,337.75,288,304c0-32.98,43.51-38.77,58.78-89.11l26.55-10.62A16.96846,16.96846,0,0,0,384,188.51v-3.54a16.97078,16.97078,0,0,0-28.97-12L352,176a28.78266,28.78266,0,0,0-4.55,7.93.42225.42225,0,0,1-.02.05c-6.48,0-11.43.02-11.43.02v-8c0-24-16-48-40-48s-56-24-56-48c0,24-48,48-72,48v16.02c-14.19.11-34.12,1.46-38.93,16.54-11.02,1.89-16.7,8.27-17.05,14.79C104,178.73,104,186.96,104,192c-8,8-8,16-8,48S64,288,56,360c-7.48,67.28,33.95,78.67993,91.63,60.30005A56.17947,56.17947,0,0,0,144,440c0,24,16,32,16,56H416c0-20.69995,3.35-44.74-.79-67.8ZM147.76,191.55a8.69009,8.69009,0,0,0,.8-5.2l1.98-12.82a7.95861,7.95861,0,0,0,.58-3.73L152,168s3.32-6.64,16-7.82v40.25c-6.81.71-11.02,2.59-16,7.57l-8,8ZM144,328H132.06c5.29-20.58008,14.48-55.61,19.94-72,4.99-14.98,9.99-23.72,16.92-28.18C176.18,272.17993,224,274.42993,224,304,224,320.56006,208,328,144,328Z" style="fill:#f5a971"/><path d="M430.04,424.49l-14.83,3.71L368,440c0,24-16,32-16,56H160c0-24-16-32-16-56a56.17947,56.17947,0,0,1,3.63-19.69995A64.19713,64.19713,0,0,1,152,411V368c0-16-16-40-16-40h8c28.29,0,47.2-1.45,59.49-4.51C219.02,319.64,224,313.24,224,304l32,24,32-24c0,9.17993,8.01,14.57007,20.35,19.6499C341.37,337.23,405.42,348.6,430.04,424.49Z" style="fill:#b1cdb4"/><path d="M308.35,323.6499,272,360l-16-16-16,16-36.51-36.51C219.02,319.64,224,313.24,224,304l32,24,32-24C288,313.17993,296.01,318.57007,308.35,323.6499Z" style="fill:#6eb4a4"/><path d="M291.52081,139.50079a8,8,0,0,0-8.18878-1.93792l-18.3717,6.11737A4.26921,4.26921,0,0,0,266.30908,152h28.045a4,4,0,0,0,2.83069-6.82617Z"/><path d="M268.94434,245.79736a14.77734,14.77734,0,0,0,2.05273-13.45507,15.0001,15.0001,0,0,0-17.7915-9.76661l-22.17578,5.54395a3.99982,3.99982,0,0,0,1.94042,7.76074l22.17579-5.54394a6.96556,6.96556,0,0,1,8.26123,4.53564A6.93521,6.93521,0,0,1,256.82812,244H248a4,4,0,0,0,0,8h8.82812A14.77684,14.77684,0,0,0,268.94434,245.79736Z"/><path d="M224,68c-18.7959,0-35.49365,10.04346-43.57764,26.21094a4,4,0,1,0,7.15528,3.57812C194.29785,84.34912,208.25391,76,224,76a4,4,0,0,0,0-8Z"/><path d="M233.78906,52.42236c-17.10547-8.55273-26.47265-8.55273-43.57812,0a4,4,0,0,0,3.57812,7.15528c14.80664-7.40332,21.61524-7.40332,36.42188,0a4,4,0,1,0,3.57812-7.15528Z"/><path d="M264.00293,60.001a3.98566,3.98566,0,0,0,1.78613-.42334c15.56787-7.78467,37.228-6.90381,43.38233-.749a4.00026,4.00026,0,1,0,5.65722-5.65722c-9.272-9.27149-34.84277-9.63575-52.61767-.749a4.00069,4.00069,0,0,0,1.792,7.57862Z"/><path d="M306.27148,70.3667c-15.19628-6.29443-33.72558-7.11182-44.06054-1.94434a4,4,0,0,0,3.57812,7.15528c8.30518-4.15332,24.39307-3.21534,37.4209,2.18017,10.84277,4.4917,18.29932,11.41944,20.99512,19.50733a4.00025,4.00025,0,1,0,7.58984-2.53028C328.354,84.41357,319.28955,75.75928,306.27148,70.3667Z"/><path d="M264.13293,182.18713a11.82489,11.82489,0,0,0,5.396,2.64844,19.44166,19.44166,0,0,0,2.58093.43134,7.988,7.988,0,1,0,.29541-3.77033c-.56982-.17541-1.128-.36249-1.65771-.57751a8.64581,8.64581,0,0,1-3.23792-2.1258A4.00341,4.00341,0,0,1,266.58337,176v-.02234l-.00012-.022A2.58341,2.58341,0,0,0,261.41663,176a8.8894,8.8894,0,0,0,.69458,3.36536A8.17207,8.17207,0,0,0,264.13293,182.18713Z"/><path d="M200,176a7.99929,7.99929,0,0,0-7.59479,5.49658c-.56982-.17541-1.128-.36249-1.65771-.57751a8.646,8.646,0,0,1-3.23786-2.1258A4.00374,4.00374,0,0,1,186.58331,176l.00013-.02234-.00019-.022A2.58338,2.58338,0,1,0,181.41669,176a8.8895,8.8895,0,0,0,.69452,3.36536,8.17211,8.17211,0,0,0,2.02179,2.82177,11.82471,11.82471,0,0,0,5.39587,2.64844,19.44491,19.44491,0,0,0,2.58093.43134A7.99593,7.99593,0,1,0,200,176Z"/><path d="M429.87793,31.65381A77.82806,77.82806,0,0,0,384,16c-16.76465,0-33.083,6.79053-42.9624,11.8833C329.44238,20.09668,316.71045,16,304,16c-21.46191,0-43.56689-.001-56.44189,11.60156C240.71191,22.01367,228.56494,16,208,16c-17.46729,0-37.71826,11.93115-54.17041,31.91406C137.65576,67.54,128,91.49756,128,112a94.0359,94.0359,0,0,0,5.50488,31.03125A27.00459,27.00459,0,0,0,123.27,153.67773c-9.40332,2.7417-16.13867,8.80127-18.42188,16.54786-7.62939,5.39941-8.62841,13.78662-8.80908,18.64746C88,198.54248,88,209.87549,88,240c0,11.64746-5.11768,21.0542-12.21143,34.09473-10.24365,18.82519-22.99218,42.25439-27.74218,85.02343-3.46534,31.24366,2.94043,53.438,19.04052,65.96875,9.39893,7.30762,21.95655,11.01319,37.32325,11.01319a135.77728,135.77728,0,0,0,32.13574-4.35791A62.91473,62.91473,0,0,0,136,440c0,13.9082,4.69873,23.29443,8.84326,31.57373C148.68359,479.25342,152,485.88574,152,496h12c0-12.94434-4.28174-21.50732-8.42236-29.78906C151.68066,458.41748,148,451.05566,148,440c0-21.9165,14.625-36.96533,14.8335-37.17627a4.00027,4.00027,0,0,0-5.66211-5.65234c-.09973.09973-.52649.53515-1.17139,1.26318V368c0-11.96692-7.90521-27.46814-12.85278-36H144c26.58832,0,45.40155-1.33008,58.1936-4.14917l34.97779,34.97778a4.00147,4.00147,0,0,0,5.65722,0L256,349.65674l13.17139,13.17187a4.00088,4.00088,0,0,0,5.65722,0l34.49274-34.49267c4.25049,1.6737,8.8642,3.30713,13.70795,5.021,22.49853,7.96729,50.499,17.88282,73.13232,41.12891a125.16766,125.16766,0,0,1,27.33789,43.32861l-.07562.08374-52.12952,13.03235a65.62835,65.62835,0,0,0-16.46576-33.75915,4.00026,4.00026,0,0,0-5.65722,5.65722C349.31982,402.97656,364,417.91211,364,440c0,11.05566-3.68066,18.41748-7.57764,26.21094C352.28174,474.49268,348,483.05566,348,496h8c0-11.05566,3.68066-18.41748,7.57764-26.21094,4.14062-8.28174,8.73485-17.28906,8.4024-30.78406l39.33142-9.83288c3.28229,17.67163,1.48021,40.39038,1.28229,47.6936C412.28857,483.53857,412,489.8418,412,496h12c0-5.88379.27219-11.54411.58105-18.58594.47777-9.57877,1.66895-30.85156-.94531-47.26123l9.21533-2.31347a5.9991,5.9991,0,0,0,4.22461-7.73584c-7.1167-21.11231-17.98974-39.27735-32.31689-53.98926-24.58545-25.25147-54.04932-35.68506-77.78125-44.08936C309.67041,315.90137,296,311.064,296,304c0-8.75,16.53223-19.42188,32.06689-29.332,12.67481-8.08594,26.76709-17.07715,38.53223-28.3833a19.50689,19.50689,0,0,0,9.5332,8.292C376.59375,273.897,379.437,312,408,312c17.94971,0,25.4502-15.40527,28.58105-28.32861C440,269.56152,440,252.47559,440,240V158.27734C455.999,150.78662,456,120.207,456,88,456,58.04492,441.79541,40.82568,429.87793,31.65381ZM227.92462,301.94336c-.96094-14.4884-12.02685-22.85864-23.73956-31.707-12.34961-9.34229-26.34766-19.93115-30.75244-40.16748-.00916-.04212-.02533-.08136-.0354-.12317A25.45521,25.45521,0,0,1,184,228a16.29541,16.29541,0,0,0,16.76123-16.52783A15.60162,15.60162,0,0,0,198.89453,204H214a21.927,21.927,0,0,0,6.04309-.85077A15.96873,15.96873,0,0,0,236,220h4a4,4,0,0,0,0-8h-4a8,8,0,0,1,0-16h4a4,4,0,0,0,0-8s-4.40392-.02745-4.85077.04309A21.8497,21.8497,0,0,0,235.905,184H244.095A22.02717,22.02717,0,0,0,266,204h28a22.02717,22.02717,0,0,0,21.905-20H336a4.0002,4.0002,0,0,0,4-4h12a4.00116,4.00116,0,0,0,2.82861-1.17139l3.0293-3.02929A12.9703,12.9703,0,0,1,380,184.9707v3.53955a12.908,12.908,0,0,1-8.15381,12.043l-26.55322,10.624a3.99974,3.99974,0,0,0-2.3418,2.55273c-7.498,24.71777-22.05224,38.21-34.89355,50.11377-12.40766,11.50232-23.18366,21.50073-24.002,38.1145L256,323ZM315.905,176A22.02717,22.02717,0,0,0,294,156H266a22.02717,22.02717,0,0,0-21.905,20H235.905A22.02717,22.02717,0,0,0,214,156H187.21613A10.26026,10.26026,0,0,0,188,152h25.69092a4.26921,4.26921,0,0,0,1.34875-8.31976l-18.3717-6.11737a8,8,0,0,0-8.18878,1.93792l-4.37757,4.38459C181.01611,141.31842,176.49353,140,172,140v-8.17969c12.48291-1.07373,28.86719-6.876,43.05811-15.39013,12.96289-7.77784,20.24951-15.31543,24.26855-21.76954,3.37744,7.56885,9.23389,14.96631,17.14014,21.43506C268.63867,126.05469,283.41748,132,296,132c22.23633,0,36,22.83936,36,44ZM252,178a14.01572,14.01572,0,0,1,14-14h28a14.01572,14.01572,0,0,1,14,14v4a14.01572,14.01572,0,0,1-14,14H266a14.01572,14.01572,0,0,1-14-14ZM136,164c6.1084,0,10.227,2.81836,11.00049,5.47021.53045,1.8183-.47534,3.87092-2.75122,5.8194a36.965,36.965,0,0,0-6.98413-3.08453c-.09717-.03223-.1958-.061-.29493-.08545-7.22485-1.80652-13.33154-2.54743-18.40008-2.22577C121.58746,166.56494,127.30688,164,136,164Zm28,9.22961c-1.47687-1.88226-3.10187-4.06353-4.793-6.51147A19.33369,19.33369,0,0,1,164,164.88092ZM186,196a14.01572,14.01572,0,0,1-14-14v-4a14.01572,14.01572,0,0,1,14-14h28a14.01572,14.01572,0,0,1,14,14v4a14.01572,14.01572,0,0,1-14,14Zm-14-48c5.19629,0,8,2.061,8,4s-2.80371,4-8,4c-10.75989,0-16.90021,3.29169-20.20856,6.15491-3.3659-3.73792-8.9472-6.05567-15.41412-6.14337C144.23785,148.007,161.16168,148,172,148Zm-60.48535,32.22217c3.93017-3.06934,12.00683-3.2002,23.36426-.3794,5.83007,1.96729,9.38476,4.62061,9.76025,7.29053a6.442,6.442,0,0,1-1.83569,4.78479,20.89832,20.89832,0,0,0-5.01441-3.49573c-11.43908-5.71917-20.42541-8.42859-28.71686-4.83648A7.88362,7.88362,0,0,1,111.51465,180.22217ZM147.35754,198.723c3.30469-3.15564,5.91394-7.652,5.2035-12.70349a12.26425,12.26425,0,0,0-2.24109-5.452,15.87151,15.87151,0,0,0,4.25714-6.53466A125.72356,125.72356,0,0,0,164,185.601v11.389c-5.6665,1.08832-10.54167,3.65578-15.8399,9.19263A15.47871,15.47871,0,0,0,147.35754,198.723ZM366.921,228.28168C354.75,243.5,337.53387,254.394,321.61621,264.55078c-2.85272,1.82031-5.647,3.60474-8.34833,5.37207.07709-.07153.15137-.14075.2287-.2124,12.61328-11.69287,28.23877-26.17627,36.53125-51.811l24.78955-9.91845a21.22067,21.22067,0,0,0,3.34973-1.71118A60.43934,60.43934,0,0,1,366.921,228.28168ZM364.83289,58.05573,375.64844,52.648C392.23,65.05371,395.30469,86.4375,395.87207,93.5918l-12.03155,6.0158A142.24838,142.24838,0,0,0,364.83289,58.05573Zm-6.161,5.163C371.62842,82.65332,380,108.08154,380,128v40.50922a20.94307,20.94307,0,0,0-27.79932,1.63287L350.34326,172H339.8584c-1.67627-23.80078-18.12549-48-43.8584-48-25.79639,0-52-25.59961-52-44a4,4,0,0,0-8,0c0,9.10156-9.36768,20.15576-25.05811,29.56982C196.55713,118.20117,179.2998,124,168,124a4.0002,4.0002,0,0,0-4,4v12.08185a84.70636,84.70636,0,0,0-17.95844,2.13891A83.37255,83.37255,0,0,1,140,112c0-17.79688,8.63086-38.90234,23.08789-56.457C177.29053,38.29639,194.08008,28,208,28c28.74707,0,36.144,13.26855,36.42236,13.78906a4.00006,4.00006,0,0,0,7.15528,0C258.47217,28,281.61719,28,304,28,331.14014,28,349.90283,50.06592,358.67188,63.21875ZM148,409.92456a67.27334,67.27334,0,0,0-3.53723,7.44116,5.99173,5.99173,0,0,0-1.70984.24512c-14.41357,4.30615-27.314,6.48926-38.34277,6.48926-12.63575,0-22.71436-2.85547-29.95508-8.48487-12.584-9.79345-17.45606-28.35693-14.48194-55.17334,4.48975-40.42675,16.61377-62.708,26.36768-80.6333C93.67041,266.33594,100,254.7002,100,240c0-32.26758.20947-38.55225,6.82861-45.17139,5.84619-5.84619,11.43555-7.22412,27.38233.749,4.43359,2.21679,6.06445,5.7583,6.11181,8.333a5.02635,5.02635,0,0,1-2.51171,4.71241c-3.32276,1.81836-9.15235.34228-15.59229-3.95117a3.9999,3.9999,0,0,0-4.4375,6.65624c10.83173,7.22132,18.17737,6.62092,22.25549,5.05671a3.97911,3.97911,0,0,0,6.79187,2.44378l8-8C161.65674,204,166.39014,204,184,204c2.939,0,5.29053.814,6.7998,2.354a7.22488,7.22488,0,0,1,1.96143,5.11817A8.39,8.39,0,0,1,184,220c-17.87939,0-27.24609,9.08936-35.79492,34.73486-7.957,23.87159-23.43067,85.67578-24.06738,88.2251l-5.25,19.5a3.99988,3.99988,0,1,0,7.7246,2.08008l5.26807-19.56983c.04144-.16577,1.14429-4.57055,2.88971-11.40576C138.96631,340.49243,148,356.71692,148,368ZM142.39209,320c6.5785-25.15294,12.77-48.18164,17.2002-61.47412a99.5107,99.5107,0,0,1,5.77783-14.29053c7.26758,17.18213,20.54443,27.22656,31.603,35.59229C208.77,288.73926,216,294.67432,216,304c0,3.72852-.79688,7.33936-10.42188,10.52832C193.14583,318.5625,170.51562,320.20312,142.39209,320Zm159.02264,4.9281L272,354.34326l-13.17139-13.17187a4.00147,4.00147,0,0,0-5.65722,0L240,354.34326l-29.00964-29.01c8.49987-3.14526,13.76526-7.81494,15.90167-14.16406l26.70807,20.031a4.0005,4.0005,0,0,0,4.7998,0l26.96186-20.22144C287.85217,316.91016,293.62451,321.18726,301.41473,324.9281ZM408,300c-12.89648,0-19.23724-15.42212-19.91614-48.46661,6.9195-1.60889,11.5661-7.51941,13.82093-17.66571C404,224.439,404,212.01514,404,200a4,4,0,0,0-8,0c0,25.76318-.86084,44-12,44-3.49707,0-7.74158-1.39227-10.075-11.79034C382.407,221.09729,388,207.98865,388,192V128a102.06755,102.06755,0,0,0-2.2381-20.41254c.00885-.00433.01831-.00543.02716-.00982l16-8A4.00013,4.00013,0,0,0,404,96c0-1.394-.293-34.33594-25.78125-51.32812a3.99924,3.99924,0,0,0-4.00781-.24952l-14.13959,7.06983A101.3963,101.3963,0,0,0,347.583,38.04846C356.10632,33.78259,370.2041,28,384,28c24.11816,0,60,15.979,60,60,0,26.73145,0,60-12,60-8.16943,0-11.99023-21.48242-12-36.00146a4.00072,4.00072,0,0,0-4-3.99805h-.00146A3.99977,3.99977,0,0,0,412,112c0,4.17108.48389,38.356,16,43.37964V240C428,269.0293,426.45459,300,408,300Z"/></g></svg>
