<?xml version="1.0" encoding="iso-8859-1"?>
<!-- Generator: Adobe Illustrator 19.0.0, SVG Export Plug-In . SVG Version: 6.00 Build 0)  -->
<svg version="1.1" id="Capa_1" xmlns="http://www.w3.org/2000/svg" xmlns:xlink="http://www.w3.org/1999/xlink" x="0px" y="0px"
	 viewBox="0 0 512 512" style="enable-background:new 0 0 512 512;" xml:space="preserve">
<path style="fill:#015E82;" d="M256.004,90C256,90,196,395.809,196,395.809h222.349c0.552-0.815,1.117-1.621,1.657-2.444
	C440.235,362.526,452,325.637,452,286C452,177.752,364.252,90,256.004,90z"/>
<path style="fill:#007CAA;" d="M60,286c0,40.593,12.341,78.304,33.475,109.585c0.054,0.079,0.111,0.156,0.164,0.236L256,395.585V90
	C147.754,90.002,60,177.754,60,286z"/>
<path style="fill:#AAE8FD;" d="M360.546,339.267L226,337.725L256,482c67.552,0,127.107-34.188,162.349-86.191L360.546,339.267z"/>
<path style="fill:#D1DEE4;" d="M151.455,339.266l-57.816,56.555C128.883,447.823,188.45,481.999,256,482V337.725L151.455,339.266z"
	/>
<polygon style="fill:#EFF6F9;" points="309.087,388.002 360.546,339.267 256,237.002 226,337.725 256,337.725 "/>
<polygon style="fill:#FFFFFF;" points="256,337.725 256,237.002 151.455,339.266 202.914,388.002 "/>
<rect x="241" y="30" style="fill:#015E82;" width="30" height="30"/>
<g>
	
		<rect x="166.536" y="41.799" transform="matrix(-0.9511 0.309 -0.309 -0.9511 371.7402 54.7278)" style="fill:#007CAA;" width="30.001" height="30.001"/>
	
		<rect x="99.352" y="76.028" transform="matrix(-0.809 0.5878 -0.5878 -0.809 260.3692 97.4544)" style="fill:#007CAA;" width="30" height="30"/>
	
		<rect x="46.025" y="129.34" transform="matrix(-0.5878 0.809 -0.809 -0.5878 213.6664 179.8141)" style="fill:#007CAA;" width="30" height="30"/>
	
		<rect x="11.806" y="196.513" transform="matrix(-0.309 0.9511 -0.9511 -0.309 236.2528 251.373)" style="fill:#007CAA;" width="30.001" height="30.001"/>
	<rect y="271" style="fill:#007CAA;" width="30" height="30"/>
	
		<rect x="11.813" y="345.47" transform="matrix(0.309 0.9511 -0.9511 0.309 361.3601 223.5879)" style="fill:#007CAA;" width="30.001" height="30.001"/>
</g>
<g>
	
		<rect x="470.19" y="345.499" transform="matrix(0.309 -0.9511 0.9511 0.309 -7.5865 710.5573)" style="fill:#015E82;" width="30.001" height="30.001"/>
	<rect x="482" y="271" style="fill:#015E82;" width="30" height="30"/>
	
		<rect x="470.193" y="196.555" transform="matrix(-0.309 -0.9511 0.9511 -0.309 433.9095 738.3755)" style="fill:#015E82;" width="30.001" height="30.001"/>
	
		<rect x="435.987" y="129.352" transform="matrix(-0.5878 -0.809 0.809 -0.5878 599.2972 594.0524)" style="fill:#015E82;" width="30" height="30"/>
	
		<rect x="382.65" y="76.038" transform="matrix(-0.809 -0.5878 0.5878 -0.809 665.8373 398.4274)" style="fill:#015E82;" width="30" height="30"/>
	
		<rect x="315.495" y="41.797" transform="matrix(-0.9511 -0.309 0.309 -0.9511 627.268 212.9359)" style="fill:#015E82;" width="30.001" height="30.001"/>
</g>
<polygon style="fill:#EFF6F9;" points="316,162.002 256,162.002 236,177.002 256,192.002 316,192.002 "/>
<rect x="196" y="162" style="fill:#FFFFFF;" width="60" height="30"/>
<g>
</g>
<g>
</g>
<g>
</g>
<g>
</g>
<g>
</g>
<g>
</g>
<g>
</g>
<g>
</g>
<g>
</g>
<g>
</g>
<g>
</g>
<g>
</g>
<g>
</g>
<g>
</g>
<g>
</g>
</svg>
