<?xml version="1.0" encoding="UTF-8"?>
<svg xmlns="http://www.w3.org/2000/svg" viewBox="0 0 512 512" width="512" height="512"><g id="Fill_out_line" data-name="Fill out line"><path d="M414.74,263.18994c-1.82007,22.52-4.57007,31.14014-15.05,34.08008-11.18994,3.54-37.12988-7.89014-45-9.55-6.56982-1.40991-16.5-5.28-32.17993,2.05-8.18994,4.22-18.13013,7.66992-26.66992,2.78l-79.41016-10.29c-17.28-3.33008-34.82983-2.18994-53.6499,3.51-5.04,1.52-13.22,3.99-21.25,4-9.37012,0-18.55005-3.37012-22.37012-15.52-5.01-15.92993.8501-34.73,7.24-51.02l1.66016-4.23c5.77-14.62012,11.73-29.74,14.65991-45.02a75.81827,75.81827,0,0,0,.98-23.64014c-.17993-1.46-.41992-2.96972-.66992-4.56982-.79-4.95-1.61011-10.06006-.76-15.18018C142.27,117.83008,179.21,80.78,179.21,80.78l212.43018,40.55005L400,136.04c5.5,12.6499,13.5,39.62988,15.75,61.46C418.91992,227.58008,416.43994,246.81006,414.74,263.18994Z" style="fill:#f57a08"/><path d="M336.23535,351.63867c9.41895-12.71875,13.93848-25.87012,12.08887-35.17969-1.12988-5.68457-4.46094-10.12109-10.18457-13.56054C326.65527,296,311.4209,296,299.17969,296h-78.5q-1.47071,0-3.06348-.00781c-9.99023-.03614-23.65625-.085-34.78613,3.03808-12.16406,3.41309-18.62988,9.87012-19.7666,19.73828-1.40625,12.19043,6.57519,24.59864,12.70117,32.87012Z" style="fill:#03999c"/><path d="M189.76122,325.7288c11.26848-4.26778,20.95351-7.23453,27.11866-11.0789C221.37988,311.8501,224,308.58008,224,304c0-32-56-32-56-88V136c0-32,19.71-72,96-72,112,0,88,80,88,112l3.03-3.03a16.97056,16.97056,0,0,1,28.97,12v3.54a16.96876,16.96876,0,0,1-10.66992,15.76l-26.55,10.62012C331.51,265.23,288,271.02,288,304c0,4.58008,2.62012,7.8501,7.12012,10.6499,6.2231,3.8805,16.03256,6.86682,27.43683,11.19959L255.8161,368.33333Z" style="fill:#f5a971"/><path d="M244.39258,256.7334a35.57875,35.57875,0,0,1-18.236-4.98391,7.96345,7.96345,0,0,1-1.44193-12.46406h0a8.08113,8.08113,0,0,1,9.7722-1.20519,20.22753,20.22753,0,0,0,13.4907,2.35776,24.07292,24.07292,0,0,0,13.51208-7.23412,8.01916,8.01916,0,0,1,9.4534-1.73236h0a7.98264,7.98264,0,0,1,2.37267,12.514,39.99821,39.99821,0,0,1-22.77566,12.246A38.39944,38.39944,0,0,1,244.39258,256.7334Z" style="fill:#ea5003"/><path d="M416,496H96c0-126.48,55.54-155.75,93.45-170.1499,2.42993-.92017,4.79-1.79,7.05-2.61011,2.95-1.07007,5.75-2.08008,8.3501-3.06006a70.72482,70.72482,0,0,0,12.02978-5.53,63.99237,63.99237,0,0,0,78.24024,0,70.72482,70.72482,0,0,0,12.02978,5.53c2.6001.98,5.40015,1.99,8.3501,3.06006,2.26.82007,4.62012,1.68994,7.05,2.61011C360.46,340.25,416,369.52,416,496Z" style="fill:#f0cd81"/><path d="M211.76,496H96c0-126.48,55.54-155.75,93.45-170.1499C187.89014,384.65991,195.37012,441.76,211.76,496Z" style="fill:#03999c"/><path d="M416,496H300.24c16.38989-54.24,23.86987-111.34009,22.31006-170.1499C360.46,340.25,416,369.52,416,496Z" style="fill:#03999c"/><path d="M158.16992,395.7A457.60379,457.60379,0,0,1,135.72,342.35986q15.16517-5.11487,30.33008-10.21972A436.24092,436.24092,0,0,0,186.7,381.15991Q172.43494,388.43506,158.16992,395.7Z" style="fill:#082f40"/><path d="M315.08522,144.7389s15.24811,17.92777,11.8867,45.03943C322.66667,224.33333,288,237.66667,284.79664,270.25c-.38,10.70833,4.67211,18.5,11.03875,22.303,8.53961,4.8845,18.48547,1.43737,26.67107-2.78738,15.681-7.32812,25.61854-3.45312,32.18386-2.04738,7.87218,1.65676,33.80968,13.09426,44.9962,9.54784,10.48015-2.93275,13.23015-11.55775,15.05405-34.08042,1.69693-16.37316,4.1761-35.60233,1.01146-65.6859C413.5,175.66667,405.5,148.6875,400,136.03906L338.75,106.25Z" style="fill:#f57a08"/><path d="M307.1499,320.17993a75.91163,75.91163,0,0,1-102.2998,0,70.72482,70.72482,0,0,0,12.02978-5.53,63.99237,63.99237,0,0,0,78.24024,0A70.72482,70.72482,0,0,0,307.1499,320.17993Z" style="fill:#f3b73f"/><path d="M400,136.04c-11.08008,3.46-17.47.96-27.43994-2.01a66.87355,66.87355,0,0,0-30.91992-.04C336.03,135.30005,331.2,137.66992,326.52,139.97a91.81345,91.81345,0,0,1-9.36011,4.17017c-6.18994,2.23-14.6499.81982-22.11987-.42017-1.54-.26-3.04-.51-4.48-.72-18-2.6499-35.66016-7.66992-53.66992-13.02-3.76026-1.12012-7.62012-2.32007-11.36011-3.49-13.8-4.29-28.06006-8.73-42.55-10.66992a81.04163,81.04163,0,0,0-25.58008.75c-.55981.10986-1.10986.24-1.62988.37988l4.27-21.09985C166.12012,72.04,180.15991,41.28,212.53,29.98c19.63989-6.8501,42.12988-6.29,57.32983-5.27,20.23023,1.3501,38.74024,4.93018,55.01026,10.6499,22.34985,7.8501,39.84985,19.06006,52,33.31006C391.87012,86.25,399.87012,109.55005,400,136.04Z" style="fill:#03999c"/><polygon points="200 72 216 56 248 64 232 80 200 72" style="fill:#0c6c71"/><path d="M314.72,144.81006c-5.86011,1.21-13.1499-.01-19.67993-1.09009-1.54-.26-3.04-.51-4.48-.72-18-2.6499-35.66016-7.66992-53.66992-13.02-3.76026-1.12012-7.62012-2.32007-11.36011-3.49-13.8-4.29-28.06006-8.73-42.55-10.66992a81.04163,81.04163,0,0,0-25.58008.75C146.47,118.76,143.14014,125.3999,142.27,130.58984a26.355,26.355,0,0,0-.3501,4.04L137.45,135.78c-7.36987,1.84009-14.51-3.11011-18.02-8.48-1.68994-2.59009-5.09985-9.31006-.21-15.63013,3.74-4.83008,15.92993-15.98,47.96-15.16992,13.54.33984,27.16016,3.79,42.84009,10.83008,7.24,3.25976,14.52,6.96,21.56006,10.5498C238.66992,121.49,246,125.23,253.47,128.6001,273.73,138.25,305.15991,146.3999,314.72,144.81006Z" style="fill:#0c6c71"/><path d="M236,220h4a4,4,0,0,0,0-8h-4a8,8,0,0,1,0-16h4a4,4,0,0,0,0-8h-4a16,16,0,0,0,0,32Z"/><path d="M272.73145,227.89355a11.94474,11.94474,0,0,0-14.166,2.58106,20.0609,20.0609,0,0,1-11.22852,6.01465,16.08559,16.08559,0,0,1-10.85937-1.87891,12.12834,12.12834,0,0,0-14.59082,1.84668,12.00248,12.00248,0,0,0-3.43945,10.06445,11.69771,11.69771,0,0,0,5.6748,8.67188,39.35708,39.35708,0,0,0,20.27051,5.54,42.63684,42.63684,0,0,0,6.78808-.55371,43.8464,43.8464,0,0,0,25.07325-13.48047,11.76949,11.76949,0,0,0,2.9414-10.18848A11.95486,11.95486,0,0,0,272.73145,227.89355Zm-2.3545,13.37793a35.80911,35.80911,0,0,1-20.47656,11.01172,31.9267,31.9267,0,0,1-21.71-3.97851,3.71957,3.71957,0,0,1-1.80664-2.78907,4.05964,4.05964,0,0,1,1.15918-3.40234,3.92835,3.92835,0,0,1,2.7959-1.15234,4.32531,4.32531,0,0,1,2.15722.58886,24.22419,24.22419,0,0,0,16.12207,2.83594,28.21038,28.21038,0,0,0,15.7959-8.45215,4.01426,4.01426,0,0,1,6.91211,2.01465A3.83933,3.83933,0,0,1,270.377,241.27148Z"/><path d="M215.03955,159.68018,196.668,153.563a7.99946,7.99946,0,0,0-8.18872,1.93774l-5.66406,5.6731A4,4,0,0,0,185.646,168h28.04492a4.26919,4.26919,0,0,0,1.34863-8.31982Z"/><path d="M266.30908,168H294.354a4,4,0,0,0,2.83081-6.82617l-5.66406-5.6731A7.99946,7.99946,0,0,0,283.332,153.563l-18.37158,6.11719A4.26919,4.26919,0,0,0,266.30908,168Z"/><path d="M200,176a7.99941,7.99941,0,0,0-7.59473,5.49658c-.56982-.17529-1.12793-.3623-1.65771-.57739a8.6497,8.6497,0,0,1-3.238-2.126A4.0052,4.0052,0,0,1,186.58325,176l.00025-.02222-.00025-.02221a2.58335,2.58335,0,1,0-5.1665.04443,8.8878,8.8878,0,0,0,.69433,3.36523,8.171,8.171,0,0,0,2.022,2.82178,11.82521,11.82521,0,0,0,5.39575,2.64868,19.49262,19.49262,0,0,0,2.58105.4314A7.99592,7.99592,0,1,0,200,176Z"/><path d="M288,184a7.998,7.998,0,0,0-15.59473-2.50342c-.56982-.17529-1.12793-.3623-1.65771-.57739a8.6497,8.6497,0,0,1-3.238-2.126A4.0052,4.0052,0,0,1,266.58325,176l.00025-.02222-.00025-.02221a2.58335,2.58335,0,1,0-5.1665.04443,8.8878,8.8878,0,0,0,.69433,3.36523,8.171,8.171,0,0,0,2.022,2.82178,11.82521,11.82521,0,0,0,5.39575,2.64868,19.49262,19.49262,0,0,0,2.58105.4314A7.99521,7.99521,0,0,0,288,184Z"/><path d="M199.03027,75.88086l32,8a4.00025,4.00025,0,0,0,3.79785-1.05274l16-16a4.00019,4.00019,0,0,0-1.85839-6.709l-32-8a3.997,3.997,0,0,0-3.79785,1.05274l-16,16a4.00019,4.00019,0,0,0,1.85839,6.709Zm18.19629-15.45117,22.94922,5.7373-9.40234,9.40332L207.82422,69.833Z"/><path d="M348,496h8c0-9.64746,4.29492-14.60742,9.7334-20.88672C372.4209,467.3916,380,458.63965,380,440c0-25.35254-11.43066-36.9209-24.666-50.31641l-.48828-.49414a3.99965,3.99965,0,1,0-5.6914,5.6211l.48925.49609C362.62207,408.44238,372,417.93359,372,440c0,15.65723-5.98145,22.56445-12.31348,29.876C353.94043,476.51074,348,483.37012,348,496Z"/><path d="M407.9873,134.56348c-.42089-27.8291-9.06542-52.38965-25.03125-71.08594-13.08105-15.3418-31.73242-27.34277-55.43554-35.668-16.95215-5.96-36.17383-9.69043-57.13281-11.08594-15.915-1.05761-39.49805-1.61328-60.4834,5.71094C177.8584,33.6084,162.36035,61.68555,154.90137,84.79c-15.42578,1.12988-34.38282,5.60547-45.17676,19.53808-6.56543,8.4834-6.69531,19.79981-.33594,29.53614,4.3877,6.71094,12.498,13.01465,21.97754,14.126.78223,5.916,1.46973,12.05957.48242,18.96387-1.78027,12.64942-7.94726,29.46778-15.79687,50.06543-6.3711,16.07422-12.53614,34.97656-9.96973,53.25391C109.16016,293.665,126.5459,302,141.79,302c11.39746-.146,21.77246-4.146,27.45312-5.65918-7.36132,4.57422-11.874,10.81445-13.41894,18.5625a31.51977,31.51977,0,0,0-.47266,8.18164l-29.20605,9.83789a6.00134,6.00134,0,0,0-3.752,7.65723l1.98829,5.71875c1.17968,3.39648,2.43457,6.86523,3.74414,10.35058C100.66667,388.16667,88,434.11621,88,496h12c0-58.92578,11.77539-101.4834,36.00586-130.1123l.00586-.0066c4.21045,10.44312,8.82471,20.76831,13.78247,30.89283C140.20312,407.06934,132,418.6189,132,440c0,18.63965,7.5791,27.3916,14.2666,35.11328C151.7041,481.39258,156,486.35254,156,496h8c0-12.62988-5.94043-19.48926-11.68652-26.124C145.98145,462.56445,140,455.65723,140,440c0-17.37427,5.78467-26.8147,13.85449-35.81616a3.97424,3.97424,0,0,0,4.34863.47925l14.4358-7.35791q9.10143,17.42431,19.69213,33.9956A525.376,525.376,0,0,0,207.32031,496h8.34009q-7.19934-23.64771-12.1228-48a442.46394,442.46394,0,0,0,39.13428,48h11.03857a434.58376,434.58376,0,0,1-53.74658-67.58691q-3.4336-21.08386-5.17969-42.60181a3.98656,3.98656,0,0,0,.83887-4.658l-1.3938-2.81616q-1.652-24.55518-1.10767-49.58765c2.11841-.78857,4.19849-1.5498,6.2085-2.27783.144-.05225.28589-.10376.42969-.15576a83.77511,83.77511,0,0,0,112.48144-.00073c.14331.052,4.33643,1.5791,6.3584,2.32983,1.27368,57.85522-6.28784,114.00635-22.53687,167.355h8.36011c17.60108-58.76978,24.84912-120.84155,21.54785-184.79785a4.00043,4.00043,0,1,0-7.99023.41211c.145,2.80737.26172,5.60937.36548,8.40918C300.25,313.435,292,310.1709,292,304a30.8731,30.8731,0,0,1,.2644-4c19.4856-.16667,33.28638,0,43.81763,6.33008,4.76856,2.8623,7.41406,6.3291,8.32422,10.90527,1.60254,8.11035-2.75781,20.38086-11.38086,32.02442a4.00046,4.00046,0,0,0,6.42969,4.76171,82.18531,82.18531,0,0,0,7.58911-12.322A110.916,110.916,0,0,1,376,365.89551C400.22461,394.5166,412,437.07422,412,496h12c0-61.88379-12.70508-106.97754-38.83984-137.85645a122.16935,122.16935,0,0,0-30.17969-25.71,38.09092,38.09092,0,0,0,1.19336-17.53613c-1.57813-7.9209-6.26172-14.26465-13.91113-18.84961a44.2695,44.2695,0,0,0-4.9004-2.53906c9.60645-.75879,19.50879,2.7373,28.27051,5.83594,9.36426,3.26757,19.04785,6.6455,28.22657,6.6455a27.3907,27.3907,0,0,0,12.39453-2.69921c5.81152-2.91895,10.082-8.23926,12.35351-15.38965,2.92871-8.55078,5.76758-37.02637,6.18164-47.72852A245.70828,245.70828,0,0,0,407.9873,134.56348ZM213.85742,33.76465c18.91406-6.60156,40.86426-6.05274,55.73438-5.06836,19.87207,1.32422,38.02246,4.835,53.95019,10.43457,21.67774,7.61426,38.59571,18.4248,50.28613,32.13574,13.60157,15.92871,21.187,36.85352,22.07374,60.69605-4.41285-.34693-8.38575-1.61744-12.814-3.03882-8.55957-2.7461-19.21191-6.15918-37.07031-3.80371-11.4668,1.59668-19.17383,5.51269-24.80078,8.37207-3.87256,1.96826-6.93824,3.52075-9.55762,3.56567C277.91675,132.6665,259.5,123.25,230.74316,108.49219c-16.999-8.64258-40.01337-20.01514-64.42065-20.01514C177.71167,53.09619,198.31372,39.18433,213.85742,33.76465Zm72.98047,255.86426A36.68819,36.68819,0,0,0,284,304a14.1639,14.1639,0,0,0,4.4397,10.48389,60.05134,60.05134,0,0,1-64.87964.00024A14.16462,14.16462,0,0,0,228,304c0-15.7666-11.55469-24.501-23.78711-33.748C189.11328,258.83789,172,245.90137,172,216V136a68.11886,68.11886,0,0,1,3.14722-20.812c15.54028.49951,35.87817,6.84619,55.12719,12.67236,25.63282,7.75757,54.61963,16.5127,79.92627,17.15845,9.50025,10.9397,14.18042,25.93506,13.17237,42.38843-.95508,14.52343-7.6875,24.41406-22.82227,43.5205-8.16016,10.30274-16.59863,20.957-18.95019,33.4668C279.59546,275.0542,282.24341,283.689,286.83789,289.62891ZM119.42969,127.30176c-3.5791-5.48535-3.65723-11.18164-.21387-15.62988,4.65234-6.00879,17.06445-15.96583,47.97168-15.17579,23.39551.55371,44.64583,10.83724,74.41455,26.42212C206.125,111.75,155.375,95,137.7168,120.27246c-3.06055,5.21192-3.78321,10.51245-3.58863,15.88086C127.99512,136.0918,122.40381,131.86011,119.42969,127.30176Zm43.05469,158.52636c-5.62989,1.68458-10.94727,3.2754-16.57032,3.90918-22.96777,2.958-27.18457-15.35058-27.93652-21.06542-2.18945-15.583,3.14746-31.92188,9.5332-48.02637,9.78028-25.20508,15.24414-42.75,16.24414-52.1543,1.26953-8.97363.23242-16.67676-.68261-23.47559-1.09864-8.167-1.96778-14.624,1.44335-20.52539,2.24146-3.5,7.95557-8.60229,22.30469-9.34277A76.74481,76.74481,0,0,0,164,136v80c0,33.88281,19.66667,49.5,40.45752,64.5127C185.864,278.83838,173.54785,282.51782,162.48438,285.82812Zm10.16308,93.64795a3.99768,3.99768,0,0,0-5.42651-1.853l-.00171.001a4.00167,4.00167,0,0,0-1.80127,5.27857c1.165,2.44067,2.364,4.8645,3.57275,7.2832l-10.8208,5.51538v-.001a459.71586,459.71586,0,0,1-22.45019-53.3418l.001.001,11.41162-3.84522q5.27088,15.0564,11.60279,29.69775a3.99674,3.99674,0,0,0,7.3247-3.20068q-6.19445-14.31006-11.34448-29.05225l11.33447-3.81933v.001A437.78566,437.78566,0,0,0,186.355,380.44824c.02.28565.03857.57154.05908.85694l-10.29541,5.24755C174.94458,384.20239,173.7793,381.84741,172.64746,379.47607Zm7.11792,14.19654,7.33228-3.73731q.9309,10.634,2.27563,21.168Q184.37159,402.501,179.76538,393.67261Zm16.83814-74.72241c-1.06006.384-2.13916.77612-3.22925,1.17407.10449-2.83325.22217-5.669.36889-8.51a4.00043,4.00043,0,0,0-7.99023-.41211Q184.506,335.3567,185.27,359.12866c-4.262-9.75171-8.16992-19.66382-11.67139-29.63843L172.29,325.7627a3.98759,3.98759,0,0,0-4.87305-2.50684,20.56024,20.56024,0,0,1,.17676-6.0127c.915-4.58593,3.56055-8.05664,8.32422-10.91894C186.45312,300,200.5,299.79167,219.61719,300A21.01337,21.01337,0,0,1,220,304C220,310.1709,211.5459,313.53516,196.60352,318.9502Zm98.821.45849a81.23306,81.23306,0,0,0,8.25879,3.71192,75.79162,75.79162,0,0,1-95.36646.00048,81.27486,81.27486,0,0,0,8.25831-3.71215,68.01756,68.01756,0,0,0,78.84936-.00025Zm117.39185-80.03857c-.66626,9.58253-2.74414,36.50879-5.57618,44.68652-1.36523,4.34961-3.42382,7.03027-6.37109,8.51074a15.39851,15.39851,0,0,1-7.00976,1.42285c-7.14551,0-15.85254-3.03808-24.249-5.96679-9.35254-3.3086-19.97265-7.0586-31.64746-6.57813l-.00073.00073c-7.41236.31519-13.66846,3.00806-19.18775,5.384-7.00488,3.01562-12.542,5.39648-18.96777,3.09082-6.66992-2.66406-12.74023-11.31055-10.34473-24.04785,1.98731-10.56934,9.80274-20.43653,17.36036-29.97852,14.45605-18.249,23.374-30.3291,24.53418-47.97949,1.03466-16.87329-3.29151-32.4646-12.24146-44.57373,1.8562-.76221,3.73242-1.7041,5.72583-2.71729,5.40918-2.748,12.13965-6.168,22.25195-7.57617,16.04981-2.11914,24.94825.7334,33.55078,3.49414,5.34058,1.71338,10.4419,3.34253,16.58545,3.501C409.5791,171.70776,415.00781,207.30857,412.81641,239.37012Z"/></g></svg>
