<?xml version="1.0" encoding="UTF-8"?>
<svg xmlns="http://www.w3.org/2000/svg" viewBox="0 0 512 512" width="512" height="512"><g id="Fill_out_line" data-name="Fill out line"><path d="M220,312a28.00531,28.00531,0,0,1-25.58529-16.60813,23.9998,23.9998,0,0,1-35.10876,1.85031A20.00225,20.00225,0,1,1,140,272a20,20,0,0,1-20-20c0-11.04569,4-20,16-28s-8-16.00012-8-32,16-16,16-32-16-24-16-40c0-12,4.62775-24.05234,17.00275-29.30234A20.22165,20.22165,0,0,1,144,84a20,20,0,0,1,20-20c11.04569,0,20,0,20-16,0-15.08681,14.22584-23.061,29.2635-17.21516Q219.23941,24.00025,232,24c16,0,12.55331,16,32,16s24-16,40-16,20.5,7.16667,24,16l1.17381,3.51779C343.81548,41.09933,354.09009,44.18018,360,56l1.669,3.72346C378.73856,61.261,382.24627,83.50746,376,96c-8,16-8,24,8,32s16,32,8,40c-16,16,0,32,8,40,21.68008,21.68008,10.72044,36.83074-3.39532,45.45455a28.00135,28.00135,0,0,1-32.67943,45.47438c-7.21177-5.0653-25.22038-9.24739-37.25858,1.07107-10.22263,8.76225-29.60794,11.83731-38.0076-2.77153Z" style="fill:#03999c"/><path d="M416,496H96c0-30.26-7.15-67.66,12.36-98.69995l-10.47-4.49C136.72,332.21,207.03,327.86,221.39,310.68994A10.17321,10.17321,0,0,0,224,304c0-32-56-32-56-88,0-80-16-152,96-152s88,80,88,112l3.03-3.03a16.97,16.97,0,0,1,28.97,12v3.54a16.96872,16.96872,0,0,1-10.67,15.76l-26.55,10.62C331.51,265.23,288,271.02,288,304a13.52909,13.52909,0,0,0,1.9,7.05C302.57,332.59,375.95,329.74,415.22,392.33l-11.58,4.97009C423.15,428.34,416,465.74,416,496Z" style="fill:#f5a971"/><path d="M244.39258,256.7334a35.57875,35.57875,0,0,1-18.236-4.98391,7.96345,7.96345,0,0,1-1.44193-12.46406h0a8.08113,8.08113,0,0,1,9.7722-1.20519,20.22753,20.22753,0,0,0,13.4907,2.35776,24.07292,24.07292,0,0,0,13.51208-7.23412,8.01916,8.01916,0,0,1,9.4534-1.73236h0a7.98264,7.98264,0,0,1,2.37267,12.514,39.99821,39.99821,0,0,1-22.77566,12.246A38.39944,38.39944,0,0,1,244.39258,256.7334Z" style="fill:#e37066"/><path d="M403.64,397.30005,362.14,415.08A57.47364,57.47364,0,0,1,368,440c0,24-16,32-16,56H160c0-24-16-32-16-56a57.47364,57.47364,0,0,1,5.86-24.92l-41.5-17.77991-10.47-4.49C126.55,348.09,172.35,334,200.15,322.79c9.87-3.98,17.48-7.6001,21.24-12.1001L256,328l33.9-16.94995c3.42,5.80994,11.25,9.84,21.64,13.86987,28.13,10.89014,75,21.70008,103.68,67.41Z" style="fill:#f3b73f"/><circle cx="272" cy="384" r="8" style="fill:#f0cd81"/><circle cx="272" cy="464" r="8" style="fill:#f0cd81"/><path d="M352,176l7-30-3.5-84H181.41659L163.5,98l4.5,46c0-8.81132,4.85254-17.62266,11.88518-23.76169C182.99741,125.41278,187.56236,128,192,128c5.95309,0,16.79114,0,25.1481-10.6562A17.03687,17.03687,0,0,0,226,128c16,8,32-8,32-24,0,16,6,24,22,24s16.33333-19.66667,28.66667-19.33333,13,14.66666,9,19.33333S312,144,320,152s8,8,8,24S352,192,352,176Z" style="fill:#03999c"/><path d="M311.54,324.91992C307.56,346.08,278.32,358.88,256,344c-23.06,15.37-53.49,1.21-55.85-21.21,9.87-3.98,17.48-7.6001,21.24-12.1001L256,328l33.9-16.94995C293.32,316.86,301.15,320.89,311.54,324.91992Z" style="fill:#e0802b"/><path d="M200,176a7.99937,7.99937,0,0,0-7.59479,5.49658c-.56982-.17541-1.128-.36255-1.65771-.57751a8.64539,8.64539,0,0,1-3.23786-2.12586A4.0034,4.0034,0,0,1,186.58331,176l.00013-.02234-.00019-.022A2.58338,2.58338,0,1,0,181.41669,176a8.8895,8.8895,0,0,0,.69452,3.36536,8.17155,8.17155,0,0,0,2.02179,2.82177,11.82462,11.82462,0,0,0,5.39593,2.64844,19.434,19.434,0,0,0,2.58087.43128A7.99593,7.99593,0,1,0,200,176Z"/><path d="M288,184a7.998,7.998,0,0,0-15.59479-2.50342c-.56982-.17541-1.128-.36255-1.65771-.57751a8.64539,8.64539,0,0,1-3.23786-2.12586A4.0034,4.0034,0,0,1,266.58337,176l.00007-.02234-.00019-.022A2.58338,2.58338,0,1,0,261.41669,176a8.8895,8.8895,0,0,0,.69452,3.36536,8.17155,8.17155,0,0,0,2.02179,2.82177,11.82462,11.82462,0,0,0,5.39593,2.64844,19.434,19.434,0,0,0,2.58087.43128A7.99522,7.99522,0,0,0,288,184Z"/><path d="M236,220h4a4,4,0,0,0,0-8h-4a8,8,0,0,1,0-16h4a4,4,0,0,0,0-8h-4a16,16,0,0,0,0,32Z"/><path d="M272.73193,227.894a11.94461,11.94461,0,0,0-14.1665,2.58106,20.058,20.058,0,0,1-11.228,6.01465,16.10261,16.10261,0,0,1-10.85986-1.87891,12.12288,12.12288,0,0,0-14.59082,1.84619,12.00187,12.00187,0,0,0-3.43994,10.063,11.69842,11.69842,0,0,0,5.67578,8.67383,39.34972,39.34972,0,0,0,20.27,5.53955,42.52115,42.52115,0,0,0,6.78808-.55371,43.84553,43.84553,0,0,0,25.07422-13.481,11.77084,11.77084,0,0,0,2.94043-10.18994A11.95133,11.95133,0,0,0,272.73193,227.894ZM270.377,241.272A35.8108,35.8108,0,0,1,249.8999,252.2832a34.53881,34.53881,0,0,1-5.50732.4502,31.45309,31.45309,0,0,1-16.20215-4.42822,3.72263,3.72263,0,0,1-1.80713-2.79,4.05436,4.05436,0,0,1,1.16016-3.40088,3.92447,3.92447,0,0,1,2.79541-1.15283,4.33675,4.33675,0,0,1,2.15722.58789,24.22982,24.22982,0,0,0,16.12256,2.83691,28.21327,28.21327,0,0,0,15.7959-8.45312,4.01419,4.01419,0,0,1,6.91113,2.01464A3.83663,3.83663,0,0,1,270.377,241.272Z"/><path d="M215.03967,159.68018l-18.3717-6.11731a8.00011,8.00011,0,0,0-8.18878,1.93786l-5.66394,5.6731A4,4,0,0,0,185.64594,168h28.045a4.26924,4.26924,0,0,0,1.34875-8.31982Z"/><path d="M266.30908,168h28.045a4,4,0,0,0,2.83069-6.82617l-5.66394-5.6731a8.00011,8.00011,0,0,0-8.18878-1.93786l-18.3717,6.11731A4.26924,4.26924,0,0,0,266.30908,168Z"/><path d="M272,396a12,12,0,1,0-12-12A12.01375,12.01375,0,0,0,272,396Zm0-16a4,4,0,1,1-4,4A4.00458,4.00458,0,0,1,272,380Z"/><path d="M272,476a12,12,0,1,0-12-12A12.01375,12.01375,0,0,0,272,476Zm0-16a4,4,0,1,1-4,4A4.00458,4.00458,0,0,1,272,460Z"/><path d="M413.09424,397.59912l5.28711-2.26367a6,6,0,0,0,2.67578-8.77588C392.33333,343.5,356,332.33333,309.09521,315.28809a39.81914,39.81914,0,0,0,22.78077-9.21338c8.95654-7.68067,23.26806-3.5376,27.45752-.59326a35.99648,35.99648,0,0,0,49.44726-51.09473c6.53418-5.85693,10.396-12.66358,11.26709-19.95752,1.24951-10.49805-3.59473-21.29248-14.43457-32.12158-3.5332-3.54248-8.873-8.89551-11.25976-14.46436-2.291-5.33594-1.30323-9.581,3.29492-14.186,6.08545-6.07276,8.86621-17.10889,7.084-28.11914-1.83691-11.31055-7.93066-20.08057-17.15918-24.69483-7.22607-3.61279-8.44922-6.01611-8.74023-7.50928-.63672-3.26416,1.97558-9.06787,4.3247-13.76318,5.188-10.38867,4.9292-24.59473-.62744-34.543a24.95531,24.95531,0,0,0-15.27246-12.38818c-6.59114-12.973-17.33886-18.67481-32.728-17.7749C330.13184,24.80566,322.937,16,304,16c-10.18506,0-17.04443,4.93848-22.58447,8.92676C276.16406,28.72217,271.62891,32,264,32c-6.606,0-8.46191-2.09277-11.82568-5.88525C248.39941,21.84619,243.22852,16,232,16c-8.46729,0-15.40723,1.95166-20.68848,5.80859-8.69384-2.08789-17.2832-.73632-23.98632,3.85743C180.022,30.65576,176,38.5874,176,48c0,2.75586-.30273,6.21191-1.74365,7.02588C172.53223,56,168.3877,56,164,56c-15.43945,0-29.33333,13.5-27.917,30.45459C125.80469,93.32812,120,105.30615,120,120c0,10.41553,4.958,17.853,9.34766,24.438C133.06445,150.01318,136,154.417,136,160c0,4.49121-1.73047,6.415-5.64746,10.34229C125.9834,174.7002,120,180.66943,120,192c0,9.71436,5.09521,16.81445,8.81445,21.99707.75879,1.05762,1.77881,2.48,2.43653,3.55859C118.11865,226.41016,112,237.36377,112,252a28.06968,28.06968,0,0,0,8.42725,20,27.99564,27.99564,0,1,0,41.87744,36.93994,32.114,32.114,0,0,0,30.29736-1.57275,35.84284,35.84284,0,0,0,7.64551,6.74511C161.5,328.5,119.0376,345.77148,91.96338,386.94385a6.00013,6.00013,0,0,0,2.65088,8.812l4.30078,1.8418c-14.00977,25.625-12.69238,54.04-11.51856,79.32617l.02247.49023C87.71777,483.94629,88,490.11621,88,496h12c0-6.1582-.28857-12.46143-.59375-19.13428l-.02246-.49414c-1.16986-25.20532-2.483-53.73315,12.7149-77.47217l34.06342,14.59864A61.43587,61.43587,0,0,0,140,440c0,12.94434,4.28174,21.50732,8.42236,29.78906C152.31934,477.58252,156,484.94434,156,496h8c0-12.94434-4.28174-21.50732-8.42236-29.78906C151.68066,458.41748,148,451.05566,148,440c0-21.9165,14.625-36.96533,14.8335-37.17627a4.00027,4.00027,0,0,0-5.66211-5.65234,57.07937,57.07937,0,0,0-7.12714,9.28637l-43.9295-18.8269-.00049-.0044C130.99512,354.00146,165,340.5,197.16571,328.28223c2.64648,9.3894,9.72156,17.45153,19.71368,22.14355a42.20647,42.20647,0,0,0,17.96729,4.04151A41.75411,41.75411,0,0,0,252,350.74756V496h8V350.75049a42.08016,42.08016,0,0,0,33.57373.36377c10.00342-4.2107,17.44513-11.84009,20.65863-20.91333,33.26764,11.6324,68.101,23.29907,92.6842,56.98779l-44.96093,19.2688a57.08312,57.08312,0,0,0-7.127-9.28613,4.00026,4.00026,0,0,0-5.65722,5.65722C349.31982,402.97656,364,417.91211,364,440c0,11.05566-3.68066,18.41748-7.57764,26.21094C352.28174,474.49268,348,483.05566,348,496h8c0-11.05566,3.68066-18.41748,7.57764-26.21094C367.71826,461.50732,372,452.94434,372,440a61.43475,61.43475,0,0,0-6.16223-26.50208L399.90906,398.896c15.19031,23.74,13.87707,52.269,12.70715,77.48l-.02246.48974C412.28857,483.53857,412,489.8418,412,496h12c0-5.88379.28223-12.05371.58105-18.58594l.02247-.48584C425.77734,451.63867,427.09521,423.22363,413.09424,397.59912ZM255.99951,323.52783l-28.95025-14.471A13.61744,13.61744,0,0,0,228,304c0-15.7666-11.55469-24.501-23.7876-33.74854C189.11328,258.83789,172,245.90137,172,216V144c0-6.04248,2.73535-12.44189,7.46484-17.73438A17.40681,17.40681,0,0,0,192,132c5.2085,0,15.2373.00049,24.01416-7.6543a20.54633,20.54633,0,0,0,8.19678,7.23194,23.00985,23.00985,0,0,0,23.10449-1.16309,30.80255,30.80255,0,0,0,9.88184-10.06543C261.12012,128.16406,268.67676,132,280,132c10.49951,0,15.53174-6.81592,19.5752-12.293,3.36767-4.562,5.42968-7.13086,8.98339-7.042,3.20069.08642,5.31739,1.39209,6.47071,3.9917,1.47656,3.32812.74951,7.39941-.39991,8.74023-5.20312,6.06983-7.21435,19.67481,2.542,29.43164,3.9624,3.96192,5.3667,5.43409,6.03369,7.43653C324,164.64893,324,168.68066,324,176a15.44118,15.44118,0,0,0,5.09277,11.98975A16.34479,16.34479,0,0,0,340,192c7.50146,0,15.09033-4.89258,15.92432-14.26758l1.93359-1.9331A12.9703,12.9703,0,0,1,380,184.9707v3.53955a12.90748,12.90748,0,0,1-8.15381,12.043l-26.55322,10.624a3.99974,3.99974,0,0,0-2.3418,2.55273c-7.498,24.71777-22.05224,38.21-34.89355,50.11377C295.14893,275.81055,284,286.14551,284,304a18.34911,18.34911,0,0,0,.71808,5.16858ZM397.16992,210.83447c8.06592,8.05811,11.7544,15.51953,10.9624,22.17432-.84082,7.04-6.72461,12.40918-11.51269,15.67383a6.00071,6.00071,0,0,0-.626,9.42431A24.00171,24.00171,0,0,1,366.23,295.66113c-7.78857-5.47412-28.15283-10.71142-42.16162,1.30078-5.63623,4.8252-13.9541,7.28565-20.70654,6.124a15.434,15.434,0,0,1-8.9292-4.70313,5.96991,5.96991,0,0,0-1.631-1.22363c2.50177-10.554,10.71723-18.1991,20.695-27.44873,12.61328-11.69287,28.23877-26.17627,36.53125-51.811l24.78955-9.91845a20.886,20.886,0,0,0,11.14789-10.42127C389.37061,203.00659,393.89258,207.54919,397.16992,210.83447ZM199.13281,295.86914a6.00036,6.00036,0,0,0-9.35058-1.37451,19.99948,19.99948,0,0,1-25.90039,1.41455,6.00006,6.00006,0,0,0-9.16407,2.39111,16.004,16.004,0,1,1-21.37158-20.84863,6.00034,6.00034,0,0,0,0-10.90332A16.06632,16.06632,0,0,1,124,252c0-10.65186,4.25146-18.02881,14.21777-24.66748,3.167-2.11084,4.958-4.51367,5.47608-7.35107.84375-4.65284-2.05713-8.69727-5.1294-12.9795C135.4873,202.71387,132,197.85449,132,192c0-6.35156,3.16406-9.50781,6.85156-13.187C143.13965,174.51465,148,169.64258,148,160c0-9.21582-4.40625-15.82568-8.68311-22.24121C135.5542,132.11426,132,126.78271,132,120c0-11.88477,4.71289-20.77246,13.271-25.02734a5.99974,5.99974,0,0,0,3.166-6.76172A18.12,18.12,0,0,1,148,84a16.01833,16.01833,0,0,1,16-16c10.69238,0,24,0,24-20,0-5.40479,2.10742-9.70166,6.102-12.43115,4.41309-3.0249,10.49219-3.54737,16.67627-1.43164a5.99746,5.99746,0,0,0,6.14551-1.396C220.12842,29.59521,225.20068,28,232,28c5.82178,0,7.95557,2.4126,11.19141,6.0708C247.11426,38.49463,251.99707,44,264,44c11.51074,0,18.68213-5.18262,24.45508-9.35449C293.4082,31.07959,297.68555,28,304,28c13.80713,0,17.75,5.625,20.84814,15.188.52686,1.87609,3.65381,4.44873,6.52344,4.04394C344.27832,45.42432,352.75,48.25,357.55664,60.32861a5.99878,5.99878,0,0,0,4.61572,3.48,13.09712,13.09712,0,0,1,9.8794,7.06739c3.61865,6.47851,3.77783,16.50976.37256,23.32959-4.124,8.24218-6.61524,15.04-5.36963,21.42578,1.60351,8.21972,8.93994,12.83886,15.15234,15.94531,5.68555,2.84277,9.47852,8.48438,10.68018,15.88184,1.28027,7.91162-.89991,14.895-3.72315,17.7124a29.79328,29.79328,0,0,0-5.3941,7.22265,20.92733,20.92733,0,0,0-31.56928-2.25146l-3.02929,3.0293A4.00116,4.00116,0,0,0,348,176c0,5.90479-4.30957,8-8,8s-8-2.09521-8-8c0-16.32373,0-17.65674-9.17139-26.82861-6.46826-6.46778-4.84912-15.39063-2.125-18.56836,3.48047-4.06055,4.18457-11.45069,1.63819-17.19043-2.39063-5.38867-7.33545-8.57617-13.56739-8.74463-7.89111-.21582-12.00146,5.36572-15.63476,10.2876C289.55615,119.80859,286.46191,124,280,124c-13.12158,0-18-5.42041-18-20a4,4,0,0,0-8,0,23.82316,23.82316,0,0,1-10.89014,19.60938,15.12455,15.12455,0,0,1-15.32129.813,12.99788,12.99788,0,0,1-6.81836-8.2583,4.00016,4.00016,0,0,0-6.96972-1.28857C206.84473,124,197.55225,124,192,124c-3.29492,0-6.46094-2.12256-8.687-5.82324a3.99937,3.99937,0,0,0-6.05811-.95166C168.95508,124.47021,164,134.47949,164,144v72c0,33.88232,19.62158,48.71533,35.38818,60.6333C210.9043,285.33887,220,292.21436,220,304a6.69808,6.69808,0,0,1-1.98346,4.45837,5.96457,5.96457,0,0,0-2.10394-.81042A23.94438,23.94438,0,0,1,199.13281,295.86914Zm21.147,47.31494c-8.16022-3.83166-13.82447-10.391-15.64032-17.90783,7.05987-2.932,13.31866-5.93445,17.57769-9.69056L252,330.47266v11.306A33.9042,33.9042,0,0,1,220.27979,343.18408Zm70.18994.55713A34.12213,34.12213,0,0,1,260,341.781V330.47217l28.65668-14.32862c4.00451,4.5066,10.36126,7.95264,18.12433,11.16541C304.36389,334.36987,298.4649,340.37549,290.46973,343.74121Z"/></g></svg>
