<?xml version="1.0" encoding="UTF-8"?>
<svg xmlns="http://www.w3.org/2000/svg" viewBox="0 0 512 512" width="512" height="512"><g id="Fill_out_line" data-name="Fill out line"><path d="M440,496H72c0-102.18994,46.89014-137.76,88.58008-156.03C164.37988,326.83008,168,315.41992,168,304c0-48-24-8-24-168,0-40,24-112,104-112s136,24,152,96-40,144-40,184c0,34.8999,23.5498,54.1499,25.75,55.87012.0498.03979.1001.07983.1499.11987a.034.034,0,0,1,.02.01C415.35986,382.8501,440,421.91992,440,496Z" style="fill:#f57a08"/><path d="M345.6499,236.51c-.5498,1.5-1.1001,3.02-1.66992,4.56006-6.31006,17.18994-13.87012,37.78-19.54,80.5L318.48,338,268,296.58008,335.08984,188Z" style="fill:#d13913"/><path d="M224,304c0-32-56-32-56-88V128c0-16.7506,2.40029-31.55271,8.76778-43.72637,11.879-22.71079,151.59508-20.00475,163.0489.79285,6.1248,11.12126,9.21982,23.53749,10.7634,35.45354C352.5498,135.74,352,150.1499,352,160v16c0,.99-.00977,1.97-.02,2.92993,0,.48-.01025.95-.02,1.42017-.24023,13.5498-1.68994,22.87988-5.17969,34.54C331.50977,265.23,288,272,288,304Z" style="fill:#f5a971"/><path d="M319.62988,327.90991c-.16015,1.34009-.31982,2.71021-.48,4.09009-.8501,7.37988-1.6499,15.35986-2.37988,24q-.33033,3.90015-.64014,8-.85473,11.265-1.56006,24c-.13964,2.62012-.27978,5.28-.40966,8q-.56984,11.40015-.99024,24c-.08984,2.62988-.17969,5.29-.25976,8q-.33033,11.48987-.5503,24c-.04,2.62988-.08984,5.3-.11963,8q-.16553,11.56494-.21,24c-.0205,2.64014-.0205,5.3-.0205,8C312,493.33008,312,494.65991,312,496H176c0-1.33008,0-2.66016.01-4,.01-2.66016.04-5.32007.08008-8,.11987-7.93994.35986-15.97.73-24q.17981-4.00488.3999-8c.43994-8.04,1-16.06006,1.68994-24,.22-2.67993.47-5.3501.72-8,.79-8.16016,1.71021-16.17993,2.77-24,.3501-2.68994.73-5.35986,1.12012-8,1.23-8.31006,2.60986-16.34009,4.1499-24,.54-2.72,1.1001-5.37988,1.68994-8,1.93018-8.72,4.08008-16.85986,6.4502-24.25q.94482-2.985,1.95-5.81006c1.73-.6499,3.3999-1.29,5-1.93994C215.6001,318.82007,224,313.3999,224,304h64c0,9.3999,8.39014,14.82007,21.21973,20C312.43018,325.30005,315.91992,326.58008,319.62988,327.90991Z" style="fill:#03999c"/><path d="M352,160v16s-32-24-40-56l33.16992-2.33008,5.41016,2.8501C352.5498,135.74,352,150.1499,352,160Z" style="fill:#795033"/><path d="M351.68994,132.68994c-17.60986-4.8501-60.60986-15.15991-103.3999-13.56006C212.28,120.48,176.42993,133.27,156,135.79c-28,3.58984-25.25-39.53,0-46.33008,15.59009-4.52,52.48-13.19995,91.71973-13.6499,33.0205-.37012,67.71045,5.13989,92.09033,9.26,6.12988,11.11987,9.22021,23.53,10.77,35.45C351.10986,124.65991,351.46,128.74,351.68994,132.68994Z" style="fill:#03999c"/><path d="M232,232h32c16,0,16,24,0,24S232,256,232,232Z" style="fill:#e37066"/><path d="M339.81006,85.07007c-24.37988-4.12012-59.06983-9.63013-92.09033-9.26C220.98,76.12012,195.34009,80.24,176.78,84.28,188.64014,61.56006,214.33008,48,264,48,306.31006,48,328.35986,64.27,339.81006,85.07007Z" style="fill:#0c6c71"/><path d="M264,228H232a3.999,3.999,0,0,0-4,4c0,28,19.96,28,36,28a15.45814,15.45814,0,0,0,11.99023-5.09009A16.34125,16.34125,0,0,0,280,244C280,236.05005,274.5,228,264,228Zm6.00977,21.58984A7.64392,7.64392,0,0,1,264,252c-16.54,0-26.43994-.79-27.83008-16H264c5.91016,0,8,4.31006,8,8A8.49325,8.49325,0,0,1,270.00977,249.58984Z"/><path d="M272,332h8a4,4,0,0,0,0-8h-8a4,4,0,0,0,0,8Z"/><path d="M232,324a4,4,0,0,0,0,8h8a4,4,0,0,0,0-8Z"/><circle cx="280" cy="184" r="8"/><circle cx="200" cy="184" r="8"/><path d="M240,220a4,4,0,0,0,0-8h-4a8,8,0,0,1,0-16h4a4,4,0,0,0,0-8h-4a16,16,0,0,0,0,32Z"/><path d="M344.25293,348.19824c-2.85059-27.082-1.82227-67.50488,19.26172-106.28808,26.13281-48.06934,16.51074-130.4834,8.28027-155.17481a4.00009,4.00009,0,0,0-7.58984,2.5293c7.918,23.75293,17.24707,102.90039-7.71973,148.82519-22.11523,40.68067-23.16992,82.92969-20.16015,111.208,3.25488,30.58692,11.61718,51.34473,11.9707,52.21289a4,4,0,0,0,7.4082-3.01953C355.62109,398.28711,347.36035,377.72168,344.25293,348.19824Z"/><path d="M156,432v64h-8V432a4,4,0,0,1,8,0Z"/><path d="M364,432v64h-8V432a4,4,0,0,1,8,0Z"/><path d="M404.75977,366.10986a134.37115,134.37115,0,0,0-14.30957-12.73C388.1499,351.49,368,334.04,368,304c0-13.43994,7.53027-32.1001,16.25977-53.74,15.19043-37.67017,34.10009-84.54,23.55029-131.99C399.98,83.04,383.18994,57.67993,356.48,40.75,330.2002,24.1001,294.71,16,248,16c-26.12988,0-48.73,7.32007-67.18994,21.75C165.98,49.3501,154.04,65.64014,146.17993,84.93994A35.06676,35.06676,0,0,0,132.72,99.01a37.97474,37.97474,0,0,0-4.09009,24.84985A25.29635,25.29635,0,0,0,136,137.68994c.10986,103.83008,10.41992,124.29,17.96,139.25,3.64014,7.21,6.04,11.97,6.04,27.06006,0,9.21-2.78,18.89014-6.05,30.15991-19.15991,8.75-34.05,18.95-46.71,31.95C78.1499,395.99,64,438.49,64,496H76c0-54.22,13.04-93.99,39.84009-121.51,10.57983-10.88013,22.97-19.65015,38.55981-27.28C150.98,359.98,148,374.40991,148,392a4,4,0,0,0,8,0c0-21.97,4.97-39.05,9.35986-54.12012C168.91992,325.62988,172,315.05005,172,304c0-17.94995-3.23-24.3501-7.32007-32.46C157.72,257.73,148.22,238.87012,148.01,139.51a24.05209,24.05209,0,0,0,4.81006.49A60.608,60.608,0,0,0,164,138.54V216c0,33.87988,19.62012,48.71,35.39014,60.62988C210.8999,285.33984,220,292.21,220,304c0,7.83984-8.66992,12.60986-23.62988,18.2a3.99718,3.99718,0,0,0-2.38013,2.40991C180.42993,362.85986,172,428.54,172,496h8c0-1.33008.01-2.66992.02-4H240a4,4,0,0,0,0-8H180.09009q.1798-12.1051.71-24H240a4,4,0,0,0,0-8H181.2q.66028-12.21021,1.69019-24H240a4,4,0,0,0,0-8H183.62012c.80981-8.24,1.73974-16.26,2.78979-24H240a4,4,0,0,0,0-8H187.55005c1.26-8.3999,2.66992-16.41992,4.21-24H240a4,4,0,0,0,0-8H193.47a261.92115,261.92115,0,0,1,7.45-26.97c12.93994-4.92017,24.37012-10.46,26.66016-21.03H252V496h8V308h24.43018C287,319.73,300.9502,325.42993,315.27,330.58984c-.91016,7.78028-1.75,16.23023-2.52,25.41016H272a4,4,0,0,0,0,8h40.10986q-.85473,11.28-1.5498,24H272a4,4,0,0,0,0,8h38.14014q-.55518,11.40015-.98,24H272a4,4,0,0,0,0,8h36.91016q-.33033,11.48987-.5503,24H272a4,4,0,0,0,0,8h36.24023q-.16553,11.56494-.21,24H272a4,4,0,0,0,0,8h36.00977C308,493.33008,308,494.6499,308,496h8c0-178.71,16.16992-222.76,27.98-254.92993C350.7002,222.78,356,208.32007,356,176c0,0,.02-17.09009.03027-21.32007.21-23.24.54981-62.12988-24.47021-87.36987C316.23,51.83984,293.5,44,264,44c-46.54,0-75.96,12.04-89.87988,36.78C168.01,82.14014,163.04,83.3999,159.53,84.33008,170.53,60.6001,195.25,28,248,28c44.37012,0,77.75,7.49,102.06006,22.89014,23.87012,15.12988,38.93017,38.01977,46.02978,69.98,9.75,43.80981-8.38964,88.77-22.96972,124.91992C363.93994,268.57007,356,288.23,356,304a77.55538,77.55538,0,0,0,26.71,58.54,122.845,122.845,0,0,1,13.4502,11.95C422.96,402.01,436,441.78,436,496h12C448,438.49,433.8501,395.99,404.75977,366.10986ZM316.27,322.41992C299.8501,316.29,292,311.62012,292,304c0-13.79,9.37988-22.57007,21.25977-33.68994A191.90479,191.90479,0,0,0,331.93018,251C326.52,266.85986,320.78027,287.56006,316.27,322.41992ZM342.9502,213.73C335.3999,238.62012,320.73,252.3501,307.79,264.47,296.0498,275.46,285.78027,285.08984,284.21,300H227.73c-1.77-13.3-12.35986-21.31006-23.52-29.75C189.10986,258.83984,172,245.8999,172,216V136.85986c3.95-.87988,8.15991-1.88989,12.62988-2.96972C203.03,129.47,225.92993,123.97,248.43994,123.12988c21.62012-.80981,43.37012,1.49024,61.72022,4.55,9.1997,25.87012,31.58007,45.23,37.83007,50.26C347.87988,192.39014,346.56006,201.6499,342.9502,213.73ZM348,167.37012c-7.93018-7.22022-21.27-21.06006-28.58984-38.04,11.7998,2.25,21.66992,4.66992,28.42968,6.47C348.21973,142.78,348.02,156.33008,348,167.37012Zm-.7002-39.98c-19.73-5.11011-59.60986-13.73023-99.15966-12.26026-23.3.88013-46.63013,6.48-65.38013,10.99024-10.75,2.57983-20.04,4.80981-27.27,5.69995a15.09808,15.09808,0,0,1-8.52-1.01C182.04,115.92993,219.3999,107.12988,248,107.12988c41.24023,0,72.5,3.14014,98.03027,9.88013C346.58984,120.5,347,123.98,347.2998,127.39014Zm-2.98974-19.07007c-25.5-6.26-56.34033-9.19019-96.31006-9.19019-30.32007,0-69.94995,9.47022-106.69995,25.41016a18.71033,18.71033,0,0,1-1.28-6.55C171.83008,104.39014,213.89014,95.66992,248,95.66992c41.12012,0,72.16992,2.3,94.7998,7.05Q343.63989,105.49512,344.31006,108.32007ZM264,52c27.29,0,48.10986,7.05,61.87988,20.93994a59.34006,59.34006,0,0,1,5.74024,6.72c-27.26026-4.43994-55.98-8.15991-83.93994-7.84985A358.05515,358.05515,0,0,0,185.16992,78.5C198.95,60.47,224.32007,52,264,52ZM247.77,79.81006c29.71-.3501,60.5,4.02,89.43018,8.87988q1.31982,2.58,2.4497,5.25c-22.68017-4.22-52.77978-6.27-91.6499-6.27-33.47,0-74.37988,8.16016-106.5,21.05005,2.45-7.03,7.83008-13.32007,15.60986-15.41992C164.59009,91.14014,204.07007,80.31006,247.77,79.81006Z"/><path d="M215.03955,159.68018,196.668,153.563a7.99946,7.99946,0,0,0-8.18872,1.93774l-5.66406,5.6731A4,4,0,0,0,185.646,168h28.04492a4.26919,4.26919,0,0,0,1.34863-8.31982Z"/><path d="M266.30908,168H294.354a4,4,0,0,0,2.83081-6.82617l-5.66406-5.6731A7.99946,7.99946,0,0,0,283.332,153.563l-18.37158,6.11719A4.26919,4.26919,0,0,0,266.30908,168Z"/></g></svg>
