<?xml version="1.0" encoding="UTF-8"?>
<svg xmlns="http://www.w3.org/2000/svg" viewBox="0 0 512 512" width="512" height="512"><g id="Fill_out_line" data-name="Fill out line"><path d="M360,280c8,16,32,16,40,8,0,16-8,32-16,32,16,16,16,40,0,56L262.0313,342.5,285.5,269Z" style="fill:#f57a08"/><polygon points="288 320 360 280 344 248 268.001 286 288 320" style="fill:#b1cdb4"/><path d="M288,304c0-32,96-32,96-112,0-24,8-96-24-128S288,24,248,24s-64,16-72,40c-40,16-40,72-8,112Z" style="fill:#f57a08"/><path d="M416,496H96c0-151.87,80.08008-163.59009,113.56006-177.68994C218.40991,314.58,224,310.68994,224,304a24.397,24.397,0,0,0-1.3-8C214.28,271.54,168,266.90991,168,216V136c0-32,19.71-72,96-72,112,0,88,80,88,112l3.03-3.03a16.97056,16.97056,0,0,1,28.97,12v3.54a16.96876,16.96876,0,0,1-10.66992,15.76l-26.55,10.62c-13.94995,45.98-51.46,54.78992-57.84009,81.11A33.42806,33.42806,0,0,0,288,304c0,6.68994,5.59009,10.58,14.43994,14.31006C335.91992,332.40991,416,344.13,416,496Z" style="fill:#f5a971"/><path d="M232,240l40-8,8,8S248,272,232,240Z" style="fill:#e37066"/><path d="M416,496H96c0-151.87,80.08008-163.59009,113.56006-177.68994C214.1499,316.37,217.87012,314.39,220.37988,312H216c-16,0-16-16,0-16h80c16,0,16,16,0,16h-4.37988c2.50976,2.39,6.23,4.37,10.81982,6.31006C335.91992,332.40991,416,344.13,416,496Z" style="fill:#f3b73f"/><path d="M232.97,496H96c0-105.01,38.29-143.02,72.98-161.13,15.49-8.08,30.25-12.21009,40.58008-16.55994C230.09009,402.43994,232.66992,454.49,232.97,496Z" style="fill:#03999c"/><path d="M416,496H279.03c.3-41.51,2.87988-93.56006,23.40991-177.68994C312.77,322.65991,327.53,326.79,343.02,334.87,377.71,352.98,416,390.99,416,496Z" style="fill:#03999c"/><path d="M209.56006,318.31006C230.09009,402.43994,232.66992,454.49,232.97,496H208c0-24-24-64-24-64l16-48H176l-7.02-49.13C184.47,326.79,199.23,322.65991,209.56006,318.31006Z" style="fill:#0c6c71"/><path d="M336,384H312l16,48s-24,40-24,64H279.03c.3-41.51,2.87988-93.56006,23.40991-177.68994C312.77,322.65991,327.53,326.79,343.02,334.87Z" style="fill:#0c6c71"/><path d="M168,176c0-24,0-72,32-72,0-24,37-36.5,72-24s56,40,56,96c0,16,24,16,24,0l16-69.66667L316.00141,43.66667H224l-63.99859,60.0488Z" style="fill:#f57a08"/><circle cx="352" cy="224" r="16" style="fill:#f3b73f"/><path d="M240,220a4,4,0,0,0,0-8h-4a8,8,0,0,1,0-16h4a4,4,0,0,0,0-8h-4a16,16,0,0,0,0,32Z"/><path d="M215.03955,159.68018,196.668,153.56287a8,8,0,0,0-8.18872,1.93786l-5.66406,5.6731A4,4,0,0,0,185.646,168h28.04492a4.26919,4.26919,0,0,0,1.34863-8.31982Z"/><path d="M291.52075,155.50073a8,8,0,0,0-8.18872-1.93786l-18.37158,6.11731A4.26919,4.26919,0,0,0,266.30908,168H294.354a4,4,0,0,0,2.83081-6.82617Z"/><path d="M280,176a7.99941,7.99941,0,0,0-7.59473,5.49658c-.56982-.17541-1.12793-.36255-1.65771-.57751a8.64668,8.64668,0,0,1-3.238-2.12586A4.00482,4.00482,0,0,1,266.58325,176l.00025-.02234-.00025-.022a2.58335,2.58335,0,1,0-5.1665.04431,8.88941,8.88941,0,0,0,.69433,3.36536,8.17214,8.17214,0,0,0,2.022,2.82177,11.82466,11.82466,0,0,0,5.39575,2.64844,19.43333,19.43333,0,0,0,2.58105.43128A7.9959,7.9959,0,1,0,280,176Z"/><path d="M200,176a7.99941,7.99941,0,0,0-7.59473,5.49658c-.56982-.17541-1.12793-.36255-1.65771-.57751a8.64668,8.64668,0,0,1-3.238-2.12586A4.00482,4.00482,0,0,1,186.58325,176l.00025-.02234-.00025-.022a2.58335,2.58335,0,1,0-5.1665.04431,8.88941,8.88941,0,0,0,.69433,3.36536,8.17214,8.17214,0,0,0,2.022,2.82177,11.82466,11.82466,0,0,0,5.39575,2.64844,19.43333,19.43333,0,0,0,2.58105.43128A7.9959,7.9959,0,1,0,200,176Z"/><path d="M152.31348,469.87646C145.98145,462.564,140,455.65723,140,440c0-22.06738,9.37793-31.55859,22.35742-44.69531l.48828-.49365a4,4,0,1,0-5.6914-5.62208l-.48731.49317C143.43066,403.07764,132,414.647,132,440c0,18.64014,7.5791,27.39209,14.2666,35.11328C151.70508,481.39307,156,486.353,156,496h8C164,483.37012,158.05957,476.51025,152.31348,469.87646Z"/><path d="M365.7334,475.11328C372.4209,467.39209,380,458.64014,380,440c0-25.353-11.43066-36.92236-24.667-50.31787l-.48731-.49317a4,4,0,1,0-5.6914,5.62208l.48828.49365C362.62207,408.44141,372,417.93262,372,440c0,15.65723-5.98145,22.564-12.31348,29.87646C353.94043,476.51025,348,483.37012,348,496h8C356,486.353,360.29492,481.39307,365.7334,475.11328Z"/><path d="M274.82812,229.17139a3.99724,3.99724,0,0,0-3.6123-1.09375l-40,8a3.99994,3.99994,0,0,0-2.79394,5.71142c4.69335,9.38623,11.18554,14.813,19.29687,16.1294a23.736,23.736,0,0,0,3.80664.30127c15.71582,0,30.62695-14.71534,31.30273-15.39112a3.9997,3.9997,0,0,0,0-5.65722ZM249,250.02148c-4.15918-.6748-7.68262-3.04589-10.67773-7.20654l32.36328-6.47265,3.51074,3.51074C268.43652,244.63428,257.918,251.47119,249,250.02148Z"/><path d="M396.31006,373.47a46.42023,46.42023,0,0,0-.21-51.25C403.24,314.97,408,301.85,408,288a7.993,7.993,0,0,0-13.6499-5.66c-2.07007,2.06994-7.97022,3.61-14.24024,2.6-3.53979-.57995-9.91992-2.45-12.95-8.51L358.96,260.04c22.22-17.92,33.04-40.23,33.04-68.04,1.08463-38.66859,5.33333-101.66667-26.3501-133.65C336.76,29.46,299.37988,16,248,16c-52.6499,0-71.57007,25.26-78.33008,42.03-15.33984,7.22-25.81982,20.08-30.35986,37.33C132.48,121.27,140.3999,153.04,160,178.75V216c0,35.88,21.37012,52.03,36.98,63.84a132.35844,132.35844,0,0,1,11.37012,9.21008C200.21,291.49,196,297.77,196,304a14.72831,14.72831,0,0,0,3.66992,9.58c-1.42993.52-2.92993,1.06-4.47,1.62C175.71,322.27,149.02,331.95,126.84009,358.14,100.71,389.02,88,434.12,88,496h12c0-58.92993,11.78-101.48,36-130.1001a111.8673,111.8673,0,0,1,29.84009-24.72l6.2,43.39014A3.9962,3.9962,0,0,0,176,388h18.45l-14.24,42.73a4.014,4.014,0,0,0,.36011,3.33008C180.80005,434.45,204,473.37,204,496h8c0-22.33008-19.07007-56.58008-23.62988-64.46L203.79,385.27A3.98988,3.98988,0,0,0,200,380H179.47l-6.11987-42.8501a240.16394,240.16394,0,0,1,25.97-10.67993c2.61987-.93994,5.09985-1.84,7.42993-2.73,20.01,83.59,22.02,136.02,22.23,172.26h8c-.2-36.8-2.23-90.15-22.75-175.39a37.90661,37.90661,0,0,0,7.6499-4.61H248a4,4,0,0,0,0-8H216c-5.2,0-8-2.06006-8-4s2.8-4,8-4h80c5.2,0,8,2.06006,8,4s-2.8,4-8,4H272a4,4,0,0,0,0,8h18.12988a37.34994,37.34994,0,0,0,7.64014,4.61C277.26,405.75,275.23,459.26,275.02,496h8c.21-36.17993,2.22-88.76,22.22-172.27,5.42668,2.14,23.48458,8.145,33.40991,13.41L332.53,380H312a3.98988,3.98988,0,0,0-3.79,5.27l15.41992,46.27C319.07007,439.41992,300,473.66992,300,496h8c0-22.61,23.2-61.55,23.42993-61.93994A4.014,4.014,0,0,0,331.79,430.73l-14.24-42.73H336a3.9962,3.9962,0,0,0,3.96-3.42993l6.2-43.41016C378.62012,359.90991,412,398.15991,412,496h12C424,443.51,414.93994,403.37,396.31006,373.47ZM318.2,271.16992c-5.12988,2.70008-10,5.26-14.36987,7.88013C306.74,275.98,310.03,272.91992,313.5,269.71c8.66992-8.04,18.37012-17.05005,26.3501-29.86A19.83242,19.83242,0,0,0,361.03,241.82007,97.68423,97.68423,0,0,1,347.21,254C337.81006,260.83,327.56006,266.23,318.2,271.16992ZM352,236a12,12,0,1,1,12-12A12.00943,12.00943,0,0,1,352,236Zm19.75-8.97A20.2078,20.2078,0,0,0,372,224a19.9438,19.9438,0,0,0-4.8-12.97l7.62012-3.05a21.7351,21.7351,0,0,0,4.09985-2.18994A67.39946,67.39946,0,0,1,371.75,227.03ZM150.90991,98.41992C154.71,84.02,163.62988,73.51,176.72,68.02a5.99357,5.99357,0,0,0,3.34009-3.53C191.26,32.74,227.42993,28,248,28c47.99,0,82.66992,12.34,109.16992,38.83,23.56006,23.56005,24.38013,70.9801,23.51,102.25a20.93189,20.93189,0,0,0-28.48,1.06l-3.03,3.02991A4.004,4.004,0,0,0,348,176c0,5.8999-4.31006,8-8,8s-8-2.1001-8-8c0-53.77-18.64014-85.48-58.6499-99.77-23-8.21-48.83008-6.4-64.29,4.5-7.23,5.09009-11.66992,11.9-12.78,19.46-27.37012,2.92-31.53,38.28-32.17017,63.48C150.71,142.51,145.65991,118.32007,150.90991,98.41992ZM285.95,292H225.32007c-3.82007-8.58333-12.2159-15.04167-21.11011-21.75C189.10986,258.84,172,245.8999,172,216V176c0-23.76,0-68,28-68a3.99457,3.99457,0,0,0,4-4c0-8.2,5.26-13.63,9.66992-16.74,13.43018-9.46,36.33008-10.87,56.98-3.49C307.05005,96.77,324,126.07007,324,176c0,10.5,8.05,16,16,16,7.5,0,15.09009-4.89,15.91992-14.27l1.93994-1.92993A12.9684,12.9684,0,0,1,380,184.97v3.54a12.90943,12.90943,0,0,1-8.1499,12.04L359.53,205.48a19.98823,19.98823,0,0,0-25.15015,27.97c-7.6499,13.07007-17.53979,22.26-26.31982,30.39C298.25,272.93994,289.67993,280.8999,285.95,292Zm12.90015.17993C304.37012,287.5,312.7,283.11,321.92993,278.24A278.31449,278.31449,0,0,0,347.3501,263.6499L354.71,278.36l-42.87988,23.82995C310.84009,296.37,305.12988,292.97,298.8501,292.17993ZM383.17993,324.99c10.46021,12.11,11.66016,28.31006,3.42017,41.38q-2.1753-2.89509-4.5-5.64c-21.5-25.4-47.63013-34.87-66.7002-41.78-3.7-1.34-7.18994-2.61-10.2998-3.87988l53.48-29.70007c5.72,7.99,14.49,10.57995,19.60986,11.41a34.83808,34.83808,0,0,0,17.27-1.47c-1.62988,10.82995-6.6001,18.52991-10.36987,20.36987a5.98956,5.98956,0,0,0-1.91016,9.31006Z"/></g></svg>
