<?xml version="1.0" encoding="UTF-8"?>
<svg xmlns="http://www.w3.org/2000/svg" viewBox="0 0 512 512" width="512" height="512"><g id="Fill_out_line" data-name="Fill out line"><path d="M286.96648,256C284.08912,309.35661,273.201,344,232,344c-34.66667,0-79.90779.25-79.90779-40s43.41587-38.7681,58.68649-89.10887Z" style="fill:#795033"/><rect x="304" y="128" width="96" height="112" style="fill:#c4461b"/><path d="M407.27,403.74C422.21,433.40991,416,467.81006,416,496H96c0-28.18994-6.21-62.59009,8.73-92.26l-10.67993-4.58008c37.84009-66.65991,112.5-70.73,127.34009-88.47A10.12271,10.12271,0,0,0,224,304c0-32-56-32-56-88,0-80-16-152,96-152s88,80,88,112l3.03027-3.03A16.96973,16.96973,0,0,1,384,184.97v3.54a16.96814,16.96814,0,0,1-10.66992,15.76l-26.54981,10.62C331.50977,265.23,288,271.02,288,304a13.64363,13.64363,0,0,0,1.89014,7.05v.01c13.11963,22.23,90.96,18.48,129.08984,87.65991Z" style="fill:#f5a971"/><path d="M407.27,403.74l-42.33008,18.14A56.128,56.128,0,0,1,368,440c0,24-16,32-16,56H160c0-24-16-32-16-56a56.1345,56.1345,0,0,1,3.06006-18.12L104.73,403.74l-10.67993-4.58008C117.55005,357.76,155.25,340.5,184,329.12c9.15991-3.63,17.40991-6.65,24-9.68006,6.04-2.77,10.7-5.53,13.39014-8.75L256,328l33.89014-16.93994c2.39013,4.03992,6.8999,7.22,12.91992,10.12988.39014.19006.79.37012,1.18994.56006,6.58984,3.07007,14.83984,5.87,24,9.13,29.18018,10.38,67.56982,25.36,90.98,67.84Z" style="fill:#f57a08"/><path d="M352,496c0-24,16-32,16-56s-16-40-16-40l-40-40c-32,32-80,32-112,0l-40,40s-16,16-16,40,16,32,16,56Z" style="fill:#03999c"/><path d="M236.39258,256.7334a35.57875,35.57875,0,0,1-18.236-4.98391,7.96345,7.96345,0,0,1-1.44193-12.46406h0a8.08113,8.08113,0,0,1,9.7722-1.20519,20.22753,20.22753,0,0,0,13.4907,2.35776,24.07292,24.07292,0,0,0,13.51208-7.23412,8.01916,8.01916,0,0,1,9.4534-1.73236h0a7.98264,7.98264,0,0,1,2.37267,12.514,39.99821,39.99821,0,0,1-22.77566,12.246A38.39944,38.39944,0,0,1,236.39258,256.7334Z" style="fill:#ea5003"/><path d="M208,319.43994V408H184V329.12C193.15991,325.49,201.40991,322.47,208,319.43994Z" style="fill:#0c6c71"/><path d="M328,330.88V408H304V321.75C310.58984,324.82007,318.83984,327.62,328,330.88Z" style="fill:#0c6c71"/><path d="M302.81006,321.18994,272,352l-16-16-16,16-32-32.56006c6.04-2.77,10.7-5.53,13.39014-8.75L256,328l33.89014-16.93994C292.28027,315.1,296.79,318.28,302.81006,321.18994Z" style="fill:#ea5003"/><path d="M224,408h64a0,0,0,0,1,0,0v32a16,16,0,0,1-16,16H240a16,16,0,0,1-16-16V408A0,0,0,0,1,224,408Z" style="fill:#0c6c71"/><path d="M352,176l3.03027-3.03A16.96973,16.96973,0,0,1,384,184.97v3.54a16.96814,16.96814,0,0,1-10.66992,15.76l-26.55059,10.62061C331.50887,265.23134,288.09221,263.75,288.09221,304S333.33333,344,368,344c56,0,56-64,56-152S376,40,336,56c-8-24-48-32-104-32s-96,72-80,87.31118C168.348,126.95541,176,136,256,136c16,0,32-8,32-24.68882,0-16,24-16,24,0S320,176,352,176Z" style="fill:#795033"/><path d="M236,220h4a4,4,0,0,0,0-8h-4a8,8,0,0,1,0-16h4a4,4,0,0,0,0-8h-4a16,16,0,0,0,0,32Z"/><path d="M228.47754,234.61084a12.12437,12.12437,0,0,0-14.59082,1.84619,12,12,0,0,0-3.43945,10.063,11.69948,11.69948,0,0,0,5.6748,8.67383,39.3566,39.3566,0,0,0,20.27051,5.53955,42.52576,42.52576,0,0,0,6.78808-.55371,43.84057,43.84057,0,0,0,25.07325-13.48047,11.768,11.768,0,0,0,2.9414-10.189,12.014,12.014,0,0,0-20.62988-6.03515,20.06143,20.06143,0,0,1-11.22754,6.01465A16.11281,16.11281,0,0,1,228.47754,234.61084Zm27.93652,1.32227a4.01394,4.01394,0,0,1,6.91114,2.01513,3.83771,3.83771,0,0,1-.94825,3.32373,35.811,35.811,0,0,1-20.47656,11.01123,34.54486,34.54486,0,0,1-5.50781.4502,31.45563,31.45563,0,0,1-16.20215-4.42822,3.72105,3.72105,0,0,1-1.80664-2.78956,4.0563,4.0563,0,0,1,1.16016-3.40185,3.922,3.922,0,0,1,2.79492-1.15234,4.33407,4.33407,0,0,1,2.15722.58789,24.224,24.224,0,0,0,16.12207,2.83691A28.21462,28.21462,0,0,0,256.41406,235.93311Z"/><path d="M185.646,168h28.04492a4.26916,4.26916,0,0,0,1.34863-8.31976L196.668,153.56287a7.99991,7.99991,0,0,0-8.18872,1.93792l-5.66406,5.673A4,4,0,0,0,185.646,168Z"/><path d="M266.30908,168H294.354a3.99991,3.99991,0,0,0,2.83057-6.82617l-5.66357-5.673a8.00033,8.00033,0,0,0-8.189-1.93792l-18.37158,6.11737A4.26922,4.26922,0,0,0,266.30908,168Z"/><circle cx="196" cy="388" r="4"/><circle cx="316" cy="388" r="4"/><path d="M288,404H224a4.0002,4.0002,0,0,0-4,4v32a20.0226,20.0226,0,0,0,20,20h32a20.0226,20.0226,0,0,0,20-20V408A4.0002,4.0002,0,0,0,288,404Zm-16,48H240a12.01343,12.01343,0,0,1-12-12V412h56v8H264a4,4,0,0,0,0,8h20v12A12.01343,12.01343,0,0,1,272,452Z"/><path d="M248,420h-8a4,4,0,0,0,0,8h8a4,4,0,0,0,0-8Z"/><path d="M280,68a4,4,0,0,0,0,8c15.80273,0,22.34277,0,29.17188,6.82861a3.99991,3.99991,0,0,0,5.65624-5.65722C305.65723,68,296.544,68,280,68Z"/><path d="M322.82812,61.17139C314.7793,53.12256,305.65723,44,288,44a4,4,0,0,0,0,8c14.34277,0,21.21484,6.87158,29.17188,14.82861a3.99991,3.99991,0,0,0,5.65624-5.65722Z"/><path d="M336,68a4,4,0,0,0,0,8c7.55762,0,13.52832,0,20.42188,13.78906a4.00046,4.00046,0,0,0,7.15624-3.57812C354.47168,68,344.22949,68,336,68Z"/><path d="M328,84a4,4,0,0,0,0,8c5.832,0,12,6.16846,12,12a4,4,0,0,0,8,0C348,93.71973,338.28027,84,328,84Z"/><path d="M200,176a7.99941,7.99941,0,0,0-7.59473,5.49658c-.56982-.17541-1.12793-.36255-1.65771-.57751a8.64668,8.64668,0,0,1-3.238-2.12586A4.00482,4.00482,0,0,1,186.58325,176l.00025-.02234-.00025-.022a2.58335,2.58335,0,1,0-5.1665.04431,8.88941,8.88941,0,0,0,.69433,3.36536,8.17214,8.17214,0,0,0,2.022,2.82177,11.82466,11.82466,0,0,0,5.39575,2.64844,19.43333,19.43333,0,0,0,2.58105.43128A7.9959,7.9959,0,1,0,200,176Z"/><path d="M280,176a7.99917,7.99917,0,0,0-7.59473,5.49658c-.56982-.17541-1.12793-.36255-1.65771-.57751a8.64149,8.64149,0,0,1-3.23779-2.12586A4.00246,4.00246,0,0,1,266.5835,176v-.02234l-.00049-.022A2.58335,2.58335,0,1,0,261.4165,176a8.89,8.89,0,0,0,.69483,3.36536,8.16766,8.16766,0,0,0,2.02148,2.82177,11.82665,11.82665,0,0,0,5.396,2.64844,19.43983,19.43983,0,0,0,2.58105.43128A7.9959,7.9959,0,1,0,280,176Z"/><path d="M404.76074,366.11719a136.459,136.459,0,0,0-19.1748-16.34668c19.5664-5.44092,32.44726-20.87891,39.15722-46.7627C432,275.02,432,236.54736,432,192c0-68.93408-27.5752-118.459-54.90234-136.96045-12.1045-8.19482-24.71-11.14453-36.76368-8.6665-6.03418-10.102-17.14941-17.47217-33.78808-22.4419C288.67871,18.59424,264.294,16,232,16c-39.64062,0-74.46094,33.459-87.09766,64.94092-8.74316,21.78271-2.77148,31.999,1.5625,36.146l1.05274,1.00879c4.28613,4.11182,8.37793,8.03662,13.63281,11.479-2.5166,18.00781-2.04883,38.332-1.55566,59.7622C159.794,198.0249,160,207.00879,160,216c0,15.40283,3.90332,28.53076,11.90723,39.94971C156.70776,269.25,144.0918,279.80713,144.0918,304c0,12.03516,3.46679,21.88867,10.32617,29.41357-21.06152,10.58252-47.73535,28.06153-66.4834,60.21436a6.00058,6.00058,0,0,0,2.8252,8.53906l4.88183,2.08692c-10.50586,23.8789-9.31055,49.6958-8.24316,72.72509C87.708,483.666,88,489.98291,88,496h12c0-6.29443-.29883-12.74561-.61719-19.63037-1.06054-22.88941-2.251-48.77222,9.03443-71.04785l34.95239,14.98A60.03871,60.03871,0,0,0,140,440c0,12.94434,4.28125,21.50732,8.42188,29.78906C152.31934,477.58252,156,484.94434,156,496h8c0-12.94434-4.28125-21.50732-8.42188-29.78906C151.68066,458.41748,148,451.05566,148,440c0-21.96191,14.68652-37.02783,14.82812-37.17139L180,385.65674V408a4.0002,4.0002,0,0,0,4,4h24a4.0002,4.0002,0,0,0,4-4V374.81934a80.35525,80.35525,0,0,0,88,.00012V408a4.0002,4.0002,0,0,0,4,4h24a4.0002,4.0002,0,0,0,4-4V385.65662l17.166,17.16565C349.31348,402.97217,364,418.03809,364,440c0,11.05566-3.68066,18.41748-7.57812,26.21094C352.28125,474.49268,348,483.05566,348,496h8c0-11.05566,3.68066-18.41748,7.57812-26.21094C367.71875,461.50732,372,452.94434,372,440a60.04025,60.04025,0,0,0-3.36963-19.69849L403.582,405.3219c11.28711,22.27808,10.0957,48.15991,9.03223,71.10242C412.29883,483.25439,412,489.70557,412,496h12c0-6.01709.292-12.334.60352-19.07471,1.0664-22.9956,2.26464-48.82422-8.26661-72.71826l5.91114-2.53369a5.99924,5.99924,0,0,0,2.84668-8.48975A134.147,134.147,0,0,0,404.76074,366.11719ZM171.59082,189.05957c-.481-20.91363-.93359-40.74384,1.44385-57.791C187.11157,136.88336,209.843,140,256,140c9.21875,0,17.832-2.40771,24.252-6.77979A25.56778,25.56778,0,0,0,292,111.311c0-5.90479,4.30957-8,8-8s8,2.09521,8,8C308,125.82031,315.46777,180,352,180a4,4,0,0,0,2.82812-1.17139l3.0293-3.02929A12.97064,12.97064,0,0,1,380,184.9707v3.53955a12.90768,12.90768,0,0,1-8.1543,12.043l-26.55371,10.624A4.00218,4.00218,0,0,0,342.9502,213.73c-7.14844,23.56592-20.93555,35.39111-33.10059,45.82422C296.60352,270.915,284.0918,281.64551,284.0918,304a52.33479,52.33479,0,0,0,.2666,5.34863L256,323.52783,227.053,309.0542A13.601,13.601,0,0,0,228,304c0-15.7666-11.55469-24.501-23.78809-33.74854-6.72387-5.08276-13.60522-10.29577-19.29345-17.00323-.07471-.10175-.1294-.21252-.21143-.31073C176.03809,242.5625,172,230.82568,172,216,172,206.87109,171.792,197.81738,171.59082,189.05957Zm119.27539,138.418L272,346.34326l-13.17188-13.17187a4.00029,4.00029,0,0,0-5.65624,0l-13.14747,13.14746L214.71631,320.573a40.75971,40.75971,0,0,0,7.488-4.99951l.00659.00415,32,16a4.00029,4.00029,0,0,0,3.57812,0l28.18848-14.09424A34.7549,34.7549,0,0,0,290.86621,327.47754ZM180,374.34326l-22.82812,22.82813a62.95859,62.95859,0,0,0-10.72632,15.74414l-44.53-19.08472c19.47558-29.7168,46.62231-44.6908,65.83178-53.5.01123-.00488.02344-.004.03467-.00915,4.16333-1.91175,8.25293-3.65345,12.218-5.27625ZM204,404H188V331.84839c1.63818-.64172,12.53-4.87525,16-6.313Zm-14.07715-81.48779c-6.26391,2.43347-13.12353,5.10547-20.29883,8.2301a5.97547,5.97547,0,0,0-1.00195-.86243C160.07324,324.14209,156.0918,315.919,156.0918,304c0-18.67578,9.63281-26.938,22.96582-38.37354l.083-.0708c1.14454-.98193,2.30567-1.98364,3.47144-2.99829A149.285,149.285,0,0,0,199.3877,276.6333C210.9043,285.33838,220,292.21436,220,304,220,310.82861,206.72754,315.98438,189.92285,322.51221ZM300,365.08813c-26.55078,19.73584-61.44751,19.73768-88-.00024v-35.866l25.14746,25.58228a3.99932,3.99932,0,0,0,2.835,1.1958H240a4,4,0,0,0,2.82812-1.17139L256,341.65674l13.17188,13.17187a4.00029,4.00029,0,0,0,5.65624,0l21.40772-21.40722A39.13777,39.13777,0,0,0,300,336.348ZM324,404H308V340.72852c4.66667,2.18815,12.37988,3.99926,16,4.67578Zm-8.0127-68.80469C299.68457,329.93457,292.0918,320.02246,292.0918,304c0-18.67627,10.13476-27.36865,22.96582-38.373,12.68066-10.87549,27.01172-23.167,34.96875-47.72705l24.791-9.91894A20.87053,20.87053,0,0,0,388,188.51025V184.9707a20.97048,20.97048,0,0,0-35.79883-14.82861l-1.80957,1.80908C322.17188,170.2251,316,123.13135,316,111.311c0-10.50391-8.04883-16-16-16s-16,5.49609-16,16C284,121.60889,275.3418,132,256,132c-76.6543,0-85.00977-8.01514-100.17773-22.56592l-1.05665-1.01318c-3.49511-3.34375-2.99511-12.376,1.27344-23.01026C164.94824,63.21436,193.44922,28,232,28c60.86328,0,93.6416,9.57275,100.20508,29.26514a4.00016,4.00016,0,0,0,5.28027,2.44873c10.32715-4.12989,21.69727-2.311,32.88477,5.2622,13.459,9.11231,25.77734,25.9292,34.68554,47.352C414.832,135.83984,420,163.39014,420,192c0,43.72656,0,81.48975-6.87207,107.99609C405.95508,327.66211,392.03711,340,368,340h-.63867C350.29492,340.01123,330.88281,340.002,315.9873,335.19531Zm49.56739,77.72022a62.96313,62.96313,0,0,0-10.72657-15.74414L332,374.34326V346.615a246.77427,246.77427,0,0,0,27.07324,1.36475c22.64942,11.36572,39.75537,26.27758,52.05274,45.405Z"/></g></svg>
