<?xml version="1.0" encoding="iso-8859-1"?>
<!-- Generator: Adobe Illustrator 19.0.0, SVG Export Plug-In . SVG Version: 6.00 Build 0)  -->
<svg version="1.1" id="Capa_1" xmlns="http://www.w3.org/2000/svg" xmlns:xlink="http://www.w3.org/1999/xlink" x="0px" y="0px"
	 viewBox="0 0 512 512" style="enable-background:new 0 0 512 512;" xml:space="preserve">
<polygon style="fill:#B7C3C8;" points="512,120.5 256,120.5 196,256 256,391.5 512,391.5 "/>
<rect y="120.5" style="fill:#D1DEE4;" width="256" height="271"/>
<path style="fill:#012231;" d="M106,324c14.064,0,27.144-4.292,38-11.634v10.359h30V233c0-24.813-20.187-45-45-45H76v30h53
	c8.271,0,15,6.729,15,15v1h-37.961C81.204,234,61,254.187,61,279S81.187,324,106,324z M106.039,264h37.113
	c-3.683,17.125-18.942,30-37.152,30c-8.271,0-15-6.729-15-15S97.746,264,106.039,264z"/>
<path d="M397.216,324c24.324,0,45.89-16.698,54.941-42.542l-28.314-9.916C419.064,285.185,408.613,294,397.216,294
	C381.106,294,368,276.953,368,256s13.106-38,29.216-38c11.397,0,21.849,8.815,26.627,22.458l28.314-9.916
	C443.105,204.698,421.54,188,397.216,188C364.564,188,338,218.505,338,256S364.564,324,397.216,324z"/>
<polygon points="290.764,188 256,276.795 246,300.397 256,324 269.736,324 293,264.579 293,324 323,324 323,188 "/>
<polygon style="fill:#012231;" points="221.236,188 189,188 189,324 219,324 219,264.579 242.264,324 256,324 256,276.795 "/>
<g>
</g>
<g>
</g>
<g>
</g>
<g>
</g>
<g>
</g>
<g>
</g>
<g>
</g>
<g>
</g>
<g>
</g>
<g>
</g>
<g>
</g>
<g>
</g>
<g>
</g>
<g>
</g>
<g>
</g>
</svg>
