<?xml version="1.0" encoding="iso-8859-1"?>
<!-- Generator: Adobe Illustrator 19.0.0, SVG Export Plug-In . SVG Version: 6.00 Build 0)  -->
<svg version="1.1" id="Capa_1" xmlns="http://www.w3.org/2000/svg" xmlns:xlink="http://www.w3.org/1999/xlink" x="0px" y="0px"
	 viewBox="0 0 512 512" style="enable-background:new 0 0 512 512;" xml:space="preserve">
<polygon style="fill:#FFB037;" points="512,126.331 255.938,158.301 105.938,256.008 255.938,353.715 496.026,323.739 "/>
<polygon style="fill:#FFD237;" points="15.974,188.261 0,385.669 255.938,353.715 255.938,287.41 245.938,281.11 255.938,274.809 
	255.938,237.143 245.938,230.848 255.938,224.553 255.938,158.301 "/>
<g>
	<path style="fill:#012231;" d="M112.3,252.371l-9.27,12.133c-4.14-4.525-10.26-6.912-15.839-6.218
		c-9.99,1.244-17.55,10.105-17.55,20.454c0,10.529,7.56,17.598,17.55,16.354c5.31-0.661,11.43-4.303,15.839-9.352l9.359,8.734
		c-6.749,7.77-16.739,13.603-26.009,14.757c-18.989,2.364-33.118-9.827-33.118-28.276c0-18.18,14.489-33.662,33.658-36.048
		C96.281,243.746,106,246.676,112.3,252.371z"/>
	<path style="fill:#012231;" d="M116.181,304.806v-62.997l16.02-1.994v62.997L116.181,304.806z"/>
	<path style="fill:#012231;" d="M183.308,296.45l-28.979-35.181v38.788l-15.029,1.871v-62.997l14.129-1.759l29.069,35.259v-38.878
		l14.939-1.86v62.997L183.308,296.45z"/>
	<path style="fill:#012231;" d="M221.559,241.29v12.51l30.059-3.742v12.6l-30.059,3.742v12.689l34.379-4.28v12.6l-50.399,6.274
		v-62.997l50.398-6.139v12.599L221.559,241.29z"/>
</g>
<polygon points="313.447,217.162 296.347,256.82 279.248,221.419 261.699,223.604 261.699,286.692 276.008,284.91 276.008,243.962 
	291.127,276.729 301.567,275.429 316.686,238.898 316.777,279.835 330.906,278.077 330.906,214.989 "/>
<path d="M435.993,232.057l20.789-32.646l-18.809,2.341l-12.149,19.871l-12.149-16.846l-18.63,2.319l21.06,28.157l-17.823,27.741
	l-23.727-53.347l-16.47,2.05l-27.179,66.38l16.47-2.05l4.59-12.181l27.539-3.428l4.499,11.049l28.23-3.514l13.59-21.761
	l13.589,18.378l19.17-2.386L435.993,232.057z M356.645,251.114l9.18-24.452l8.999,22.189L356.645,251.114z"/>
<g>
</g>
<g>
</g>
<g>
</g>
<g>
</g>
<g>
</g>
<g>
</g>
<g>
</g>
<g>
</g>
<g>
</g>
<g>
</g>
<g>
</g>
<g>
</g>
<g>
</g>
<g>
</g>
<g>
</g>
</svg>
