<?xml version="1.0" encoding="UTF-8"?>
<svg xmlns="http://www.w3.org/2000/svg" viewBox="0 0 512 512" width="512" height="512"><g id="Fill_out_line" data-name="Fill out line"><path d="M344,64c40,0,40,41.94109,40,120.97055C384,280,288,264,288,304H244V64Z" style="fill:#795033"/><path d="M440,496H72c0-133.75,80.31006-153.37012,124.17993-169.47,10.39014-3.81006,18.74-7.44019,23.48-12.33008A14.10563,14.10563,0,0,0,224,304c0-32-56-32-56-88V144c0-48,19.71-80,96-80,112,0,88,80,88,112l3.03-3.03a16.97,16.97,0,0,1,28.97,12v3.54a16.96876,16.96876,0,0,1-10.66992,15.76l-26.55,10.62012C331.51,265.23,288,272,288,304a14.10563,14.10563,0,0,0,4.34009,10.2c4.74,4.88989,13.08984,8.52,23.48,12.33008C359.68994,342.62988,440,362.25,440,496Z" style="fill:#f5a971"/><path d="M440,496H72c0-126.02,71.30005-150.72,116.23-166.62012,2.76-.98,5.41-1.91992,7.95-2.84985,10.39014-3.81006,18.74-7.44019,23.48-12.33008L256,336l36.34009-21.8c4.74,4.88989,13.08984,8.52,23.48,12.33008,2.53992.92993,5.18994,1.86987,7.95,2.84985C368.7,345.28,440,369.98,440,496Z" style="fill:#f3b73f"/><path d="M219.65991,314.2,256,336l-24,24-43.77-30.62012c2.76-.98,5.41-1.91992,7.95-2.84985C206.57007,322.72,214.91992,319.08984,219.65991,314.2Z" style="fill:#b1cdb4"/><path d="M323.77,329.37988,280,360l-24-24,36.34009-21.8c4.74,4.88989,13.08984,8.52,23.48,12.33008C318.36,327.46,321.01,328.3999,323.77,329.37988Z" style="fill:#b1cdb4"/><path d="M312,120c16,16,16,40,16,56s24,16,24,0l21.5-44L344,64H244Z" style="fill:#795033"/><polygon points="240 352 248 368 264 368 272 352 256 336 240 352" style="fill:#ea5003"/><polygon points="270.4 387.2 256 400 241.6 387.2 245.33 376 248 368 264 368 266.67 376 270.4 387.2" style="fill:#ea5003"/><path d="M312,120c0-32,32-56,32-56s-24-40-88-40S136,48,136,80s24,56,96,56C296,136,312,120,312,120Z" style="fill:#795033"/><path d="M440,496H288c0-5.47.15-11.06006.42993-16.72,2.87012-58.3,19.48-124.15991,27.39014-152.75,10.29993,3.78,22.60986,7.75,35.40991,13.34009C392.97,358.12988,440,393.6499,440,496Z" style="fill:#03999c"/><path d="M224,496H72c0-102.3501,47.03-137.87012,88.77-156.12988,12.8-5.59009,25.11-9.56006,35.40991-13.34009,7.91016,28.59009,24.52,94.45,27.39014,152.75C223.85,484.93994,224,490.53,224,496Z" style="fill:#03999c"/><path d="M136,464,72,496,48.33008,363.7A19.35221,19.35221,0,0,1,48,360c0-16,16-16,16-16h56C128,416,136,464,136,464Z" style="fill:#03999c"/><path d="M120,344c0,24-24,32-40,32a122.60044,122.60044,0,0,1-16-.66992V352s23.62,23.62012,55.25-15.07007C119.48,339.22,119.73,341.57007,120,344Z" style="fill:#f5a971"/><path d="M119.25,336.92993C87.62,375.62012,64,352,64,352s-16-32-8-56,20.4-27.87012,32-28c2.89,0,5.56006.08984,7.99.28,0-6.72.01-14.1001.01-20.28,0-24,24-24,24,0C120,263.46,112.53,271.45,119.25,336.92993Z" style="fill:#f5a971"/><circle cx="280" cy="184" r="8"/><circle cx="200" cy="184" r="8"/><path d="M236,220h4a4,4,0,0,0,0-8h-4a8,8,0,0,1,0-16h4a4,4,0,0,0,0-8h-4a16,16,0,0,0,0,32Z"/><path d="M264,76c21.03711,0,28.14258,13.25,28.42236,13.78906a4,4,0,1,0,7.15528-3.57812C299.20605,85.46777,290.17139,68,264,68a4,4,0,0,0,0,8Z"/><path d="M272,52c21.03711,0,28.14258,13.25,28.42236,13.78906a4,4,0,1,0,7.15528-3.57812C307.20605,61.46777,298.17139,44,272,44a4,4,0,0,0,0,8Z"/><path d="M338.0127,100.55762a3.99973,3.99973,0,1,0-4.07325,6.88476c5.52588,3.26953,6.23,16.12793,6.041,20.3711a4.0006,4.0006,0,0,0,3.80908,4.18261c.06348.00293.12647.00391.18945.00391a3.99991,3.99991,0,0,0,3.99268-3.81348C348.07275,126.02148,348.65186,106.85059,338.0127,100.55762Z"/><path d="M349.96338,91.44238c5.52588,3.26953,6.23,16.12793,6.041,20.3711a4.00061,4.00061,0,0,0,3.80909,4.18261c.06347.00293.12646.00391.18945.00391a3.99992,3.99992,0,0,0,3.99268-3.81348c.10107-2.165.68017-21.33593-9.959-27.6289a3.99973,3.99973,0,1,0-4.07324,6.88476Z"/><path d="M229.17139,237.17188a3.99942,3.99942,0,0,0,0,5.65624c4.07666,4.07715,11.18457,6.42383,18.76806,6.42383a36.76546,36.76546,0,0,0,5.87793-.47265c9.86621-1.60059,17.79737-7.06446,21.76026-14.99024a4,4,0,1,0-7.15528-3.57812c-3.832,7.66406-11.59814,9.97558-15.88672,10.67187-6.97753,1.13379-14.4248-.42969-17.707-3.71093A3.99971,3.99971,0,0,0,229.17139,237.17188Z"/><path d="M234.82861,413.17188a3.99991,3.99991,0,0,0-5.65722,5.65624l8,8a3.99991,3.99991,0,1,0,5.65722-5.65624Z"/><path d="M234.82861,429.17188a3.99991,3.99991,0,0,0-5.65722,5.65624l8,8a3.99991,3.99991,0,1,0,5.65722-5.65624Z"/><path d="M234.82861,445.17188a3.99991,3.99991,0,0,0-5.65722,5.65624l8,8a3.99991,3.99991,0,1,0,5.65722-5.65624Z"/><path d="M234.82861,461.17188a3.99991,3.99991,0,0,0-5.65722,5.65624l8,8a3.99991,3.99991,0,1,0,5.65722-5.65624Z"/><path d="M234.82861,477.17188a3.99991,3.99991,0,0,0-5.65722,5.65624l8,8a3.99991,3.99991,0,1,0,5.65722-5.65624Z"/><path d="M272,428a3.98727,3.98727,0,0,0,2.82861-1.17188l8-8a3.99991,3.99991,0,0,0-5.65722-5.65624l-8,8A4,4,0,0,0,272,428Z"/><path d="M269.17139,442.82812a3.9997,3.9997,0,0,0,5.65722,0l8-8a3.99991,3.99991,0,0,0-5.65722-5.65624l-8,8A3.99942,3.99942,0,0,0,269.17139,442.82812Z"/><path d="M269.17139,458.82812a3.9997,3.9997,0,0,0,5.65722,0l8-8a3.99991,3.99991,0,0,0-5.65722-5.65624l-8,8A3.99942,3.99942,0,0,0,269.17139,458.82812Z"/><path d="M269.17139,474.82812a3.9997,3.9997,0,0,0,5.65722,0l8-8a3.99991,3.99991,0,0,0-5.65722-5.65624l-8,8A3.99942,3.99942,0,0,0,269.17139,474.82812Z"/><path d="M282.82861,477.17188a3.99971,3.99971,0,0,0-5.65722,0l-8,8a3.99991,3.99991,0,1,0,5.65722,5.65624l8-8A3.99942,3.99942,0,0,0,282.82861,477.17188Z"/><path d="M156,400a4,4,0,0,0-8,0v96h8Z"/><path d="M364,400a4,4,0,0,0-8,0v96h8Z"/><path d="M404.76,366.10986c-24.59009-25.25-54.05-35.67993-77.78-44.08984C309.66992,315.8999,296,311.06006,296,304c0-10.21,10.48-15.67993,28.33008-24.16016,27.49-13.07983,65.1499-30.98,67.53992-88.96972.09-1.91016.13-3.89014.13-5.90015,0-39.42993,0-70.57007-5.29-92.09985-5.79-23.58008-18.04-35.32007-38.44995-36.73A91.23217,91.23217,0,0,0,328.65,37.49C314.91992,27.67993,291.16992,16,256,16c-32.57007,0-63.58008,5.93994-87.31006,16.72C142.45,44.6499,128,61.43994,128,80c0,22.95,11.21,40.58008,32.5,51.22-.34009,4-.5,8.22-.5,12.78v72c0,35.87988,21.37,52.03,36.97,63.83008C208.77,288.74,216,294.66992,216,304c0,7.06006-13.66992,11.8999-31,18.03-16.81006,5.95-37.18994,13.16992-56.46,26.28-.2-1.72022-.8501-7.58008-1.25-11.39014-4.9-47.24-2.32007-64.18994-.6001-75.43994A87.23764,87.23764,0,0,0,128,248c0-7.68994-2.01-14.23-5.81006-18.92993a17.775,17.775,0,0,0-28.37988,0C90.01,233.77,88,240.31006,88,248v12h-.08008c-12.22.12988-29.59985,3.74-39.51,33.47C43.26,308.90991,46.36,326.3999,50.63,339.81006,43.88,343.99,38.1875,352.5625,40.57007,365.77,40.86775,367.41311,63.87,496,63.87,496H76.06006L54.78,377.03C61.91992,380,71.51,380,80,380c21.16667,0,34.4375-10.8125,38.15991-16.8999,7.16016,60.95,13.82007,101.11987,13.89014,101.55981A4.0172,4.0172,0,0,0,136,468a5.00658,5.00658,0,0,0,.65991-.05,4.01268,4.01268,0,0,0,3.29-4.61011c-.07995-.42993-9.84151-65.188-13.53-98.53979a150.08543,150.08543,0,0,1,31.41016-19.24l6.25,31.22A3.99529,3.99529,0,0,0,168,380h16.53l-11.86011,17.78a3.9909,3.9909,0,0,0-.09985,4.28L219.62,480.47c.25,5.26.38,10.45.38,15.53h8c0-33.97-5.75-72.29-12.35-105.10986l37.69007,33.50976a4.00751,4.00751,0,0,0,5.31982,0L296.35,390.89014C289.75,423.71,284,462.03,284,496h8c0-5.08008.13-10.27.38-15.53l47.04993-78.40991a3.9909,3.9909,0,0,0-.09985-4.28L327.47,380H344a3.99529,3.99529,0,0,0,3.91992-3.22l6.24-31.19019c14.40015,6.7002,29.08008,15.62012,42,28.90015C422.96,402.01,435.99,441.78,435.99,496h12C447.99,438.5,433.84009,395.99,404.76,366.10986ZM60,370.41992c-5.39-1.56006-8-4.58984-8-10.41992,0-5.28,2.15-8.87012,6.39-10.71.68006,1.61987,1.25,2.85986,1.61,3.61987ZM59.79,297.26C67.13,275.25,77.71,272.10986,88,272c2.81006,0,5.41992.08984,7.77.28a.61449.61449,0,0,1,.13.01c4.98.22,8.29993,2.52,10.12,7.01a24.3297,24.3297,0,0,1,1.53,8.57983A35.21262,35.21262,0,0,0,86.6,280.01a4.00026,4.00026,0,1,0-.09,8,27.05211,27.05211,0,0,1,16.54,6.52,7.58169,7.58169,0,0,1,2.40991,7.84985c-.38989,1.33008-.83,2.65015-1.30994,3.96a14.67417,14.67417,0,0,0-2.09-2.15991A35.70352,35.70352,0,0,0,80.47,296.01a4.00026,4.00026,0,1,0-.09,8,27.84,27.84,0,0,1,16.57,6.32983,6.06635,6.06635,0,0,1,1.1001,8.15015c-.37012.59985-1.11011,1.54-1.47,2A10.6809,10.6809,0,0,0,91.01,315.37988,51.82442,51.82442,0,0,0,72.43994,312.01h-.02a4,4,0,0,0-.01,8,44.21152,44.21152,0,0,1,15.64014,2.8A2.71883,2.71883,0,0,1,89.74,325.29a2.626,2.626,0,0,1-1.56006,2.46,8.74834,8.74834,0,0,1-6.49.47,3.99875,3.99875,0,0,0-2.52,7.59009c7.01,2.33008,14.5-.26,21.1001-7.3,5.26-5.61011,9.81006-13.99,12.55-22.88013.38989,8.41016,1.09985,18.30005,2.27991,30.03-10.35,12.28-20.68006,18.82007-30.75,19.42993a24.35144,24.35144,0,0,1-17.08-5.51977C65.15991,345.05005,53.02,317.6001,59.79,297.26ZM80,372c-4.58008,0-8.57007-.07007-12-.33008V359.54a32.35461,32.35461,0,0,0,16.65,3.5498c10.53992-.57983,21.00989-6.09985,31.21-16.3999C114.03,366.62012,91.92993,372,80,372Zm34.82007-112.29c-.63013,4.1001-1.36011,8.93994-1.84009,15.55005A18.14507,18.14507,0,0,0,100,264.78V248c0-9.62012,4.15-14,8-14s8,4.37988,8,14A75.66644,75.66644,0,0,1,114.82007,259.71ZM310.99,328.99c-.46,1.71-.95,3.54-1.47,5.47L280.46,354.80005l-18.01-18.01,29.41-17.64014C296.61,322.97,303.25,326.02,310.99,328.99Zm-4.55,17.38989c-.35986,1.43018-.72,2.90015-1.09,4.40015l-33.07,29.3999-3.96-11.86987L273.1,358.75l4.06994,4.08008a4.00541,4.00541,0,0,0,5.12012.45ZM261.53,364H250.47l-5.6-11.21L256,341.65991,267.13,352.79Zm4.24,21.96L256,394.6499,246.23,385.96,250.88,372h10.24ZM319.15991,269.01c-3.22,1.53-6.34985,3.02-9.33984,4.54C327.62,256.75,341.68994,243.7,350.03,217.8999l24.79-9.91992a21.55745,21.55745,0,0,0,3.25-1.6499C370.73,244.46,343.52,257.41992,319.15991,269.01ZM345.37,68.02c30.98.81982,34.28991,30.03,34.6,100.48a20.92246,20.92246,0,0,0-27.77,1.64014l-3.03,3.02978A4.004,4.004,0,0,0,348,176c0,5.90991-4.31006,8-8,8s-8-2.09009-8-8c0-16.17993-.01-40.42993-15.94995-57.55.53-14.65991,8.34-27.5,14.95-35.8A99.8629,99.8629,0,0,1,345.37,68.02Zm-186.15,48.6499C146.29,108.05005,140,96.05005,140,80c0-13.58008,11.95-26.49,33.65991-36.35986C195.52,33.7,225.54,28,256,28c31.78,0,53.07007,10.33984,65.33008,19.01a80.51843,80.51843,0,0,1,17.25,16.25C330.47,70.2,309,91.07007,308.03,118.10986,300.88,123.40991,277.66992,132,232,132,198.96,132,174.48,126.83984,159.22,116.66992ZM204.21,270.25C189.11,258.83984,172,245.90991,172,216V144c0-4.3501.15991-8.3501.48-12.12012C187.96,137.27,207.87,140,232,140c50.27,0,71.92993-9.87988,79.47-14.66016C323.99,140.16992,324,161.57007,324,176c0,10.5,8.05,16,16,16,7.5,0,15.09009-4.89014,15.91992-14.27l1.94007-1.92993A12.96831,12.96831,0,0,1,380,184.97c0,1.75-.04,3.48-.11,5.15015a12.88926,12.88926,0,0,1-8.04,10.42993L345.29,211.17993a4.00874,4.00874,0,0,0-2.34009,2.55C335.4,238.62012,320.73,252.3501,307.79,264.47,295.03,276.41992,284,286.74,284,304a17.40141,17.40141,0,0,0,2.41992,9.08984L256,331.33008l-30.41992-18.24024A17.40141,17.40141,0,0,0,228,304C228,288.23,216.43994,279.5,204.21,270.25Zm15.93,48.8999,29.41,17.64014-18.01,18.01L202.48,334.47q-.78-2.90991-1.47-5.48C208.75,326.02,215.39,322.97,220.14,319.1499Zm23.53992,49.16016-3.96,11.86987L206.65,350.78c-.37-1.5-.7301-2.97-1.09-4.40015L229.71,363.28a4.00378,4.00378,0,0,0,5.12012-.45L238.9,358.75Zm-25.27,94.60986L180.73,400.10986,195.33008,378.22A3.99833,3.99833,0,0,0,192,372H171.28l-5.95-29.74c8.10986-3.40015,16.09985-6.23,23.68994-8.92017,1.51-.52978,2.99-1.05981,4.45-1.57983C200.68994,358.3999,213.88,411.97,218.40991,462.91992ZM256,416.06006,212.9,377.75c-1-4.62012-2-9.09009-2.99011-13.37012L253.34009,402.99a4.00751,4.00751,0,0,0,5.31982,0l43.43018-38.61011c-.99011,4.28-1.99011,8.75-2.99011,13.37012ZM340.72,372H320a3.99833,3.99833,0,0,0-3.33008,6.22L331.27,400.10986l-37.67993,62.81006C298.12,411.97,311.31006,358.3999,318.53,331.76q2.22.795,4.5,1.59985c7.40991,2.62012,15.41992,5.46021,23.63989,8.92017Z"/><path d="M182.81524,161.17384l5.664-5.673a8,8,0,0,1,8.18877-1.938l18.37171,6.11738a4.26906,4.26906,0,0,1,1.67487,1.03661h0A4.2692,4.2692,0,0,1,213.691,168h-28.045A4,4,0,0,1,182.81524,161.17384Z"/><path d="M297.18476,161.17384l-5.664-5.673a8,8,0,0,0-8.18877-1.938l-18.37171,6.11738a4.26906,4.26906,0,0,0-1.67487,1.03661h0A4.2692,4.2692,0,0,0,266.30905,168h28.045A4,4,0,0,0,297.18476,161.17384Z"/></g></svg>
