<?xml version="1.0" encoding="UTF-8"?>
<svg xmlns="http://www.w3.org/2000/svg" viewBox="0 0 512 512" width="512" height="512"><g id="Fill_out_line" data-name="Fill out line"><path d="M168,144s-20.44444-24-20.44444-40S152,80,160,80c-8-16-3.55556-56,28.44444-56H328c24,0,32,24,24,40,24,0,32,24,32,64v64c0,80-96,72-96,112Z" style="fill:#084c4f"/><path d="M414.72,425.6C419.6001,449.45,416,474.53,416,496H152V451H120V360c32.01-19.65,80.87988-33.46,97.8999-46.86C221.78,310.1,224,307.07007,224,304c0-32-56-32-56-88V144c0-48,19.71-80,96-80,112,0,88,80,88,112l3.03-3.03a16.97056,16.97056,0,0,1,28.97,12v3.54a16.96849,16.96849,0,0,1-10.66992,15.76l-26.55,10.62C331.51,265.23,288,271.02,288,304a14.0958,14.0958,0,0,0,4.33008,10.2c19.99,20.62012,103.92993,18.6001,135.5498,104.09009Z" style="fill:#f5a971"/><path d="M427.87988,418.29,360,456v40H152V402l-32-24V360c22.90991-14.06006,54.46-25.14,76.79-35.21,8.85986-4,16.27-7.84009,21.10986-11.65L256,336l36.33008-21.8c4.48,4.62012,12.17993,8.11011,21.77978,11.69006C347.33008,338.31006,403.3501,351.97,427.87988,418.29Z" style="fill:#f57a08"/><path d="M217.8999,313.14,256,336l-24,24-35.21-35.21C205.6499,320.79,213.06006,316.95,217.8999,313.14Z" style="fill:#03999c"/><path d="M314.10986,325.89,280,360l-24-24,36.33008-21.8C296.81006,318.82007,304.51,322.31006,314.10986,325.89Z" style="fill:#03999c"/><ellipse cx="252" cy="252" rx="12" ry="20" style="fill:#ea5003"/><path d="M176,96c8,16,32,40,64,40s40-16,64-32,24,8,24,32v40c0,16,24,16,24,0l15.66667-61.66667L332,48l-156-.25Z" style="fill:#084c4f"/><path d="M224,264l-48,48c-5.79,5.79-32.51,49.26-46.8501,72.86L152,402l-.01,49c-12.90991,4.63-38.63013,13-55.99,13-24,0-64-40-16-104,40-56,40-56,40-88s16-32,32-32l8-8c13.37012-13.37,26.75-9.98,26.1001.84,9.24-3.97,16.48-.03,16,8,9.47-4.07,16.83984.17,15.95,8.61C226.91992,247.24,230.07007,257.92993,224,264Z" style="fill:#f5a971"/><circle cx="280" cy="184" r="8"/><circle cx="200" cy="184" r="8"/><path d="M244,216a4.0002,4.0002,0,0,0-4-4h-4a8,8,0,0,1,0-16h4a4,4,0,0,0,0-8h-4a16,16,0,0,0,0,32h4A4.0002,4.0002,0,0,0,244,216Z"/><circle cx="268" cy="364" r="4"/><circle cx="268" cy="380" r="4"/><path d="M252,228c-5.37207,0-10.32422,3.87158-13.24707,10.35645a3.99976,3.99976,0,1,0,7.293,3.2871C247.61523,238.1626,249.89648,236,252,236c3.77637,0,8,6.84277,8,16s-4.22363,16-8,16c-2.10352,0-4.38477-2.1626-5.9541-5.64355a3.99976,3.99976,0,1,0-7.293,3.2871C241.67578,272.12842,246.62793,276,252,276c8.97168,0,16-10.542,16-24S260.97168,228,252,228Z"/><path d="M191.999,92.001a4.00264,4.00264,0,0,0,3.7959-5.26612c-7.88574-23.65722-7.1582-29.71484-.9668-35.90625a3.99991,3.99991,0,0,0-5.65624-5.65722c-9.97364,9.97314-8.92383,20.22314-.9668,44.09375A4.00137,4.00137,0,0,0,191.999,92.001Z"/><path d="M207.999,108.001a4.00264,4.00264,0,0,0,3.7959-5.26612c-7.88574-23.65722-7.1582-29.71484-.9668-35.90625a3.99991,3.99991,0,0,0-5.65624-5.65722c-9.97364,9.97314-8.92383,20.22314-.9668,44.09375A4.00137,4.00137,0,0,0,207.999,108.001Z"/><path d="M312,44c7.87793,0,12,10.061,12,20a4,4,0,0,0,8,0c0-19.23779-10.36719-28-20-28a4,4,0,0,0,0,8Z"/><path d="M296,60c5.50781,0,20,6.1499,20,20a4,4,0,0,0,8,0c0-18.64355-17.95117-28-28-28a4,4,0,0,0,0,8Z"/><path d="M336,84c5.832,0,12,6.16846,12,12a4,4,0,0,0,8,0c0-10.28027-9.71973-20-20-20a4,4,0,0,0,0,8Z"/><path d="M436.05566,417.15039c-7.10058-19.82617-17.62988-36.99609-31.29394-51.0332-24.59766-25.26807-54.07227-35.69873-77.75781-44.08106C314.73413,317.69421,296,311.875,296,304c0-11.0874,11.92383-17.68311,31.37988-27.52588C354.65039,262.67676,392,243.78125,392,192V128c0-22.4292-2.52441-38.88623-7.71777-50.31006-4.794-10.5498-12.26465-17.4458-21.832-20.25537a37.53529,37.53529,0,0,0-4.79883-25.71045C351.38477,21.58447,340.85449,16,328,16H188.44434c-13.73243,0-25.19532,6.313-32.2793,17.77539-7.81543,12.64453-9.00879,29.17822-6.28613,41.23584C144.376,78.79,139.55566,86.96338,139.55566,104c0,16.25439,15.51465,36.78369,20.67579,43.16211L160,216c0,1.80615.05469,3.5957.16406,5.35254a47.883,47.883,0,0,0-5.82031,4.99072l-5.665,5.665C133.90723,232.13086,112,234.21387,112,272c0,15.25342,0,22.21533-4.4082,31.87891-4.707,10.3164-14.50879,24.042-34.03321,51.37646-32.41308,43.25195-25.1123,73.99951-17.87109,88.481A53.98315,53.98315,0,0,0,74.417,464.98828C81.38867,469.50977,89.05371,472,96,472c14.21875,0,32.78027-4.853,48-9.79785V496h12V402a4.00207,4.00207,0,0,0-1.59961-3.2002L134.44458,383.833c7.82617-12.86231,16.27759-26.57373,23.73682-38.39234,6.06567-2.613,12.14917-5.13134,18.04419-7.56762,7.08764-2.9292,13.70337-5.66553,19.68823-8.30249l33.25806,33.25805a4.00029,4.00029,0,0,0,5.65624,0L252,345.65674V400a4,4,0,0,0,8,0V345.65674l17.17188,17.17187a3.9997,3.9997,0,0,0,5.65624,0L315.125,330.53186c2.53931.92835,5.1731,1.86047,7.87793,2.81775,22.50586,7.96484,50.5166,17.87744,73.16016,41.13769a124.81888,124.81888,0,0,1,26.80468,41.95557l-5.43969,3.022L364,449.20215V400a4,4,0,0,0-8,0v96h8V458.35352l47.74658-26.526c2.23877,14.781,1.54834,29.88978.86768,44.59681C412.29883,483.25439,412,489.70557,412,496h12c0-6.01709.292-12.334.60449-19.08545.67578-14.604,1.43555-30.9956-1.01758-47.08838l9.73438-5.40771A6.00086,6.00086,0,0,0,436.05566,417.15039ZM256,331.33545,224.46777,312.416A12.86752,12.86752,0,0,0,228,304c0-11.46948-6.3501-19.20532-13.115-25.22827l11.94311-11.94312c5.32813-5.32763,5.78614-13.87158,1-18.65722a10.17,10.17,0,0,0-5.979-2.92542,11.81153,11.81153,0,0,0-6.603-8.62683,15.92918,15.92918,0,0,0-9.82592-.9939,11.74184,11.74184,0,0,0-6.44263-7.13061,16.0441,16.0441,0,0,0-9.55542-.86249,11.738,11.738,0,0,0-6.43774-7.13409,16.57314,16.57314,0,0,0-10.88184-.5644c-.06787-1.289-.10254-2.59722-.10254-3.91363l.23828-70.98828c0-14.61507,1.81348-28.34387,5.85547-38.14063C188.77734,121.31592,210.38184,140,240,140c24.84473,0,36.458-9.42627,49.90527-20.34033,4.93555-4.00586,10.03907-8.14844,16.31348-12.33155,5.793-3.86083,10.252-5.31054,12.54785-4.08056C324,106.04834,324,122.65576,324,136v40c0,10.50391,8.04883,16,16,16,7.502,0,15.09082-4.89258,15.9248-14.26758l1.93262-1.9331A12.97064,12.97064,0,0,1,380,184.9707v3.53955a12.90768,12.90768,0,0,1-8.1543,12.043l-26.55371,10.624A4.00218,4.00218,0,0,0,342.9502,213.73c-7.49708,24.71777-22.05176,38.21-34.89258,50.11377C295.14844,275.81055,284,286.14551,284,304a17.45118,17.45118,0,0,0,2.4165,9.08545Zm-53.209-18.27637c-7.35059,3.77295-16.57129,7.68311-26.4629,11.78467a62.938,62.938,0,0,1,5.32813-7.187l27.64941-27.64893c4.69629,4.75879,6.64454,8.89356,6.69336,13.80274C215.74023,304.40234,213.9668,307.32324,202.791,313.05908ZM321.96191,265.7666c-3.21386,1.626-6.396,3.23779-9.47363,4.87964,7.97005-7.10457,30.09505-26.81291,37.53906-52.74683l24.79-9.91845a21.20775,21.20775,0,0,0,4.05762-2.1626C373.13892,239.84705,346.12793,253.54047,321.96191,265.7666ZM151.55566,104c0-5.49854.668-18.438,6.8584-19.83691a6.00088,6.00088,0,0,0,4.2959-7.96c-3.417-9.10791-3.29492-24.8623,3.66211-36.11914C171.32812,32.06543,178.75391,28,188.44434,28H328c8.66406,0,15.3877,3.46924,19.44434,10.03271a25.47673,25.47673,0,0,1,1.94238,21.97217,6,6,0,0,0,5.09766,8.09961c8.58593.73975,14.75976,5.499,18.874,14.55078C377.82715,92.4873,380,107.31982,380,128v40.52448a20.91711,20.91711,0,0,0-27.79883,1.61761l-3.02929,3.0293A4.00163,4.00163,0,0,0,348,176c0,5.90479-4.30957,8-8,8s-8-2.09521-8-8V136c0-17.86768,0-34.74414-9.458-39.80615-5.24414-2.80664-12.03418-1.33887-20.76074,4.478-6.58691,4.39111-12.0752,8.8457-16.918,12.77636C271.59375,124.21826,262.00684,132,240,132c-26.42871,0-49.1123-18.23438-59.00391-35.17627a3.99958,3.99958,0,0,0-6.94629.06592c-5.40918,9.68286-8.58862,21.48767-9.647,35.84949C158.45361,124.25293,151.55566,112.38171,151.55566,104ZM148,404v44.18481C135.40967,452.6001,111.92749,460,96,460c-12.31934,0-24.20508-10.88135-29.58008-21.62988C60.416,426.35938,54.61035,400.519,83.2002,362.3999c.02832-.03711.05566-.0747.083-.11279C123.23633,306.3501,124,305.28174,124,272c0-22.07446,7.46558-26.73682,18.0708-27.72766l-8.89892,8.899a3.99991,3.99991,0,1,0,5.65624,5.65722l16.58594-16.58593,7.415-7.41456c7.87923-7.82812,14.207-8.233,16.874-7.03417a3.84758,3.84758,0,0,1,2.21973,2.64831,39.40321,39.40321,0,0,0-8.751,6.72913l-24,24a3.99991,3.99991,0,1,0,5.65624,5.65722l24-24c8.88021-8.74528,15.00879-7.87249,16.873-7.03564a3.84622,3.84622,0,0,1,2.21973,2.64105,39.55737,39.55737,0,0,0-8.749,6.73737l-24,24a3.99991,3.99991,0,1,0,5.65624,5.65722l24-24c7.01758-7.019,13.7168-8.54345,16.97168-6.98974a3.90826,3.90826,0,0,1,2.17774,2.85772,31.45079,31.45079,0,0,0-8.80566,6.4748l-24,24a3.99991,3.99991,0,0,0,5.65624,5.65722l24-24c5.61524-5.61377,9.81641-6.52734,11.34376-5a4.10522,4.10522,0,0,1,.959,3.08594,6.5383,6.5383,0,0,1-1.959,4.25684l-48,48c-8.11426,8.11425-51.66309,80.53906-56.60157,88.7705a3.99982,3.99982,0,1,0,6.85938,4.11622c2.15454-3.59058,4.45337-7.40479,6.84375-11.35279Zm84-49.65674-28.3208-28.3208a104.39121,104.39121,0,0,0,14.4541-8.07776l31.41577,18.84949Zm48,0-17.54907-17.54907,29.406-17.64356c3.908,3.13538,9.08741,5.75354,15.1023,8.2334Z"/><path d="M185.646,168h28.04492a4.26916,4.26916,0,0,0,1.34863-8.31976L196.668,153.56287a7.99991,7.99991,0,0,0-8.18872,1.93792l-5.66406,5.673A4,4,0,0,0,185.646,168Z"/><path d="M266.30908,168H294.354a3.99991,3.99991,0,0,0,2.83057-6.82617l-5.66357-5.673a8.00033,8.00033,0,0,0-8.189-1.93792l-18.37158,6.11737A4.26922,4.26922,0,0,0,266.30908,168Z"/></g></svg>
