<?xml version="1.0" encoding="iso-8859-1"?>
<!-- Generator: Adobe Illustrator 19.0.0, SVG Export Plug-In . SVG Version: 6.00 Build 0)  -->
<svg version="1.1" id="Capa_1" xmlns="http://www.w3.org/2000/svg" xmlns:xlink="http://www.w3.org/1999/xlink" x="0px" y="0px"
	 viewBox="0 0 512 512" style="enable-background:new 0 0 512 512;" xml:space="preserve">
<g>
	<polygon style="fill:#D5011D;" points="273.971,224.411 260.821,270.85 248.492,224.502 232.832,224.502 220.773,270.85 
		208.444,224.502 191.344,224.502 211.954,287.499 228.512,287.499 240.392,243.94 252.091,287.499 268.561,287.499 
		285.103,237.371 304.116,237.371 304.116,287.499 320.136,287.499 320.136,237.371 340.125,237.371 340.125,224.411 	"/>
	<path style="fill:#D5011D;" d="M350.466,287.499v-62.997h16.02v62.997H350.466z"/>
	<path style="fill:#D5011D;" d="M434.563,287.499l-0.091-40.948l-15.119,34.648h-10.439l-15.119-34.648v40.948h-14.31v-63.088
		h17.549l17.1,37.529l17.1-37.529h17.459v63.088L434.563,287.499L434.563,287.499z"/>
	<path style="fill:#D5011D;" d="M477.712,237.101v12.51h30.059v12.6h-30.059V274.9H512v12.6h-50.308v-62.997h49.318v12.599
		L477.712,237.101L477.712,237.101z"/>
</g>
<path style="fill:#FF4B37;" d="M3.209,265.72c6.48,5.67,16.2,9.449,22.77,9.449c5.04,0,8.189-1.89,8.189-5.489
	c0-11.077-32.794-4.612-33.276-26.347C0.308,247.472,0,251.7,0,256c0,4.746,0.37,9.405,1.078,13.952L3.209,265.72z"/>
<g>
	<path style="fill:#D5011D;" d="M141.085,256.09c0,10.62,8.189,18.81,17.819,18.81c9.72,0,17.459-8.189,17.459-18.81
		c0-10.619-7.739-18.629-17.459-18.629S141.085,245.471,141.085,256.09z"/>
	<path style="fill:#D5011D;" d="M124.706,256c0-18.359,14.579-31.948,34.019-31.948c6.202,0,11.901,1.384,16.796,3.852
		C163.719,191.958,129.893,166,90,166l-15,30l15,54.511h13.049v-25.919h16.02v62.997h-16.02V263.11H90L75,316l15,30
		c39.762,0,73.498-25.788,85.406-61.549c-4.869,2.471-10.529,3.858-16.681,3.858C139.285,288.309,124.706,274.449,124.706,256z"/>
</g>
<path style="fill:#FF0021;" d="M76.951,263.11v24.479h-16.02v-62.997h16.02v25.919H90V166c-42.779,0-78.585,29.848-87.734,69.853
	c3.243-7.489,11.916-11.982,23.713-11.982c9.09,0,18.359,2.79,24.839,7.021l-6.03,12.508c-6.66-3.869-15.029-6.569-20.159-6.569
	c-4.141,0-6.93,1.53-6.93,4.59c0,10.89,33.298,4.68,33.298,27.449c0,12.599-11.159,19.259-25.198,19.259
	c-7.571,0-15.275-2.055-21.787-5.48C15.371,319.344,49.572,346,90,346v-82.89H76.951z"/>
<g>
</g>
<g>
</g>
<g>
</g>
<g>
</g>
<g>
</g>
<g>
</g>
<g>
</g>
<g>
</g>
<g>
</g>
<g>
</g>
<g>
</g>
<g>
</g>
<g>
</g>
<g>
</g>
<g>
</g>
</svg>
