<?xml version="1.0" encoding="UTF-8"?>
<svg xmlns="http://www.w3.org/2000/svg" viewBox="0 0 512 512" width="512" height="512"><g id="Fill_out_line" data-name="Fill out line"><path d="M288,304c0-40,96-24,96-119.02945C384,105.94109,384,80,344,64H258.33V304Z" style="fill:#084c4f"/><path d="M440,496H72c0-141.42993,89.80005-155.24,131.3501-172.24,2.55981-1.04,4.92993-2.1001,7.08984-3.2C218.8501,316.29,224,311.35986,224,304c0-32-56-32-56-88V144c-.45-46.96,19.5-79.53,96-80,112-.68994,88,80,88,112l3.03-3.03a16.97,16.97,0,0,1,28.97,12v3.54a16.96876,16.96876,0,0,1-10.66992,15.76l-26.55,10.62012C331.51,265.23,288,272,288,304c0,7.35986,5.1499,12.29,13.56006,16.56006a119.47116,119.47116,0,0,0,12.08008,5.1499C356.97,342.01,440,360.01,440,496Z" style="fill:#f5a971"/><path d="M440,496H72c0-115.25,59.62988-145.75,104.18994-162.29q3.90015-1.455,7.64014-2.77c7.17993-2.56006,13.81006-4.83984,19.52-7.17993L232,355.8999a72.29224,72.29224,0,0,0,48,0L313.64014,325.71c4.46972,1.68018,9.34985,3.37988,14.52978,5.22,2.49.89014,5.04,1.81006,7.65015,2.78C380.37988,350.25,440,380.77,440,496Z" style="fill:#03999c"/><path d="M168,80c-24,16-16,64,0,80,0-24,8-64,32-64Z" style="fill:#084c4f"/><path d="M320,96c0,24,16,64,32,80l22.33333-61L348.008,68.98534,288,68l-5.4375,28Z" style="fill:#084c4f"/><path d="M320,96c0-32,16-32,24-32-8-24-40-40-104-40s-80,32-80,48,8,40,72,40S320,96,320,96Z" style="fill:#084c4f"/><path d="M232,240l40-8,8,8S248,272,232,240Z" style="fill:#e37066"/><path d="M232,338.60986V496H72c0-118.53,63.08008-147.42993,107.97-163.67993,11.96-4.33008,22.63013-7.77,30.47-11.76A56.074,56.074,0,0,0,232,338.60986Z" style="fill:#f3b73f"/><path d="M440,496H280V338.60986a56.074,56.074,0,0,0,21.56006-18.0498c7.83984,3.99,18.51,7.42993,30.47,11.76C376.91992,348.57007,440,377.47,440,496Z" style="fill:#f3b73f"/><path d="M232,338.60986v34.07007a88.10332,88.10332,0,0,1-52.03-40.35986c6.23-2.26,12.11011-4.27,17.42017-6.25a124.35769,124.35769,0,0,0,13.0498-5.51q1.36524,1.91967,2.90015,3.71c.37988.46.76977.90991,1.17993,1.3501a56.82609,56.82609,0,0,0,5.77,5.52q.67493.56982,1.37988,1.10986a54.1079,54.1079,0,0,0,6.65015,4.42993c.51.3,1.03.59009,1.55.86011C230.57007,337.90991,231.28,338.27,232,338.60986Z" style="fill:#f57a08"/><path d="M332.03,332.32007A88.10332,88.10332,0,0,1,280,372.67993V338.60986c.72-.33984,1.42993-.7,2.12988-1.06982.52-.27,1.04-.56006,1.55-.86011a54.1079,54.1079,0,0,0,6.65015-4.42993q.705-.53979,1.37988-1.10986a56.82609,56.82609,0,0,0,5.77-5.52c.41016-.44019.8-.89014,1.17993-1.3501q1.53-1.78491,2.90015-3.71a124.35769,124.35769,0,0,0,13.0498,5.51C319.91992,328.05005,325.80005,330.06006,332.03,332.32007Z" style="fill:#f57a08"/><circle cx="280" cy="184" r="8"/><circle cx="200" cy="184" r="8"/><path d="M236,220h4a4,4,0,0,0,0-8h-4a8,8,0,0,1,0-16h4a4,4,0,0,0,0-8h-4a16,16,0,0,0,0,32Z"/><path d="M274.82812,229.17188a3.99338,3.99338,0,0,0-3.6123-1.09376l-40,8a3.999,3.999,0,0,0-2.79394,5.71094c4.69335,9.38672,11.18554,14.8125,19.29687,16.12891a23.73678,23.73678,0,0,0,3.80664.30176c15.71582,0,30.62695-14.71582,31.30273-15.39161a3.99852,3.99852,0,0,0,0-5.65624ZM249,250.02148c-4.15918-.6748-7.68262-3.04589-10.67773-7.207l32.36328-6.47265,3.51074,3.51172C268.43652,244.63477,257.91992,251.46289,249,250.02148Z"/><path d="M265.4541,75.72656c20.42676-7.97656,32.28906,3.90821,32.76856,4.40039a3.9996,3.9996,0,1,0,5.80468-5.5039c-.63672-.67285-15.8955-16.33594-41.48144-6.34961a4.00021,4.00021,0,1,0,2.9082,7.45312Z"/><path d="M272.69336,51.93945c13.53711-2.38281,21.7832-.51855,26.32031,1.46485,4.7168,2.0625,6.38867,4.58886,6.417,4.62988a4.00017,4.00017,0,0,0,6.88868-4.06836c-.26172-.44336-2.749-4.42578-9.24805-7.50293-8.166-3.86523-18.85156-4.67383-31.76465-2.40234a4,4,0,1,0,1.38672,7.8789Z"/><path d="M338.03613,92.55762a3.99948,3.99948,0,0,0-4.07226,6.88476c6.55175,3.876,6.09277,11.92481,6.07226,12.24219a3.99842,3.99842,0,0,0,3.67188,4.30273c.10742.00879.21387.0127.31933.0127a4.00049,4.00049,0,0,0,3.9834-3.68457C348.05371,111.77539,348.93457,99.00391,338.03613,92.55762Z"/><path d="M340.32324,78.4248a3.99948,3.99948,0,0,0,2.10156,5.252c6.01856,2.5791,5.58692,11.999,5.583,12.0791a3.99867,3.99867,0,0,0,3.748,4.23633c.083.00586.166.00781.24805.00781a3.99959,3.99959,0,0,0,3.98828-3.75586c.03808-.61426.79394-15.11621-10.417-19.9209A4.00227,4.00227,0,0,0,340.32324,78.4248Z"/><path d="M156,400a4,4,0,0,0-8,0v96h8Z"/><path d="M364,400a4,4,0,0,0-8,0v96h8Z"/><path d="M404.75879,366.11426c-24.584-25.25-54.0459-35.6836-77.78027-44.08985C309.6709,315.90137,296,311.06445,296,304c0-10.25,10.498-15.67871,28.32617-24.16113,14.542-6.91407,31.02344-14.749,44.37207-28.90528C384.37793,234.28613,392,212.709,392,184.96973c0-78.5625-.002-108.86231-41.752-127.02637C338.52148,30.48926,300.50391,16,240,16c-69.6084,0-88,36.63086-88,56a45.65265,45.65265,0,0,0,1.4043,11.4834c-4.48535,6.58691-7.23828,14.79687-8.19532,24.459-1.95117,19.80176,4.21485,42.46387,14.791,55.13379V216c0,35.87695,21.36914,52.03125,36.97363,63.82715C208.76953,288.73828,216,294.67383,216,304c0,7.06445-13.6709,11.90137-31.03906,18.04688-23.67383,8.38378-53.13574,18.81738-77.71973,44.06738C78.15234,395.99316,64.01172,438.47949,64.00977,496h12c.00195-54.23926,13.03027-93.9873,39.8291-121.51465,19.14843-19.6665,42.13769-29.79126,62.42285-37.28027A92.907,92.907,0,0,0,228,375.6333V496h8V377.80371a92.1608,92.1608,0,0,0,40,0V496h8V375.63232a92.74642,92.74642,0,0,0,49.72705-38.43164c20.26123,7.478,43.271,17.603,62.43408,37.28467C422.96,402.0127,435.98828,441.76074,435.99023,496h12C447.98828,438.47949,433.84766,395.99316,404.75879,366.11426ZM359.96484,242.7041c-11.80175,12.51465-27.20312,19.83692-40.81445,26.30762-3.21338,1.529-6.34155,3.02295-9.33545,4.53808,17.01839-15.88313,31.87256-29.85449,40.2124-55.64941l24.791-9.91894a21.2177,21.2177,0,0,0,3.25293-1.64991C375.23145,220.85205,369.23633,232.85962,359.96484,242.7041Zm20.02-74.19092a20.91533,20.91533,0,0,0-27.78369,1.6294l-.08105.08008C337.77344,153.35156,324,117.59766,324,96c0-27.13745,11.30591-27.97339,19.25269-27.999a.64934.64934,0,0,0,.06567.043C377.292,81.94019,379.7998,103.24268,379.98486,168.51318Zm-215.437-20.29345c-.01929,0-.0376-.00562-.05688-.00586-5.62891-10.72071-8.64917-25.80689-7.34058-39.0918a42.88072,42.88072,0,0,1,4.63281-16.33984,39.96212,39.96212,0,0,0,15.27759,13.23925C169.62622,117.354,165.85547,133.76514,164.54785,148.21973ZM174.499,94.87695C167.43457,89.22461,164,81.74219,164,72c0-15.21875,15.88379-44,76-44,53.36621,0,87.06152,11.126,98.083,32.2627-9.07715,1.06054-21.38672,6.41406-22.05469,33.40527C309.56641,97.06836,284.68262,108,232,108,204.73047,108,185.38379,103.585,174.499,94.87695Zm29.709,175.377C189.11133,258.84082,172,245.90625,172,216V162.3125c0-19.5625,3.88208-40.86768,12.49707-53.01807Q202.57433,115.97742,232,116c47.70728,0,73.64746-8.75537,84.32764-13.585,2.3562,25.16406,17.46386,61.03369,32.84424,76.41308a3.99853,3.99853,0,0,0,5.65624,0l3.0293-3.02929A12.971,12.971,0,0,1,380,184.97046c0,1.762-.0437,3.48657-.11133,5.19067a12.8938,12.8938,0,0,1-8.043,10.39258l-26.55371,10.624a4.00222,4.00222,0,0,0-2.34179,2.55274c-7.55079,24.89258-22.2168,38.62207-35.15625,50.73633C295.02637,276.419,284,286.74121,284,304c0,7.85278,4.39209,13.29,11.54834,17.74561a52.0955,52.0955,0,0,1-17.26514,13.25244A4.00119,4.00119,0,0,0,276,338.61133V353.011a68.40629,68.40629,0,0,1-40,0V338.61133a4.00119,4.00119,0,0,0-2.2832-3.61328,52.21415,52.21415,0,0,1-17.251-13.25928C223.61084,317.28687,228,311.85034,228,304,228,288.22656,216.44238,279.49609,204.208,270.25391Zm-18.20264,64.15478c1.01514-.36084,5.40967-1.917,6.5835-2.335a3.98649,3.98649,0,0,0,6.3291,2.80029l11.21289-8.23559c.53027.62842,1.06592,1.25073,1.6206,1.8562l-9.61181,10.05029a3.99988,3.99988,0,1,0,5.78125,5.5293l9.61816-10.05664c.62891.52612,1.26,1.04907,1.90991,1.54907l-7.71655,11.56226a4.00018,4.00018,0,0,0,6.6543,4.4414l7.71924-11.5664c.6289.36255,1.25146.73559,1.894,1.07519v.70654l-5.332,12.13526a4.0003,4.0003,0,0,0,2.05273,5.27148A4.05046,4.05046,0,0,0,228,359.16431v8.03A84.92277,84.92277,0,0,1,186.00537,334.40869ZM236,369.59937V361.3269a76.156,76.156,0,0,0,40,0v8.27247A85.0645,85.0645,0,0,1,236,369.59937Zm48-2.40357v-8.03149a3.99942,3.99942,0,0,0,5.332-5.24341L284,341.78564v-.70654c.64307-.33984,1.26318-.71582,1.89209-1.07788l7.72119,11.56909a4.00018,4.00018,0,1,0,6.6543-4.4414l-7.72119-11.56934q.97485-.75,1.918-1.53857l9.61474,10.05322a3.99988,3.99988,0,1,0,5.78125-5.5293L300.24316,328.489c.55469-.6062,1.11182-1.20922,1.64209-1.83862L313.082,334.874a3.97436,3.97436,0,0,0,6.3291-2.80029c1.19214.42456,5.58741,1.981,6.583,2.335A84.76456,84.76456,0,0,1,284,367.1958Z"/><path d="M182.81524,161.17384l5.664-5.673a8,8,0,0,1,8.18877-1.938l18.37171,6.11738a4.26906,4.26906,0,0,1,1.67487,1.03661h0A4.2692,4.2692,0,0,1,213.691,168h-28.045A4,4,0,0,1,182.81524,161.17384Z"/><path d="M297.18476,161.17384l-5.664-5.673a8,8,0,0,0-8.18877-1.938l-18.37171,6.11738a4.26906,4.26906,0,0,0-1.67487,1.03661h0A4.2692,4.2692,0,0,0,266.30905,168h28.045A4,4,0,0,0,297.18476,161.17384Z"/></g></svg>
