<?xml version="1.0" encoding="UTF-8"?>
<svg xmlns="http://www.w3.org/2000/svg" viewBox="0 0 512 512" width="512" height="512"><g id="Fill_out_line" data-name="Fill out line"><path d="M288,304c0-24,96-32,96-112S384,24,240,24c-48,0-72,32-56,64l8,16Z" style="fill:#03999c"/><path d="M418.98,398.72l-11.71,5.02C422.21,433.40991,416,467.81006,416,496H88l-7.62-64.23C88.09,405.59,100.48,386.2,114.84,371.46l.02-.03c13.42-13.76,28.55-23.46,43.17-30.85986C171.37,333.83,184.28,329.01,195.1,324.78h.01c3.79-1.48,7.33-2.89,10.53-4.28C216.85,315.63,224,310.93994,224,304c0-32-56-32-56-88,0-80-16-152,96-152s88,80,88,112l3.03-3.03a16.97,16.97,0,0,1,28.97,12v3.54a16.96849,16.96849,0,0,1-10.66992,15.76l-26.55,10.62C331.51,265.23,288,271.02,288,304c0,8.42993,6.75,13.65991,17.4,18.38,3.12,1.39,6.58,2.73,10.29993,4.1,10.95007,4.02,24.18,8.26,37.87012,14.43994C377.1,351.54,401.98,367.88,418.98,398.71Z" style="fill:#f5a971"/><path d="M192,104c-8,8-24,32-24,48-8-32-8-56,16-64Z" style="fill:#03999c"/><path d="M88,496S74.22932,377.44207,72,368c-4.73507-20.05492-14.11447-72.74049-22.11447-88.74049s11.78343-20.64969,16-8C72,288,72,296,72,296c0-16,16-16,16,0,0-16,16-16,16,0V280c0-16,16-16,16,0v32c0,16-8,24-8,32,0,16,16,116,16,116Z" style="fill:#f5a971"/><path d="M374.27,96.75,352,176v56c0,24-32,24-32,0,0-23.11,0-75.87-28.56006-101.18C286.72,139.36,273.85,142.77,264,128c-16-24-40-24-72-24l-8-16c-16-32,8-64,56-64C325.35,24,360.11,54.91,374.27,96.75Z" style="fill:#03999c"/><rect x="200" y="288" width="112" height="32" style="fill:#795033"/><polygon points="200 288 160 304 200 320 200 288" style="fill:#b1cdb4"/><polygon points="312 320 352 304 312 288 312 320" style="fill:#b1cdb4"/><circle cx="232" cy="304" r="8" style="fill:#b1cdb4"/><circle cx="280" cy="304" r="8" style="fill:#b1cdb4"/><path d="M365.67993,421.57007l-.01.00989A69.5178,69.5178,0,0,1,367.80005,440c0,24-16,32-16,56H160c0-24-16-32-16-56a69.09727,69.09727,0,0,1,2.16-18.5l-25.8-11.06006-5.52-38.98.02-.03c20.21-20.73,44.3-32.25,64.71-40.53,2.54-1.03991,5.03-2.0199,7.44-2.97,6.92-2.7,13.24-5.09,18.63-7.42993a56.00527,56.00527,0,0,0,99.76,1.88c5.39,2.4,11.78992,4.67005,18.82,7.15q3.67493,1.3048,7.58008,2.71c28.62988,10.35,64.76,25.81006,87.17993,66.47v.01Z" style="fill:#f57a08"/><path d="M216,408v88H160c0-24-16-32-16-56s8-32,16-40,16-24,0-56l-1.97-3.42993C171.37,333.83,184.28,329.01,195.1,324.78h.01C201.59,335.63,216,364.61,216,408Z" style="fill:#084c4f"/><path d="M367.80005,440c0,24-16,32-16,56h-56V408c0-41.29,13.04993-69.53,19.8999-81.52,10.95007,4.02,24.18,8.26,37.87012,14.43994L351.80005,344c-16,32-8,48,0,56S367.80005,416,367.80005,440Z" style="fill:#084c4f"/><path d="M260.94434,168H298.28a5.68306,5.68306,0,0,0,4.01855-9.70154l-6.144-6.144a16.00022,16.00022,0,0,0-18.46924-2.99713l-18.95215,9.47613A4.94428,4.94428,0,0,0,260.94434,168Z"/><path d="M219.03015,168a4.94427,4.94427,0,0,0,2.21112-9.36658l-18.95221-9.47613A16,16,0,0,0,183.82,152.15442l-6.144,6.144A5.683,5.683,0,0,0,181.6944,168Z"/><path d="M236,220h4a4,4,0,0,0,0-8h-4a8,8,0,0,1,0-16h4a4,4,0,0,0,0-8h-4a16,16,0,0,0,0,32Z"/><path d="M227.57764,230.21094a4,4,0,0,0-7.15528,3.57812c3.01807,6.03614,9.811,12.87744,25.01953,11.18653,10.14991-1.12793,21.01758-5.73291,28.34717-9.398,2.95655-1.47852,5.55371-1.58594,7.312-.30176A5.84572,5.84572,0,0,1,283.05273,241c-.731,4.689-5.33544,8.87793-12.31787,11.20508-20.76123,6.92138-27.9292.93945-27.999.87793l.09277.08838-5.65722,5.65722c.6709.67041,5.17627,4.73194,15.83447,4.73145,5.19922,0,11.86328-.9668,20.25928-3.76514,14.23779-4.74609,17.11572-13.86377,17.69189-17.56347a13.77536,13.77536,0,0,0-5.13721-13.41553c-4.23437-3.09375-9.92285-3.23633-15.60888-.39356C259.74121,233.65723,234.62744,244.30957,227.57764,230.21094Z"/><path d="M244,304a12,12,0,1,0-12,12A12.01375,12.01375,0,0,0,244,304Zm-12,4a4,4,0,1,1,4-4A4.00458,4.00458,0,0,1,232,308Z"/><path d="M292,304a12,12,0,1,0-12,12A12.01375,12.01375,0,0,0,292,304Zm-12,4a4,4,0,1,1,4-4A4.00458,4.00458,0,0,1,280,308Z"/><path d="M266.58325,175.95563A2.58341,2.58341,0,0,0,261.41663,176a8.8894,8.8894,0,0,0,.69458,3.36536,8.17207,8.17207,0,0,0,2.02172,2.82177,11.82489,11.82489,0,0,0,5.396,2.64844,19.44166,19.44166,0,0,0,2.58093.43134,7.988,7.988,0,1,0,.29541-3.77033c-.56982-.17541-1.128-.36249-1.65771-.57751a8.64581,8.64581,0,0,1-3.23792-2.1258A4.00341,4.00341,0,0,1,266.58337,176v-.02234Z"/><path d="M208,184a7.998,7.998,0,0,0-15.59479-2.50342c-.56982-.17541-1.128-.36249-1.65771-.57751a8.646,8.646,0,0,1-3.23786-2.1258A4.00374,4.00374,0,0,1,186.58331,176l.00013-.02234-.00019-.022A2.58338,2.58338,0,1,0,181.41669,176a8.8895,8.8895,0,0,0,.69452,3.36536,8.17211,8.17211,0,0,0,2.02179,2.82177,11.82471,11.82471,0,0,0,5.39587,2.64844,19.44491,19.44491,0,0,0,2.58093.43134A7.99523,7.99523,0,0,0,208,184Z"/><path d="M425.57031,398.06885a6.00057,6.00057,0,0,0-.47558-4.88135,133.74784,133.74784,0,0,0-20.33594-27.07324c-24.31836-24.97705-53.41211-35.45752-76.98682-43.80762l27.23535-10.8916a8.003,8.003,0,0,0-.03906-14.84619l-29.94043-11.97266c13.2583-7.25342,28.52246-16.25195,41.08789-29.02734C383.5332,237.87305,392,217.07959,392,192c0-41.25146,0-83.90771-19.01709-117.81494C351.02441,35.03223,307.52539,16,240,16c-28.33887,0-50.99023,10.36133-62.14355,28.4248-7.34864,11.887-8.77314,25.71308-4.20063,39.4563-9.94061,5.66645-15.92639,14.87659-17.79449,27.47974-1.96051,13.22821,1.02868,28.57159,3.56714,39.24908C158.70833,166.5,160.03125,201.375,160,216c0,35.87549,21.35159,51.99584,37.66211,64.34766-6.7677,2.68-40.66943,16.2373-40.66943,16.2373a8.00281,8.00281,0,0,0,.03955,14.84619l24.84472,9.93262c-18.24951,7.19629-40.688,16.88818-60.9956,33.62549C120.18066,348.57275,120,345.481,120,344c0-1.729,1.15186-4.50293,2.39795-7.50342C124.76221,330.771,128,322.9292,128,312V280c0-13.12988-8.04883-20-16-20-7.10059,0-14.27979,5.47852-15.73389,16.00244A14.41775,14.41775,0,0,0,88,278.45557a14.2799,14.2799,0,0,0-11.89453-1.916q-1.17334-3.81372-2.6626-7.89355a18.03473,18.03473,0,0,0-14.37451-12.43506,16.46841,16.46841,0,0,0-15.99268,6.34912c-1.87353,2.564-5.65722,9.67236-.34326,20.27148,5.48584,10.98047,12.40528,44.1709,16.98389,66.13282l.09424.45312c1.70849,8.19824,3.18408,15.27832,4.40039,20.42334C66.04211,377.58569,77.52149,475.49745,79.94318,496h12.0791c-5.1169-43.22869-14.019-119.97888-16.13361-128.92041-1.1792-4.98877-2.63965-11.99609-4.33056-20.11035l-.09473-.45362c-5.26367-25.25-11.81494-56.6748-17.99951-69.05517-1.68311-3.35693-1.93164-6.13428-.6919-7.83106a4.55457,4.55457,0,0,1,4.4541-1.561,6.17961,6.17961,0,0,1,4.86133,4.4585c.01856.05468.0376.10937.05762.16406a126.16307,126.16307,0,0,1,4.53613,14.939,6.00017,6.00017,0,0,0,10.833,2.00049A3.18629,3.18629,0,0,1,80,288a3.42644,3.42644,0,0,1,2.75879,2.07031,5.99985,5.99985,0,0,0,10.48242,0c1.1792-2.11572,3.09815-2.668,4.60254-1.22314A5.99988,5.99988,0,0,0,108,284.52V280c0-5.252,2.01221-8,4-8s4,2.748,4,8v32c0,8.54932-2.49365,14.58838-4.71094,19.9585C109.59766,336.03125,108,339.87842,108,344c0,16.13232,15.395,112.53613,16.05029,116.63184a3.99993,3.99993,0,1,0,7.89942-1.26368c-.07465-.4663-3.56757-22.33667-7.26532-47.07519l17.79541,7.62695A72.16667,72.16667,0,0,0,140,440c0,12.94434,4.28174,21.50732,8.42236,29.78906C152.31934,477.58252,156,484.94434,156,496h8c0-12.94434-4.28174-21.50732-8.42236-29.78906C151.68066,458.41748,148,451.05566,148,440c0-22.34326,7.20264-29.5459,14.82861-37.17139,17.09735-17.0979,9.86585-42.3634.7735-60.56787,10.20545-4.90039,20.17127-8.77344,29.22455-12.28955l.26611-.10351c.08789-.03418.17078-.06678.25843-.10083a131.1976,131.1976,0,0,1,7.05847,15.02905A171.90852,171.90852,0,0,1,212,408v88h8V408a189.32082,189.32082,0,0,0-3.76318-37.9895,84.13337,84.13337,0,0,0,79.52636,0A189.32082,189.32082,0,0,0,292,408v88h8V408a171.90852,171.90852,0,0,1,11.59033-63.2041,133.55325,133.55325,0,0,1,6.135-13.3252c1.73352.621,20.97845,7.23176,30.3689,11.40894-8.94653,18.15491-15.82862,43.04272,1.07715,59.949C356.79736,410.4541,364,417.65674,364,440c0,11.05566-3.68066,18.41748-7.57764,26.21094C352.28174,474.49268,348,483.05566,348,496h8c0-11.05566,3.68066-18.41748,7.57764-26.21094C367.71826,461.50732,372,452.94434,372,440a72.1668,72.1668,0,0,0-2.47986-20.08008l34.05945-14.597c11.27649,22.23376,10.09473,48.07739,9.042,70.934,0,0-.62158,12.05566-.62158,19.74316h12c0-5.88379.263-11.3126.60889-19.19141,1.05761-22.96045,2.24511-48.75244-8.27295-72.60156l5.90967-2.53271A5.99831,5.99831,0,0,0,425.57031,398.06885Zm-268.39892-.89746c-4.11756,4.11755-8.51325,8.52246-11.8277,15.27185l-22.03729-9.445c-1.54816-10.53162-3.06177-21.15942-4.30664-30.53247a5.98172,5.98172,0,0,0,1.4602-1.03174,155.122,155.122,0,0,1,35.99469-25.579C167.95264,368.8833,168.19446,386.1488,157.17139,397.17139ZM196,314.08643l-25.231-10.08692L196,293.90991Zm183.99951-125.5625a12.907,12.907,0,0,1-8.15332,12.02929L356,206.89355V177.65674l1.85791-1.85742a12.96768,12.96768,0,0,1,22.13818,9.094Q379.999,186.70981,379.99951,188.52393ZM188.06543,50.73242C196.98535,36.28564,215.915,28,240,28c62.7959,0,102.87158,17.02734,122.51709,52.05469,14.0332,25.02191,16.80005,56.416,17.34644,88.36767a20.90907,20.90907,0,0,0-27.66285,1.71973l-3.02929,3.0293A4.00116,4.00116,0,0,0,348,176v36.71094c-.00146.06152-.00146.123,0,.18506V232c0,9.6709-6.02686,14-12,14-8.5-.20312-12.10417-7.20833-12-14,0-22.66931-.01428-74.99414-27.75928-102.1579.01465-.04217.033-.08246.04737-.12481,2.396-7.0503.355-14.731-5.45948-20.5459l-24-24a4.00026,4.00026,0,0,0-5.65722,5.65722l24,24c3.665,3.665,4.95605,8.15332,3.542,12.31446a10.16629,10.16629,0,0,1-8.09277,6.93457c-4.59766.60449-9.32373-2.34278-13.29249-8.29639-16.749-25.12354-41.5415-25.76465-72.856-25.78076C187.18341,85.9375,176.75,69,188.06543,50.73242ZM182.0517,93.04773l5.13171,10.26337a120.50071,120.50071,0,0,0-18.855,30.33868C165.047,111.29712,169.4,98.76624,182.0517,93.04773ZM172,216c-.09375-19.1875-1.18752-50.25-.67853-64,0-13.7926,14.40119-35.32153,22.39087-43.99963,30.37854.00738,52.4198.40875,66.95954,22.21838,5.12353,7.68555,12.64062,12.84375,20.9873,11.791a17.65159,17.65159,0,0,0,10.2345-5.18494C315.98486,162.022,316,210.71564,316,232c0,7.64722,2.82129,13.36273,6.95068,17.04938-4.87841,5.49713-9.95483,10.21673-14.89355,14.79486-7.0918,6.57458-13.81738,12.81958-18.32581,20.15576H219.43323a5.9859,5.9859,0,0,0-1.3595-2.19092,123.18746,123.18746,0,0,0-13.86621-11.55566C189.11084,258.84033,172,245.9043,172,216ZM280,316H204V292H308v24Zm19.812,8a51.98948,51.98948,0,0,1-87.62408,0Zm-1.44238,35.08618a75.96328,75.96328,0,0,1-84.73926,0,150.82,150.82,0,0,0-12.76391-32.31994,5.97631,5.97631,0,0,0,2.38836-2.16663A60.003,60.003,0,0,0,307.1073,327.439c.07935.03638,2.07678.85108,3.01941,1.21595A152.78761,152.78761,0,0,0,298.36963,359.08618ZM301.28711,284h-1.80652c3.74133-4.75732,8.61255-9.2804,14.0155-14.28906A208.6812,208.6812,0,0,0,330.05664,253.078,19.77477,19.77477,0,0,0,336,254c9.939,0,20-7.55664,20-22V215.51025l18.81738-7.52929a21.20226,21.20226,0,0,0,4.09644-2.18726C376.384,221.549,369.348,235.17841,357.562,247.15234a121.87815,121.87815,0,0,1-19.79834,15.94873c-.09082.06006-.17578.12378-.26587.18433-8.08178,5.31689-16.447,9.83582-23.83813,13.82544C309.21851,279.50781,305.02686,281.78,301.28711,284ZM316,314.09009V293.90991L341.23193,304Zm50.65625,98.353c-3.31445-6.74939-7.71008-11.15418-11.82764-15.27173-10.97314-10.97266-10.77929-28.13367.56494-51.0055,14.00416,6.63416,28.212,15.42395,40.76856,28.32044a121.082,121.082,0,0,1,15.00928,18.87878Z"/></g></svg>
