<?xml version="1.0" encoding="UTF-8"?>
<svg xmlns="http://www.w3.org/2000/svg" viewBox="0 0 512 512" width="512" height="512"><g id="Fill_out_line" data-name="Fill out line"><path d="M376,184c0,.25,0,.49-.01.74,0,1.82007-.02,3.6-.07007,5.35C372.98,302.90991,288,272.55005,288,304L168,128c-56,0-56-104,24-104H296c32,0,48,24,48,40,11.71,0,19.14,3.22,23.84009,12C376,91.22,376,123.14,376,184Z" style="fill:#795033"/><path d="M360,472.54V496H152V472.54c-55.7,1.21-73.08-53.86011-43.22-94.15v-.01A87.55754,87.55754,0,0,1,128,359.57007c44.02-31.79,78.16-36.3,90.74-45.93006,3.43-2.61,5.26-5.61,5.26-9.64,0-32-56-32-56-88V128c3.85-42.37,21.28-64,88-64,85.89,0,89.92993,49.11,88.73,111.27l2.3-2.3a16.97,16.97,0,0,1,28.97,12v3.54a16.96876,16.96876,0,0,1-10.66992,15.76l-21.32007,8.53c-.01,1.07-.01,2.12988-.01,3.2,0,56-56,56-56,88,0,4.03,1.83008,7.03,5.26,9.64,12.58008,9.63,46.72,14.14,90.74,45.93006A87.37276,87.37276,0,0,1,403.22,378.39C433.08008,418.67993,415.7,473.75,360,472.54Z" style="fill:#f5a971"/><path d="M341.33008,409.33,360,414.11V496H152V400l-43.22-21.61v-.01A87.55754,87.55754,0,0,1,128,359.57007C152.21,342.08,173.44,332.85,189.73,326.49c13.32-5.22,23.35-8.51,29.01-12.85L256,336l37.26-22.36c5.65991,4.34,15.68994,7.63,29.01,12.85,16.29,6.36,37.52,15.59,61.73,33.08008A87.37276,87.37276,0,0,1,403.22,378.39Z" style="fill:#03999c"/><path d="M352,472c-41.23-4.58008-66.72-24.9-96-41.42993C226.72,447.1,201.23,467.41992,160,472c-61.99,6.89-82.47-51.44995-51.22-93.61L137.22,392.61C142.29,383.77,152.23,376,168,376c8.65,0,27.25,2.91992,49.77,7.18994C225.71,380.55005,233.18,378.27,240,376c22.2-7.4,51.24-14.8,61.80005-3.21a10.96891,10.96891,0,0,1,10.04,9.28992c5.3999,1.94006,9.86987,6.11,9.75989,11.9,10.51,2.86,14.4,8.43994,14.4,14.02l5.33008,1.33L403.22,378.39C434.47,420.55005,413.99,478.89,352,472Z" style="fill:#f5a971"/><path d="M376,184c0,.25,0,.49-.01.74a16.96545,16.96545,0,0,0-28.96-11.77L344,176v4c0,16-24,16-24,0s0-36-8-52-32-16-72-16-56,0-72,16V76l84.30043-28L367.84009,76C376,91.22,376,123.14,376,184Z" style="fill:#795033"/><path d="M322.27,326.49,272,360l-16-16-16,16-50.27-33.51c13.32-5.22,23.35-8.51,29.01-12.85L256,336l37.26-22.36C298.91992,317.98,308.95,321.27,322.27,326.49Z" style="fill:#0c6c71"/><path d="M236,220h4a4,4,0,0,0,0-8h-4a8,8,0,0,1,0-16h4a4,4,0,0,0,0-8h-4a16,16,0,0,0,0,32Z"/><path d="M288,76c13.26611,0,20.35791,13.66211,20.42236,13.78906a4,4,0,1,0,7.15528-3.57812C315.20605,85.46777,306.26221,68,288,68a4,4,0,0,0,0,8Z"/><path d="M296,52c10.71289,0,18.21875,15.35352,20.20508,21.26514a4.00025,4.00025,0,1,0,7.58984-2.53028C323.43066,69.64355,314.66846,44,296,44a4,4,0,0,0,0,8Z"/><path d="M336,92c7.87793,0,12,10.061,12,20a4,4,0,0,0,8,0c0-19.23779-10.36719-28-20-28a4,4,0,0,0,0,8Z"/><circle cx="280" cy="184" r="8"/><circle cx="200" cy="184" r="8"/><path d="M215.03967,159.68018l-18.3717-6.11731a8.00011,8.00011,0,0,0-8.18878,1.93786l-5.66394,5.6731A4,4,0,0,0,185.64594,168h28.045a4.26924,4.26924,0,0,0,1.34875-8.31982Z"/><path d="M266.30908,168H294.354a4,4,0,0,0,2.83081-6.82617l-5.66406-5.6731a8,8,0,0,0-8.18872-1.93786l-18.3717,6.11731A4.26922,4.26922,0,0,0,266.30908,168Z"/><path d="M229.17139,239.17139a4.0006,4.0006,0,0,0,0,5.65722c4.75146,4.751,11.79,7.12647,18.82861,7.12647s14.07715-2.37549,18.82861-7.12647a4.00026,4.00026,0,1,0-5.65722-5.65722c-6.40039,6.40136-19.94239,6.40136-26.34278,0A4.00147,4.00147,0,0,0,229.17139,239.17139Z"/><path d="M388.68213,353.0752c-28.95215-20.90088-53.25195-30.16651-70.99658-36.93213C302.60791,310.39941,296,307.51514,296,304c0-4.8125,5.0625-6.75,18.248-11.38184C340.33643,283.73291,384,268.86182,384,184c0-46.99072,0-78.03467-4.14355-97.2417-4.104-19.022-12.80372-28.34766-28.69581-30.34228C347.20312,38.15381,329.12354,16,296,16H192c-22.22363,0-40.86182,7.43115-53.89893,21.49023a67.37054,67.37054,0,0,0-17.501,45.42969c0,13.854,4.22021,26.76221,11.88525,36.34912A43.38166,43.38166,0,0,0,160,135.36816V216c0,35.87549,21.36816,52.02979,36.97314,63.82764C208.77,288.73877,216,294.67383,216,304c0,3.51514-6.60791,6.39941-21.71338,12.15381-17.74414,6.76953-42.04492,16.04053-70.96875,36.93164-31.0918,22.44678-44.58642,59.44092-32.81592,89.96338C99.00537,465.10156,118.32422,478.46436,144,480.32568V496h12V476.35974C194.625,473,218.18748,457.625,241.313,443.896c4.90436-2.9668,9.76031-5.90223,14.67193-8.72327,4.97065,2.84973,9.91059,5.82825,14.704,8.72766C293.68018,457.80713,319,473.375,356,476.35913V496h12V480.31592c25.67432-1.86084,44.99219-15.21973,53.498-37.26709C433.26709,412.53027,419.773,375.53223,388.68213,353.0752ZM339.66748,404.794c-.92773-4.46436-4.19751-10.39966-14.356-13.88794-1.00439-4.95972-4.59485-9.18628-10.08618-11.745a14.677,14.677,0,0,0-7.31128-8.67566,16.21854,16.21854,0,0,0-4.19458-1.43738c-5.89526-5.51623-15.59448-7.39611-29.66394-5.63049.05359-.03223.11072-.05444.16321-.08936l48.53577-32.35693a259.55851,259.55851,0,0,1,58.90417,31.8418,84.54466,84.54466,0,0,1,15.33557,14.21753L340.86792,405.094ZM293.125,318.39c5.06836,3.16626,12.02124,5.81861,20.28418,8.96937l.217.08276L272.50977,354.853,260,342.34277V338.265ZM260,353.65686l9.17139,9.17175a3.98942,3.98942,0,0,0,1.76489,1.0271q-5.11212.79743-10.93628,2.17737Zm50.37793-72.39758c-2.24365.76318-4.459,1.52246-6.60608,2.31469,2.672-2.26855,5.65735-4.53491,8.84-6.94067C328.37793,264.71533,348,250.16667,348,215.51172l18.81592-7.52783a21.20865,21.20865,0,0,0,4.07007-2.1709C364.67688,262.75488,333.67432,273.32483,310.37793,281.25928ZM141.85645,111.773c-5.96924-7.46533-9.25635-17.7124-9.25635-28.853a55.24854,55.24854,0,0,1,14.29931-37.27C157.60693,34.10352,173.20264,28,192,28H296c28.31738,0,42.96289,20.55859,43.94482,34.45312a5.99949,5.99949,0,0,0,5.79981,5.57422c23.13794.71412,25.99292,15.05725,26.23559,100.48218a20.93458,20.93458,0,0,0-27.779,1.63208l-3.02978,3.02979A4.00116,4.00116,0,0,0,340,176v4c0,5.90479-4.30957,8-8,8s-8-2.09521-8-8c0-16.45947,0-36.94434-8.42236-53.78906C306.47217,108,281.45215,108,240,108c-39.79688,0-56.83038.00879-73.58887,15.97-.0523-.00366-.10309-.01221-.15576-.0144A31.68255,31.68255,0,0,1,141.85645,111.773Zm62.35107,158.48047C189.11084,258.84033,172,245.9043,172,216V129.9502c0-.08252-.00873-.16285-.012-.24463C186.4447,116.00586,201.48425,116,240,116c38.36865,0,61.52783,0,68.42236,13.78906C316,144.94434,316,164.38184,316,180c0,10.50391,8.04883,16,16,16s16-5.49609,16-16v-2.34326l1.8584-1.85791a12.96628,12.96628,0,0,1,22.13537,9.04834q-.009,2.55945-.07214,5.02075a12.898,12.898,0,0,1-8.07739,10.68823l-21.32031,8.52979a4.00028,4.00028,0,0,0-2.51416,3.67724c1.07356,32.73682-17.123,46.07471-32.22217,57.48877C295.55469,279.499,284,288.2334,284,304a14.37588,14.37588,0,0,0,2.80615,8.85132L256,331.33545l-30.80457-18.48316A14.38122,14.38122,0,0,0,228,304C228,288.22607,216.44238,279.49561,204.20752,270.25342Zm14.66956,48.13794L252,338.265v4.07776L239.49023,354.853l-41.1203-27.41358.216-.08252C206.85211,324.20813,213.80762,321.55762,218.87708,318.39136ZM130.34326,362.814a259.59489,259.59489,0,0,1,58.90015-31.84436l48.53784,32.35852a4.00027,4.00027,0,0,0,5.04736-.49951L252,353.65686v14.45923c-8.20833,2.25891-25.63344,8.08026-34.4939,10.9552C192.3006,374.31677,176.0885,372,168,372c-13.67218,0-25.19977,5.63672-32.21484,15.42065l-20.77808-10.3894A84.55445,84.55445,0,0,1,130.34326,362.814Zm49.23438,43.397a4.00025,4.00025,0,0,0-5.3667-1.78858c-8.97748,4.48889-13.84613,11.43128-15.1175,17.72608-.59265.01587-1.1206-.1023-1.32537-.51221-1.10157-2.21045.9165-10.61865,12.45068-18.30811a3.9999,3.9999,0,0,0-4.4375-6.65624c-10.45935,6.973-15.50739,15.395-16.1756,22.04321a6.10609,6.10609,0,0,1-1.26629-2.3147c-1.43946-4.75439,1.45068-12.78662,13.87939-21.07227a3.9999,3.9999,0,0,0-4.4375-6.65624c-4.56323,3.042-18.05878,13.1206-17.8139,25.48608a10.7743,10.7743,0,0,1-1.13874-.98657c-2.06933-2.06934-2.563-8.50342.24805-15.28955C141.30371,392.50537,148.58008,380,168,380c5.97485,0,17.50116,1.49292,34.30664,4.43323-3.90771,1.48034-7.88538,3.06994-11.93018,4.83386A3.99918,3.99918,0,0,0,187.979,392.771c-.09619,2.36621-.87646,14.46972-6.80761,20.40039a48.49338,48.49338,0,0,0-7.13135,9.44726C171.30176,427.04932,170.48047,428,168,428c-.32764,0-.82275,0-1.12012-1.25781-.85107-3.60645,1.97071-10.69531,10.90918-15.16455A4.00038,4.00038,0,0,0,179.57764,406.21094Zm57.59472,30.83984c-23.2749,14.07959-45.2583,27.37842-77.61425,30.97363a73.931,73.931,0,0,1-22.76563-.75048c-16.79327-3.40747-29.26129-13.41578-35.09424-28.54248-6.78473-17.594-3.23822-37.94886,8.4151-55.20276l21.76081,10.88073c-4.18667,9.59058-3.53724,19.58472,1.29724,24.41919a14.73755,14.73755,0,0,0,10.03235,4.71534,11.192,11.192,0,0,0,9.53753,4.41406,9.419,9.419,0,0,0,6.83557,2.17236A8.79067,8.79067,0,0,0,168,436c7.17432,0,10.05713-4.66455,12.84521-9.17578a41.15172,41.15172,0,0,1,5.9834-7.99561c6.6128-6.61328,8.46-17.51172,8.97364-23.186,18.7394-7.13166,71.82275-28.26758,93.35144-24.551-.95179.39234-1.92542.82227-2.94275,1.33081a4,4,0,0,0,3.57812,7.15528c5.03662-2.51807,9.46656-3.39038,12.75025-2.5813a15.67787,15.67787,0,0,0-9.36792,4.175,4.00026,4.00026,0,0,0,5.65722,5.65722c2.34619-2.34668,7.84278-2.63232,12.51221-.65234a13.43385,13.43385,0,0,1,3.90234,2.48828A88.277,88.277,0,0,0,304,388a4,4,0,0,0,0,8c18.05859,0,24.53589,4.43652,26.81006,8.08813C289.60706,405.34583,262.96375,421.449,237.17236,437.05078Zm37.65723.00488c-3.49817-2.11584-7.07776-4.27441-10.69922-6.40466,19.819-10.5636,41.43579-18.56189,71.39966-18.64563l31.49976,7.875a3.99982,3.99982,0,1,0,1.94042-7.76074l-16.17651-4.04419,49.094-24.54736c11.65234,17.25415,15.199,37.61023,8.415,55.20532-8.26855,21.44824-29.89648,32.40039-57.86132,29.291C320.0874,464.43018,298.104,451.1333,274.82959,437.05566Z"/><path d="M315.95142,95.93262a3.9995,3.9995,0,0,0,3.93237,4.06543C331.65625,99.99805,332,110.375,332,120v.00269a4,4,0,0,0,8,.00878V120c0-3.10417,1.8125-28-20-28A3.98512,3.98512,0,0,0,315.95142,95.93262Z"/></g></svg>
