<?xml version="1.0" encoding="UTF-8"?>
<svg xmlns="http://www.w3.org/2000/svg" viewBox="0 0 512 512" width="512" height="512"><g id="Fill_out_line" data-name="Fill out line"><path d="M336,64c32-24,88-16,104,32s-16,96-64,96Z" style="fill:#f57a08"/><path d="M336,64c40-16,68,24,68,64,0,48-12,80-36,80Z" style="fill:#084c4f"/><path d="M192,248c-56-40-48-64-48-136s80-88,112-88S384,56,384,128v64c0,72-96,88-96,112Z" style="fill:#f57a08"/><path d="M440,496H72c0-154.10986,106.62988-156.7002,141.27-176.97021C219.99,315.1001,224,310.5,224,304c0-32-56-32-56-88,0-80-16-152,96-152s88,80,88,112l3.03-3.03a16.97,16.97,0,0,1,28.97,12v3.54a16.96876,16.96876,0,0,1-10.66992,15.76l-26.55,10.62012C331.51,265.23,288,271.02,288,304c0,6.5,4.01,11.1001,10.73,15.02979C333.37012,339.2998,440,341.89014,440,496Z" style="fill:#f5a971"/><path d="M440,496H72c0-115.00977,59.39014-145.62988,103.92993-162.2002C183.74,330.8999,191.1001,328.41992,197.6001,326c.81982-.2998,1.61987-.60986,2.40991-.91016a90.92149,90.92149,0,0,0,13.26-6.06L256,376l42.73-56.97021a90.92149,90.92149,0,0,0,13.26,6.06c.79.3003,1.59009.61036,2.40991.91016,6.5,2.41992,13.86011,4.8999,21.67017,7.7998C380.60986,350.37012,440,380.99023,440,496Z" style="fill:#b1cdb4"/><path d="M224,432h64a0,0,0,0,1,0,0v32a16,16,0,0,1-16,16H240a16,16,0,0,1-16-16V432A0,0,0,0,1,224,432Z" style="fill:#0c6c71"/><path d="M328,360l-24-8-48,32-48-32-24,8,13.6001-34A101.99627,101.99627,0,0,0,213.27,319.02979L256,376l42.73-56.97021A101.99627,101.99627,0,0,0,314.3999,326Z" style="fill:#e7f2da"/><path d="M232,64c0,48-40,88-72,88V65.75Z" style="fill:#f57a08"/><path d="M352,176c-40,0-88-72-88-112l52.38766-3.61234L362.33,98Z" style="fill:#f57a08"/><path d="M384,176v8.97a16.97056,16.97056,0,0,0-28.97-12L352,176C304,48,196.45,80.17993,144,88c-5.14014.76-10.16992.16992-10.16992-15.83008S138.81006,52,152,49.41992C208.25,41.37988,344,32,384,176Z" style="fill:#03999c"/><path d="M216,56s-8-24-48-24c0,40,40,40,40,40h4.875Z" style="fill:#03999c"/><path d="M248,56s16-24,48-16c-8,40-48,32-48,32Z" style="fill:#03999c"/><path d="M248,49.31006V80.78A180.70378,180.70378,0,0,0,209.51,78.95L215.03,45.79A246.04551,246.04551,0,0,1,248,49.31006Z" style="fill:#03999c"/><path d="M240,220a4,4,0,0,0,0-8h-4a8,8,0,0,1,0-16h4a4,4,0,0,0,0-8h-4a16,16,0,0,0,0,32Z"/><path d="M215.03955,159.68018,196.668,153.563a7.99946,7.99946,0,0,0-8.18872,1.93774l-5.66406,5.6731A4,4,0,0,0,185.646,168h28.04492a4.26919,4.26919,0,0,0,1.34863-8.31982Z"/><path d="M266.30908,168H294.354a4,4,0,0,0,2.83081-6.82617l-5.66406-5.6731A7.99946,7.99946,0,0,0,283.332,153.563l-18.37158,6.11719A4.26919,4.26919,0,0,0,266.30908,168Z"/><path d="M288,428H224a4.0002,4.0002,0,0,0-4,4v32a20.02229,20.02229,0,0,0,20,20h32a20.02229,20.02229,0,0,0,20-20V432A4.0002,4.0002,0,0,0,288,428Zm-16,48H240a12.01312,12.01312,0,0,1-12-12V436h56v8H264a4,4,0,0,0,0,8h20v12A12.01312,12.01312,0,0,1,272,476Z"/><path d="M248,444h-8a4,4,0,0,0,0,8h8a4,4,0,0,0,0-8Z"/><path d="M261.19336,229.15039C260.90527,229.42969,253.96484,236,240,236a4,4,0,0,0,0,8c17.45605,0,26.4541-8.79688,26.82812-9.17188a3.99972,3.99972,0,0,0-5.63476-5.67773Z"/><path d="M200,176a7.99941,7.99941,0,0,0-7.59473,5.49658c-.56982-.17529-1.12793-.3623-1.65771-.57739a8.6497,8.6497,0,0,1-3.238-2.126A4.0052,4.0052,0,0,1,186.58325,176l.00025-.02222-.00025-.02221a2.58335,2.58335,0,1,0-5.1665.04443,8.8878,8.8878,0,0,0,.69433,3.36523,8.171,8.171,0,0,0,2.022,2.82178,11.82521,11.82521,0,0,0,5.39575,2.64868,19.49262,19.49262,0,0,0,2.58105.4314A7.99592,7.99592,0,1,0,200,176Z"/><path d="M288,184a7.998,7.998,0,0,0-15.59473-2.50342c-.56982-.17529-1.12793-.3623-1.65771-.57739a8.6497,8.6497,0,0,1-3.238-2.126A4.0052,4.0052,0,0,1,266.58325,176l.00025-.02222-.00025-.02221a2.58335,2.58335,0,1,0-5.1665.04443,8.8878,8.8878,0,0,0,.69433,3.36523,8.171,8.171,0,0,0,2.022,2.82178,11.82521,11.82521,0,0,0,5.39575,2.64868,19.49262,19.49262,0,0,0,2.58105.4314A7.99521,7.99521,0,0,0,288,184Z"/><path d="M71.75488,496H76c0-107.71289,52.43555-139.395,95.686-156.30078-1.75831,31.91211-10.67481,46.87988-18.59815,60.168C146.35742,411.1543,140,421.81641,140,440c0,12.94434,4.28125,21.50781,8.42188,29.78906C152.31934,477.583,156,484.94434,156,496h8c0-12.94434-4.28125-21.50781-8.42188-29.78906C151.68066,458.417,148,451.05566,148,440c0-15.97949,5.27734-24.83008,11.959-36.03516,8.26221-13.85644,18.49024-31.02978,19.87647-67.33691,3.13647-1.145,10.21728-3.65186,10.74048-3.8374l-10.2898,25.72412a4,4,0,0,0,4.97852,5.28027l11.67627-3.89209c1.65014,26.59717,5.76074,40.56494,14.24853,49.063C220.45508,418.24121,234.08594,420,256,420s35.54492-1.75879,44.81055-11.03418c8.48779-8.49805,12.59839-22.46582,14.24853-49.063l11.67627,3.89209a4,4,0,0,0,4.97852-5.28027l-10.2898-25.72412c.5232.18554,7.604,2.69238,10.74048,3.8374,1.38623,36.30713,11.61426,53.48047,19.87647,67.33691C358.72266,415.16992,364,424.02051,364,440c0,11.05566-3.68066,18.417-7.57812,26.21094C352.28125,474.49219,348,483.05566,348,496h8c0-11.05566,3.68066-18.417,7.57812-26.21094C367.71875,461.50781,372,452.94434,372,440c0-18.18359-6.35742-28.8457-13.08789-40.13281-7.92334-13.28809-16.83984-28.25586-18.59815-60.168C383.56445,356.605,436,388.28711,436,496h11.99c-.00122-57.49854-14.14429-100.00732-43.22925-129.88379C380.16211,340.84766,350.6875,330.417,327.001,322.03516,309.68066,315.90527,296,311.06348,296,304c0-.22656.17188-2.35059,6.12988-7.02832,4.86231-3.81738,11.80469-7.98047,19.1543-12.3877,26.332-15.791,62.22656-37.31347,69.43457-77.8623a46.66428,46.66428,0,0,0,7.877-10.11816,74.08051,74.08051,0,0,0,38.43555-27.82227c15.26953-21.18457,19.21582-49.33887,10.55859-75.31152-7.73437-23.20118-24.56347-39.9043-47.38769-47.03418a79.21165,79.21165,0,0,0-53.791,2.48535c-3.2998-2.35547-6.73828-4.62207-10.25976-6.75977a198.95306,198.95306,0,0,0-44.31446-19.6875C278.37109,18.35938,265.30859,16,256,16c-14.89258,0-38.251,3.30371-60.10156,12.48242A83.0198,83.0198,0,0,0,166,24a6.00029,6.00029,0,0,0-6,6,65.08671,65.08671,0,0,0,.542,10.24219c-3.28906.38769-8.38574.97656-10.07715,1.32812C135.25781,44.543,125.833,50.69824,125.833,72.167c0,10.50684,1.97558,16.89649,6.40234,20.71582a13.31416,13.31416,0,0,0,5.13184,2.76172A96.11674,96.11674,0,0,0,136,112c0,8.50684-.11035,16.20312-.21777,23.69043-.39942,27.71875-.6875,47.74707,5.77929,65.97754,4.02442,11.3457,10.4795,21.37891,20.25586,31.45312,5.46094,24.25586,21.89356,36.67579,35.16211,46.70606C208.77246,288.74121,216,294.67871,216,304c0,7.06348-13.68066,11.90527-31.00391,18.03613-23.68359,8.38086-53.1582,18.81153-77.75683,44.08008C78.1543,395.99268,64.01123,438.50146,64.01,496ZM256,412c-36.24023,0-48.28516-2.5376-51.199-54.71729l2.60815-.86962,46.37207,30.915a3.99943,3.99943,0,0,0,4.4375,0l46.37207-30.915,2.60815.86962C304.28516,409.4624,292.24023,412,256,412Zm43.87451-87.83154a120.00378,120.00378,0,0,0,11.46558,4.95215l9.74292,24.35693-15.81836-5.27246a4.00311,4.00311,0,0,0-3.4834.4668L261.2124,375.71777ZM315.1123,274.293c-5.76123,3.45508-11.11645,6.66894-15.70849,9.82471,3.75561-4.811,8.65967-9.3711,14.09228-14.40772,12.61329-11.69238,28.23926-26.17578,36.53125-51.80957l24.791-9.91894a21.2055,21.2055,0,0,0,3.7749-1.98316C371.5791,240.40454,339.38184,259.73877,315.1123,274.293ZM396.624,57.89062c19.043,5.94825,33.10059,19.93165,39.58106,39.374,7.4414,22.32324,4.11133,46.43555-8.9082,64.501a62.43879,62.43879,0,0,1-26.87842,21.43262C404.84912,170.93652,408,153.32593,408,128c0-23.61719-9.2373-46.48828-24.10645-59.68652A45.83681,45.83681,0,0,0,360.334,56.90259,67.33314,67.33314,0,0,1,396.624,57.89062ZM378.583,74.2959C391.794,86.02246,400,106.60059,400,128c0,28.43506-4.20337,50.18945-12,63.01245V128c0-17.46973-5.57764-40.89819-28.53662-63.11279A38.10838,38.10838,0,0,1,378.583,74.2959ZM299.23828,37.67749A183.52734,183.52734,0,0,1,329.92383,52.419C352.76855,66.28906,380,90.66016,380,128v23.44629c-17.4375-44.04077-46.62646-75.22461-87.04468-92.92041a49.7101,49.7101,0,0,0,6.96656-17.7417A3.97382,3.97382,0,0,0,299.23828,37.67749ZM376.939,166.49463a20.92693,20.92693,0,0,0-23.404,2.438c-10.17334-25.19068-23.4353-45.5398-39.47925-60.53516a121.045,121.045,0,0,0-52.79785-28.89941c-3.07666-.80054-6.16528-1.4773-9.25781-2.05933v-.93188c1.19824.08618,2.58008.14746,4.11035.14746a53.42413,53.42413,0,0,0,13.94238-1.79492,40.01908,40.01908,0,0,0,17.61622-9.8855C330.74658,83.15039,360.73779,117.25586,376.939,166.49463ZM339.1665,156.41675q3.55078,7.12645,6.729,14.968c-27.19605-5.29346-58.88355-44.0608-71.94947-79.311a111.6564,111.6564,0,0,1,16.72876,8.41284,165.16029,165.16029,0,0,0,15.19239,25.00366C316.30225,139.60791,328.64233,151.042,339.1665,156.41675Zm-32.75415-44.26a132.38823,132.38823,0,0,1,23.6919,28.16577,126.28562,126.28562,0,0,1-17.80347-19.58813C310.26465,117.97949,308.29517,115.10425,306.41235,112.15674ZM275.96777,51.48926a4.00446,4.00446,0,0,0-4.47851-3.457,45.14416,45.14416,0,0,0-16.67285,6.16308c5.53637-5.49756,17.66162-14.32934,36.34082-11.13086C283.9082,68.87769,260.62256,69.28271,252,68.501V65.85889c3.15845-2.54981,11.62085-8.74829,20.51074-9.89112A4.0018,4.0018,0,0,0,275.96777,51.48926ZM256,28c8.68457,0,21.64233,2.41821,35.79956,7.06567a48.2497,48.2497,0,0,0-39.77,10.9292,253.20164,253.20164,0,0,0-41.6206-4.35473,43.9247,43.9247,0,0,0-5.20777-4.04859A153.14547,153.14547,0,0,1,256,28ZM224,63c11.42554,0,17.63037,3.14795,20,4.70264v8.44677A184.614,184.614,0,0,0,214.26025,74.771l4.12989-24.80713A244.734,244.734,0,0,1,244,52.69531v5.94287C239.70044,56.7644,233.209,55,224,55a4,4,0,0,0,0,8ZM205.73706,48.21631a33.46051,33.46051,0,0,1,4.05078,4.70752l-.27588,1.65722c-4.59985-3.65283-11.62182-8.30761-19.64868-10.44628a4.00018,4.00018,0,1,0-2.06055,7.73046c9.12305,2.43091,17.06153,9.06348,20.1753,11.92945l-.69727,4.18872c-4.96142-.18457-32.75561-2.53223-35.1206-31.8916C189.73779,36.88379,199.93555,42.65869,205.73706,48.21631ZM140.07715,83.79883c-.52637-.4541-2.24414-2.63477-2.24414-11.63184,0-13.77344,3.34472-16.542,14.835-18.7998,5.22461-.74634,10.17163-1.36011,15.03906-1.877,7.64624,17.54151,25.227,22.53248,34.43311,23.948-15.88208,1.25806-30.75537,3.846-43.479,6.06372-5.45019.9502-10.59863,1.84766-15.24707,2.541C141.125,84.38281,140.45605,84.126,140.07715,83.79883Zm12.79394,113.85742c-5.74609-16.2002-5.4707-35.32422-5.08984-61.83789C147.88867,128.333,148,120.59277,148,112a81.468,81.468,0,0,1,2.63965-21.00684q4.51758-.75036,9.39648-1.61035c8.2627-1.44092,17.459-3.042,27.23316-4.31909a59.16815,59.16815,0,0,1-9.37281,14.59644C169.75781,108.96191,161.81934,112,160,112a4,4,0,0,0,0,8c5.332,0,15.25977-5.17676,23.918-15.07227a66.8529,66.8529,0,0,0,12.4126-20.92309q4.28869-.43945,8.68359-.75171a74.03572,74.03572,0,0,1-15.07666,26.94336C180.62012,120.84473,168.58887,128,160,128a4,4,0,0,0,0,8c11.09668,0,24.875-7.86914,35.959-20.53613a81.84885,81.84885,0,0,0,17.5066-32.65869c4.08276-.13965,8.20776-.16553,12.35571-.05225a94.13638,94.13638,0,0,1-20.832,40.61328C191.49316,138.791,174.67383,148,160,148a4,4,0,0,0,0,8q1.63549,0,3.29614-.12793c-.22436,10.64771.02954,21.72974.29663,33.375C163.793,197.957,164,206.96387,164,216c0,.50757.01855.99707.02734,1.49634A68.33274,68.33274,0,0,1,152.87109,197.65625Zm51.3418,72.5957C189.11328,258.83789,172,245.90137,172,216c0-9.12891-.208-18.18164-.40918-26.93652-.27734-12.09522-.53491-23.571-.25708-34.491,13.74243-3.36694,27.95483-12.54248,39.677-25.93872a102.15507,102.15507,0,0,0,22.92139-45.46948c8.45654.62573,20.81787,2.39819,30.41675,5.53442,6.34424,20.13281,19.02881,42.27417,34.26147,59.65869C316.48828,168.7627,335.44922,180,352,180a4.00049,4.00049,0,0,0,2.82812-1.17188l3.0293-3.02929A12.971,12.971,0,0,1,380,184.9707v3.54a12.90866,12.90866,0,0,1-8.1543,12.043l-26.55371,10.624a4.00222,4.00222,0,0,0-2.34179,2.55274c-7.49708,24.7168-22.05176,38.209-34.89258,50.1123C295.14844,275.81055,284,286.14551,284,304c0,6.86621,3.36084,11.88623,8.98633,16.01758L256,369.333l-36.98633-49.31543C224.63916,315.88623,228,310.86621,228,304,228,288.2334,216.44531,279.499,204.21289,270.252Zm-3.553,58.86866a120.03581,120.03581,0,0,0,11.46582-4.95215l38.66187,51.54931-40.56885-27.04589a4.00225,4.00225,0,0,0-3.4834-.4668L190.917,353.47754Z"/></g></svg>
